<svg width="23" height="23" viewBox="0 0 23 23" fill="none" xmlns="http://www.w3.org/2000/svg">
<path d="M6.48061 13.8909C6.99199 13.8909 7.40654 13.4764 7.40654 12.965C7.40654 12.4536 6.99199 12.0391 6.48061 12.0391C5.96924 12.0391 5.55469 12.4536 5.55469 12.965C5.55469 13.4764 5.96924 13.8909 6.48061 13.8909Z" fill="#00BDFF" stroke="#00BDFF" stroke-width="1.12061" stroke-linecap="round" stroke-linejoin="round"/>
<path d="M1.85156 8.33261V5.07715C1.85156 4.82959 2.05225 4.62891 2.2998 4.62891H19.9218C20.1694 4.62891 20.3701 4.82959 20.3701 5.07715V8.33261M1.85156 8.33261V17.1436C1.85156 17.3912 2.05225 17.5919 2.2998 17.5919H19.9218C20.1694 17.5919 20.3701 17.3912 20.3701 17.1436V8.33261M1.85156 8.33261H20.3701" stroke="#022466" stroke-width="1.12061" stroke-linecap="round" stroke-linejoin="round"/>
</svg>
