<svg width="35" height="35" viewBox="0 0 35 35" fill="none" xmlns="http://www.w3.org/2000/svg">
<path d="M17.5001 33.3299C18.1125 33.3158 18.7002 33.0856 19.1593 32.6799C19.6183 32.2743 19.9191 31.7193 20.0084 31.1133H14.8945C14.9864 31.7358 15.3012 32.3038 15.7805 32.7115C16.2598 33.1193 16.8709 33.339 17.5001 33.3299Z" fill="#312783"/>
<path d="M31.6065 27.0578C30.669 26.222 29.8482 25.2639 29.1662 24.2092C28.4217 22.7533 27.9755 21.1635 27.8537 19.5328V14.73C27.8498 14.1467 27.7978 13.5646 27.6982 12.9898C26.9329 12.8368 26.1975 12.561 25.5204 12.1731C25.7785 13.0042 25.9096 13.8695 25.9093 14.7398V19.5425C26.0285 21.5317 26.5756 23.4717 27.5135 25.23C28.1847 26.2937 28.9811 27.2729 29.8857 28.1467H4.98707C5.89163 27.2729 6.68806 26.2937 7.35929 25.23C8.29711 23.4717 8.84429 21.5317 8.96345 19.5425V14.73C8.95834 13.6049 9.17521 12.4897 9.60166 11.4485C10.0281 10.4073 10.6558 9.46039 11.4487 8.66207C12.2416 7.86374 13.1842 7.22966 14.2225 6.79613C15.2608 6.3626 16.3744 6.13814 17.4996 6.13559C19.1463 6.13691 20.756 6.62389 22.1273 7.53559C21.9762 6.98044 21.8913 6.40933 21.8746 5.8342V5.2217C20.8594 4.72233 19.7689 4.39384 18.6468 4.24948V3.02448C18.6468 2.68025 18.51 2.35012 18.2666 2.10671C18.0232 1.86331 17.6931 1.72656 17.3489 1.72656C17.0046 1.72656 16.6745 1.86331 16.4311 2.10671C16.1877 2.35012 16.051 2.68025 16.051 3.02448V4.29809C13.5385 4.65252 11.239 5.90395 9.57714 7.82136C7.91527 9.73876 7.00319 12.1927 7.00929 14.73V19.5328C6.88752 21.1635 6.44129 22.7533 5.69679 24.2092C5.02681 25.2615 4.2192 26.2195 3.2954 27.0578C3.19169 27.1489 3.10858 27.2611 3.05158 27.3868C2.99459 27.5125 2.96502 27.6489 2.96484 27.787V29.1092C2.96484 29.3671 3.06727 29.6143 3.2496 29.7967C3.43193 29.979 3.67922 30.0814 3.93707 30.0814H30.9648C31.2227 30.0814 31.47 29.979 31.6523 29.7967C31.8346 29.6143 31.9371 29.3671 31.9371 29.1092V27.787C31.9369 27.6489 31.9073 27.5125 31.8503 27.3868C31.7933 27.2611 31.7102 27.1489 31.6065 27.0578Z" fill="#312783"/>
<path d="M29.1658 10.6949C31.8505 10.6949 34.0269 8.51849 34.0269 5.83377C34.0269 3.14905 31.8505 0.972656 29.1658 0.972656C26.4811 0.972656 24.3047 3.14905 24.3047 5.83377C24.3047 8.51849 26.4811 10.6949 29.1658 10.6949Z" fill="#CE2E81"/>
</svg>
