<svg width="166" height="168" viewBox="0 0 166 168" fill="none" xmlns="http://www.w3.org/2000/svg">
<path d="M82.7268 83.1281C82.7813 83.4954 82.8086 83.8663 82.8086 84.2376L82.8086 158.352C82.8086 162.528 79.4117 165.952 75.2534 165.56C34.1056 161.688 1.88985 126.508 1.88985 83.6798C1.88986 45.5922 27.5462 12.8641 63.3016 3.86717C67.3656 2.84456 71.2483 5.73506 71.8631 9.88042L82.7268 83.1281Z" fill="#F235FF" stroke="#FAFAFA" stroke-width="3.78125" stroke-linejoin="round"/>
<path d="M88.8276 84.4336C85.3066 84.166 82.4395 81.4973 81.9204 78.0045L71.8545 10.2697C71.2424 6.15057 74.0809 2.27274 78.2381 2.02931C119.507 -0.38715 156.54 29.4669 162.823 71.7439C163.354 75.3203 163.652 78.9257 163.714 82.5365C163.786 86.7188 160.114 89.852 155.944 89.535L88.8276 84.4336Z" fill="#033B68" stroke="#FAFAFA" stroke-width="3.78125" stroke-linejoin="round"/>
<path d="M94.1232 93.0823C90.6622 90.2829 92.882 84.6926 97.3207 85.0299L158.981 89.7166C161.476 89.9063 163.36 92.0825 163.04 94.5642C161.329 107.837 156.443 120.485 148.809 131.403C147.359 133.477 144.459 133.796 142.491 132.204L94.1232 93.0823Z" fill="#3ECE80" stroke="#FAFAFA" stroke-width="3.78125" stroke-linejoin="round"/>
<path d="M82.8094 99.6853C82.8094 93.3252 90.1828 89.8057 95.1278 93.8054L140.275 130.322C143.491 132.923 144.045 137.654 141.203 140.659C127.756 154.878 109.699 163.719 90.3614 165.556C86.2035 165.951 82.8094 162.528 82.8094 158.352L82.8094 99.6853Z" fill="#E4EDFF" stroke="#FAFAFA" stroke-width="3.78125" stroke-linejoin="round"/>
<path d="M33.5203 91.9813C33.1026 91.9813 32.764 92.3198 32.764 92.7375C32.764 93.1552 33.1026 93.4938 33.5203 93.4938V92.7375V91.9813ZM51.1737 93.4938C51.5913 93.4938 51.9299 93.1552 51.9299 92.7375C51.9299 92.3198 51.5913 91.9813 51.1737 91.9813V92.7375V93.4938ZM48.9877 86.9058C48.9877 86.4882 48.6491 86.1496 48.2314 86.1496C47.8138 86.1496 47.4752 86.4882 47.4752 86.9058H48.2314H48.9877ZM37.2188 86.9058C37.2188 86.4882 36.8802 86.1496 36.4625 86.1496C36.0448 86.1496 35.7063 86.4882 35.7063 86.9058H36.4625H37.2188ZM50.6861 77.5961L49.9819 77.8717V77.8717L50.6861 77.5961ZM51.7335 80.2722L51.0293 80.5478V80.5478L51.7335 80.2722ZM34.0078 77.5961L33.3036 77.3204V77.3204L34.0078 77.5961ZM32.9604 80.2722L32.2562 79.9966H32.2562L32.9604 80.2722ZM37.2188 81.3475C37.2188 80.9299 36.8802 80.5913 36.4625 80.5913C36.0448 80.5913 35.7063 80.9299 35.7063 81.3475H36.4625H37.2188ZM32.8577 82.4424L33.4949 82.0351L32.8577 82.4424ZM41.1417 81.3475C41.1417 80.9299 40.8031 80.5913 40.3855 80.5913C39.9678 80.5913 39.6292 80.9299 39.6292 81.3475H40.3855H41.1417ZM45.0647 81.3475C45.0647 80.9299 44.7261 80.5913 44.3085 80.5913C43.8908 80.5913 43.5522 80.9299 43.5522 81.3475H44.3085H45.0647ZM48.9877 81.3475C48.9877 80.9299 48.6491 80.5913 48.2314 80.5913C47.8138 80.5913 47.4752 80.9299 47.4752 81.3475H48.2314H48.9877ZM51.8363 82.4424L52.4735 82.8497L51.8363 82.4424ZM33.5203 92.7375V93.4938H36.4625V92.7375V91.9813H33.5203V92.7375ZM36.4625 92.7375V93.4938H48.2314V92.7375V91.9813H36.4625V92.7375ZM48.2314 92.7375V93.4938H51.1737V92.7375V91.9813H48.2314V92.7375ZM48.2314 92.7375H48.9877V86.9058H48.2314H47.4752V92.7375H48.2314ZM36.4625 92.7375H37.2188V86.9058H36.4625H35.7063V92.7375H36.4625ZM35.829 76.3359V77.0922H48.8649V76.3359V75.5797H35.829V76.3359ZM50.6861 77.5961L49.9819 77.8717L51.0293 80.5478L51.7335 80.2722L52.4378 79.9966L51.3904 77.3204L50.6861 77.5961ZM34.0078 77.5961L33.3036 77.3204L32.2562 79.9966L32.9604 80.2722L33.6646 80.5478L34.712 77.8717L34.0078 77.5961ZM48.8649 76.3359V77.0922C49.3479 77.0922 49.7946 77.3932 49.9819 77.8717L50.6861 77.5961L51.3904 77.3204C50.9819 76.2768 49.9861 75.5797 48.8649 75.5797V76.3359ZM35.829 76.3359V75.5797C34.7079 75.5797 33.712 76.2768 33.3036 77.3204L34.0078 77.5961L34.712 77.8717C34.8993 77.3932 35.346 77.0922 35.829 77.0922V76.3359ZM36.4625 81.3475H35.7063C35.7063 82.0526 35.1512 82.5959 34.501 82.5959V83.3522V84.1084C36.0174 84.1084 37.2188 82.8567 37.2188 81.3475H36.4625ZM34.501 83.3522V82.5959C34.0866 82.5959 33.7146 82.3789 33.4949 82.0351L32.8577 82.4424L32.2205 82.8497C32.701 83.6015 33.5395 84.1084 34.501 84.1084V83.3522ZM40.3855 81.3475H39.6292C39.6292 82.0526 39.0742 82.5959 38.424 82.5959V83.3522V84.1084C39.9404 84.1084 41.1417 82.8567 41.1417 81.3475H40.3855ZM38.424 83.3522V82.5959C37.7738 82.5959 37.2188 82.0526 37.2188 81.3475H36.4625H35.7063C35.7063 82.8567 36.9076 84.1084 38.424 84.1084V83.3522ZM44.3085 81.3475H43.5522C43.5522 82.0526 42.9972 82.5959 42.347 82.5959V83.3522V84.1084C43.8634 84.1084 45.0647 82.8567 45.0647 81.3475H44.3085ZM42.347 83.3522V82.5959C41.6968 82.5959 41.1417 82.0526 41.1417 81.3475H40.3855H39.6292C39.6292 82.8567 40.8306 84.1084 42.347 84.1084V83.3522ZM48.2314 81.3475H47.4752C47.4752 82.0526 46.9202 82.5959 46.2699 82.5959V83.3522V84.1084C47.7863 84.1084 48.9877 82.8567 48.9877 81.3475H48.2314ZM46.2699 83.3522V82.5959C45.6197 82.5959 45.0647 82.0526 45.0647 81.3475H44.3085H43.5522C43.5522 82.8567 44.7536 84.1084 46.2699 84.1084V83.3522ZM51.8363 82.4424L51.1991 82.0351C50.9793 82.3789 50.6073 82.5959 50.1929 82.5959V83.3522V84.1084C51.1545 84.1084 51.993 83.6015 52.4735 82.8497L51.8363 82.4424ZM50.1929 83.3522V82.5959C49.5427 82.5959 48.9877 82.0526 48.9877 81.3475H48.2314H47.4752C47.4752 82.8567 48.6765 84.1084 50.1929 84.1084V83.3522ZM32.9604 80.2722L32.2562 79.9966C32.1113 80.3668 31.9532 80.824 31.8997 81.2988C31.8452 81.7826 31.8935 82.3382 32.2205 82.8497L32.8577 82.4424L33.4949 82.0351C33.4124 81.9061 33.373 81.7317 33.4027 81.4682C33.4334 81.1956 33.5315 80.8879 33.6646 80.5478L32.9604 80.2722ZM51.7335 80.2722L51.0293 80.5478C51.1624 80.8879 51.2605 81.1956 51.2912 81.4682C51.3209 81.7317 51.2816 81.9061 51.1991 82.0351L51.8363 82.4424L52.4735 82.8497C52.8004 82.3382 52.8487 81.7826 52.7942 81.2988C52.7407 80.824 52.5827 80.3668 52.4378 79.9966L51.7335 80.2722Z" fill="white"/>
<path d="M108.462 57.0378L108.755 56.3405H108.755L108.462 57.0378ZM105.834 54.3749L105.134 54.661H105.134L105.834 54.3749ZM117.033 57.0378L116.74 56.3405H116.74L117.033 57.0378ZM117.033 38.105L116.74 38.8023V38.8023L117.033 38.105ZM119.661 40.768L118.961 41.0541V41.0541L119.661 40.768ZM108.462 38.105L108.169 37.4077L108.462 38.105ZM105.834 40.768L105.134 40.4818L105.834 40.768ZM110.32 53.3758C109.902 53.3758 109.564 53.7144 109.564 54.132C109.564 54.5497 109.902 54.8883 110.32 54.8883V54.132V53.3758ZM115.175 54.8883C115.593 54.8883 115.931 54.5497 115.931 54.132C115.931 53.7144 115.593 53.3758 115.175 53.3758V54.132V54.8883ZM115.973 37.8337L116.075 37.0844L115.973 37.8337ZM120.03 45.1112H119.274V50.0316H120.03H120.786V45.1112H120.03ZM105.465 50.0316H106.221V45.1112H105.465H104.709V50.0316H105.465ZM112.748 57.4124V56.6561C111.606 56.6561 110.788 56.6557 110.143 56.6111C109.505 56.567 109.092 56.4822 108.755 56.3405L108.462 57.0378L108.169 57.7351C108.724 57.9679 109.323 58.0705 110.039 58.12C110.748 58.169 111.627 58.1686 112.748 58.1686V57.4124ZM105.465 50.0316H104.709C104.709 51.1678 104.708 52.0572 104.756 52.7747C104.805 53.4988 104.906 54.1023 105.134 54.661L105.834 54.3749L106.534 54.0887C106.393 53.7432 106.309 53.3214 106.266 52.6731C106.221 52.0182 106.221 51.1882 106.221 50.0316H105.465ZM108.462 57.0378L108.755 56.3405C107.752 55.9196 106.952 55.1107 106.534 54.0887L105.834 54.3749L105.134 54.661C105.702 56.0503 106.793 57.1573 108.169 57.7351L108.462 57.0378ZM120.03 50.0316H119.274C119.274 51.1882 119.274 52.0182 119.229 52.6731C119.186 53.3214 119.102 53.7432 118.961 54.0887L119.661 54.3749L120.361 54.661C120.589 54.1023 120.69 53.4988 120.739 52.7747C120.787 52.0572 120.786 51.1678 120.786 50.0316H120.03ZM112.748 57.4124V58.1686C113.868 58.1686 114.747 58.169 115.456 58.12C116.172 58.0705 116.771 57.9679 117.326 57.7351L117.033 57.0378L116.74 56.3405C116.403 56.4822 115.99 56.567 115.352 56.6111C114.707 56.6557 113.889 56.6561 112.748 56.6561V57.4124ZM119.661 54.3749L118.961 54.0887C118.543 55.1107 117.743 55.9196 116.74 56.3405L117.033 57.0378L117.326 57.7351C118.702 57.1573 119.793 56.0503 120.361 54.661L119.661 54.3749ZM120.03 45.1112H120.786C120.786 43.9751 120.787 43.0856 120.739 42.3681C120.69 41.644 120.589 41.0405 120.361 40.4818L119.661 40.768L118.961 41.0541C119.102 41.3997 119.186 41.8214 119.229 42.4697C119.274 43.1246 119.274 43.9546 119.274 45.1112H120.03ZM117.033 38.105L116.74 38.8023C117.743 39.2233 118.543 40.0321 118.961 41.0541L119.661 40.768L120.361 40.4818C119.793 39.0925 118.702 37.9856 117.326 37.4077L117.033 38.105ZM105.465 45.1112H106.221C106.221 43.9546 106.221 43.1246 106.266 42.4697C106.309 41.8214 106.393 41.3997 106.534 41.0541L105.834 40.768L105.134 40.4818C104.906 41.0405 104.805 41.644 104.756 42.3681C104.708 43.0856 104.709 43.9751 104.709 45.1112H105.465ZM108.462 38.105L108.169 37.4077C106.793 37.9856 105.702 39.0925 105.134 40.4818L105.834 40.768L106.534 41.0541C106.952 40.0321 107.752 39.2233 108.755 38.8023L108.462 38.105ZM110.32 54.132V54.8883H115.175V54.132V53.3758H110.32V54.132ZM115.58 39.3706V38.6144H109.915V39.3706V40.1269H115.58V39.3706ZM109.915 39.3706V38.6144C109.896 38.6144 109.862 38.5954 109.862 38.5505H109.106H108.35C108.35 39.4116 109.041 40.1269 109.915 40.1269V39.3706ZM116.389 38.5505H115.633C115.633 38.5954 115.599 38.6144 115.58 38.6144V39.3706V40.1269C116.454 40.1269 117.145 39.4116 117.145 38.5505H116.389ZM115.973 37.8337L115.601 38.4922C115.618 38.5019 115.633 38.5225 115.633 38.5505H116.389H117.145C117.145 37.9621 116.824 37.4458 116.345 37.1752L115.973 37.8337ZM112.748 37.7305V38.4867C114.243 38.4867 115.174 38.4884 115.871 38.5831L115.973 37.8337L116.075 37.0844C115.252 36.9725 114.197 36.9742 112.748 36.9742V37.7305ZM115.973 37.8337L115.871 38.5831C116.232 38.6321 116.505 38.7035 116.74 38.8023L117.033 38.105L117.326 37.4077C116.938 37.245 116.53 37.1462 116.075 37.0844L115.973 37.8337ZM109.522 37.8337L109.15 37.1752C108.671 37.4458 108.35 37.9621 108.35 38.5505H109.106H109.862C109.862 38.5225 109.877 38.5019 109.894 38.4922L109.522 37.8337ZM112.748 37.7305V36.9742C111.299 36.9742 110.243 36.9725 109.42 37.0844L109.522 37.8337L109.624 38.5831C110.321 38.4884 111.252 38.4867 112.748 38.4867V37.7305ZM109.522 37.8337L109.42 37.0844C108.965 37.1462 108.557 37.245 108.169 37.4077L108.462 38.105L108.755 38.8023C108.99 38.7035 109.263 38.6321 109.624 38.5831L109.522 37.8337Z" fill="#F1F6FF"/>
<path d="M132.086 108.483C131.428 108.284 131.099 108.185 130.836 108.057C129.393 107.356 128.568 105.792 128.791 104.184C128.832 103.892 128.933 103.559 129.134 102.892C129.336 102.226 129.436 101.893 129.564 101.627C130.269 100.164 131.822 99.32 133.412 99.5353C133.701 99.5744 134.031 99.6739 134.689 99.873L143.196 102.444C143.855 102.644 144.184 102.743 144.446 102.871C145.89 103.572 146.715 105.136 146.492 106.743C146.451 107.036 146.35 107.369 146.149 108.035C145.947 108.702 145.846 109.035 145.718 109.301C145.014 110.764 143.461 111.608 141.871 111.393C141.582 111.354 141.252 111.254 140.594 111.055L132.086 108.483Z" stroke="white" stroke-width="1.5125"/>
<path d="M132.795 108.698L135.398 100.087L142.487 102.23L139.885 110.841L132.795 108.698Z" stroke="white" stroke-width="1.5125"/>
<path d="M135.971 105.795C136.368 105.915 136.592 106.339 136.47 106.741C136.349 107.143 135.928 107.372 135.531 107.252C135.133 107.131 134.91 106.708 135.031 106.306C135.153 105.904 135.573 105.675 135.971 105.795Z" fill="white"/>
<path d="M138.849 106.665C139.246 106.785 139.47 107.209 139.348 107.611C139.227 108.013 138.806 108.242 138.409 108.122C138.011 108.001 137.788 107.578 137.909 107.176C138.031 106.774 138.452 106.545 138.849 106.665Z" fill="white"/>
<path d="M139.729 103.752C140.127 103.872 140.35 104.296 140.229 104.698C140.107 105.1 139.687 105.329 139.289 105.208C138.892 105.088 138.668 104.665 138.79 104.263C138.911 103.861 139.332 103.632 139.729 103.752Z" fill="white"/>
<path d="M136.851 102.882C137.249 103.002 137.472 103.426 137.351 103.828C137.229 104.23 136.809 104.459 136.411 104.339C136.014 104.218 135.79 103.795 135.912 103.393C136.033 102.991 136.454 102.762 136.851 102.882Z" fill="white"/>
</svg>
