<svg width="23" height="21" viewBox="0 0 23 21" fill="none" xmlns="http://www.w3.org/2000/svg">
<path d="M11.4583 13.0208C13.0404 13.0208 14.3229 11.8549 14.3229 10.4167C14.3229 8.97843 13.0404 7.8125 11.4583 7.8125C9.87627 7.8125 8.59375 8.97843 8.59375 10.4167C8.59375 11.8549 9.87627 13.0208 11.4583 13.0208Z" stroke="#022466" stroke-width="1.12061" stroke-linecap="round" stroke-linejoin="round"/>
<path d="M18.7371 9.02595L17.689 6.72508L19.0977 5.2105L17.1879 3.47439L15.531 4.76168L12.9462 3.79535L12.3519 1.73828H10.4857L9.88237 3.82259L7.35708 4.79033L5.7296 3.47439L3.81988 5.2105L5.20764 6.76332L4.17557 9.07017L1.91016 9.55078V11.2869L4.20289 11.8559L5.26721 14.1513L3.81988 15.6272L5.7296 17.3633L7.43991 16.0962L9.92814 17.0268L10.5039 19.0994H12.4136L12.9909 17.0275L15.5218 16.0747C15.9436 16.3488 17.1879 17.3633 17.1879 17.3633L19.0977 15.6272L17.6806 14.1076L18.729 11.806L21.0073 11.2671L21.0074 9.55078L18.7371 9.02595Z" stroke="#022466" stroke-width="1.12061" stroke-linecap="round" stroke-linejoin="round"/>
</svg>
