<svg width="21" height="21" viewBox="0 0 21 21" fill="none" xmlns="http://www.w3.org/2000/svg">
<path fill-rule="evenodd" clip-rule="evenodd" d="M17.2165 8.85134C16.947 6.08612 15.3122 1.73828 10.2601 1.73828C5.20787 1.73828 3.57307 6.08612 3.30352 8.85134C2.35787 9.21024 1.7341 10.1181 1.7383 11.1296V12.347C1.7383 13.6917 2.82841 14.7818 4.17307 14.7818C5.51777 14.7818 6.60788 13.6917 6.60788 12.347V11.1296C6.60348 10.14 6.00266 9.25071 5.08611 8.87743C5.26004 7.2774 6.11223 3.47743 10.2601 3.47743C14.4079 3.47743 15.2513 7.2774 15.4253 8.87743C14.5106 9.25153 13.9128 10.1414 13.9122 11.1296V12.347C13.9141 12.8051 14.0447 13.2535 14.2892 13.641C14.5337 14.0284 14.8821 14.3394 15.2948 14.5383C14.9296 15.2252 13.9992 16.1557 11.7122 16.4339C11.2551 15.7398 10.3706 15.4661 9.60128 15.7808C8.832 16.0955 8.39288 16.9106 8.55332 17.7261C8.71375 18.5417 9.42886 19.1296 10.2601 19.1296C10.5821 19.1278 10.8974 19.0366 11.1706 18.8662C11.4439 18.6958 11.6645 18.4528 11.8079 18.1644C15.5383 17.7383 16.7296 15.8166 17.1035 14.6861C18.1151 14.3584 18.7954 13.4102 18.7818 12.347V11.1296C18.786 10.1181 18.1622 9.21024 17.2165 8.85134ZM4.86874 12.347C4.86874 12.7312 4.55728 13.0426 4.17307 13.0426C3.78886 13.0426 3.47745 12.7312 3.47745 12.347V11.1296C3.47674 11.0378 3.49422 10.9468 3.52886 10.8617C3.56351 10.7767 3.61464 10.6994 3.6793 10.6342C3.74397 10.5691 3.82089 10.5174 3.90564 10.4821C3.99039 10.4468 4.08129 10.4286 4.17309 10.4286C4.2649 10.4286 4.35579 10.4468 4.44054 10.4821C4.52529 10.5174 4.60221 10.5691 4.66688 10.6342C4.73155 10.6994 4.78268 10.7767 4.81732 10.8617C4.85197 10.9468 4.86944 11.0378 4.86874 11.1296V12.347ZM15.6513 11.1296C15.6513 10.7454 15.9628 10.4339 16.347 10.4339C16.7312 10.4339 17.0427 10.7454 17.0427 11.1296V12.347C17.0427 12.7312 16.7312 13.0426 16.347 13.0426C15.9628 13.0426 15.6513 12.7312 15.6513 12.347V11.1296Z" fill="#022466"/>
</svg>
