<svg width="25" height="25" viewBox="0 0 25 25" fill="none" xmlns="http://www.w3.org/2000/svg">
<path d="M20.8333 14.5807C21.4086 14.5807 21.875 15.0471 21.875 15.6224C21.875 16.1566 21.4729 16.5969 20.9548 16.6571L20.8333 16.6641H6.68147L9.06991 19.0525C9.4767 19.4593 9.4767 20.1189 9.06991 20.5256C8.6944 20.9011 8.10353 20.93 7.69489 20.6123L7.59676 20.5256L3.60792 16.5368C2.91496 15.8439 3.3584 14.6786 4.29814 14.5865L4.41815 14.5807H20.8333ZM15.9301 4.46916C16.3056 4.09366 16.8965 4.06477 17.3051 4.3825L17.4032 4.46916L21.3921 8.458C22.0851 9.15097 21.6416 10.3161 20.7019 10.4082L20.5819 10.4141H4.16667C3.59137 10.4141 3.125 9.94769 3.125 9.3724C3.125 8.8382 3.52713 8.39791 4.04519 8.33774L4.16667 8.33073H18.3185L15.9301 5.9423C15.5233 5.5355 15.5233 4.87596 15.9301 4.46916Z" fill="#022466"/>
</svg>
