<svg width="25" height="20" viewBox="0 0 25 20" fill="none" xmlns="http://www.w3.org/2000/svg">
<path d="M20.6973 0C22.6207 0 24.1865 1.56482 24.1865 3.48828V16.5117C24.1865 18.4352 22.6207 20 20.6973 20H3.48828C1.56485 20 4.70043e-05 18.4352 0 16.5117V3.48828C4.81865e-05 1.56485 1.56485 4.83353e-05 3.48828 0H20.6973ZM3.48828 1.39551C2.33422 1.39556 1.39556 2.33427 1.39551 3.48828V16.5117C1.39555 17.6658 2.33427 18.6044 3.48828 18.6045H20.6973C21.8514 18.6045 22.791 17.6658 22.791 16.5117V13.4883H17.6748C15.7513 13.4883 14.1865 11.9235 14.1865 10C14.1865 8.0765 15.7513 6.51172 17.6748 6.51172H22.791V3.48828C22.791 2.33419 21.8513 1.39551 20.6973 1.39551H3.48828ZM17.6748 7.90723C16.5207 7.90723 15.5811 8.84587 15.5811 10C15.5811 11.1541 16.5207 12.0928 17.6748 12.0928H22.791V7.90723H17.6748ZM18.6045 9.30078C18.9897 9.30081 19.3015 9.61292 19.3018 9.99805C19.3018 10.3833 18.9898 10.6963 18.6045 10.6963H17.6738C17.2887 10.6961 16.9766 10.3832 16.9766 9.99805C16.9768 9.61309 17.2888 9.301 17.6738 9.30078H18.6045Z" fill="#0D0C12"/>
</svg>
