<svg width="40" height="40" viewBox="0 0 40 40" fill="none" xmlns="http://www.w3.org/2000/svg">
<path d="M6.15467 28.3307C5.54044 28.3307 5.028 28.1254 4.61733 27.7147C4.20667 27.3041 4.00089 26.7912 4 26.1761V11.8187C4 11.2045 4.20578 10.6921 4.61733 10.2814C5.02889 9.87073 5.54089 9.66495 6.15333 9.66406H25.8467C26.46 9.66406 26.972 9.86984 27.3827 10.2814C27.7933 10.693 27.9991 11.2054 28 11.8187V17.9201H5.33333V26.1774C5.33333 26.3818 5.41867 26.5698 5.58933 26.7414C5.76 26.913 5.948 26.9983 6.15333 26.9974H17.5893V28.3307H6.15467ZM5.33333 14.7414H26.6667V11.8187C26.6667 11.6134 26.5813 11.425 26.4107 11.2534C26.24 11.0818 26.052 10.9965 25.8467 10.9974H6.15333C5.94889 10.9974 5.76089 11.0827 5.58933 11.2534C5.41778 11.4241 5.33244 11.6125 5.33333 11.8187V14.7414ZM26 31.6641V27.6641H22V26.3307H26V22.3307H27.3333V26.3307H31.3333V27.6641H27.3333V31.6641H26Z" fill="black"/>
</svg>
