<svg width="44" height="19" viewBox="0 0 44 19" fill="none" xmlns="http://www.w3.org/2000/svg">
<path d="M28.9249 14.7032C30.2313 14.7032 31.4432 14.0333 31.9933 12.9718H32.0362V14.5988H33.9615V7.84749C33.9615 5.88996 32.4144 4.62845 30.0337 4.62845C27.8248 4.62845 26.1918 5.90736 26.1317 7.66478H28.0053C28.16 6.82957 28.925 6.28147 29.9735 6.28147C31.2455 6.28147 31.9589 6.88177 31.9589 7.98669V8.7349L29.3633 8.8915C26.9482 9.0394 25.6418 10.0399 25.6418 11.7799C25.6418 13.5374 26.9911 14.7032 28.9249 14.7032Z" fill="black"/>
<path d="M36.5312 18.2877C38.5595 18.2877 39.5136 17.5046 40.3473 15.1295L44 4.75898H41.8857L39.4362 12.7718H39.3932L36.9437 4.75898H34.7693L38.2931 14.6336L38.104 15.2339C37.786 16.2518 37.2703 16.6433 36.3507 16.6433C36.1874 16.6433 35.8694 16.6259 35.7405 16.6085V18.2354C35.8608 18.2702 36.3765 18.2877 36.5312 18.2877Z" fill="black"/>
<path d="M8.78736 3.55836C7.59269 3.48876 6.56992 4.24567 6.00267 4.24567C5.42682 4.24567 4.55876 3.59317 3.61334 3.61057C2.38429 3.62797 1.24119 4.33267 0.613779 5.45499C-0.675429 7.69962 0.278585 11.0231 1.52482 12.8501C2.13504 13.7549 2.8656 14.7467 3.8282 14.7119C4.73924 14.6771 5.10022 14.1116 6.20035 14.1116C7.30907 14.1116 7.62707 14.7119 8.58968 14.6945C9.58667 14.6771 10.2141 13.7897 10.8243 12.8849C11.5205 11.8583 11.8041 10.8578 11.8213 10.8056C11.8041 10.7882 9.89608 10.0486 9.87889 7.82142C9.8617 5.9596 11.383 5.07218 11.4517 5.01998C10.5922 3.73237 9.25147 3.59317 8.78736 3.55836Z" fill="black"/>
<path d="M15.689 1.03533V14.5988H17.7689V9.96164H20.6482C23.2781 9.96164 25.126 8.13462 25.126 5.48978C25.126 2.84495 23.3125 1.03533 20.7169 1.03533H15.689Z" fill="black"/>
<path d="M8.03969 2.35773C7.52401 2.97544 6.69891 3.46265 5.87382 3.39304C5.77068 2.55783 6.17463 1.67042 6.64734 1.12231C7.16303 0.487206 8.06547 0.0348005 8.79602 0C8.88197 0.870011 8.54678 1.72262 8.03969 2.35773Z" fill="black"/>
<path d="M29.4835 13.0936C28.3748 13.0936 27.67 12.5542 27.67 11.7277C27.67 10.8751 28.349 10.3792 29.6468 10.3009L31.9588 10.153V10.9186C31.9588 12.1888 30.893 13.0936 29.4835 13.0936Z" fill="white"/>
<path d="M17.7687 2.81012H20.1667C21.9716 2.81012 23.0029 3.78453 23.0029 5.49845C23.0029 7.21238 21.9716 8.19549 20.1581 8.19549H17.7687V2.81012Z" fill="white"/>
</svg>
