<svg width="26" height="26" viewBox="0 0 26 26" fill="none" xmlns="http://www.w3.org/2000/svg">
<circle cx="13" cy="13" r="13" fill="#00BDFF"/>
<mask id="mask0_1489_64656" style="mask-type:luminance" maskUnits="userSpaceOnUse" x="2" y="2" width="22" height="22">
<path d="M13 23C14.3135 23.0016 15.6143 22.7437 16.8278 22.2411C18.0412 21.7384 19.1434 21.0009 20.071 20.071C21.0009 19.1434 21.7384 18.0412 22.2411 16.8278C22.7437 15.6143 23.0016 14.3135 23 13C23.0016 11.6866 22.7437 10.3857 22.2411 9.17225C21.7384 7.95878 21.0009 6.85659 20.071 5.92901C19.1434 4.99909 18.0412 4.26162 16.8278 3.75897C15.6143 3.25631 14.3135 2.99839 13 3.00001C11.6866 2.99839 10.3857 3.25631 9.17225 3.75897C7.95878 4.26162 6.85659 4.99909 5.92901 5.92901C4.99909 6.85659 4.26162 7.95878 3.75897 9.17225C3.25631 10.3857 2.99839 11.6866 3.00001 13C2.99839 14.3135 3.25631 15.6143 3.75897 16.8278C4.26162 18.0412 4.99909 19.1434 5.92901 20.071C6.85659 21.0009 7.95878 21.7384 9.17225 22.2411C10.3857 22.7437 11.6866 23.0016 13 23Z" fill="white" stroke="white" stroke-width="2" stroke-linejoin="round"/>
<path d="M9 13L12 16L18 10" stroke="black" stroke-width="2" stroke-linecap="round" stroke-linejoin="round"/>
</mask>
<g mask="url(#mask0_1489_64656)">
<path d="M1 1H25V25H1V1Z" fill="#022466"/>
</g>
</svg>
