<svg width="69" height="69" viewBox="0 0 69 69" fill="none" xmlns="http://www.w3.org/2000/svg">
<path d="M0.75 47.4219C0.75 37.9952 0.75 33.2785 3.68 30.3519C6.60667 27.4219 11.3233 27.4219 20.75 27.4219H47.4167C56.8433 27.4219 61.56 27.4219 64.4867 30.3519C67.4167 33.2785 67.4167 37.9952 67.4167 47.4219C67.4167 56.8485 67.4167 61.5652 64.4867 64.4919C61.56 67.4219 56.8433 67.4219 47.4167 67.4219H20.75C11.3233 67.4219 6.60667 67.4219 3.68 64.4919C0.75 61.5652 0.75 56.8485 0.75 47.4219Z" stroke="#022466" stroke-width="1.5"/>
<path opacity="0.5" d="M14.0859 27.4167V20.75C14.0859 15.4457 16.1931 10.3586 19.9438 6.60786C23.6945 2.85714 28.7816 0.75 34.0859 0.75C39.3903 0.75 44.4773 2.85714 48.2281 6.60786C51.9788 10.3586 54.0859 15.4457 54.0859 20.75V27.4167" stroke="#022466" stroke-width="1.5" stroke-linecap="round"/>
<path opacity="0.5" d="M24.0807 47.4115C24.0807 48.2955 23.7295 49.1434 23.1044 49.7685C22.4793 50.3936 21.6315 50.7448 20.7474 50.7448C19.8633 50.7448 19.0155 50.3936 18.3904 49.7685C17.7653 49.1434 17.4141 48.2955 17.4141 47.4115C17.4141 46.5274 17.7653 45.6796 18.3904 45.0544C19.0155 44.4293 19.8633 44.0781 20.7474 44.0781C21.6315 44.0781 22.4793 44.4293 23.1044 45.0544C23.7295 45.6796 24.0807 46.5274 24.0807 47.4115ZM37.4141 47.4115C37.4141 48.2955 37.0629 49.1434 36.4377 49.7685C35.8126 50.3936 34.9648 50.7448 34.0807 50.7448C33.1967 50.7448 32.3488 50.3936 31.7237 49.7685C31.0986 49.1434 30.7474 48.2955 30.7474 47.4115C30.7474 46.5274 31.0986 45.6796 31.7237 45.0544C32.3488 44.4293 33.1967 44.0781 34.0807 44.0781C34.9648 44.0781 35.8126 44.4293 36.4377 45.0544C37.0629 45.6796 37.4141 46.5274 37.4141 47.4115ZM50.7474 47.4115C50.7474 48.2955 50.3962 49.1434 49.7711 49.7685C49.146 50.3936 48.2981 50.7448 47.4141 50.7448C46.53 50.7448 45.6822 50.3936 45.057 49.7685C44.4319 49.1434 44.0807 48.2955 44.0807 47.4115C44.0807 46.5274 44.4319 45.6796 45.057 45.0544C45.6822 44.4293 46.53 44.0781 47.4141 44.0781C48.2981 44.0781 49.146 44.4293 49.7711 45.0544C50.3962 45.6796 50.7474 46.5274 50.7474 47.4115Z" fill="#00BDFF"/>
</svg>
