<svg width="35" height="35" viewBox="0 0 35 35" fill="none" xmlns="http://www.w3.org/2000/svg">
<path d="M17.5 17.5C22.3344 17.5 26.25 13.5844 26.25 8.75C26.25 3.91562 22.3344 0 17.5 0C12.6656 0 8.75 3.91562 8.75 8.75C8.75 13.5844 12.6656 17.5 17.5 17.5ZM17.5 21.875C11.6594 21.875 0 24.8062 0 30.625V35H35V30.625C35 24.8062 23.3406 21.875 17.5 21.875Z" fill="#1A1A1A"/>
<path d="M17.5 22.375C20.3577 22.375 24.6693 23.0963 28.2539 24.5322C30.0459 25.2501 31.6252 26.1346 32.748 27.1709C33.8672 28.204 34.5 29.3541 34.5 30.625V34.5H0.5V30.625C0.5 29.3541 1.13275 28.204 2.25195 27.1709C3.37475 26.1346 4.95415 25.2501 6.74609 24.5322C10.3307 23.0963 14.6423 22.375 17.5 22.375ZM17.5 0.5C22.0582 0.5 25.75 4.19177 25.75 8.75C25.75 13.3082 22.0582 17 17.5 17C12.9418 17 9.25 13.3082 9.25 8.75C9.25 4.19177 12.9418 0.5 17.5 0.5Z" stroke="black" stroke-opacity="0.1"/>
</svg>
