<svg width="30" height="34" viewBox="0 0 30 34" fill="none" xmlns="http://www.w3.org/2000/svg">
<path d="M15 33.417L10.25 28.667H3.91667C3.04583 28.667 2.30061 28.3572 1.681 27.7376C1.06139 27.118 0.751056 26.3722 0.75 25.5003V3.33366C0.75 2.46283 1.06033 1.7176 1.681 1.09799C2.30167 0.478381 3.04689 0.168048 3.91667 0.166992H26.0833C26.9542 0.166992 27.6999 0.477326 28.3206 1.09799C28.9413 1.71866 29.2511 2.46388 29.25 3.33366V25.5003C29.25 26.3712 28.9402 27.1169 28.3206 27.7376C27.701 28.3582 26.9552 28.668 26.0833 28.667H19.75L15 33.417ZM15 16.0003C16.5306 16.0003 17.8368 15.4594 18.9188 14.3774C20.0007 13.2955 20.5417 11.9892 20.5417 10.4587C20.5417 8.9281 20.0007 7.62185 18.9188 6.53991C17.8368 5.45796 16.5306 4.91699 15 4.91699C13.4694 4.91699 12.1632 5.45796 11.0812 6.53991C9.9993 7.62185 9.45833 8.9281 9.45833 10.4587C9.45833 11.9892 9.9993 13.2955 11.0812 14.3774C12.1632 15.4594 13.4694 16.0003 15 16.0003ZM3.91667 25.5003H26.0833V23.6795C24.6583 22.2809 23.0027 21.1794 21.1164 20.3751C19.2301 19.5707 17.1913 19.168 15 19.167C12.8087 19.1659 10.7699 19.5686 8.88358 20.3751C6.99731 21.1815 5.34167 22.283 3.91667 23.6795V25.5003Z" fill="#1A1A1A"/>
</svg>
