<svg width="210" height="63" viewBox="0 0 210 63" fill="none" xmlns="http://www.w3.org/2000/svg">
<path d="M54.0508 59.709V2.48438H71.14C74.958 2.48438 78.201 2.78338 80.8921 3.38138C83.6291 3.97939 85.9981 4.9684 87.9992 6.37142C90.0002 7.77443 91.5182 9.66045 92.5992 12.0525C93.6802 14.4445 94.2092 17.3655 94.2092 20.7926C94.2092 23.6216 93.6802 26.1516 92.5992 28.3827C91.5182 30.6137 90.0232 32.5227 88.1142 34.1097C86.1821 35.7197 83.9051 36.9388 81.3061 37.7898C78.6381 38.6408 75.878 39.0778 73.049 39.0778H68.1269V59.732H54.0508V59.709ZM68.1269 14.6285V26.9336H72.152C74.728 26.9336 76.729 26.4046 78.132 25.3236C79.5121 24.2656 80.1791 22.7476 80.1791 20.7236C80.1791 18.6996 79.4891 17.2505 78.132 16.2155C76.729 15.1575 74.751 14.6515 72.152 14.6515H68.1269V14.6285Z" fill="white"/>
<path d="M96.2334 2.48448L109.091 2.43848V59.6171L96.2334 59.7781V2.48448Z" fill="white"/>
<path d="M123.627 10.1891C123.029 11.1781 122.224 11.9831 121.212 12.6041C120.2 13.2251 119.05 13.5241 117.831 13.5241C116.612 13.5241 115.485 13.2251 114.473 12.6271C113.461 12.0061 112.633 11.1781 112.058 10.1661C111.437 9.0851 111.138 7.95809 111.138 6.73907C111.138 5.52006 111.437 4.37005 112.035 3.35804C112.679 2.30003 113.507 1.49502 114.496 0.89701C115.485 0.299003 116.612 0 117.854 0C119.096 0 120.223 0.299003 121.235 0.89701C122.224 1.49502 123.029 2.30003 123.65 3.35804C124.248 4.37005 124.547 5.52006 124.547 6.73907C124.547 7.95809 124.248 9.1771 123.65 10.1661L123.627 10.1891ZM124.455 18.4462V59.7777H111.598V18.4922L124.455 18.4462Z" fill="white"/>
<path d="M144.35 28.4512C141.061 28.5892 139.428 30.8662 139.428 35.3052V59.7085H126.524V35.3052C126.524 23.5521 132.458 17.388 144.35 16.79H145.086C156.977 17.388 162.911 23.5521 162.911 35.3052V59.7085H150.008V35.3052C150.008 30.8662 148.375 28.5892 145.086 28.4512H144.35Z" fill="white"/>
<path d="M164.912 59.709V2.53038L177.815 2.48438V34.1097H177.976L191.316 18.4696H206.451L191.523 36.1797L209.073 59.732H192.972L177.815 39.4918V59.732H164.912V59.709Z" fill="white"/>
<path d="M0.0234375 10.1663C0.0234375 9.8443 0.0464378 9.4993 0.115439 9.1543C0.0464378 9.4993 0.0234375 9.8213 0.0234375 10.1663Z" fill="#868686"/>
<path d="M38.7095 1.63281H11.6842C10.7412 1.63281 9.84417 1.81681 8.99316 2.11582C9.49917 2.11582 10.0052 2.29982 10.4882 2.69082L26.7494 17.112C29.4174 19.297 31.5794 24.2191 31.5794 28.1291V41.5382H38.7095C42.7805 41.5382 46.0926 38.3872 46.0926 34.4772V8.69389C46.0926 4.80685 42.7805 1.63281 38.7095 1.63281Z" fill="#CE2E81"/>
<path d="M27.3013 29.6245V58.3289C27.3013 62.2159 25.1393 63.6189 22.4713 61.4339L4.83005 46.9897C2.16202 44.8047 0 39.8826 0 35.9726V10.1663C0 9.84432 0.0460005 9.49931 0.092001 9.15431C0.092001 9.08531 0.115001 8.99331 0.138002 8.92431C0.644007 6.14127 2.69103 3.51925 4.71505 3.58825C5.22106 3.58825 5.72706 3.77225 6.21007 4.16325L22.4713 18.5844C25.1393 20.7694 27.3013 25.6915 27.3013 29.6015V29.6245Z" fill="white"/>
<path d="M183.243 13.4087C183.243 13.4087 183.036 13.3626 182.967 13.2936C182.898 13.2246 182.852 13.1326 182.852 13.0176V3.03554C182.852 3.03554 182.898 2.82853 182.967 2.75953C183.036 2.69053 183.128 2.64453 183.243 2.64453H187.429C188.257 2.64453 188.97 2.78253 189.591 3.03554C190.212 3.28854 190.672 3.67954 191.017 4.18555C191.362 4.71455 191.523 5.33556 191.523 6.11757C191.523 6.89958 191.362 7.54359 191.017 8.04959C190.672 8.5556 190.189 8.9236 189.591 9.1766C188.97 9.42961 188.257 9.54461 187.429 9.54461H185.359V13.0176C185.359 13.0176 185.313 13.2246 185.244 13.2936C185.175 13.3626 185.083 13.4087 184.968 13.4087H183.22H183.243ZM185.336 7.63559H187.36C187.889 7.63559 188.28 7.49758 188.579 7.24458C188.878 6.99158 189.016 6.60058 189.016 6.09457C189.016 5.63456 188.878 5.26656 188.625 4.99056C188.372 4.71455 187.935 4.55355 187.36 4.55355H185.336V7.63559Z" fill="white"/>
<path d="M195.134 13.5696C194.582 13.5696 194.099 13.4546 193.685 13.2476C193.271 13.0406 192.903 12.7646 192.65 12.3966C192.397 12.0286 192.259 11.6376 192.259 11.2006C192.259 10.4646 192.558 9.88955 193.133 9.47555C193.731 9.06154 194.49 8.76254 195.456 8.62454L197.48 8.32553V8.04953C197.48 7.65853 197.388 7.33652 197.204 7.12952C197.02 6.92252 196.698 6.80752 196.238 6.80752C195.893 6.80752 195.617 6.87652 195.433 7.01452C195.226 7.15252 195.065 7.31352 194.95 7.54352C194.858 7.68153 194.743 7.75053 194.605 7.75053H193.156C193.156 7.75053 192.949 7.72753 192.903 7.65853C192.834 7.58953 192.811 7.52052 192.834 7.42852C192.834 7.24452 192.903 7.06052 193.041 6.80752C193.179 6.57751 193.386 6.34751 193.662 6.11751C193.938 5.88751 194.283 5.7035 194.72 5.5425C195.157 5.3815 195.686 5.3125 196.307 5.3125C196.928 5.3125 197.503 5.3815 197.963 5.5425C198.423 5.7035 198.791 5.91051 199.067 6.18651C199.343 6.46251 199.55 6.78452 199.688 7.15252C199.826 7.52052 199.895 7.91153 199.895 8.32553V13.0866C199.895 13.0866 199.849 13.2936 199.78 13.3626C199.711 13.4316 199.619 13.4776 199.504 13.4776H197.986C197.986 13.4776 197.802 13.4316 197.733 13.3626C197.664 13.2936 197.618 13.2016 197.618 13.0866V12.5116C197.48 12.6956 197.296 12.8796 197.089 13.0636C196.859 13.2246 196.583 13.3626 196.284 13.4776C195.962 13.5696 195.594 13.6386 195.18 13.6386L195.134 13.5696ZM195.755 11.9596C196.1 11.9596 196.399 11.8906 196.652 11.7526C196.928 11.6146 197.135 11.3846 197.273 11.0856C197.434 10.7866 197.503 10.4186 197.503 9.95855V9.70555L196.077 9.93555C195.525 10.0276 195.111 10.1656 194.858 10.3496C194.605 10.5336 194.467 10.7636 194.467 11.0166C194.467 11.2006 194.536 11.3846 194.651 11.5226C194.766 11.6606 194.927 11.7756 195.111 11.8446C195.295 11.9136 195.502 11.9596 195.732 11.9596H195.755Z" fill="white"/>
<path d="M202.908 16.3294C202.908 16.3294 202.747 16.3064 202.678 16.2374C202.609 16.1684 202.586 16.0994 202.586 16.0074C202.586 16.0074 202.586 15.9614 202.586 15.9154C202.586 15.8694 202.609 15.8464 202.632 15.7774L203.828 12.9024L200.884 5.9333C200.884 5.9333 200.838 5.7953 200.838 5.7263C200.838 5.6343 200.884 5.5653 200.953 5.4963C201.022 5.4273 201.091 5.4043 201.183 5.4043H202.678C202.816 5.4043 202.908 5.4273 202.977 5.4963C203.046 5.5653 203.092 5.6343 203.115 5.7033L205.024 10.4644L206.979 5.7033C206.979 5.7033 207.071 5.5423 207.14 5.4963C207.209 5.4273 207.301 5.4043 207.439 5.4043H208.888C208.888 5.4043 209.049 5.4273 209.118 5.4963C209.187 5.5653 209.21 5.6343 209.21 5.7263C209.21 5.7723 209.21 5.8413 209.141 5.9333L204.794 16.0074C204.794 16.0074 204.725 16.1684 204.656 16.2144C204.587 16.2834 204.495 16.3064 204.357 16.3064H202.908V16.3294Z" fill="white"/>
</svg>
