<svg width="32" height="32" viewBox="0 0 32 32" fill="none" xmlns="http://www.w3.org/2000/svg">
<path d="M7.27273 17.4545H1.45455C1.06878 17.4545 0.698807 17.6078 0.426026 17.8806C0.153246 18.1534 0 18.5233 0 18.9091V30.5455C0 30.9312 0.153246 31.3012 0.426026 31.574C0.698807 31.8468 1.06878 32 1.45455 32H7.27273C7.6585 32 8.02847 31.8468 8.30125 31.574C8.57403 31.3012 8.72727 30.9312 8.72727 30.5455V18.9091C8.72727 18.5233 8.57403 18.1534 8.30125 17.8806C8.02847 17.6078 7.6585 17.4545 7.27273 17.4545ZM5.81818 29.0909H2.90909V20.3636H5.81818V29.0909ZM30.5455 11.6364H24.7273C24.3415 11.6364 23.9715 11.7896 23.6988 12.0624C23.426 12.3352 23.2727 12.7051 23.2727 13.0909V30.5455C23.2727 30.9312 23.426 31.3012 23.6988 31.574C23.9715 31.8468 24.3415 32 24.7273 32H30.5455C30.9312 32 31.3012 31.8468 31.574 31.574C31.8468 31.3012 32 30.9312 32 30.5455V13.0909C32 12.7051 31.8468 12.3352 31.574 12.0624C31.3012 11.7896 30.9312 11.6364 30.5455 11.6364ZM29.0909 29.0909H26.1818V14.5455H29.0909V29.0909ZM18.9091 0H13.0909C12.7051 0 12.3352 0.153246 12.0624 0.426026C11.7896 0.698807 11.6364 1.06878 11.6364 1.45455V30.5455C11.6364 30.9312 11.7896 31.3012 12.0624 31.574C12.3352 31.8468 12.7051 32 13.0909 32H18.9091C19.2949 32 19.6648 31.8468 19.9376 31.574C20.2104 31.3012 20.3636 30.9312 20.3636 30.5455V1.45455C20.3636 1.06878 20.2104 0.698807 19.9376 0.426026C19.6648 0.153246 19.2949 0 18.9091 0ZM17.4545 29.0909H14.5455V2.90909H17.4545V29.0909Z" fill="url(#paint0_linear_691_11797)"/>
<defs>
<linearGradient id="paint0_linear_691_11797" x1="16" y1="0" x2="16" y2="32" gradientUnits="userSpaceOnUse">
<stop stop-color="#022466"/>
<stop offset="1" stop-color="#00F7FF"/>
</linearGradient>
</defs>
</svg>
