<svg width="35" height="35" viewBox="0 0 35 35" fill="none" xmlns="http://www.w3.org/2000/svg">
<path d="M4.77273 0V5H0V8.33333H4.77273V13.3333H7.95455V8.33333H12.7273V5H7.95455V0H4.77273ZM15.9091 5V8.33333H30.2273V11.6667H20.6818C18.9318 11.6667 17.5 13.1667 17.5 15V25C17.5 26.8333 18.9318 28.3333 20.6818 28.3333H30.2273V31.6667H7.95455V16.6667H4.77273V31.6667C4.77273 32.5507 5.10795 33.3986 5.70466 34.0237C6.30137 34.6488 7.11067 35 7.95455 35H30.2273C31.9773 35 33.4091 33.5 33.4091 31.6667V27.8667C33.89 27.5758 34.2899 27.1582 34.5689 26.6553C34.848 26.1524 34.9967 25.5817 35 25V15C34.9967 14.4183 34.848 13.8476 34.5689 13.3447C34.2899 12.8418 33.89 12.4242 33.4091 12.1333V8.33333C33.4091 6.5 31.9773 5 30.2273 5H15.9091ZM20.6818 15H31.8182V25H20.6818V15ZM25.4545 17.5C24.8216 17.5 24.2147 17.7634 23.7671 18.2322C23.3196 18.7011 23.0682 19.337 23.0682 20C23.0682 20.663 23.3196 21.2989 23.7671 21.7678C24.2147 22.2366 24.8216 22.5 25.4545 22.5C26.0874 22.5 26.6944 22.2366 27.142 21.7678C27.5895 21.2989 27.8409 20.663 27.8409 20C27.8409 19.337 27.5895 18.7011 27.142 18.2322C26.6944 17.7634 26.0874 17.5 25.4545 17.5Z" fill="url(#paint0_linear_691_11805)"/>
<defs>
<linearGradient id="paint0_linear_691_11805" x1="-2.5" y1="3" x2="24.5" y2="28.5" gradientUnits="userSpaceOnUse">
<stop stop-color="#022466"/>
<stop offset="1" stop-color="#00BDFF"/>
</linearGradient>
</defs>
</svg>
