<svg width="29" height="26" viewBox="0 0 29 26" fill="none" xmlns="http://www.w3.org/2000/svg">
<path d="M19.53 12.1625C19.215 12.47 19.035 12.9125 19.08 13.385C19.1475 14.195 19.89 14.7875 20.7 14.7875H22.125V15.68C22.125 17.2325 20.8575 18.5 19.305 18.5H10.695C9.1425 18.5 7.875 17.2325 7.875 15.68V10.6325C7.875 9.08001 9.1425 7.8125 10.695 7.8125H19.305C20.8575 7.8125 22.125 9.08001 22.125 10.6325V11.7125H20.61C20.19 11.7125 19.8075 11.8775 19.53 12.1625Z" stroke="url(#paint0_linear_1457_27875)" stroke-width="1.5" stroke-linecap="round" stroke-linejoin="round"/>
<path d="M7.875 11.3085V7.88099C7.875 6.98849 8.4225 6.19346 9.255 5.87846L15.21 3.62846C16.14 3.27596 17.1375 3.96598 17.1375 4.96348V7.81347" stroke="url(#paint1_linear_1457_27875)" stroke-width="1.5" stroke-linecap="round" stroke-linejoin="round"/>
<path d="M22.9172 12.4779V14.0229C22.9172 14.4354 22.5872 14.7729 22.1672 14.7879H20.6972C19.8872 14.7879 19.1447 14.1954 19.0772 13.3854C19.0322 12.9129 19.2122 12.4704 19.5272 12.1629C19.8047 11.8779 20.1872 11.7129 20.6072 11.7129H22.1672C22.5872 11.7279 22.9172 12.0654 22.9172 12.4779Z" stroke="url(#paint2_linear_1457_27875)" stroke-width="1.5" stroke-linecap="round" stroke-linejoin="round"/>
<path d="M11.25 11H16.5" stroke="url(#paint3_linear_1457_27875)" stroke-width="1.5" stroke-linecap="round" stroke-linejoin="round"/>
<defs>
<linearGradient id="paint0_linear_1457_27875" x1="15" y1="7.8125" x2="15" y2="18.5" gradientUnits="userSpaceOnUse">
<stop stop-color="#022466"/>
<stop offset="1" stop-color="#00BDFF"/>
</linearGradient>
<linearGradient id="paint1_linear_1457_27875" x1="12.5063" y1="3.53516" x2="12.5063" y2="11.3085" gradientUnits="userSpaceOnUse">
<stop stop-color="#022466"/>
<stop offset="1" stop-color="#00BDFF"/>
</linearGradient>
<linearGradient id="paint2_linear_1457_27875" x1="20.9937" y1="11.7129" x2="20.9937" y2="14.7879" gradientUnits="userSpaceOnUse">
<stop stop-color="#022466"/>
<stop offset="1" stop-color="#00BDFF"/>
</linearGradient>
<linearGradient id="paint3_linear_1457_27875" x1="13.875" y1="11" x2="13.875" y2="12" gradientUnits="userSpaceOnUse">
<stop stop-color="#022466"/>
<stop offset="1" stop-color="#00BDFF"/>
</linearGradient>
</defs>
</svg>
