<svg width="46" height="36" viewBox="0 0 46 36" fill="none" xmlns="http://www.w3.org/2000/svg">
<path d="M27.2292 20.8333C29.7461 20.8333 31.7865 18.9679 31.7865 16.6667C31.7865 14.3655 29.7461 12.5 27.2292 12.5C24.7122 12.5 22.6719 14.3655 22.6719 16.6667C22.6719 18.9679 24.7122 20.8333 27.2292 20.8333Z" stroke="#022466" stroke-width="1.12061" stroke-linecap="round" stroke-linejoin="round"/>
<path d="M38.8091 14.4376L37.1417 10.7562L39.3828 8.3329L36.3446 5.55512L33.7085 7.61478L29.5964 6.06865L28.6509 2.77734H25.682L24.7221 6.11224L20.7046 7.66063L18.1155 5.55512L15.0773 8.3329L17.2851 10.8174L15.6431 14.5084L12.0391 15.2773V18.0551L15.6866 18.9656L17.3798 22.6381L15.0773 24.9996L18.1155 27.7774L20.8364 25.75L24.7949 27.2389L25.7109 30.5551H28.7491L29.6675 27.2401L33.694 25.7156C34.365 26.1542 36.3446 27.7774 36.3446 27.7774L39.3828 24.9996L37.1283 22.5682L38.7963 18.8857L42.4208 18.0234L42.421 15.2773L38.8091 14.4376Z" stroke="#022466" stroke-width="1.12061" stroke-linecap="round" stroke-linejoin="round"/>
<path d="M2.25 19.1953H24.75" stroke="#00BDFF" stroke-width="1.5" stroke-miterlimit="10" stroke-linecap="round" stroke-linejoin="round"/>
<path d="M6.75 27.5312H9" stroke="#00BDFF" stroke-width="1.5" stroke-miterlimit="10" stroke-linecap="round" stroke-linejoin="round"/>
<path d="M11.8125 27.5312H16.3125" stroke="#00BDFF" stroke-width="1.5" stroke-miterlimit="10" stroke-linecap="round" stroke-linejoin="round"/>
<path d="M7.245 13.9883H19.7437C23.7487 13.9883 24.75 14.9049 24.75 18.5612V27.1133C24.75 30.7695 23.7487 31.6862 19.755 31.6862H7.245C3.25125 31.6966 2.25 30.7799 2.25 27.1237V18.5612C2.25 14.9049 3.25125 13.9883 7.245 13.9883Z" stroke="#00BDFF" stroke-width="1.5" stroke-linecap="round" stroke-linejoin="round"/>
</svg>
