<svg width="34" height="34" viewBox="0 0 34 34" fill="none" xmlns="http://www.w3.org/2000/svg">
<path fill-rule="evenodd" clip-rule="evenodd" d="M19.6387 9.07448C19.1204 9.43387 18.5356 9.68643 17.9186 9.8174C17.3016 9.94838 16.6647 9.95515 16.045 9.83733C15.4254 9.71951 14.8354 9.47945 14.3095 9.13116C13.7836 8.78287 13.3324 8.33333 12.9821 7.80878C12.6318 7.28422 12.3895 6.69515 12.2693 6.07594C12.1491 5.45673 12.1535 4.81979 12.2821 4.20228C12.4107 3.58477 12.6611 2.99907 13.0185 2.47935C13.3759 1.95962 13.8333 1.51629 14.3639 1.17523C15.4114 0.483293 16.6903 0.234228 17.921 0.482477C19.1517 0.730726 20.234 1.4561 20.9315 2.50003C21.6289 3.54396 21.8846 4.82154 21.6429 6.0535C21.4011 7.28546 20.6814 8.37159 19.6411 9.07448H19.6387ZM18.3206 3.15123C18.062 2.96516 17.7685 2.83304 17.4578 2.76273C17.147 2.69242 16.8253 2.68535 16.5117 2.74196C16.1982 2.79857 15.8992 2.91769 15.6326 3.09223C15.3661 3.26677 15.1374 3.49316 14.9601 3.75793C14.7829 4.02269 14.6607 4.32042 14.6009 4.63337C14.5411 4.94633 14.5448 5.26812 14.612 5.57959C14.6791 5.89106 14.8082 6.18584 14.9917 6.44637C15.1751 6.7069 15.409 6.92787 15.6796 7.0961C16.2024 7.41367 16.8275 7.5173 17.4248 7.3854C18.0221 7.25351 18.5454 6.89626 18.8859 6.38807C19.2263 5.87989 19.3575 5.25996 19.2522 4.65743C19.1469 4.05489 18.8132 3.51621 18.3206 3.1536V3.15123ZM24.5194 3.22248C25.2043 2.76173 26.0285 2.55424 26.85 2.63574C27.6715 2.71724 28.4389 3.08263 29.02 3.66898C29.4341 4.08638 29.7394 4.59901 29.9092 5.16191C30.079 5.7248 30.1081 6.32076 29.9939 6.89752C29.8797 7.47428 29.6258 8.0142 29.2543 8.46995C28.8829 8.92569 28.4052 9.28332 27.8634 9.51148C27.2127 9.78423 26.4953 9.85625 25.8034 9.71829C25.1115 9.58033 24.4766 9.23868 23.9802 8.73723C23.6069 8.36202 23.3212 7.90893 23.1435 7.41039C22.9657 6.91185 22.9004 6.38019 22.9522 5.85345C23.0039 5.32671 23.1714 4.81793 23.4428 4.3635C23.7141 3.90908 24.0826 3.52025 24.5217 3.22485L24.5194 3.22248ZM25.6594 7.04623C25.8823 7.26826 26.1844 7.39263 26.4991 7.39196C26.6549 7.39163 26.8091 7.36061 26.9529 7.30068C27.0968 7.24075 27.2274 7.15307 27.3373 7.04267C27.4472 6.93226 27.5344 6.80127 27.5937 6.6572C27.653 6.51312 27.6834 6.35877 27.683 6.20296C27.6827 6.04715 27.6517 5.89293 27.5918 5.7491C27.5318 5.60528 27.4442 5.47467 27.3337 5.36473C27.1139 5.14041 26.8142 5.01231 26.5001 5.00848C26.3436 5.00848 26.1886 5.03943 26.044 5.09955C25.8995 5.15967 25.7683 5.24778 25.6579 5.3588C25.5475 5.46983 25.4602 5.60158 25.401 5.74648C25.3417 5.89138 25.3117 6.04656 25.3126 6.2031C25.3117 6.35995 25.3419 6.51542 25.4014 6.66054C25.4609 6.80566 25.5486 6.93518 25.6594 7.04623ZM5.57637 27.6565H9.87512V30.0434H5.57637C4.824 30.0358 4.10515 29.731 3.57662 29.1955C3.31304 28.9297 3.10439 28.6147 2.96258 28.2683C2.82077 27.9219 2.74857 27.551 2.75012 27.1767V22.878C2.43043 22.8669 2.11628 22.7913 1.82652 22.6558C1.53676 22.5203 1.27735 22.3277 1.06387 22.0895C0.836512 21.8605 0.658186 21.5877 0.53977 21.2876C0.421353 20.9875 0.365329 20.6663 0.375116 20.3439V15.1616C0.382241 14.0406 0.826366 12.9695 1.61012 12.1739C2.39149 11.3877 3.44837 10.9389 4.55512 10.9317H8.92512C8.33504 11.6333 7.89094 12.4456 7.61887 13.321H4.55512C4.07319 13.3353 3.61472 13.5322 3.27262 13.872C2.93749 14.2176 2.75009 14.6802 2.75012 15.1616V20.4626H5.12512V27.1744C5.11933 27.2391 5.12688 27.3043 5.14731 27.366C5.16773 27.4277 5.2006 27.4845 5.24387 27.533C5.33934 27.6068 5.45576 27.6483 5.57637 27.6517V27.6565ZM22.9139 12.1762C22.5249 11.7844 22.0624 11.473 21.5531 11.2598C21.0437 11.0467 20.4973 10.936 19.9451 10.9341H14.0551C12.9482 10.9442 11.8899 11.3906 11.1101 12.1762C10.3264 12.9719 9.88224 14.043 9.87512 15.164V22.7117C9.87176 23.3598 10.1185 23.9842 10.5639 24.455C10.7774 24.6932 11.0368 24.8858 11.3265 25.0213C11.6163 25.1568 11.9304 25.2324 12.2501 25.2435V30.7606C12.2476 31.1372 12.3198 31.5106 12.4625 31.8591C12.6052 32.2077 12.8155 32.5245 13.0814 32.7912C13.5089 33.1902 14.048 33.4491 14.6251 33.5322H19.3751C20.0431 33.4445 20.6552 33.113 21.0936 32.6014C21.532 32.0898 21.7658 31.4342 21.7501 30.7606V25.2411C22.0698 25.23 22.384 25.1544 22.6737 25.0189C22.9635 24.8834 23.2229 24.6908 23.4364 24.4526C23.6634 24.224 23.8416 23.9515 23.96 23.6518C24.0784 23.3521 24.1346 23.0315 24.1251 22.7094V15.1616C24.1268 14.0458 23.6921 12.9759 22.9139 12.1762ZM21.7501 22.8281H19.3751V30.7606C19.3733 30.8859 19.3221 31.0054 19.2326 31.0931C19.1921 31.1411 19.1409 31.1789 19.0832 31.2037C19.0255 31.2284 18.9628 31.2393 18.9001 31.2356H15.0764C14.9523 31.2298 14.8348 31.1779 14.7469 31.0901C14.659 31.0022 14.6071 30.8847 14.6014 30.7606V22.8281H12.2501V15.1616C12.2501 14.6795 12.4377 14.2164 12.7726 13.872C13.1147 13.5322 13.5732 13.3353 14.0551 13.321H19.9451C20.3048 13.3279 20.6546 13.4394 20.9519 13.6419C21.2493 13.8443 21.4812 14.1289 21.6195 14.461C21.7068 14.6842 21.7512 14.9219 21.7501 15.1616V22.8281ZM28.4239 30.041H24.1251V27.6541H28.4001C28.5207 27.6507 28.6371 27.6091 28.7326 27.5354C28.7804 27.4886 28.8179 27.4323 28.8424 27.3701C28.867 27.3079 28.8781 27.2412 28.8751 27.1744V20.4626H31.2501V15.1616C31.2501 14.6802 31.0627 14.2176 30.7276 13.872C30.3855 13.5322 29.927 13.3353 29.4451 13.321H26.3814C26.1093 12.4456 25.6652 11.6333 25.0751 10.9317H29.4451C30.552 10.9419 31.6103 11.3882 32.3901 12.1739C33.1739 12.9695 33.618 14.0406 33.6251 15.1616V20.3439C33.6251 20.9922 33.3805 21.6145 32.9387 22.0847C32.497 22.5574 31.8937 22.84 31.2501 22.8756V27.1744C31.2501 27.932 30.9532 28.6564 30.4236 29.1931C29.8951 29.7286 29.1762 30.0334 28.4239 30.041ZM7.50012 2.61923C6.79309 2.61713 6.10165 2.82686 5.51494 3.22139C4.92822 3.61592 4.47314 4.17715 4.20837 4.83273C3.941 5.48748 3.87184 6.20635 4.00949 6.90006C4.14713 7.59378 4.48552 8.23178 4.98262 8.73485C5.48034 9.23684 6.1164 9.57906 6.80955 9.7178C7.50271 9.85654 8.22149 9.78551 8.87408 9.51377C9.52667 9.24202 10.0834 8.78192 10.4733 8.19221C10.8631 7.60251 11.0683 6.90999 11.0626 6.2031C11.0626 5.2531 10.6874 4.3411 10.0176 3.66898C9.68751 3.33721 9.29527 3.07375 8.86331 2.89363C8.43135 2.71351 7.96813 2.62026 7.50012 2.61923ZM7.50012 7.39773C7.34357 7.39773 7.18857 7.36678 7.04403 7.30666C6.89949 7.24654 6.76826 7.15843 6.6579 7.0474C6.54753 6.93638 6.46021 6.80463 6.40096 6.65973C6.3417 6.51483 6.31168 6.35965 6.31262 6.2031C6.31323 5.88769 6.43832 5.58527 6.66068 5.36157C6.88304 5.13787 7.18471 5.01098 7.50012 5.00848C7.81437 5.01461 8.11393 5.14266 8.33552 5.36558C8.5571 5.5885 8.68336 5.88882 8.68762 6.2031C8.687 6.51852 8.56192 6.82094 8.33955 7.04464C8.11719 7.26833 7.81552 7.39523 7.50012 7.39773Z" fill="black" fill-opacity="0.99"/>
</svg>
