<svg width="50" height="48" viewBox="0 0 50 48" fill="none" xmlns="http://www.w3.org/2000/svg">
<path d="M40.1462 38.9795C40.008 38.9795 39.8756 39.0344 39.7779 39.1321C39.6802 39.2297 39.6253 39.3622 39.6253 39.5003V41.0628C39.6253 41.4772 39.4607 41.8747 39.1677 42.1677C38.8747 42.4607 38.4772 42.6253 38.0628 42.6253C37.6484 42.6253 37.251 42.4607 36.958 42.1677C36.665 41.8747 36.5003 41.4772 36.5003 41.0628V39.5003C36.5003 39.3622 36.4455 39.2297 36.3478 39.1321C36.2501 39.0344 36.1176 38.9795 35.9795 38.9795H27.0837C26.9455 38.9795 26.8131 39.0344 26.7154 39.1321C26.6177 39.2297 26.5628 39.3622 26.5628 39.5003V44.1878C26.5683 45.015 26.8993 45.8067 27.4842 46.3915C28.069 46.9764 28.8607 47.3074 29.6878 47.3128H46.3545C47.1833 47.3128 47.9782 46.9836 48.5642 46.3976C49.1503 45.8115 49.4795 45.0167 49.4795 44.1878V39.5003C49.4795 39.3622 49.4246 39.2297 49.327 39.1321C49.2293 39.0344 49.0968 38.9795 48.9587 38.9795H40.1462ZM49.0003 36.8962C49.1385 36.8962 49.271 36.8413 49.3686 36.7436C49.4663 36.646 49.5212 36.5135 49.5212 36.3753V31.6878C49.5212 30.859 49.1919 30.0642 48.6059 29.4781C48.0198 28.8921 47.225 28.5628 46.3962 28.5628H45.8337C45.7124 28.5596 45.5961 28.514 45.5049 28.4342C45.4136 28.3543 45.353 28.2451 45.3337 28.1253C45.2995 27.9523 45.2435 27.7843 45.167 27.6253L44.1253 25.542C43.7216 24.5574 43.026 23.7201 42.1321 23.1428C41.2381 22.5655 40.1888 22.2759 39.1253 22.3128H37.042C35.9808 22.2742 34.9335 22.5634 34.0425 23.1412C33.1516 23.719 32.4604 24.5573 32.0628 25.542L31.0212 27.6253C30.9447 27.7843 30.8887 27.9523 30.8545 28.1253C30.8351 28.2451 30.7746 28.3543 30.6833 28.4342C30.592 28.514 30.4758 28.5596 30.3545 28.5628H29.7503C28.9215 28.5628 28.1267 28.8921 27.5406 29.4781C26.9546 30.0642 26.6253 30.859 26.6253 31.6878V36.3753C26.6253 36.5135 26.6802 36.646 26.7779 36.7436C26.8756 36.8413 27.008 36.8962 27.1462 36.8962H49.0003ZM35.7712 27.417C36.2295 26.4795 36.4587 26.4795 37.0212 26.4795H39.1045C39.667 26.4795 39.917 26.4795 40.3753 27.417L40.5837 27.8128C40.6238 27.8901 40.6448 27.9758 40.6448 28.0628C40.6448 28.1499 40.6238 28.2356 40.5837 28.3128C40.5394 28.3895 40.4756 28.4531 40.3987 28.497C40.3219 28.5409 40.2347 28.5636 40.1462 28.5628H36.042C35.9511 28.5613 35.8619 28.5378 35.7821 28.4942C35.7023 28.4507 35.6342 28.3885 35.5837 28.3128C35.5435 28.2356 35.5225 28.1499 35.5225 28.0628C35.5225 27.9758 35.5435 27.8901 35.5837 27.8128L35.7712 27.417ZM15.1878 17.0212C15.1101 16.9751 15.0457 16.9095 15.001 16.831C14.9563 16.7525 14.9328 16.6636 14.9328 16.5733C14.9328 16.4829 14.9563 16.3941 15.001 16.3155C15.0457 16.237 15.1101 16.1715 15.1878 16.1253C16.4484 15.3511 17.4845 14.2606 18.1932 12.962C18.9019 11.6635 19.2585 10.2021 19.2276 8.72305C19.1968 7.24401 18.7795 5.79879 18.0172 4.53095C17.2549 3.2631 16.1742 2.21676 14.8824 1.49584C13.5905 0.774925 12.1326 0.404532 10.6533 0.421453C9.17408 0.438375 7.72499 0.842021 6.45 1.5923C5.17502 2.34258 4.11851 3.41337 3.38544 4.69832C2.65236 5.98327 2.26822 7.43766 2.27118 8.91702C2.26202 10.3145 2.60449 11.6919 3.26707 12.9224C3.92965 14.1529 4.89107 15.197 6.06284 15.9587C6.13138 16.0167 6.18439 16.0909 6.21712 16.1746C6.24985 16.2582 6.26127 16.3487 6.25034 16.4378C6.24716 16.5307 6.21818 16.6208 6.16666 16.698C6.11515 16.7753 6.04313 16.8367 5.95868 16.8753C4.30963 17.6978 2.92298 18.9644 1.95493 20.5324C0.986882 22.1004 0.475889 23.9076 0.479511 25.7503V31.6878C0.49827 31.9306 0.601467 32.1591 0.771178 32.3337C0.868878 32.4334 0.985615 32.5124 1.11445 32.5661C1.24329 32.6198 1.38161 32.647 1.52118 32.6462H4.54201C4.66997 32.6453 4.79379 32.6915 4.88985 32.776C4.98591 32.8605 5.04749 32.9775 5.06284 33.1045L6.41701 46.542C6.43821 46.8017 6.5579 47.0434 6.75156 47.2177C6.94522 47.392 7.1982 47.4857 7.45868 47.4795H13.3753C13.6358 47.4857 13.8888 47.392 14.0825 47.2177C14.2761 47.0434 14.3958 46.8017 14.417 46.542L15.7712 33.1045C15.7865 32.9775 15.8481 32.8605 15.9442 32.776C16.0402 32.6915 16.1641 32.6453 16.292 32.6462H19.3128C19.4524 32.647 19.5907 32.6198 19.7196 32.5661C19.8484 32.5124 19.9651 32.4334 20.0628 32.3337C20.2515 32.138 20.3561 31.8763 20.3545 31.6045V25.7503C20.3522 23.9663 19.8717 22.2156 18.963 20.6803C18.0543 19.1451 16.7507 17.8815 15.1878 17.0212ZM11.9795 24.0003C11.9795 24.4147 11.8149 24.8122 11.5219 25.1052C11.2288 25.3982 10.8314 25.5628 10.417 25.5628C10.0026 25.5628 9.60518 25.3982 9.31216 25.1052C9.01913 24.8122 8.85451 24.4147 8.85451 24.0003V20.542C8.85451 20.1276 9.01913 19.7302 9.31216 19.4372C9.60518 19.1441 10.0026 18.9795 10.417 18.9795C10.8314 18.9795 11.2288 19.1441 11.5219 19.4372C11.8149 19.7302 11.9795 20.1276 11.9795 20.542V24.0003ZM6.60451 7.66701C6.62473 7.58983 6.6639 7.51891 6.71847 7.4607C6.77304 7.40249 6.84129 7.35883 6.91701 7.33368C6.98835 7.29873 7.06674 7.28055 7.14618 7.28055C7.22562 7.28055 7.30401 7.29873 7.37534 7.33368C9.03695 8.32974 10.9381 8.85542 12.8753 8.85451C13.5315 8.85044 14.1863 8.79472 14.8337 8.68785C14.8564 8.6768 14.8813 8.67105 14.9066 8.67105C14.9319 8.67105 14.9568 8.6768 14.9795 8.68785C14.9928 8.73554 14.9928 8.78598 14.9795 8.83368C15.0207 9.42661 14.9395 10.0217 14.7409 10.5819C14.5423 11.1421 14.2306 11.6554 13.8251 12.09C13.4197 12.5246 12.9291 12.8712 12.384 13.1081C11.839 13.345 11.251 13.4673 10.6566 13.4673C10.0622 13.4673 9.47423 13.345 8.92914 13.1081C8.38405 12.8712 7.89353 12.5246 7.48808 12.09C7.08263 11.6554 6.77091 11.1421 6.57232 10.5819C6.37372 10.0217 6.29249 9.42661 6.33368 8.83368C6.3673 8.43378 6.45852 8.04083 6.60451 7.66701Z" fill="#1A1A1A"/>
</svg>
