<svg width="279" height="102" viewBox="0 0 279 102" fill="none" xmlns="http://www.w3.org/2000/svg">
<path fill-rule="evenodd" clip-rule="evenodd" d="M92.318 39.103C88.6365 39.0021 84.9838 39.7485 81.6376 41.2845C78.8792 42.6764 79.3299 44.4144 80.0186 45.662L81.6016 48.6043C84.4285 46.4805 87.8757 45.3519 91.4093 45.3951C96.7964 45.3951 99.4611 47.9985 99.4611 52.4192V52.9024H91.1065C81.2987 52.9024 77.6641 57.1356 77.6641 62.5335C77.6641 67.9313 82.3264 72.2222 89.7146 72.2222C94.5211 72.2222 98.0188 70.6717 99.8433 67.9241C100.063 70.12 101.909 71.7895 104.113 71.7967H107.033V52.8411C107.033 43.5165 101.646 39.0958 92.3216 39.0958M91.2976 66.709C87.4213 66.709 85.1208 64.9565 85.1208 62.227C85.1208 59.8652 86.5163 57.9289 91.6581 57.9289H99.4683V61.6825C98.1017 64.9349 94.8132 66.9542 91.294 66.709" fill="white"/>
<path fill-rule="evenodd" clip-rule="evenodd" d="M177.107 55.8162C177.107 45.7056 170.202 39.107 160.762 39.107C151.888 38.7536 144.41 45.6623 144.056 54.5361C144.042 54.9039 144.038 55.2717 144.049 55.6359C144.049 65.267 151.073 72.2262 161.909 72.2262C167.48 72.2262 172.019 70.4088 174.926 66.9581L173.083 64.8415C172.232 64.0518 171.403 62.3896 168.648 64.0915C166.668 65.2742 164.393 65.8691 162.089 65.8078C156.457 65.8078 152.523 62.7826 151.614 58.059H176.985C177.046 57.3306 177.107 56.4256 177.107 55.8198M160.762 45.1611C165.41 44.9556 169.416 48.4027 169.903 53.0325H151.557C152.108 48.4135 156.111 44.988 160.758 45.1611" fill="white"/>
<path fill-rule="evenodd" clip-rule="evenodd" d="M215.193 55.8162C215.193 45.7056 208.288 39.107 198.848 39.107C189.974 38.7536 182.496 45.6623 182.142 54.5361C182.128 54.9039 182.124 55.2717 182.135 55.6359C182.135 65.267 189.159 72.2262 199.995 72.2262C205.566 72.2262 210.105 70.4088 213.012 66.9581L211.169 64.8415C210.318 64.0518 209.489 62.3896 206.734 64.0915C204.751 65.2778 202.475 65.8728 200.168 65.8078C194.536 65.8078 190.602 62.7826 189.693 58.059H215.063C215.125 57.3306 215.186 56.4256 215.186 55.8198M198.841 45.1611C203.489 44.9556 207.495 48.4027 207.981 53.0325H189.635C190.187 48.4135 194.189 44.9916 198.837 45.1611" fill="white"/>
<path fill-rule="evenodd" clip-rule="evenodd" d="M126.616 72.2206C135.699 72.2206 141.266 68.2794 141.266 62.2289C141.266 49.5762 121.287 55.3779 121.287 48.8478C121.287 46.7276 123.468 45.2168 128.069 45.2168C131.322 45.1591 134.527 45.9956 137.332 47.6399L139.229 43.8899C139.561 43.1939 140.127 41.5389 137.549 40.6483C134.513 39.6386 131.332 39.1194 128.13 39.105C119.412 39.105 113.902 43.1002 113.902 49.2156C113.902 62.1099 133.882 56.2902 133.882 62.4741C133.882 64.7133 131.884 66.0474 127.099 66.0474C123.122 66.0258 119.228 64.9152 115.838 62.8383L113.794 66.8696C113.311 67.7674 112.918 68.6905 114.619 69.5955C118.359 71.3804 122.462 72.2819 126.609 72.2242" fill="white"/>
<path fill-rule="evenodd" clip-rule="evenodd" d="M220.691 39.3835V71.7166H228.26V56.0314C228.26 49.4328 231.891 46.047 237.646 46.047C238.234 46.0506 238.821 46.1119 239.398 46.2273V40.9736C239.398 39.9929 239.633 38.8679 236.975 39.1563C233.409 39.3005 230.103 41.0674 228 43.952V43.5662L227.899 43.6924V43.678C227.892 41.3126 225.974 39.3943 223.609 39.3871H220.691V39.3835Z" fill="white"/>
<path fill-rule="evenodd" clip-rule="evenodd" d="M14.0482 71.7164H21.9196V35.9939H35.9642V29.334H0V29.9434C0.0108174 33.2787 2.71155 35.9831 6.04691 35.9903H14.0445V71.7164H14.0482Z" fill="white"/>
<path fill-rule="evenodd" clip-rule="evenodd" d="M66.3686 41.3999L57.1197 63.013L46.9478 39.0994H39.0799L53.1858 71.5515L52.6413 72.8243C51.181 76.0335 49.6161 77.3063 46.9478 77.3063C45.7074 77.2919 44.4886 76.9998 43.3744 76.4553C41.2362 75.4349 40.7458 76.4085 40.2482 77.1477L38.3516 80.6345C40.7999 82.6104 43.8648 83.6597 47.0091 83.602C52.3961 83.602 56.5139 81.3628 59.4815 74.0359L74.6186 39.0994H69.3253C67.9948 39.2688 66.8589 40.1486 66.3686 41.3999Z" fill="white"/>
<path d="M236.566 19.9508C236.566 19.1071 237.252 18.4184 238.099 18.4184H249.27C252.428 18.4184 254.988 15.8583 254.988 12.6996V1.53246C254.988 0.6851 255.673 0 256.521 0C257.368 0 258.053 0.6851 258.053 1.53246V12.9772C258.053 17.6756 254.246 21.4833 249.551 21.4833H238.106C237.262 21.4833 236.574 20.7982 236.574 19.9508" fill="white"/>
<path d="M278.01 21.4997C278.01 22.3435 277.325 23.0322 276.478 23.0322H265.307C262.148 23.0322 259.588 25.5923 259.588 28.751V39.9217C259.588 40.7691 258.903 41.4542 258.056 41.4542C257.209 41.4542 256.523 40.7691 256.523 39.9217V28.4733C256.523 23.775 260.331 19.9673 265.026 19.9673H276.471C277.314 19.9673 278.003 20.6524 278.003 21.4997" fill="white"/>
<path d="M273.218 10.0902C273.218 12.5132 271.253 14.4784 268.83 14.4784C266.407 14.4784 264.441 12.5132 264.441 10.0902C264.441 7.66706 266.407 5.7019 268.83 5.7019C271.253 5.7019 273.218 7.66706 273.218 10.0902Z" fill="#00BDFF"/>
<path d="M251.862 32.2672C251.862 34.6902 249.897 36.6554 247.474 36.6554C245.051 36.6554 243.086 34.6902 243.086 32.2672C243.086 29.8441 245.051 27.8789 247.474 27.8789C249.897 27.8789 251.862 29.8441 251.862 32.2672Z" fill="#00BDFF"/>
<path d="M268.841 36.6554C266.418 36.6554 264.453 34.6902 264.453 32.2672C264.453 29.8441 266.418 27.8789 268.841 27.8789C271.264 27.8789 273.23 29.8441 273.23 32.2672C273.23 34.6902 271.264 36.6554 268.841 36.6554Z" fill="#00BDFF"/>
<path d="M247.474 14.473C245.051 14.473 243.086 12.5079 243.086 10.0848C243.086 7.66169 245.051 5.69653 247.474 5.69653C249.897 5.69653 251.862 7.66169 251.862 10.0848C251.862 12.5079 249.897 14.473 247.474 14.473Z" fill="#00BDFF"/>
<path d="M199.321 98.0046V87.0955H203.007C203.863 87.0955 204.563 87.25 205.106 87.559C205.653 87.8644 206.058 88.2781 206.32 88.8001C206.583 89.3221 206.714 89.9045 206.714 90.5473C206.714 91.19 206.583 91.7742 206.32 92.2997C206.061 92.8253 205.66 93.2443 205.116 93.5568C204.573 93.8658 203.877 94.0203 203.028 94.0203H200.386V92.8484H202.986C203.572 92.8484 204.042 92.7472 204.397 92.5448C204.752 92.3424 205.01 92.0689 205.17 91.7245C205.333 91.3764 205.415 90.984 205.415 90.5473C205.415 90.1105 205.333 89.7198 205.17 89.3754C205.01 89.0309 204.751 88.761 204.392 88.5657C204.033 88.3669 203.558 88.2674 202.964 88.2674H200.642V98.0046H199.321ZM211.08 98.1964C210.561 98.1964 210.091 98.0987 209.668 97.9034C209.246 97.7046 208.91 97.4187 208.661 97.0458C208.413 96.6694 208.289 96.2149 208.289 95.6822C208.289 95.2134 208.381 94.8335 208.566 94.5423C208.75 94.2475 208.997 94.0167 209.306 93.8498C209.615 93.6829 209.956 93.5586 210.329 93.4769C210.705 93.3917 211.083 93.3242 211.463 93.2745C211.96 93.2106 212.363 93.1627 212.672 93.1307C212.985 93.0952 213.212 93.0366 213.354 92.9549C213.5 92.8732 213.573 92.7312 213.573 92.5288V92.4862C213.573 91.9606 213.429 91.5522 213.141 91.261C212.857 90.9698 212.426 90.8242 211.847 90.8242C211.247 90.8242 210.776 90.9556 210.435 91.2184C210.094 91.4812 209.855 91.7617 209.716 92.06L208.523 91.6339C208.736 91.1367 209.02 90.7497 209.375 90.4727C209.734 90.1921 210.124 89.9968 210.547 89.8867C210.973 89.7731 211.392 89.7163 211.804 89.7163C212.067 89.7163 212.369 89.7482 212.71 89.8122C213.054 89.8725 213.386 89.9986 213.706 90.1904C214.029 90.3821 214.297 90.6715 214.51 91.0586C214.723 91.4457 214.83 91.9642 214.83 92.614V98.0046H213.573V96.8967H213.509C213.423 97.0742 213.281 97.2642 213.083 97.4666C212.884 97.6691 212.619 97.8413 212.289 97.9833C211.959 98.1254 211.556 98.1964 211.08 98.1964ZM211.271 97.0671C211.769 97.0671 212.188 96.9695 212.529 96.7742C212.873 96.5789 213.132 96.3267 213.306 96.0178C213.484 95.7088 213.573 95.3839 213.573 95.043V93.8924C213.519 93.9563 213.402 94.0149 213.221 94.0682C213.044 94.1179 212.838 94.1623 212.603 94.2014C212.372 94.2369 212.147 94.2688 211.927 94.2973C211.71 94.3221 211.534 94.3434 211.399 94.3612C211.073 94.4038 210.767 94.473 210.483 94.5689C210.203 94.6612 209.975 94.8015 209.801 94.9897C209.631 95.1744 209.546 95.4265 209.546 95.7461C209.546 96.1829 209.707 96.5132 210.03 96.7369C210.357 96.9571 210.771 97.0671 211.271 97.0671ZM217.641 101.073C217.428 101.073 217.238 101.055 217.071 101.02C216.904 100.988 216.789 100.956 216.725 100.924L217.044 99.8157C217.35 99.8938 217.62 99.9223 217.854 99.9009C218.088 99.8796 218.296 99.7749 218.477 99.5867C218.662 99.402 218.831 99.1019 218.983 98.6865L219.218 98.0473L216.192 89.8228H217.556L219.814 96.3427H219.899L222.158 89.8228H223.522L220.049 99.1978C219.892 99.6204 219.699 99.9702 219.468 100.247C219.237 100.528 218.969 100.735 218.664 100.87C218.362 101.005 218.021 101.073 217.641 101.073Z" fill="#00BDFF"/>
</svg>
