<svg width="584" height="100" viewBox="0 0 584 100" fill="none" xmlns="http://www.w3.org/2000/svg">
<g filter="url(#filter0_d_453_9382)">
<circle cx="73" cy="24" r="20" fill="white"/>
<path d="M93 24C93 35.0457 84.0457 44 73 44C61.9543 44 53 35.0457 53 24C53 12.9543 61.9543 4 73 4C84.0457 4 93 12.9543 93 24ZM55.8811 24C55.8811 33.4545 63.5455 41.1189 73 41.1189C82.4545 41.1189 90.1189 33.4545 90.1189 24C90.1189 14.5455 82.4545 6.88111 73 6.88111C63.5455 6.88111 55.8811 14.5455 55.8811 24Z" fill="white"/>
<path d="M64.5625 24C64.5625 26.2378 65.4514 28.3839 67.0338 29.9662C68.6161 31.5486 70.7622 32.4375 73 32.4375C75.2378 32.4375 77.3839 31.5486 78.9662 29.9662C80.5486 28.3839 81.4375 26.2378 81.4375 24C81.4375 21.7622 80.5486 19.6161 78.9662 18.0338C77.3839 16.4514 75.2378 15.5625 73 15.5625C70.7622 15.5625 68.6161 16.4514 67.0338 18.0338C65.4514 19.6161 64.5625 21.7622 64.5625 24Z" stroke="#00BDFF" stroke-width="1.5" stroke-linecap="round" stroke-linejoin="round"/>
<path d="M70.1875 24L72.0625 25.875L75.8125 22.125" stroke="#00BDFF" stroke-width="1.5" stroke-linecap="round" stroke-linejoin="round"/>
<path d="M93 24C93 35.0457 84.0457 44 73 44C61.9543 44 53 35.0457 53 24C53 12.9543 61.9543 4 73 4C84.0457 4 93 12.9543 93 24ZM55.8811 24C55.8811 33.4545 63.5455 41.1189 73 41.1189C82.4545 41.1189 90.1189 33.4545 90.1189 24C90.1189 14.5455 82.4545 6.88111 73 6.88111C63.5455 6.88111 55.8811 14.5455 55.8811 24Z" fill="#00BDFF"/>
</g>
<line x1="97" y1="23" x2="146" y2="23" stroke="#00BDFF" stroke-width="2"/>
<path d="M24.2691 75L19.9651 63.08H21.6451L25.2931 73.56H24.9571L28.6051 63.08H30.2851L25.9971 75H24.2691ZM34.7841 75.192C33.9521 75.192 33.2107 74.9947 32.5601 74.6C31.9094 74.2053 31.3974 73.6667 31.0241 72.984C30.6507 72.2907 30.4641 71.5173 30.4641 70.664C30.4641 69.8 30.6454 69.032 31.0081 68.36C31.3814 67.688 31.8827 67.16 32.5121 66.776C33.1521 66.3813 33.8667 66.184 34.6561 66.184C35.2961 66.184 35.8614 66.3013 36.3521 66.536C36.8534 66.76 37.2747 67.0693 37.6161 67.464C37.9681 67.848 38.2347 68.2907 38.4161 68.792C38.6081 69.2827 38.7041 69.7947 38.7041 70.328C38.7041 70.4453 38.6934 70.5787 38.6721 70.728C38.6614 70.8667 38.6454 71 38.6241 71.128H31.5521V69.848H37.7601L37.0561 70.424C37.1521 69.8693 37.0987 69.3733 36.8961 68.936C36.6934 68.4987 36.3947 68.152 36.0001 67.896C35.6054 67.64 35.1574 67.512 34.6561 67.512C34.1547 67.512 33.6961 67.64 33.2801 67.896C32.8641 68.152 32.5387 68.52 32.3041 69C32.0801 69.4693 31.9894 70.0293 32.0321 70.68C31.9894 71.3093 32.0854 71.864 32.3201 72.344C32.5654 72.8133 32.9067 73.1813 33.3441 73.448C33.7921 73.704 34.2774 73.832 34.8001 73.832C35.3761 73.832 35.8614 73.6987 36.2561 73.432C36.6507 73.1653 36.9707 72.824 37.2161 72.408L38.4641 73.048C38.2934 73.4427 38.0267 73.8053 37.6641 74.136C37.3121 74.456 36.8907 74.712 36.4001 74.904C35.9201 75.096 35.3814 75.192 34.7841 75.192ZM40.6442 75V66.376H42.1002V67.96L41.9402 67.736C42.1429 67.2453 42.4522 66.8827 42.8682 66.648C43.2842 66.4027 43.7909 66.28 44.3882 66.28H44.9162V67.688H44.1642C43.5562 67.688 43.0655 67.88 42.6922 68.264C42.3189 68.6373 42.1322 69.1707 42.1322 69.864V75H40.6442ZM46.2379 75V66.376H47.7259V75H46.2379ZM46.2379 65V63.08H47.7259V65H46.2379ZM50.9468 75V67.8H49.2988V66.376H50.9468V65.768C50.9468 65.1493 51.0801 64.6267 51.3468 64.2C51.6241 63.7733 51.9868 63.448 52.4348 63.224C52.8935 63 53.4001 62.888 53.9548 62.888C54.0721 62.888 54.2001 62.8987 54.3388 62.92C54.4881 62.9307 54.6108 62.9467 54.7068 62.968V64.296C54.6215 64.2747 54.5201 64.264 54.4028 64.264C54.2855 64.2533 54.1948 64.248 54.1308 64.248C53.6401 64.248 53.2348 64.3653 52.9148 64.6C52.6055 64.8347 52.4508 65.224 52.4508 65.768V66.376H54.4988V67.8H52.4508V75H50.9468ZM56.8582 78.52C56.6662 78.52 56.4742 78.504 56.2822 78.472C56.0902 78.44 55.9089 78.3867 55.7382 78.312V76.984C55.8555 77.0053 55.9995 77.0267 56.1702 77.048C56.3515 77.08 56.5275 77.096 56.6982 77.096C57.1995 77.096 57.5782 76.984 57.8342 76.76C58.1009 76.5467 58.3515 76.1733 58.5862 75.64L59.1302 74.344L59.0982 75.64L55.4182 66.376H57.0342L59.8982 73.736H59.4182L62.2662 66.376H63.9142L60.0262 76.024C59.8449 76.4827 59.6102 76.8987 59.3222 77.272C59.0449 77.656 58.7035 77.96 58.2982 78.184C57.8929 78.408 57.4129 78.52 56.8582 78.52ZM68.1796 75V63.08H69.7476V75H68.1796ZM76.1423 75.192C75.3316 75.192 74.601 74.9947 73.9503 74.6C73.3103 74.2053 72.8036 73.6667 72.4303 72.984C72.057 72.3013 71.8703 71.5387 71.8703 70.696C71.8703 69.832 72.057 69.064 72.4303 68.392C72.8036 67.7093 73.3103 67.1707 73.9503 66.776C74.601 66.3813 75.3316 66.184 76.1423 66.184C76.857 66.184 77.4916 66.3387 78.0463 66.648C78.601 66.9467 79.0383 67.352 79.3583 67.864L79.1183 68.232V62.888H80.6223V75H79.1663V73.16L79.3583 73.416C79.0596 73.9813 78.6223 74.4187 78.0463 74.728C77.481 75.0373 76.8463 75.192 76.1423 75.192ZM76.2703 73.752C76.8143 73.752 77.2996 73.6187 77.7263 73.352C78.153 73.0853 78.489 72.7227 78.7343 72.264C78.9903 71.7947 79.1183 71.272 79.1183 70.696C79.1183 70.1093 78.9903 69.5867 78.7343 69.128C78.489 68.6587 78.153 68.2907 77.7263 68.024C77.2996 67.7573 76.8143 67.624 76.2703 67.624C75.737 67.624 75.2516 67.7627 74.8143 68.04C74.3876 68.3067 74.0516 68.6693 73.8063 69.128C73.561 69.576 73.4383 70.0987 73.4383 70.696C73.4383 71.272 73.561 71.7947 73.8063 72.264C74.0516 72.7227 74.3876 73.0853 74.8143 73.352C75.241 73.6187 75.7263 73.752 76.2703 73.752ZM86.8934 75.192C86.0614 75.192 85.3201 74.9947 84.6694 74.6C84.0188 74.2053 83.5068 73.6667 83.1334 72.984C82.7601 72.2907 82.5734 71.5173 82.5734 70.664C82.5734 69.8 82.7548 69.032 83.1174 68.36C83.4908 67.688 83.9921 67.16 84.6214 66.776C85.2614 66.3813 85.9761 66.184 86.7654 66.184C87.4054 66.184 87.9708 66.3013 88.4614 66.536C88.9628 66.76 89.3841 67.0693 89.7254 67.464C90.0774 67.848 90.3441 68.2907 90.5254 68.792C90.7174 69.2827 90.8134 69.7947 90.8134 70.328C90.8134 70.4453 90.8028 70.5787 90.7814 70.728C90.7708 70.8667 90.7548 71 90.7334 71.128H83.6614V69.848H89.8694L89.1654 70.424C89.2614 69.8693 89.2081 69.3733 89.0054 68.936C88.8028 68.4987 88.5041 68.152 88.1094 67.896C87.7148 67.64 87.2668 67.512 86.7654 67.512C86.2641 67.512 85.8054 67.64 85.3894 67.896C84.9734 68.152 84.6481 68.52 84.4134 69C84.1894 69.4693 84.0988 70.0293 84.1414 70.68C84.0988 71.3093 84.1948 71.864 84.4294 72.344C84.6748 72.8133 85.0161 73.1813 85.4534 73.448C85.9014 73.704 86.3868 73.832 86.9094 73.832C87.4854 73.832 87.9708 73.6987 88.3654 73.432C88.7601 73.1653 89.0801 72.824 89.3254 72.408L90.5734 73.048C90.4028 73.4427 90.1361 73.8053 89.7734 74.136C89.4214 74.456 89.0001 74.712 88.5094 74.904C88.0294 75.096 87.4908 75.192 86.8934 75.192ZM92.7536 75V66.376H94.2096V68.056L93.9696 67.912C94.1829 67.368 94.5242 66.9467 94.9936 66.648C95.4736 66.3387 96.0336 66.184 96.6736 66.184C97.2922 66.184 97.8416 66.3227 98.3216 66.6C98.8122 66.8773 99.1962 67.2613 99.4736 67.752C99.7616 68.2427 99.9056 68.7973 99.9056 69.416V75H98.4016V69.896C98.4016 69.416 98.3162 69.0107 98.1456 68.68C97.9749 68.3493 97.7296 68.0933 97.4096 67.912C97.1002 67.72 96.7429 67.624 96.3376 67.624C95.9322 67.624 95.5696 67.72 95.2496 67.912C94.9402 68.0933 94.6949 68.3547 94.5136 68.696C94.3322 69.0267 94.2416 69.4267 94.2416 69.896V75H92.7536ZM105.539 75.096C104.696 75.096 104.045 74.856 103.587 74.376C103.139 73.896 102.915 73.2187 102.915 72.344V67.8H101.347V66.376H101.667C102.051 66.376 102.355 66.2587 102.579 66.024C102.803 65.7893 102.915 65.48 102.915 65.096V64.392H104.403V66.376H106.339V67.8H104.403V72.296C104.403 72.584 104.445 72.8347 104.531 73.048C104.627 73.2613 104.781 73.432 104.995 73.56C105.208 73.6773 105.491 73.736 105.843 73.736C105.917 73.736 106.008 73.7307 106.115 73.72C106.232 73.7093 106.339 73.6987 106.435 73.688V75C106.296 75.032 106.141 75.0533 105.971 75.064C105.8 75.0853 105.656 75.096 105.539 75.096ZM108.379 75V66.376H109.867V75H108.379ZM108.379 65V63.08H109.867V65H108.379ZM115.679 75.096C114.837 75.096 114.186 74.856 113.727 74.376C113.279 73.896 113.055 73.2187 113.055 72.344V67.8H111.487V66.376H111.807C112.191 66.376 112.495 66.2587 112.719 66.024C112.943 65.7893 113.055 65.48 113.055 65.096V64.392H114.543V66.376H116.479V67.8H114.543V72.296C114.543 72.584 114.586 72.8347 114.671 73.048C114.767 73.2613 114.922 73.432 115.135 73.56C115.349 73.6773 115.631 73.736 115.983 73.736C116.058 73.736 116.149 73.7307 116.255 73.72C116.373 73.7093 116.479 73.6987 116.575 73.688V75C116.437 75.032 116.282 75.0533 116.111 75.064C115.941 75.0853 115.797 75.096 115.679 75.096ZM118.983 78.52C118.791 78.52 118.599 78.504 118.407 78.472C118.215 78.44 118.034 78.3867 117.863 78.312V76.984C117.981 77.0053 118.125 77.0267 118.295 77.048C118.477 77.08 118.653 77.096 118.823 77.096C119.325 77.096 119.703 76.984 119.959 76.76C120.226 76.5467 120.477 76.1733 120.711 75.64L121.255 74.344L121.223 75.64L117.543 66.376H119.159L122.023 73.736H121.543L124.391 66.376H126.039L122.151 76.024C121.97 76.4827 121.735 76.8987 121.447 77.272C121.17 77.656 120.829 77.96 120.423 78.184C120.018 78.408 119.538 78.52 118.983 78.52Z" fill="#010814"/>
<g filter="url(#filter1_d_453_9382)">
<circle cx="219" cy="24" r="20" fill="white"/>
<path d="M239 24C239 35.0457 230.046 44 219 44C207.954 44 199 35.0457 199 24C199 12.9543 207.954 4 219 4C230.046 4 239 12.9543 239 24ZM201.881 24C201.881 33.4545 209.545 41.1189 219 41.1189C228.455 41.1189 236.119 33.4545 236.119 24C236.119 14.5455 228.455 6.88111 219 6.88111C209.545 6.88111 201.881 14.5455 201.881 24Z" fill="white"/>
<path d="M210.562 24C210.562 26.2378 211.451 28.3839 213.034 29.9662C214.616 31.5486 216.762 32.4375 219 32.4375C221.238 32.4375 223.384 31.5486 224.966 29.9662C226.549 28.3839 227.438 26.2378 227.438 24C227.438 21.7622 226.549 19.6161 224.966 18.0338C223.384 16.4514 221.238 15.5625 219 15.5625C216.762 15.5625 214.616 16.4514 213.034 18.0338C211.451 19.6161 210.562 21.7622 210.562 24Z" stroke="#00BDFF" stroke-width="1.5" stroke-linecap="round" stroke-linejoin="round"/>
<path d="M216.188 24L218.062 25.875L221.812 22.125" stroke="#00BDFF" stroke-width="1.5" stroke-linecap="round" stroke-linejoin="round"/>
<path d="M239 24C239 35.0457 230.046 44 219 44C207.954 44 199 35.0457 199 24C199 12.9543 207.954 4 219 4C230.046 4 239 12.9543 239 24ZM201.881 24C201.881 33.4545 209.545 41.1189 219 41.1189C228.455 41.1189 236.119 33.4545 236.119 24C236.119 14.5455 228.455 6.88111 219 6.88111C209.545 6.88111 201.881 14.5455 201.881 24Z" fill="#00BDFF"/>
</g>
<line x1="243" y1="23" x2="292" y2="23" stroke="#00BDFF" stroke-width="2"/>
<line x1="146" y1="23" x2="195" y2="23" stroke="#00BDFF" stroke-width="2"/>
<path d="M164.977 75.192C164.134 75.192 163.345 75.0427 162.609 74.744C161.873 74.4347 161.228 74.0027 160.673 73.448C160.129 72.8933 159.702 72.2427 159.393 71.496C159.084 70.7387 158.929 69.9173 158.929 69.032C158.929 68.136 159.084 67.3147 159.393 66.568C159.702 65.8213 160.129 65.1707 160.673 64.616C161.228 64.0613 161.868 63.6347 162.593 63.336C163.329 63.0373 164.124 62.888 164.977 62.888C165.83 62.888 166.62 63.0427 167.345 63.352C168.081 63.6507 168.721 64.0773 169.265 64.632C169.82 65.176 170.252 65.8213 170.561 66.568C170.881 67.3147 171.041 68.136 171.041 69.032C171.041 69.9173 170.881 70.7387 170.561 71.496C170.252 72.2427 169.82 72.8933 169.265 73.448C168.721 74.0027 168.081 74.4347 167.345 74.744C166.62 75.0427 165.83 75.192 164.977 75.192ZM164.977 73.736C165.638 73.736 166.241 73.6187 166.785 73.384C167.329 73.1387 167.798 72.8027 168.193 72.376C168.598 71.9387 168.908 71.4373 169.121 70.872C169.345 70.296 169.457 69.6827 169.457 69.032C169.457 68.3813 169.345 67.7733 169.121 67.208C168.908 66.6427 168.598 66.1467 168.193 65.72C167.798 65.2827 167.329 64.9467 166.785 64.712C166.241 64.4667 165.638 64.344 164.977 64.344C164.326 64.344 163.729 64.4667 163.185 64.712C162.641 64.9467 162.166 65.2827 161.761 65.72C161.366 66.1467 161.057 66.6427 160.833 67.208C160.609 67.7733 160.497 68.3813 160.497 69.032C160.497 69.6827 160.609 70.296 160.833 70.872C161.057 71.4373 161.366 71.9387 161.761 72.376C162.166 72.8027 162.641 73.1387 163.185 73.384C163.729 73.6187 164.326 73.736 164.977 73.736ZM174.924 75V64.52H171.692V63.08H179.692V64.52H176.508V75H174.924ZM181.203 75V63.08H185.411C186.2 63.08 186.894 63.2293 187.491 63.528C188.088 63.8267 188.552 64.2533 188.883 64.808C189.224 65.3627 189.395 66.0133 189.395 66.76C189.395 67.5067 189.224 68.1573 188.883 68.712C188.552 69.256 188.088 69.6827 187.491 69.992C186.904 70.2907 186.211 70.44 185.411 70.44H182.771V75H181.203ZM182.771 69H185.459C185.939 69 186.355 68.9093 186.707 68.728C187.059 68.5467 187.331 68.2853 187.523 67.944C187.715 67.6027 187.811 67.208 187.811 66.76C187.811 66.3013 187.715 65.9067 187.523 65.576C187.331 65.2347 187.059 64.9733 186.707 64.792C186.355 64.6107 185.939 64.52 185.459 64.52H182.771V69ZM197.433 75L193.129 63.08H194.809L198.457 73.56H198.121L201.769 63.08H203.449L199.161 75H197.433ZM207.948 75.192C207.116 75.192 206.375 74.9947 205.724 74.6C205.073 74.2053 204.561 73.6667 204.188 72.984C203.815 72.2907 203.628 71.5173 203.628 70.664C203.628 69.8 203.809 69.032 204.172 68.36C204.545 67.688 205.047 67.16 205.676 66.776C206.316 66.3813 207.031 66.184 207.82 66.184C208.46 66.184 209.025 66.3013 209.516 66.536C210.017 66.76 210.439 67.0693 210.78 67.464C211.132 67.848 211.399 68.2907 211.58 68.792C211.772 69.2827 211.868 69.7947 211.868 70.328C211.868 70.4453 211.857 70.5787 211.836 70.728C211.825 70.8667 211.809 71 211.788 71.128H204.716V69.848H210.924L210.22 70.424C210.316 69.8693 210.263 69.3733 210.06 68.936C209.857 68.4987 209.559 68.152 209.164 67.896C208.769 67.64 208.321 67.512 207.82 67.512C207.319 67.512 206.86 67.64 206.444 67.896C206.028 68.152 205.703 68.52 205.468 69C205.244 69.4693 205.153 70.0293 205.196 70.68C205.153 71.3093 205.249 71.864 205.484 72.344C205.729 72.8133 206.071 73.1813 206.508 73.448C206.956 73.704 207.441 73.832 207.964 73.832C208.54 73.832 209.025 73.6987 209.42 73.432C209.815 73.1653 210.135 72.824 210.38 72.408L211.628 73.048C211.457 73.4427 211.191 73.8053 210.828 74.136C210.476 74.456 210.055 74.712 209.564 74.904C209.084 75.096 208.545 75.192 207.948 75.192ZM213.808 75V66.376H215.264V67.96L215.104 67.736C215.307 67.2453 215.616 66.8827 216.032 66.648C216.448 66.4027 216.955 66.28 217.552 66.28H218.08V67.688H217.328C216.72 67.688 216.23 67.88 215.856 68.264C215.483 68.6373 215.296 69.1707 215.296 69.864V75H213.808ZM219.402 75V66.376H220.89V75H219.402ZM219.402 65V63.08H220.89V65H219.402ZM224.111 75V67.8H222.463V66.376H224.111V65.768C224.111 65.1493 224.244 64.6267 224.511 64.2C224.788 63.7733 225.151 63.448 225.599 63.224C226.058 63 226.564 62.888 227.119 62.888C227.236 62.888 227.364 62.8987 227.503 62.92C227.652 62.9307 227.775 62.9467 227.871 62.968V64.296C227.786 64.2747 227.684 64.264 227.567 64.264C227.45 64.2533 227.359 64.248 227.295 64.248C226.804 64.248 226.399 64.3653 226.079 64.6C225.77 64.8347 225.615 65.224 225.615 65.768V66.376H230.095V67.8H225.615V75H224.111ZM229.167 75V66.376H230.671V75H229.167ZM236.73 75.192C235.887 75.192 235.135 74.9947 234.474 74.6C233.823 74.2053 233.311 73.6667 232.938 72.984C232.565 72.3013 232.378 71.5333 232.378 70.68C232.378 69.816 232.565 69.048 232.938 68.376C233.311 67.704 233.823 67.1707 234.474 66.776C235.135 66.3813 235.887 66.184 236.73 66.184C237.295 66.184 237.823 66.2853 238.314 66.488C238.805 66.6907 239.237 66.9627 239.61 67.304C239.983 67.6453 240.255 68.0453 240.426 68.504L239.098 69.144C238.895 68.696 238.586 68.3333 238.17 68.056C237.754 67.768 237.274 67.624 236.73 67.624C236.207 67.624 235.733 67.7573 235.306 68.024C234.89 68.2907 234.559 68.6533 234.314 69.112C234.069 69.5707 233.946 70.0987 233.946 70.696C233.946 71.272 234.069 71.7947 234.314 72.264C234.559 72.7227 234.89 73.0853 235.306 73.352C235.733 73.6187 236.207 73.752 236.73 73.752C237.274 73.752 237.754 73.6133 238.17 73.336C238.586 73.048 238.895 72.6693 239.098 72.2L240.426 72.872C240.255 73.32 239.983 73.72 239.61 74.072C239.237 74.4133 238.805 74.6853 238.314 74.888C237.823 75.0907 237.295 75.192 236.73 75.192ZM244.789 75.192C244.224 75.192 243.723 75.0907 243.285 74.888C242.859 74.6747 242.523 74.3867 242.277 74.024C242.032 73.6507 241.909 73.224 241.909 72.744C241.909 72.2853 242.005 71.8747 242.197 71.512C242.4 71.1387 242.709 70.824 243.125 70.568C243.552 70.312 244.085 70.1307 244.725 70.024L247.925 69.496V70.744L245.061 71.224C244.507 71.32 244.101 71.496 243.845 71.752C243.6 72.008 243.477 72.3227 243.477 72.696C243.477 73.048 243.616 73.3413 243.893 73.576C244.181 73.8107 244.539 73.928 244.965 73.928C245.509 73.928 245.979 73.816 246.373 73.592C246.779 73.3573 247.093 73.0427 247.317 72.648C247.552 72.2533 247.669 71.816 247.669 71.336V69.144C247.669 68.6747 247.493 68.296 247.141 68.008C246.8 67.7093 246.347 67.56 245.781 67.56C245.291 67.56 244.853 67.688 244.469 67.944C244.096 68.1893 243.819 68.52 243.637 68.936L242.341 68.264C242.501 67.8693 242.757 67.5173 243.109 67.208C243.461 66.888 243.872 66.6373 244.341 66.456C244.811 66.2747 245.301 66.184 245.813 66.184C246.475 66.184 247.056 66.312 247.557 66.568C248.059 66.8133 248.448 67.16 248.725 67.608C249.013 68.0453 249.157 68.5573 249.157 69.144V75H247.701V73.368L247.973 73.464C247.792 73.8053 247.547 74.104 247.237 74.36C246.928 74.616 246.565 74.8187 246.149 74.968C245.733 75.1173 245.28 75.192 244.789 75.192ZM254.812 75.096C253.97 75.096 253.319 74.856 252.86 74.376C252.412 73.896 252.188 73.2187 252.188 72.344V67.8H250.62V66.376H250.94C251.324 66.376 251.628 66.2587 251.852 66.024C252.076 65.7893 252.188 65.48 252.188 65.096V64.392H253.676V66.376H255.612V67.8H253.676V72.296C253.676 72.584 253.719 72.8347 253.804 73.048C253.9 73.2613 254.055 73.432 254.268 73.56C254.482 73.6773 254.764 73.736 255.116 73.736C255.191 73.736 255.282 73.7307 255.388 73.72C255.506 73.7093 255.612 73.6987 255.708 73.688V75C255.57 75.032 255.415 75.0533 255.244 75.064C255.074 75.0853 254.93 75.096 254.812 75.096ZM257.652 75V66.376H259.14V75H257.652ZM257.652 65V63.08H259.14V65H257.652ZM265.545 75.192C264.713 75.192 263.961 75 263.289 74.616C262.617 74.2213 262.084 73.6827 261.689 73C261.294 72.3173 261.097 71.544 261.097 70.68C261.097 69.816 261.289 69.048 261.673 68.376C262.068 67.704 262.601 67.1707 263.273 66.776C263.945 66.3813 264.702 66.184 265.545 66.184C266.377 66.184 267.129 66.3813 267.801 66.776C268.473 67.16 269.001 67.688 269.385 68.36C269.78 69.032 269.977 69.8053 269.977 70.68C269.977 71.5547 269.774 72.3333 269.369 73.016C268.964 73.688 268.425 74.2213 267.753 74.616C267.092 75 266.356 75.192 265.545 75.192ZM265.545 73.752C266.078 73.752 266.558 73.6187 266.985 73.352C267.422 73.0853 267.764 72.7173 268.009 72.248C268.265 71.7787 268.393 71.256 268.393 70.68C268.393 70.0933 268.265 69.576 268.009 69.128C267.764 68.6693 267.422 68.3067 266.985 68.04C266.558 67.7627 266.078 67.624 265.545 67.624C265.001 67.624 264.51 67.7627 264.073 68.04C263.646 68.3067 263.305 68.6693 263.049 69.128C262.793 69.576 262.665 70.0933 262.665 70.68C262.665 71.256 262.793 71.7787 263.049 72.248C263.305 72.7173 263.646 73.0853 264.073 73.352C264.51 73.6187 265.001 73.752 265.545 73.752ZM271.918 75V66.376H273.374V68.056L273.134 67.912C273.347 67.368 273.688 66.9467 274.158 66.648C274.638 66.3387 275.198 66.184 275.838 66.184C276.456 66.184 277.006 66.3227 277.486 66.6C277.976 66.8773 278.36 67.2613 278.638 67.752C278.926 68.2427 279.07 68.7973 279.07 69.416V75H277.566V69.896C277.566 69.416 277.48 69.0107 277.31 68.68C277.139 68.3493 276.894 68.0933 276.574 67.912C276.264 67.72 275.907 67.624 275.502 67.624C275.096 67.624 274.734 67.72 274.414 67.912C274.104 68.0933 273.859 68.3547 273.678 68.696C273.496 69.0267 273.406 69.4267 273.406 69.896V75H271.918Z" fill="black"/>
<g filter="url(#filter2_d_453_9382)">
<circle cx="365" cy="24" r="20" fill="white"/>
<path d="M385 24C385 35.0457 376.046 44 365 44C353.954 44 345 35.0457 345 24C345 12.9543 353.954 4 365 4C376.046 4 385 12.9543 385 24ZM347.881 24C347.881 33.4545 355.545 41.1189 365 41.1189C374.455 41.1189 382.119 33.4545 382.119 24C382.119 14.5455 374.455 6.88111 365 6.88111C355.545 6.88111 347.881 14.5455 347.881 24Z" fill="white"/>
<path d="M361.16 21.344C361.213 20.2773 361.587 19.456 362.28 18.88C362.984 18.2933 363.907 18 365.048 18C365.827 18 366.493 18.1387 367.048 18.416C367.603 18.6827 368.019 19.0507 368.296 19.52C368.584 19.9787 368.728 20.5013 368.728 21.088C368.728 21.76 368.552 22.3307 368.2 22.8C367.859 23.2587 367.448 23.568 366.968 23.728V23.792C367.587 23.984 368.067 24.3253 368.408 24.816C368.76 25.3067 368.936 25.936 368.936 26.704C368.936 27.344 368.787 27.9147 368.488 28.416C368.2 28.9173 367.768 29.312 367.192 29.6C366.627 29.8773 365.944 30.016 365.144 30.016C363.939 30.016 362.957 29.712 362.2 29.104C361.443 28.496 361.043 27.6 361 26.416H363.176C363.197 26.9387 363.373 27.36 363.704 27.68C364.045 27.9893 364.509 28.144 365.096 28.144C365.64 28.144 366.056 27.9947 366.344 27.696C366.643 27.3867 366.792 26.992 366.792 26.512C366.792 25.872 366.589 25.4133 366.184 25.136C365.779 24.8587 365.149 24.72 364.296 24.72H363.832V22.88H364.296C365.811 22.88 366.568 22.3733 366.568 21.36C366.568 20.9013 366.429 20.544 366.152 20.288C365.885 20.032 365.496 19.904 364.984 19.904C364.483 19.904 364.093 20.0427 363.816 20.32C363.549 20.5867 363.395 20.928 363.352 21.344H361.16Z" fill="#04147C"/>
<path d="M385 24C385 27.9556 383.827 31.8224 381.629 35.1114C379.432 38.4004 376.308 40.9638 372.654 42.4776C368.999 43.9913 364.978 44.3874 361.098 43.6157C357.219 42.844 353.655 40.9392 350.858 38.1421C348.061 35.3451 346.156 31.7814 345.384 27.9018C344.613 24.0222 345.009 20.0009 346.522 16.3463C348.036 12.6918 350.6 9.56824 353.889 7.37061C357.178 5.17298 361.044 4 365 4V6.88111C361.614 6.88111 358.304 7.88511 355.489 9.76616C352.674 11.6472 350.48 14.3208 349.184 17.4489C347.889 20.577 347.55 24.019 348.21 27.3397C348.871 30.6605 350.501 33.7108 352.895 36.1049C355.289 38.499 358.34 40.1294 361.66 40.79C364.981 41.4505 368.423 41.1115 371.551 39.8158C374.679 38.5201 377.353 36.3259 379.234 33.5107C381.115 30.6956 382.119 27.3858 382.119 24H385Z" fill="#00BDFF"/>
</g>
<line x1="389" y1="23" x2="438" y2="23" stroke="#A0A3B2" stroke-width="2" stroke-dasharray="6 6"/>
<line x1="292" y1="23" x2="341" y2="23" stroke="#00BDFF" stroke-width="2"/>
<path d="M310.047 75V63.08H311.359L318.207 72.712L317.615 72.776V63.08H319.199V75H317.887L311.071 65.304L311.615 65.24V75H310.047ZM325.651 75.192C324.819 75.192 324.078 74.9947 323.427 74.6C322.777 74.2053 322.265 73.6667 321.891 72.984C321.518 72.2907 321.331 71.5173 321.331 70.664C321.331 69.8 321.513 69.032 321.875 68.36C322.249 67.688 322.75 67.16 323.379 66.776C324.019 66.3813 324.734 66.184 325.523 66.184C326.163 66.184 326.729 66.3013 327.219 66.536C327.721 66.76 328.142 67.0693 328.483 67.464C328.835 67.848 329.102 68.2907 329.283 68.792C329.475 69.2827 329.571 69.7947 329.571 70.328C329.571 70.4453 329.561 70.5787 329.539 70.728C329.529 70.8667 329.513 71 329.491 71.128H322.419V69.848H328.627L327.923 70.424C328.019 69.8693 327.966 69.3733 327.763 68.936C327.561 68.4987 327.262 68.152 326.867 67.896C326.473 67.64 326.025 67.512 325.523 67.512C325.022 67.512 324.563 67.64 324.147 67.896C323.731 68.152 323.406 68.52 323.171 69C322.947 69.4693 322.857 70.0293 322.899 70.68C322.857 71.3093 322.953 71.864 323.187 72.344C323.433 72.8133 323.774 73.1813 324.211 73.448C324.659 73.704 325.145 73.832 325.667 73.832C326.243 73.832 326.729 73.6987 327.123 73.432C327.518 73.1653 327.838 72.824 328.083 72.408L329.331 73.048C329.161 73.4427 328.894 73.8053 328.531 74.136C328.179 74.456 327.758 74.712 327.267 74.904C326.787 75.096 326.249 75.192 325.651 75.192ZM333.495 75L330.535 66.376H332.183L334.535 73.592L333.959 73.576L336.263 66.376H337.671L339.975 73.576L339.399 73.592L341.767 66.376H343.399L340.439 75H339.015L336.743 67.8H337.191L334.919 75H333.495ZM347.672 75V63.08H351.88C352.669 63.08 353.362 63.2293 353.96 63.528C354.557 63.8267 355.021 64.2533 355.352 64.808C355.693 65.3627 355.864 66.0133 355.864 66.76C355.864 67.5067 355.693 68.1573 355.352 68.712C355.021 69.256 354.557 69.6827 353.96 69.992C353.373 70.2907 352.68 70.44 351.88 70.44H349.24V75H347.672ZM349.24 69H351.928C352.408 69 352.824 68.9093 353.176 68.728C353.528 68.5467 353.8 68.2853 353.992 67.944C354.184 67.6027 354.28 67.208 354.28 66.76C354.28 66.3013 354.184 65.9067 353.992 65.576C353.8 65.2347 353.528 64.9733 353.176 64.792C352.824 64.6107 352.408 64.52 351.928 64.52H349.24V69ZM359.743 75.192C359.177 75.192 358.676 75.0907 358.239 74.888C357.812 74.6747 357.476 74.3867 357.231 74.024C356.985 73.6507 356.863 73.224 356.863 72.744C356.863 72.2853 356.959 71.8747 357.151 71.512C357.353 71.1387 357.663 70.824 358.079 70.568C358.505 70.312 359.039 70.1307 359.679 70.024L362.879 69.496V70.744L360.015 71.224C359.46 71.32 359.055 71.496 358.799 71.752C358.553 72.008 358.431 72.3227 358.431 72.696C358.431 73.048 358.569 73.3413 358.847 73.576C359.135 73.8107 359.492 73.928 359.919 73.928C360.463 73.928 360.932 73.816 361.327 73.592C361.732 73.3573 362.047 73.0427 362.271 72.648C362.505 72.2533 362.623 71.816 362.623 71.336V69.144C362.623 68.6747 362.447 68.296 362.095 68.008C361.753 67.7093 361.3 67.56 360.735 67.56C360.244 67.56 359.807 67.688 359.423 67.944C359.049 68.1893 358.772 68.52 358.591 68.936L357.295 68.264C357.455 67.8693 357.711 67.5173 358.062 67.208C358.415 66.888 358.825 66.6373 359.295 66.456C359.764 66.2747 360.255 66.184 360.766 66.184C361.428 66.184 362.009 66.312 362.511 66.568C363.012 66.8133 363.401 67.16 363.679 67.608C363.967 68.0453 364.111 68.5573 364.111 69.144V75H362.655V73.368L362.927 73.464C362.745 73.8053 362.5 74.104 362.191 74.36C361.881 74.616 361.519 74.8187 361.103 74.968C360.687 75.1173 360.233 75.192 359.743 75.192ZM369.506 75.192C368.642 75.192 367.89 74.9787 367.25 74.552C366.61 74.1253 366.156 73.5493 365.89 72.824L367.074 72.248C367.319 72.76 367.655 73.1653 368.082 73.464C368.508 73.7627 368.983 73.912 369.506 73.912C369.975 73.912 370.364 73.8 370.674 73.576C370.983 73.352 371.138 73.0587 371.138 72.696C371.138 72.44 371.063 72.2373 370.914 72.088C370.775 71.928 370.604 71.8053 370.402 71.72C370.199 71.624 370.012 71.5547 369.842 71.512L368.546 71.144C367.767 70.92 367.196 70.6 366.834 70.184C366.482 69.768 366.306 69.2827 366.306 68.728C366.306 68.216 366.434 67.7733 366.69 67.4C366.956 67.016 367.314 66.7173 367.762 66.504C368.22 66.2907 368.732 66.184 369.298 66.184C370.055 66.184 370.732 66.376 371.33 66.76C371.938 67.144 372.37 67.6827 372.626 68.376L371.41 68.936C371.218 68.488 370.93 68.136 370.546 67.88C370.162 67.6133 369.73 67.48 369.25 67.48C368.812 67.48 368.466 67.592 368.21 67.816C367.954 68.0293 367.826 68.3013 367.826 68.632C367.826 68.8773 367.89 69.08 368.018 69.24C368.146 69.3893 368.3 69.5067 368.482 69.592C368.663 69.6667 368.839 69.7307 369.01 69.784L370.418 70.2C371.122 70.4027 371.666 70.7173 372.05 71.144C372.444 71.5707 372.642 72.0827 372.642 72.68C372.642 73.16 372.508 73.592 372.242 73.976C371.975 74.36 371.607 74.6587 371.138 74.872C370.668 75.0853 370.124 75.192 369.506 75.192ZM377.678 75.192C376.814 75.192 376.062 74.9787 375.422 74.552C374.782 74.1253 374.328 73.5493 374.062 72.824L375.246 72.248C375.491 72.76 375.827 73.1653 376.254 73.464C376.68 73.7627 377.155 73.912 377.678 73.912C378.147 73.912 378.536 73.8 378.846 73.576C379.155 73.352 379.31 73.0587 379.31 72.696C379.31 72.44 379.235 72.2373 379.086 72.088C378.947 71.928 378.776 71.8053 378.574 71.72C378.371 71.624 378.184 71.5547 378.014 71.512L376.718 71.144C375.939 70.92 375.368 70.6 375.006 70.184C374.654 69.768 374.478 69.2827 374.478 68.728C374.478 68.216 374.606 67.7733 374.862 67.4C375.128 67.016 375.486 66.7173 375.934 66.504C376.392 66.2907 376.904 66.184 377.47 66.184C378.227 66.184 378.904 66.376 379.502 66.76C380.11 67.144 380.542 67.6827 380.798 68.376L379.582 68.936C379.39 68.488 379.102 68.136 378.718 67.88C378.334 67.6133 377.902 67.48 377.422 67.48C376.984 67.48 376.638 67.592 376.382 67.816C376.126 68.0293 375.998 68.3013 375.998 68.632C375.998 68.8773 376.062 69.08 376.19 69.24C376.318 69.3893 376.472 69.5067 376.654 69.592C376.835 69.6667 377.011 69.7307 377.182 69.784L378.59 70.2C379.294 70.4027 379.838 70.7173 380.222 71.144C380.616 71.5707 380.814 72.0827 380.814 72.68C380.814 73.16 380.68 73.592 380.414 73.976C380.147 74.36 379.779 74.6587 379.31 74.872C378.84 75.0853 378.296 75.192 377.678 75.192ZM384.589 75L381.629 66.376H383.277L385.629 73.592L385.053 73.576L387.357 66.376H388.765L391.069 73.576L390.493 73.592L392.861 66.376H394.493L391.533 75H390.109L387.837 67.8H388.285L386.013 75H384.589ZM399.764 75.192C398.932 75.192 398.18 75 397.508 74.616C396.836 74.2213 396.302 73.6827 395.908 73C395.513 72.3173 395.316 71.544 395.316 70.68C395.316 69.816 395.508 69.048 395.892 68.376C396.286 67.704 396.82 67.1707 397.492 66.776C398.164 66.3813 398.921 66.184 399.764 66.184C400.596 66.184 401.348 66.3813 402.02 66.776C402.692 67.16 403.22 67.688 403.604 68.36C403.998 69.032 404.196 69.8053 404.196 70.68C404.196 71.5547 403.993 72.3333 403.588 73.016C403.182 73.688 402.644 74.2213 401.972 74.616C401.31 75 400.574 75.192 399.764 75.192ZM399.764 73.752C400.297 73.752 400.777 73.6187 401.204 73.352C401.641 73.0853 401.982 72.7173 402.228 72.248C402.484 71.7787 402.612 71.256 402.612 70.68C402.612 70.0933 402.484 69.576 402.228 69.128C401.982 68.6693 401.641 68.3067 401.204 68.04C400.777 67.7627 400.297 67.624 399.764 67.624C399.22 67.624 398.729 67.7627 398.292 68.04C397.865 68.3067 397.524 68.6693 397.268 69.128C397.012 69.576 396.884 70.0933 396.884 70.68C396.884 71.256 397.012 71.7787 397.268 72.248C397.524 72.7173 397.865 73.0853 398.292 73.352C398.729 73.6187 399.22 73.752 399.764 73.752ZM406.136 75V66.376H407.592V67.96L407.432 67.736C407.635 67.2453 407.944 66.8827 408.36 66.648C408.776 66.4027 409.283 66.28 409.88 66.28H410.408V67.688H409.656C409.048 67.688 408.558 67.88 408.184 68.264C407.811 68.6373 407.624 69.1707 407.624 69.864V75H406.136ZM415.65 75.192C414.839 75.192 414.109 74.9947 413.458 74.6C412.818 74.2053 412.311 73.6667 411.938 72.984C411.565 72.3013 411.378 71.5387 411.378 70.696C411.378 69.832 411.565 69.064 411.938 68.392C412.311 67.7093 412.818 67.1707 413.458 66.776C414.109 66.3813 414.839 66.184 415.65 66.184C416.365 66.184 416.999 66.3387 417.554 66.648C418.109 66.9467 418.546 67.352 418.866 67.864L418.626 68.232V62.888H420.13V75H418.674V73.16L418.866 73.416C418.567 73.9813 418.13 74.4187 417.554 74.728C416.989 75.0373 416.354 75.192 415.65 75.192ZM415.778 73.752C416.322 73.752 416.807 73.6187 417.234 73.352C417.661 73.0853 417.997 72.7227 418.242 72.264C418.498 71.7947 418.626 71.272 418.626 70.696C418.626 70.1093 418.498 69.5867 418.242 69.128C417.997 68.6587 417.661 68.2907 417.234 68.024C416.807 67.7573 416.322 67.624 415.778 67.624C415.245 67.624 414.759 67.7627 414.322 68.04C413.895 68.3067 413.559 68.6693 413.314 69.128C413.069 69.576 412.946 70.0987 412.946 70.696C412.946 71.272 413.069 71.7947 413.314 72.264C413.559 72.7227 413.895 73.0853 414.322 73.352C414.749 73.6187 415.234 73.752 415.778 73.752Z" fill="black"/>
<g filter="url(#filter3_d_453_9382)">
<circle cx="511" cy="24" r="20" fill="#EFEFF0"/>
<path d="M531 24C531 35.0457 522.046 44 511 44C499.954 44 491 35.0457 491 24C491 12.9543 499.954 4 511 4C522.046 4 531 12.9543 531 24ZM493.881 24C493.881 33.4545 501.545 41.1189 511 41.1189C520.455 41.1189 528.119 33.4545 528.119 24C528.119 14.5455 520.455 6.88111 511 6.88111C501.545 6.88111 493.881 14.5455 493.881 24Z" fill="white"/>
<path d="M506 27.248V25.488L511.232 18H513.84V25.296H515.248V27.248H513.84V29.52H511.6V27.248H506ZM511.744 20.4L508.464 25.296H511.744V20.4Z" fill="#6C6E76"/>
</g>
<line x1="438" y1="23" x2="487" y2="23" stroke="#A0A3B2" stroke-width="2" stroke-dasharray="6 6"/>
<path d="M483.885 75.192C483.128 75.192 482.434 75.0533 481.805 74.776C481.176 74.488 480.642 74.0987 480.205 73.608C479.768 73.1173 479.453 72.568 479.261 71.96L480.621 71.4C480.909 72.168 481.336 72.76 481.901 73.176C482.477 73.5813 483.149 73.784 483.917 73.784C484.386 73.784 484.797 73.7093 485.149 73.56C485.501 73.4107 485.773 73.2027 485.965 72.936C486.168 72.6587 486.269 72.3387 486.269 71.976C486.269 71.4747 486.125 71.08 485.837 70.792C485.56 70.4933 485.149 70.2693 484.605 70.12L482.413 69.448C481.549 69.1813 480.888 68.76 480.429 68.184C479.97 67.608 479.741 66.9467 479.741 66.2C479.741 65.5493 479.896 64.9787 480.205 64.488C480.525 63.9867 480.962 63.5973 481.517 63.32C482.082 63.032 482.722 62.888 483.437 62.888C484.152 62.888 484.797 63.016 485.373 63.272C485.96 63.528 486.456 63.8747 486.861 64.312C487.266 64.7387 487.565 65.2293 487.757 65.784L486.413 66.344C486.157 65.672 485.773 65.1653 485.261 64.824C484.749 64.472 484.146 64.296 483.453 64.296C483.026 64.296 482.648 64.3707 482.317 64.52C481.997 64.6587 481.746 64.8667 481.565 65.144C481.394 65.4107 481.309 65.7307 481.309 66.104C481.309 66.5413 481.448 66.9307 481.725 67.272C482.002 67.6133 482.424 67.8747 482.989 68.056L484.989 68.648C485.928 68.936 486.637 69.3467 487.117 69.88C487.597 70.4133 487.837 71.0747 487.837 71.864C487.837 72.5147 487.666 73.0907 487.325 73.592C486.994 74.0933 486.53 74.488 485.933 74.776C485.346 75.0533 484.664 75.192 483.885 75.192ZM493.013 75.192C492.394 75.192 491.834 75.048 491.333 74.76C490.842 74.472 490.458 74.072 490.181 73.56C489.914 73.0373 489.781 72.44 489.781 71.768V66.376H491.269V71.608C491.269 72.0347 491.354 72.408 491.525 72.728C491.706 73.048 491.951 73.2987 492.261 73.48C492.581 73.6613 492.943 73.752 493.349 73.752C493.754 73.752 494.111 73.6613 494.421 73.48C494.741 73.2987 494.986 73.0373 495.157 72.696C495.338 72.3547 495.429 71.9493 495.429 71.48V66.376H496.933V75H495.477V73.32L495.717 73.464C495.514 74.008 495.167 74.4347 494.677 74.744C494.197 75.0427 493.642 75.192 493.013 75.192ZM503.238 75.192C502.395 75.192 501.643 74.9947 500.982 74.6C500.331 74.2053 499.819 73.6667 499.446 72.984C499.073 72.3013 498.886 71.5333 498.886 70.68C498.886 69.816 499.073 69.048 499.446 68.376C499.819 67.704 500.331 67.1707 500.982 66.776C501.643 66.3813 502.395 66.184 503.238 66.184C503.803 66.184 504.331 66.2853 504.822 66.488C505.313 66.6907 505.745 66.9627 506.118 67.304C506.491 67.6453 506.763 68.0453 506.934 68.504L505.606 69.144C505.403 68.696 505.094 68.3333 504.678 68.056C504.262 67.768 503.782 67.624 503.238 67.624C502.715 67.624 502.241 67.7573 501.814 68.024C501.398 68.2907 501.067 68.6533 500.822 69.112C500.577 69.5707 500.454 70.0987 500.454 70.696C500.454 71.272 500.577 71.7947 500.822 72.264C501.067 72.7227 501.398 73.0853 501.814 73.352C502.241 73.6187 502.715 73.752 503.238 73.752C503.782 73.752 504.262 73.6133 504.678 73.336C505.094 73.048 505.403 72.6693 505.606 72.2L506.934 72.872C506.763 73.32 506.491 73.72 506.118 74.072C505.745 74.4133 505.313 74.6853 504.822 74.888C504.331 75.0907 503.803 75.192 503.238 75.192ZM512.879 75.192C512.036 75.192 511.284 74.9947 510.623 74.6C509.972 74.2053 509.46 73.6667 509.087 72.984C508.713 72.3013 508.527 71.5333 508.527 70.68C508.527 69.816 508.713 69.048 509.087 68.376C509.46 67.704 509.972 67.1707 510.623 66.776C511.284 66.3813 512.036 66.184 512.879 66.184C513.444 66.184 513.972 66.2853 514.463 66.488C514.953 66.6907 515.385 66.9627 515.759 67.304C516.132 67.6453 516.404 68.0453 516.575 68.504L515.247 69.144C515.044 68.696 514.735 68.3333 514.319 68.056C513.903 67.768 513.423 67.624 512.879 67.624C512.356 67.624 511.881 67.7573 511.455 68.024C511.039 68.2907 510.708 68.6533 510.463 69.112C510.217 69.5707 510.095 70.0987 510.095 70.696C510.095 71.272 510.217 71.7947 510.463 72.264C510.708 72.7227 511.039 73.0853 511.455 73.352C511.881 73.6187 512.356 73.752 512.879 73.752C513.423 73.752 513.903 73.6133 514.319 73.336C514.735 73.048 515.044 72.6693 515.247 72.2L516.575 72.872C516.404 73.32 516.132 73.72 515.759 74.072C515.385 74.4133 514.953 74.6853 514.463 74.888C513.972 75.0907 513.444 75.192 512.879 75.192ZM522.487 75.192C521.655 75.192 520.914 74.9947 520.263 74.6C519.613 74.2053 519.101 73.6667 518.727 72.984C518.354 72.2907 518.167 71.5173 518.167 70.664C518.167 69.8 518.349 69.032 518.711 68.36C519.085 67.688 519.586 67.16 520.215 66.776C520.855 66.3813 521.57 66.184 522.359 66.184C522.999 66.184 523.565 66.3013 524.055 66.536C524.557 66.76 524.978 67.0693 525.319 67.464C525.671 67.848 525.938 68.2907 526.119 68.792C526.311 69.2827 526.407 69.7947 526.407 70.328C526.407 70.4453 526.397 70.5787 526.375 70.728C526.365 70.8667 526.349 71 526.327 71.128H519.255V69.848H525.463L524.759 70.424C524.855 69.8693 524.802 69.3733 524.599 68.936C524.397 68.4987 524.098 68.152 523.703 67.896C523.309 67.64 522.861 67.512 522.359 67.512C521.858 67.512 521.399 67.64 520.983 67.896C520.567 68.152 520.242 68.52 520.007 69C519.783 69.4693 519.693 70.0293 519.735 70.68C519.693 71.3093 519.789 71.864 520.023 72.344C520.269 72.8133 520.61 73.1813 521.047 73.448C521.495 73.704 521.981 73.832 522.503 73.832C523.079 73.832 523.565 73.6987 523.959 73.432C524.354 73.1653 524.674 72.824 524.919 72.408L526.167 73.048C525.997 73.4427 525.73 73.8053 525.367 74.136C525.015 74.456 524.594 74.712 524.103 74.904C523.623 75.096 523.085 75.192 522.487 75.192ZM531.435 75.192C530.571 75.192 529.819 74.9787 529.179 74.552C528.539 74.1253 528.086 73.5493 527.819 72.824L529.003 72.248C529.249 72.76 529.585 73.1653 530.011 73.464C530.438 73.7627 530.913 73.912 531.435 73.912C531.905 73.912 532.294 73.8 532.603 73.576C532.913 73.352 533.067 73.0587 533.067 72.696C533.067 72.44 532.993 72.2373 532.843 72.088C532.705 71.928 532.534 71.8053 532.331 71.72C532.129 71.624 531.942 71.5547 531.771 71.512L530.475 71.144C529.697 70.92 529.126 70.6 528.763 70.184C528.411 69.768 528.235 69.2827 528.235 68.728C528.235 68.216 528.363 67.7733 528.619 67.4C528.886 67.016 529.243 66.7173 529.691 66.504C530.15 66.2907 530.662 66.184 531.227 66.184C531.985 66.184 532.662 66.376 533.259 66.76C533.867 67.144 534.299 67.6827 534.555 68.376L533.339 68.936C533.147 68.488 532.859 68.136 532.475 67.88C532.091 67.6133 531.659 67.48 531.179 67.48C530.742 67.48 530.395 67.592 530.139 67.816C529.883 68.0293 529.755 68.3013 529.755 68.632C529.755 68.8773 529.819 69.08 529.947 69.24C530.075 69.3893 530.23 69.5067 530.411 69.592C530.593 69.6667 530.769 69.7307 530.939 69.784L532.347 70.2C533.051 70.4027 533.595 70.7173 533.979 71.144C534.374 71.5707 534.571 72.0827 534.571 72.68C534.571 73.16 534.438 73.592 534.171 73.976C533.905 74.36 533.537 74.6587 533.067 74.872C532.598 75.0853 532.054 75.192 531.435 75.192ZM539.607 75.192C538.743 75.192 537.991 74.9787 537.351 74.552C536.711 74.1253 536.258 73.5493 535.991 72.824L537.175 72.248C537.421 72.76 537.757 73.1653 538.183 73.464C538.61 73.7627 539.085 73.912 539.607 73.912C540.077 73.912 540.466 73.8 540.775 73.576C541.085 73.352 541.239 73.0587 541.239 72.696C541.239 72.44 541.165 72.2373 541.015 72.088C540.877 71.928 540.706 71.8053 540.503 71.72C540.301 71.624 540.114 71.5547 539.943 71.512L538.647 71.144C537.869 70.92 537.298 70.6 536.935 70.184C536.583 69.768 536.407 69.2827 536.407 68.728C536.407 68.216 536.535 67.7733 536.791 67.4C537.058 67.016 537.415 66.7173 537.863 66.504C538.322 66.2907 538.834 66.184 539.399 66.184C540.157 66.184 540.834 66.376 541.431 66.76C542.039 67.144 542.471 67.6827 542.727 68.376L541.511 68.936C541.319 68.488 541.031 68.136 540.647 67.88C540.263 67.6133 539.831 67.48 539.351 67.48C538.914 67.48 538.567 67.592 538.311 67.816C538.055 68.0293 537.927 68.3013 537.927 68.632C537.927 68.8773 537.991 69.08 538.119 69.24C538.247 69.3893 538.402 69.5067 538.583 69.592C538.765 69.6667 538.941 69.7307 539.111 69.784L540.519 70.2C541.223 70.4027 541.767 70.7173 542.151 71.144C542.546 71.5707 542.743 72.0827 542.743 72.68C542.743 73.16 542.61 73.592 542.343 73.976C542.077 74.36 541.709 74.6587 541.239 74.872C540.77 75.0853 540.226 75.192 539.607 75.192Z" fill="#6C6E76"/>
<defs>
<filter id="filter0_d_453_9382" x="49" y="2" width="48" height="48" filterUnits="userSpaceOnUse" color-interpolation-filters="sRGB">
<feFlood flood-opacity="0" result="BackgroundImageFix"/>
<feColorMatrix in="SourceAlpha" type="matrix" values="0 0 0 0 0 0 0 0 0 0 0 0 0 0 0 0 0 0 127 0" result="hardAlpha"/>
<feOffset dy="2"/>
<feGaussianBlur stdDeviation="2"/>
<feComposite in2="hardAlpha" operator="out"/>
<feColorMatrix type="matrix" values="0 0 0 0 0.0156863 0 0 0 0 0.0784314 0 0 0 0 0.486275 0 0 0 0.15 0"/>
<feBlend mode="normal" in2="BackgroundImageFix" result="effect1_dropShadow_453_9382"/>
<feBlend mode="normal" in="SourceGraphic" in2="effect1_dropShadow_453_9382" result="shape"/>
</filter>
<filter id="filter1_d_453_9382" x="195" y="2" width="48" height="48" filterUnits="userSpaceOnUse" color-interpolation-filters="sRGB">
<feFlood flood-opacity="0" result="BackgroundImageFix"/>
<feColorMatrix in="SourceAlpha" type="matrix" values="0 0 0 0 0 0 0 0 0 0 0 0 0 0 0 0 0 0 127 0" result="hardAlpha"/>
<feOffset dy="2"/>
<feGaussianBlur stdDeviation="2"/>
<feComposite in2="hardAlpha" operator="out"/>
<feColorMatrix type="matrix" values="0 0 0 0 0.0156863 0 0 0 0 0.0784314 0 0 0 0 0.486275 0 0 0 0.15 0"/>
<feBlend mode="normal" in2="BackgroundImageFix" result="effect1_dropShadow_453_9382"/>
<feBlend mode="normal" in="SourceGraphic" in2="effect1_dropShadow_453_9382" result="shape"/>
</filter>
<filter id="filter2_d_453_9382" x="341" y="2" width="48" height="48" filterUnits="userSpaceOnUse" color-interpolation-filters="sRGB">
<feFlood flood-opacity="0" result="BackgroundImageFix"/>
<feColorMatrix in="SourceAlpha" type="matrix" values="0 0 0 0 0 0 0 0 0 0 0 0 0 0 0 0 0 0 127 0" result="hardAlpha"/>
<feOffset dy="2"/>
<feGaussianBlur stdDeviation="2"/>
<feComposite in2="hardAlpha" operator="out"/>
<feColorMatrix type="matrix" values="0 0 0 0 0.0156863 0 0 0 0 0.0784314 0 0 0 0 0.486275 0 0 0 0.15 0"/>
<feBlend mode="normal" in2="BackgroundImageFix" result="effect1_dropShadow_453_9382"/>
<feBlend mode="normal" in="SourceGraphic" in2="effect1_dropShadow_453_9382" result="shape"/>
</filter>
<filter id="filter3_d_453_9382" x="487" y="2" width="48" height="48" filterUnits="userSpaceOnUse" color-interpolation-filters="sRGB">
<feFlood flood-opacity="0" result="BackgroundImageFix"/>
<feColorMatrix in="SourceAlpha" type="matrix" values="0 0 0 0 0 0 0 0 0 0 0 0 0 0 0 0 0 0 127 0" result="hardAlpha"/>
<feOffset dy="2"/>
<feGaussianBlur stdDeviation="2"/>
<feComposite in2="hardAlpha" operator="out"/>
<feColorMatrix type="matrix" values="0 0 0 0 0.0156863 0 0 0 0 0.0784314 0 0 0 0 0.486275 0 0 0 0.15 0"/>
<feBlend mode="normal" in2="BackgroundImageFix" result="effect1_dropShadow_453_9382"/>
<feBlend mode="normal" in="SourceGraphic" in2="effect1_dropShadow_453_9382" result="shape"/>
</filter>
</defs>
</svg>
