<svg width="24" height="24" viewBox="0 0 24 24" fill="none" xmlns="http://www.w3.org/2000/svg">
<path d="M17.9571 8.68009L19.4439 17.6636C19.5119 18.0705 19.4817 18.4877 19.3557 18.8807C19.2298 19.2735 19.0118 19.6306 18.72 19.9222L17.3952 21.2469L14.6342 12.0025M11.9941 9.37797L2.76172 6.61545L4.08649 5.29067C4.37832 4.999 4.73551 4.78114 5.1284 4.65515C5.52131 4.52917 5.93858 4.49871 6.34561 4.5663L15.2276 6.14953" stroke="url(#paint0_linear_1772_48060)" stroke-width="0.499915" stroke-linecap="round" stroke-linejoin="round"/>
<path d="M21.119 3.93047L21.0605 3.71401C21.0095 3.52513 20.9104 3.35272 20.7728 3.21365C20.6352 3.07459 20.4639 2.97363 20.2756 2.92064L20.0611 2.86215C19.7323 2.74403 19.3774 2.71863 19.0351 2.78873C18.6928 2.85883 18.3764 3.02172 18.1205 3.25959L7.4368 13.9268L5.0892 13.6153L3.14453 15.582L6.8339 17.1742L8.35864 20.9536L10.3473 18.9439L10.0703 16.5633L20.7355 5.90113C20.9704 5.63726 21.1299 5.31511 21.1974 4.96839C21.2649 4.62168 21.2375 4.26319 21.119 3.93047Z" stroke="url(#paint1_linear_1772_48060)" stroke-width="0.499915" stroke-linecap="round" stroke-linejoin="round"/>
<defs>
<linearGradient id="paint0_linear_1772_48060" x1="11.1205" y1="4.53125" x2="11.1205" y2="21.2469" gradientUnits="userSpaceOnUse">
<stop stop-color="#022466"/>
<stop offset="1" stop-color="#00BDFF"/>
</linearGradient>
<linearGradient id="paint1_linear_1772_48060" x1="12.1892" y1="2.75" x2="12.1892" y2="20.9536" gradientUnits="userSpaceOnUse">
<stop stop-color="#022466"/>
<stop offset="1" stop-color="#00BDFF"/>
</linearGradient>
</defs>
</svg>
