<svg width="24" height="24" viewBox="0 0 24 24" fill="none" xmlns="http://www.w3.org/2000/svg">
<path d="M10.3736 10.4978H8.87383C8.65719 10.4978 8.47822 10.4268 8.33692 10.2848C8.19561 10.1429 8.12462 9.96388 8.12395 9.74792C8.12328 9.53196 8.19427 9.35299 8.33692 9.21101C8.47956 9.06904 8.65853 8.99805 8.87383 8.99805H13.3731C13.5897 8.99805 13.769 9.06904 13.911 9.21101C14.0529 9.35299 14.1236 9.53196 14.1229 9.74792C14.1222 9.96388 14.0512 10.1432 13.91 10.2858C13.7687 10.4285 13.5897 10.4991 13.3731 10.4978H11.8733V14.2471C11.8733 14.4638 11.8023 14.6431 11.6603 14.7851C11.5184 14.927 11.3394 14.9977 11.1234 14.997C10.9075 14.9963 10.7285 14.9253 10.5865 14.7841C10.4446 14.6428 10.3736 14.4638 10.3736 14.2471V10.4978ZM3.49974 13.4973V14.2471C3.49974 14.4638 3.42876 14.6431 3.28678 14.7851C3.1448 14.927 2.96583 14.9977 2.74987 14.997C2.53391 14.9963 2.35494 14.9253 2.21296 14.7841C2.07099 14.6428 2 14.4638 2 14.2471V9.99788C2 9.71459 2.09598 9.4773 2.28795 9.286C2.47992 9.0947 2.71721 8.99872 2.99983 8.99805H5.99932C6.2826 8.99805 6.52023 9.09403 6.71219 9.286C6.90416 9.47796 6.99982 9.71525 6.99915 9.99788V14.2471C6.99915 14.4638 6.92816 14.6431 6.78618 14.7851C6.64421 14.927 6.46524 14.9977 6.24927 14.997C6.03331 14.9963 5.85434 14.9253 5.71237 14.7841C5.57039 14.6428 5.4994 14.4638 5.4994 14.2471V13.4973H3.49974ZM3.49974 11.9975H5.4994V10.4978H3.49974V11.9975ZM16.9974 10.4978V14.2471C16.9974 14.4638 16.9265 14.6431 16.7845 14.7851C16.6425 14.927 16.4635 14.9977 16.2476 14.997C16.0316 14.9963 15.8526 14.9253 15.7107 14.7841C15.5687 14.6428 15.4977 14.4638 15.4977 14.2471V9.99788C15.4977 9.71459 15.5937 9.4773 15.7856 9.286C15.9776 9.0947 16.2149 8.99872 16.4975 8.99805H20.9968C21.28 8.99805 21.5177 9.09403 21.7096 9.286C21.9016 9.47796 21.9973 9.71525 21.9966 9.99788V14.2471C21.9966 14.4638 21.9256 14.6431 21.7836 14.7851C21.6416 14.927 21.4627 14.9977 21.2467 14.997C21.0307 14.9963 20.8518 14.9253 20.7098 14.7841C20.5678 14.6428 20.4968 14.4638 20.4968 14.2471V10.4978H19.497V13.2473C19.497 13.464 19.426 13.6433 19.284 13.7852C19.1421 13.9272 18.9631 13.9979 18.7471 13.9972C18.5312 13.9965 18.3522 13.9255 18.2102 13.7842C18.0683 13.643 17.9973 13.464 17.9973 13.2473V10.4978H16.9974Z" fill="url(#paint0_linear_1772_48074)"/>
<defs>
<linearGradient id="paint0_linear_1772_48074" x1="11.9983" y1="8.99805" x2="11.9983" y2="14.997" gradientUnits="userSpaceOnUse">
<stop stop-color="#022466"/>
<stop offset="1" stop-color="#00BDFF"/>
</linearGradient>
</defs>
</svg>
