<svg width="24" height="24" viewBox="0 0 24 24" fill="none" xmlns="http://www.w3.org/2000/svg">
<path d="M4 18V10.308V10.787V6V18ZM4 8.808H20V6.616C20 6.462 19.936 6.32067 19.808 6.192C19.68 6.06333 19.539 5.99933 19.385 6H4.615C4.46167 6 4.32067 6.064 4.192 6.192C4.06333 6.32 3.99933 6.46133 4 6.616V8.808ZM11.267 19H4.616C4.15533 19 3.771 18.846 3.463 18.538C3.155 18.23 3.00067 17.8453 3 17.384V6.616C3 6.15533 3.15433 5.771 3.463 5.463C3.77167 5.155 4.15567 5.00067 4.615 5H19.385C19.845 5 20.229 5.15433 20.537 5.463C20.845 5.77167 20.9993 6.156 21 6.616V11.286C20.4933 10.9727 19.9487 10.7313 19.366 10.562C18.7833 10.3927 18.1727 10.308 17.534 10.308C16.956 10.308 16.4 10.3847 15.866 10.538C15.332 10.6913 14.838 10.9093 14.384 11.192H4V17.385C4 17.5383 4.064 17.6793 4.192 17.808C4.32 17.9367 4.461 18.0007 4.615 18H11.013C11.0503 18.1833 11.087 18.3553 11.123 18.516C11.159 18.676 11.207 18.8373 11.267 19ZM17.035 20.808L16.927 19.923C16.6117 19.8523 16.315 19.7457 16.037 19.603C15.7597 19.4597 15.5103 19.264 15.289 19.016L14.454 19.35L13.915 18.535L14.604 17.958C14.494 17.6133 14.439 17.2683 14.439 16.923C14.439 16.5777 14.494 16.233 14.604 15.889L13.916 15.312L14.454 14.496L15.288 14.831C15.4973 14.5823 15.744 14.3863 16.028 14.243C16.312 14.0997 16.6117 13.993 16.927 13.923L17.035 13.039H18.035L18.142 13.923C18.458 13.9937 18.758 14.1003 19.042 14.243C19.3253 14.3863 19.5717 14.5823 19.781 14.831L20.616 14.496L21.154 15.312L20.466 15.889C20.576 16.2337 20.631 16.5783 20.631 16.923C20.631 17.2683 20.576 17.6133 20.466 17.958L21.154 18.535L20.616 19.35L19.781 19.016C19.559 19.2647 19.309 19.4603 19.031 19.603C18.7543 19.7457 18.458 19.8523 18.142 19.923L18.035 20.808H17.035ZM17.535 19.077C18.1363 19.077 18.6457 18.8683 19.063 18.451C19.4803 18.0337 19.689 17.5243 19.689 16.923C19.689 16.3217 19.4803 15.8123 19.063 15.395C18.6457 14.9777 18.1363 14.769 17.535 14.769C16.9337 14.769 16.4243 14.9777 16.007 15.395C15.5897 15.8123 15.381 16.3217 15.381 16.923C15.381 17.5243 15.5897 18.0337 16.007 18.451C16.4243 18.8683 16.9343 19.077 17.535 19.077Z" fill="url(#paint0_linear_1772_30992)" fill-opacity="0.8"/>
<defs>
<linearGradient id="paint0_linear_1772_30992" x1="12.077" y1="5" x2="12.077" y2="20.808" gradientUnits="userSpaceOnUse">
<stop stop-color="#022466"/>
<stop offset="1" stop-color="#00BDFF"/>
</linearGradient>
</defs>
</svg>
