<svg width="14" height="14" viewBox="0 0 14 14" fill="none" xmlns="http://www.w3.org/2000/svg">
<path d="M13.8246 1.73108C13.9369 1.84371 14 1.99627 14 2.15532C14 2.31436 13.9369 2.46692 13.8246 2.57955L12.571 3.83424L10.1671 1.43063L11.4207 0.175937C11.5334 0.0632845 11.6862 0 11.8456 0C12.005 0 12.1578 0.0632845 12.2705 0.175937L13.8246 1.72988V1.73108ZM11.7212 4.68272L9.31728 2.2791L1.1283 10.4682C1.06215 10.5344 1.01235 10.615 0.982864 10.7038L0.0152839 13.6049C-0.0022638 13.6578 -0.0047553 13.7146 0.00808814 13.7688C0.0209316 13.823 0.0486041 13.8726 0.088012 13.912C0.12742 13.9514 0.177011 13.9791 0.231242 13.9919C0.285473 14.0048 0.342208 14.0023 0.395104 13.9847L3.29664 13.0173C3.38531 12.9881 3.46596 12.9388 3.53223 12.873L11.7212 4.68272Z" fill="url(#paint0_linear_1772_46340)"/>
<defs>
<linearGradient id="paint0_linear_1772_46340" x1="7" y1="0" x2="7" y2="14" gradientUnits="userSpaceOnUse">
<stop stop-color="#022466"/>
<stop offset="1" stop-color="#00BDFF"/>
</linearGradient>
</defs>
</svg>
