<svg width="15" height="15" viewBox="0 0 15 15" fill="none" xmlns="http://www.w3.org/2000/svg">
<path d="M7.5 3H15M0 3H3.125M3.125 3C3.125 3.66304 3.38839 4.29893 3.85723 4.76777C4.32607 5.23661 4.96196 5.5 5.625 5.5C6.28804 5.5 6.92393 5.23661 7.39277 4.76777C7.86161 4.29893 8.125 3.66304 8.125 3C8.125 2.33696 7.86161 1.70107 7.39277 1.23223C6.92393 0.763392 6.28804 0.5 5.625 0.5C4.96196 0.5 4.32607 0.763392 3.85723 1.23223C3.38839 1.70107 3.125 2.33696 3.125 3ZM0 11.75H7.5M11.875 11.75H15M11.875 11.75C11.875 12.413 11.6116 13.0489 11.1428 13.5178C10.6739 13.9866 10.038 14.25 9.375 14.25C8.71196 14.25 8.07607 13.9866 7.60723 13.5178C7.13839 13.0489 6.875 12.413 6.875 11.75C6.875 11.087 7.13839 10.4511 7.60723 9.98223C8.07607 9.51339 8.71196 9.25 9.375 9.25C10.038 9.25 10.6739 9.51339 11.1428 9.98223C11.6116 10.4511 11.875 11.087 11.875 11.75Z" stroke="url(#paint0_linear_1816_15043)" stroke-opacity="0.8"/>
<defs>
<linearGradient id="paint0_linear_1816_15043" x1="7.5" y1="0.5" x2="7.5" y2="14.25" gradientUnits="userSpaceOnUse">
<stop stop-color="#022466"/>
<stop offset="1" stop-color="#00BDFF"/>
</linearGradient>
</defs>
</svg>
