<svg width="65" height="65" viewBox="0 0 65 65" fill="none" xmlns="http://www.w3.org/2000/svg">
<path d="M45.8217 22.6683H53.8485C54.6743 22.6567 55.4767 22.9426 56.109 23.4739C56.7414 24.0051 57.1614 24.7462 57.2924 25.5616L63.0442 60.0051C63.1252 60.5014 63.0964 61.0094 62.96 61.4934C62.8235 61.9774 62.5827 62.4256 62.2544 62.8065C61.9262 63.1874 61.5184 63.4918 61.0599 63.6982C60.6014 63.9046 60.1032 64.008 59.6004 64.0012H4.48876C3.98596 64.008 3.48778 63.9046 3.02925 63.6982C2.57072 63.4918 2.16298 63.1874 1.83471 62.8065C1.50644 62.4256 1.26561 61.9774 1.12916 61.4934C0.992707 61.0094 0.963948 60.5014 1.0449 60.0051L6.79844 25.5616C6.92935 24.7465 7.34914 24.0056 7.98113 23.4744C8.61312 22.9432 9.41513 22.6571 10.2406 22.6683H18.2675" stroke="#022466" stroke-width="2" stroke-linecap="round" stroke-linejoin="round"/>
<path d="M45.8217 15.7771C45.8217 12.1232 44.3702 8.61892 41.7865 6.03521C39.2028 3.45151 35.6986 2 32.0447 2C28.3908 2 24.8865 3.45151 22.3028 6.03521C19.7191 8.61892 18.2676 12.1232 18.2676 15.7771C18.2676 29.5558 32.0447 43.3329 32.0447 43.3329C32.0447 43.3329 45.8217 29.5558 45.8217 15.7771Z" stroke="#00BDFF" stroke-width="4" stroke-linecap="round" stroke-linejoin="round"/>
</svg>
