<svg width="19" height="19" viewBox="0 0 19 19" fill="none" xmlns="http://www.w3.org/2000/svg">
<path d="M0.633186 9.50182L0.0454526 9.26622C-0.0151509 9.41744 -0.0151509 9.5862 0.0454526 9.73742L0.633186 9.50182ZM18.3665 9.50182L18.9543 9.73742C19.0149 9.5862 19.0149 9.41744 18.9543 9.26622L18.3665 9.50182ZM9.49985 15.2018C6.56879 15.2018 4.51045 13.7426 3.16272 12.2454C2.4267 11.4213 1.80897 10.4988 1.32732 9.50436L1.22599 9.27636L1.22092 9.26749L0.633186 9.50182L0.0454526 9.73742V9.73996L0.0492526 9.74502L0.0821859 9.82482L0.180986 10.044C0.715358 11.1499 1.40178 12.1757 2.22032 13.0916C3.72385 14.7623 6.09759 16.4685 9.49985 16.4685V15.2018ZM0.633186 9.50182L1.22092 9.73742L1.22599 9.72729C1.25726 9.6502 1.29105 9.57416 1.32732 9.49929C1.80897 8.50486 2.4267 7.58232 3.16272 6.75822C4.50919 5.26102 6.56879 3.80182 9.49985 3.80182V2.53516C6.09759 2.53516 3.72259 4.24262 2.22032 5.91209C1.40178 6.82791 0.715358 7.85372 0.180986 8.95969C0.134938 9.05838 0.0910169 9.15805 0.0492526 9.25862L0.0467193 9.26369V9.26496H0.0441859L0.633186 9.50182ZM9.49985 3.80182C12.4309 3.80182 14.4893 5.26102 15.837 6.75822C16.573 7.58232 17.1907 8.50486 17.6724 9.49929L17.7737 9.72729L17.7788 9.73616L18.3665 9.50182L18.9543 9.26622V9.26369L18.9505 9.25862L18.9175 9.17882L18.8187 8.95969C18.2843 7.85372 17.5979 6.82791 16.7794 5.91209C15.2759 4.24262 12.9021 2.53516 9.49985 2.53516V3.80182ZM18.3665 9.50182L17.7788 9.26622L17.775 9.27636L17.756 9.32069L17.6724 9.50436C17.1907 10.4988 16.573 11.4213 15.837 12.2454C14.4905 13.7426 12.4309 15.2018 9.49985 15.2018V16.4685C12.9021 16.4685 15.2771 14.761 16.7794 13.0928C17.598 12.1766 18.2845 11.1504 18.8187 10.044C18.8648 9.94527 18.9087 9.8456 18.9505 9.74502L18.953 9.73996V9.73869L18.9543 9.73742L18.3665 9.50182ZM9.49985 11.4018C8.99594 11.4018 8.51267 11.2016 8.15635 10.8453C7.80003 10.489 7.59985 10.0057 7.59985 9.50182H6.33319C6.33319 10.3417 6.66682 11.1471 7.26068 11.741C7.85455 12.3349 8.66 12.6685 9.49985 12.6685V11.4018ZM11.3999 9.50182C11.3999 10.0057 11.1997 10.489 10.8434 10.8453C10.487 11.2016 10.0038 11.4018 9.49985 11.4018V12.6685C10.3397 12.6685 11.1452 12.3349 11.739 11.741C12.3329 11.1471 12.6665 10.3417 12.6665 9.50182H11.3999ZM9.49985 7.60182C10.0038 7.60182 10.487 7.802 10.8434 8.15832C11.1997 8.51464 11.3999 8.99791 11.3999 9.50182H12.6665C12.6665 8.66197 12.3329 7.85652 11.739 7.26265C11.1452 6.66879 10.3397 6.33516 9.49985 6.33516V7.60182ZM9.49985 6.33516C8.66 6.33516 7.85455 6.66879 7.26068 7.26265C6.66682 7.85652 6.33319 8.66197 6.33319 9.50182H7.59985C7.59985 8.99791 7.80003 8.51464 8.15635 8.15832C8.51267 7.802 8.99594 7.60182 9.49985 7.60182V6.33516Z" fill="url(#paint0_linear_1772_46332)"/>
<defs>
<linearGradient id="paint0_linear_1772_46332" x1="9.49985" y1="2.53516" x2="9.49985" y2="16.4685" gradientUnits="userSpaceOnUse">
<stop stop-color="#022466"/>
<stop offset="1" stop-color="#00BDFF"/>
</linearGradient>
</defs>
</svg>
