<svg width="24" height="24" viewBox="0 0 24 24" fill="none" xmlns="http://www.w3.org/2000/svg">
<path d="M20.8506 18.0383L19.9986 17.1883V11.1912H14.0026L11.6176 8.80725H19.9986V6.61425C19.9986 6.43425 19.9409 6.28658 19.8256 6.17125C19.7103 6.05592 19.5629 5.99825 19.3836 5.99825H8.80859L7.80859 4.99825H19.3826C19.8426 4.99825 20.2269 5.15258 20.5356 5.46125C20.8443 5.76992 20.9986 6.15425 20.9986 6.61425V17.3833C20.9986 17.4986 20.9853 17.6129 20.9586 17.7263C20.9319 17.8396 20.8959 17.9429 20.8506 18.0383ZM9.76459 11.1903H3.99859V17.3833C3.99859 17.5366 4.06259 17.6776 4.19059 17.8063C4.31859 17.9349 4.45959 17.9989 4.61359 17.9983H16.5716L9.76459 11.1903ZM4.61459 18.9982C4.15393 18.9982 3.76959 18.8442 3.46159 18.5363C3.15359 18.2283 2.99926 17.8436 2.99859 17.3823V6.61425C2.99859 6.15358 3.15293 5.76925 3.46159 5.46125C3.77026 5.15325 4.15426 4.99892 4.61359 4.99825H4.99859L5.99859 5.99825H4.61459C4.46059 5.99825 4.31926 6.06225 4.19059 6.19025C4.06193 6.31825 3.99793 6.45958 3.99859 6.61425V8.80625H7.37859L2.23459 3.66025C2.13659 3.56292 2.08459 3.44725 2.07859 3.31325C2.07259 3.17925 2.12426 3.05692 2.23359 2.94625C2.34426 2.83625 2.46326 2.78125 2.59059 2.78125C2.71859 2.78125 2.83759 2.83625 2.94759 2.94625L21.4636 21.4622C21.5609 21.5596 21.6126 21.6743 21.6186 21.8063C21.6246 21.9383 21.5729 22.0592 21.4636 22.1693C21.3543 22.2793 21.2353 22.3343 21.1066 22.3343C20.9779 22.3343 20.8589 22.2793 20.7496 22.1693L17.5716 18.9982H4.61459Z" fill="url(#paint0_linear_1772_46318)"/>
<defs>
<linearGradient id="paint0_linear_1772_46318" x1="11.8486" y1="2.78125" x2="11.8486" y2="22.3343" gradientUnits="userSpaceOnUse">
<stop stop-color="#022466"/>
<stop offset="1" stop-color="#00BDFF"/>
</linearGradient>
</defs>
</svg>
