<svg width="34" height="14" viewBox="0 0 34 14" fill="none" xmlns="http://www.w3.org/2000/svg">
<path d="M14.3688 7.65625H0V13.2662H14.3688V7.65625Z" fill="#84B740"/>
<path d="M14.3688 0H0V5.615H14.3688V0Z" fill="#259BD6"/>
<path d="M28.737 12.1267L28.673 12.1417C28.4512 12.1917 28.3701 12.2117 28.208 12.2117C27.8326 12.2117 27.3889 11.9867 27.3889 10.9267C27.3889 10.3817 27.4657 9.65672 28.1653 9.65672H28.1696C28.2891 9.66672 28.4256 9.68172 28.6816 9.77172L28.737 9.79172V12.1267ZM28.8522 6.84172L28.737 6.86672V8.82672L28.6346 8.79172L28.6048 8.78172C28.4896 8.74172 28.2251 8.65172 27.9691 8.65172C26.5698 8.65172 26.2754 9.89172 26.2754 10.9317C26.2754 12.3567 26.958 13.1767 28.1483 13.1767C28.6517 13.1767 29.0229 13.1167 29.3983 12.9717C29.7439 12.8417 29.8676 12.6567 29.8676 12.2617V6.63672C29.5348 6.70672 29.1892 6.77672 28.8522 6.84172Z" fill="#27292D"/>
<path d="M32.8968 12.16L32.837 12.18L32.6237 12.245C32.4232 12.305 32.244 12.34 32.1075 12.34C31.779 12.34 31.5828 12.15 31.5828 11.825C31.5828 11.615 31.6638 11.26 32.2014 11.26H32.8968V12.16ZM32.4061 8.625C31.9753 8.625 31.5316 8.715 30.9812 8.915L30.6228 9.04L30.7423 9.99L31.0921 9.855C31.459 9.715 31.9155 9.625 32.2568 9.625C32.4104 9.625 32.8797 9.625 32.8797 10.22V10.48H32.227C31.0367 10.48 30.4863 10.925 30.4863 11.88C30.4863 12.695 30.994 13.185 31.8473 13.185C32.1118 13.185 32.4787 13.125 32.7944 13.035L32.8114 13.03L32.8285 13.035L32.9352 13.055C33.2679 13.125 33.6135 13.195 33.9505 13.27V10.15C33.9505 9.14 33.43 8.625 32.4061 8.625Z" fill="#27292D"/>
<path d="M24.6077 12.16L24.548 12.18L24.3347 12.245C24.1341 12.305 23.9592 12.34 23.8184 12.34C23.4899 12.34 23.2937 12.15 23.2937 11.825C23.2937 11.615 23.3748 11.26 23.908 11.26H24.6034V12.16H24.6077ZM24.1213 8.625C23.6862 8.625 23.2468 8.715 22.6964 8.915L22.3381 9.04L22.4575 9.99L22.8073 9.855C23.1742 9.715 23.6307 9.625 23.972 9.625C24.1256 9.625 24.5949 9.625 24.5949 10.22V10.48H23.9422C22.7519 10.48 22.1973 10.925 22.1973 11.88C22.1973 12.695 22.705 13.185 23.5625 13.185C23.827 13.185 24.1939 13.125 24.5096 13.035L24.5266 13.03L24.5437 13.035L24.6461 13.055C24.9831 13.125 25.3244 13.195 25.6615 13.275V10.155C25.6657 9.135 25.1453 8.625 24.1213 8.625Z" fill="#27292D"/>
<path d="M20.115 8.63391C19.5732 8.63391 19.1253 8.84391 18.9589 8.93391L18.9162 8.95891L18.8778 8.9239C18.6474 8.7289 18.3104 8.62891 17.8411 8.62891C17.4273 8.62891 17.0391 8.69891 16.6167 8.84391C16.2541 8.97391 16.1133 9.1789 16.1133 9.5639V13.1289H17.2481V9.83391L17.3036 9.8139C17.5339 9.7239 17.6705 9.70891 17.8027 9.70891C18.1312 9.70891 18.2976 9.9139 18.2976 10.3139V13.1339H19.4154V10.2589C19.4154 10.0889 19.3855 9.98891 19.3812 9.96891L19.3428 9.88391L19.4196 9.84391C19.5903 9.75391 19.778 9.70891 19.9743 9.70891C20.2004 9.70891 20.4691 9.8139 20.4691 10.3139V13.1339H21.5826V10.1839C21.5826 9.13891 21.1048 8.63391 20.115 8.63391Z" fill="#27292D"/>
<path d="M32.0614 3.66C31.8951 3.66 31.6178 3.64 31.4002 3.59L31.3362 3.575V1.65C31.3362 1.49 31.3106 1.39 31.3063 1.375L31.2722 1.295L31.3447 1.26C31.3618 1.25 31.3788 1.245 31.4002 1.235L31.413 1.225C31.4386 1.215 31.4642 1.205 31.4898 1.195C31.5026 1.19 31.5111 1.185 31.5196 1.185C31.7713 1.105 32.0017 1.115 32.1041 1.105H32.1084C32.8038 1.105 32.8848 1.83 32.8848 2.375C32.8806 3.435 32.4326 3.66 32.0614 3.66ZM32.0572 0C32.0486 0 32.0359 0 32.0273 0C31.3746 0 30.7048 0.210001 30.4659 0.620001C30.3379 0.820001 30.2654 1.07 30.2611 1.365V3.35C30.2611 3.52 30.2312 3.585 30.227 3.6L30.1886 3.685H28.128V2.305H28.1237C28.0981 0.85 27.3643 0.05 26.302 0.05H26.1783H25.2653C25.2226 0.405 25.1885 0.655001 25.1458 1.01H26.1783C26.7201 1.01 27.0059 1.55 27.0059 2.38V3.77L26.9334 3.725C26.9206 3.72 26.831 3.685 26.6902 3.685H24.9069C24.8728 3.95 24.8301 4.295 24.7832 4.64H30.2654C30.4531 4.595 30.6706 4.555 30.8584 4.52C31.1357 4.68 31.6519 4.765 32.006 4.765C33.1963 4.765 33.9685 3.83 33.9685 2.39C33.9642 0.965001 33.2176 0.03 32.0572 0Z" fill="#27292D"/>
<path d="M22.4444 5.22469H22.4956C23.6859 5.22469 24.2405 4.76469 24.2405 3.62969C24.2405 2.81469 23.7328 2.16469 22.8796 2.16469H21.7831C21.4546 2.16469 21.2584 1.94469 21.2584 1.57469C21.2584 1.32469 21.3395 1.01469 21.877 1.01469H24.2746C24.3258 0.649688 24.3514 0.419688 24.3984 0.0546875H21.9069C20.7464 0.0546875 20.162 0.624687 20.162 1.57469C20.162 2.51469 20.6697 3.00469 21.5229 3.00469H22.6193C22.9478 3.00469 23.1441 3.30969 23.1441 3.62969C23.1441 3.83969 23.063 4.27469 22.5297 4.27469H22.3463L18.8352 4.26469H18.1952C17.6534 4.26469 17.2737 3.90469 17.2737 3.06969V2.49469C17.2737 1.62469 17.5681 1.08469 18.1952 1.08469H19.2362C19.2831 0.714688 19.313 0.479688 19.3556 0.129688H18.0587H17.935C16.8727 0.129688 16.1389 0.964688 16.1133 2.41969V2.47469V3.06969C16.1389 4.52469 16.8727 5.21969 17.935 5.21969H18.0587H18.9717L20.8744 5.22469H22.0093H22.4444Z" fill="#27292D"/>
</svg>
