<svg width="70" height="91" viewBox="0 0 70 91" fill="none" xmlns="http://www.w3.org/2000/svg">
<path fill-rule="evenodd" clip-rule="evenodd" d="M34.7091 0C53.8784 0 69.4182 15.5398 69.4182 34.7091C69.4182 37.0489 69.1867 39.3347 68.7453 41.5448C65.6818 64.6304 34.8915 90.9048 34.8915 90.9048C34.8915 90.9048 8.68867 68.545 2.22231 46.9558C0.785924 43.1474 0 39.0201 0 34.7091C0 15.5398 15.5398 0 34.7091 0Z" fill="#00BDFF"/>
<path d="M47.9313 40.2752C47.9313 32.9727 42.0114 27.0527 34.7088 27.0527C27.4062 27.0527 21.4863 32.9727 21.4863 40.2752C21.4863 47.5778 27.4062 53.4978 34.7088 53.4978C42.0114 53.4978 47.9313 47.5778 47.9313 40.2752Z" fill="white"/>
</svg>
