<svg width="25" height="19" viewBox="0 0 25 19" fill="none" xmlns="http://www.w3.org/2000/svg">
<g clip-path="url(#clip0_1772_31253)">
<path d="M4.53122 18.9603V17.6993C4.53122 17.217 4.23098 16.9011 3.71557 16.9011C3.45786 16.9011 3.17764 16.9844 2.98498 17.2586C2.83486 17.0284 2.61969 16.9011 2.29693 16.9011C2.08176 16.9011 1.86659 16.9648 1.69645 17.1949V16.9427H1.24609V18.9603H1.69645V17.8462C1.69645 17.4887 1.88911 17.3198 2.18935 17.3198C2.48959 17.3198 2.63971 17.5083 2.63971 17.8462V18.9603H3.09007V17.8462C3.09007 17.4887 3.30524 17.3198 3.58296 17.3198C3.8832 17.3198 4.03332 17.5083 4.03332 17.8462V18.9603H4.53122ZM11.2116 16.9427H10.481V16.3331H10.0306V16.9427H9.6228V17.3418H10.0306V18.2673C10.0306 18.7301 10.2233 19.0019 10.7387 19.0019C10.9313 19.0019 11.1465 18.9382 11.2966 18.855L11.1665 18.4755C11.0364 18.5587 10.8863 18.5807 10.7787 18.5807C10.5635 18.5807 10.4785 18.4534 10.4785 18.2453V17.3418H11.2091V16.9427H11.2116ZM15.0346 16.8987C14.7769 16.8987 14.6043 17.026 14.4967 17.1925V16.9403H14.0463V18.9578H14.4967V17.8217C14.4967 17.4863 14.6468 17.2953 14.927 17.2953C15.0121 17.2953 15.1197 17.3173 15.2073 17.3369L15.3374 16.9158C15.2473 16.8987 15.1197 16.8987 15.0346 16.8987ZM9.2575 17.1092C9.04233 16.9623 8.74209 16.8987 8.41933 16.8987C7.90392 16.8987 7.56115 17.1508 7.56115 17.5499C7.56115 17.8854 7.81885 18.0764 8.26921 18.1376L8.48439 18.1596C8.71957 18.2012 8.84968 18.2649 8.84968 18.3702C8.84968 18.5171 8.67704 18.6224 8.3768 18.6224C8.07656 18.6224 7.83887 18.5171 7.68875 18.4118L7.47358 18.7472C7.70876 18.9162 8.03152 18.9994 8.35428 18.9994C8.95476 18.9994 9.30004 18.7252 9.30004 18.3481C9.30004 17.9907 9.01981 17.8021 8.59197 17.7385L8.3768 17.7164C8.18414 17.6944 8.03402 17.6528 8.03402 17.5279C8.03402 17.381 8.18414 17.2978 8.42183 17.2978C8.67954 17.2978 8.93725 17.403 9.06735 17.4667L9.2575 17.1092ZM21.2396 16.8987C20.9819 16.8987 20.8092 17.026 20.7017 17.1925V16.9403H20.2513V18.9578H20.7017V17.8217C20.7017 17.4863 20.8518 17.2953 21.132 17.2953C21.2171 17.2953 21.3247 17.3173 21.4122 17.3369L21.5423 16.9207C21.4548 16.8987 21.3272 16.8987 21.2396 16.8987ZM15.485 17.9515C15.485 18.5612 15.9153 19.0019 16.5809 19.0019C16.8811 19.0019 17.0963 18.9382 17.3114 18.7717L17.0963 18.4142C16.9236 18.5416 16.7535 18.6028 16.5583 18.6028C16.1931 18.6028 15.9353 18.3506 15.9353 17.9515C15.9353 17.572 16.1931 17.3198 16.5583 17.3002C16.751 17.3002 16.9236 17.3639 17.0963 17.4887L17.3114 17.1313C17.0963 16.9623 16.8811 16.9011 16.5809 16.9011C15.9153 16.8987 15.485 17.3418 15.485 17.9515ZM19.6508 17.9515V16.9427H19.2005V17.1949C19.0503 17.0064 18.8352 16.9011 18.5549 16.9011C17.9745 16.9011 17.5241 17.3418 17.5241 17.9515C17.5241 18.5612 17.9745 19.0019 18.5549 19.0019C18.8552 19.0019 19.0704 18.8966 19.2005 18.7081V18.9603H19.6508V17.9515ZM17.997 17.9515C17.997 17.594 18.2322 17.3002 18.62 17.3002C18.9853 17.3002 19.243 17.5744 19.243 17.9515C19.243 18.309 18.9853 18.6028 18.62 18.6028C18.2347 18.5807 17.997 18.3065 17.997 17.9515ZM12.6077 16.8987C12.0072 16.8987 11.5769 17.3198 11.5769 17.949C11.5769 18.5807 12.0072 18.9994 12.6302 18.9994C12.9304 18.9994 13.2307 18.9162 13.4684 18.7252L13.2532 18.4094C13.0806 18.5367 12.8654 18.6199 12.6527 18.6199C12.3725 18.6199 12.0948 18.4926 12.0297 18.1376H13.5534C13.5534 18.0739 13.5534 18.0323 13.5534 17.9686C13.5735 17.3198 13.1856 16.8987 12.6077 16.8987ZM12.6077 17.2782C12.8879 17.2782 13.0806 17.4471 13.1231 17.7605H12.0497C12.0923 17.4887 12.2849 17.2782 12.6077 17.2782ZM23.7966 17.9515V16.1445H23.3463V17.1949C23.1962 17.0064 22.981 16.9011 22.7008 16.9011C22.1203 16.9011 21.6699 17.3418 21.6699 17.9515C21.6699 18.5612 22.1203 19.0019 22.7008 19.0019C23.001 19.0019 23.2162 18.8966 23.3463 18.7081V18.9603H23.7966V17.9515ZM22.1428 17.9515C22.1428 17.594 22.378 17.3002 22.7658 17.3002C23.1311 17.3002 23.3888 17.5744 23.3888 17.9515C23.3888 18.309 23.1311 18.6028 22.7658 18.6028C22.378 18.5807 22.1428 18.3065 22.1428 17.9515ZM7.06575 17.9515V16.9427H6.61539V17.1949C6.46527 17.0064 6.2501 16.9011 5.96987 16.9011C5.38941 16.9011 4.93905 17.3418 4.93905 17.9515C4.93905 18.5612 5.38941 19.0019 5.96987 19.0019C6.27011 19.0019 6.48528 18.8966 6.61539 18.7081V18.9603H7.06575V17.9515ZM5.39191 17.9515C5.39191 17.594 5.6271 17.3002 6.01491 17.3002C6.3802 17.3002 6.63791 17.5744 6.63791 17.9515C6.63791 18.309 6.3802 18.6028 6.01491 18.6028C5.6271 18.5807 5.39191 18.3065 5.39191 17.9515Z" fill="black"/>
<path d="M15.8728 1.61719H9.10742V13.5118H15.8728V1.61719Z" fill="#FF5A00"/>
<path d="M9.55765 7.56572C9.55765 5.1491 10.7186 3.00425 12.5 1.61843C11.189 0.609665 9.53513 0 7.73118 0C3.45777 0 0 3.38376 0 7.56572C0 11.7477 3.45777 15.1314 7.73118 15.1314C9.53513 15.1314 11.189 14.5218 12.5 13.513C10.7161 12.1468 9.55765 9.98235 9.55765 7.56572Z" fill="#EB001B"/>
<path d="M25 7.56572C25 11.7477 21.5422 15.1314 17.2688 15.1314C15.4649 15.1314 13.811 14.5218 12.5 13.513C14.3039 12.1247 15.4424 9.98235 15.4424 7.56572C15.4424 5.1491 14.2814 3.00425 12.5 1.61843C13.8085 0.609665 15.4624 0 17.2663 0C21.5422 0 25 3.4058 25 7.56572Z" fill="#F79E1B"/>
</g>
<defs>
<clipPath id="clip0_1772_31253">
<rect width="25" height="19" fill="white"/>
</clipPath>
</defs>
</svg>
