<svg width="168" height="169" viewBox="0 0 168 169" fill="none" xmlns="http://www.w3.org/2000/svg">
<g filter="url(#filter0_dd_1990_158964)">
<path d="M20 24.065C20 10.8101 30.7452 0.0649414 44 0.0649414H123.992C137.247 0.0649414 147.992 10.8101 147.992 24.0649V104.057C147.992 117.312 137.247 128.057 123.992 128.057H44C30.7452 128.057 20 117.312 20 104.057V24.065Z" fill="url(#paint0_linear_1990_158964)" shape-rendering="crispEdges"/>
<path d="M84 85.3931H84.0267" stroke="white" stroke-width="5.33299" stroke-linecap="round" stroke-linejoin="round"/>
<path d="M57.3359 55.5816C64.6691 49.0226 74.1624 45.3965 84.0009 45.3965C93.8394 45.3965 103.333 49.0226 110.666 55.5816" stroke="white" stroke-width="5.33299" stroke-linecap="round" stroke-linejoin="round"/>
<path d="M65.3359 66.3514C70.3204 61.4656 77.0218 58.729 84.0014 58.729C90.981 58.729 97.6824 61.4656 102.667 66.3514" stroke="white" stroke-width="5.33299" stroke-linecap="round" stroke-linejoin="round"/>
<path d="M74.6641 75.8708C77.1563 73.4279 80.507 72.0596 83.9968 72.0596C87.4866 72.0596 90.8373 73.4279 93.3295 75.8708" stroke="white" stroke-width="5.33299" stroke-linecap="round" stroke-linejoin="round"/>
</g>
<path d="M19.9375 24C19.9375 10.7452 30.6827 0 43.9375 0H124.059C137.314 0 148.059 10.7452 148.059 24V104.122C148.059 117.376 137.314 128.122 124.059 128.122H43.9375C30.6827 128.122 19.9375 117.376 19.9375 104.122V24Z" fill="#00BDFF" fill-opacity="0.2"/>
<defs>
<filter id="filter0_dd_1990_158964" x="0" y="0.0649414" width="167.992" height="167.992" filterUnits="userSpaceOnUse" color-interpolation-filters="sRGB">
<feFlood flood-opacity="0" result="BackgroundImageFix"/>
<feColorMatrix in="SourceAlpha" type="matrix" values="0 0 0 0 0 0 0 0 0 0 0 0 0 0 0 0 0 0 127 0" result="hardAlpha"/>
<feMorphology radius="6" operator="erode" in="SourceAlpha" result="effect1_dropShadow_1990_158964"/>
<feOffset dy="8"/>
<feGaussianBlur stdDeviation="5"/>
<feComposite in2="hardAlpha" operator="out"/>
<feColorMatrix type="matrix" values="0 0 0 0 0 0 0 0 0 0 0 0 0 0 0 0 0 0 0.1 0"/>
<feBlend mode="normal" in2="BackgroundImageFix" result="effect1_dropShadow_1990_158964"/>
<feColorMatrix in="SourceAlpha" type="matrix" values="0 0 0 0 0 0 0 0 0 0 0 0 0 0 0 0 0 0 127 0" result="hardAlpha"/>
<feMorphology radius="5" operator="erode" in="SourceAlpha" result="effect2_dropShadow_1990_158964"/>
<feOffset dy="20"/>
<feGaussianBlur stdDeviation="12.5"/>
<feComposite in2="hardAlpha" operator="out"/>
<feColorMatrix type="matrix" values="0 0 0 0 0 0 0 0 0 0 0 0 0 0 0 0 0 0 0.1 0"/>
<feBlend mode="normal" in2="effect1_dropShadow_1990_158964" result="effect2_dropShadow_1990_158964"/>
<feBlend mode="normal" in="SourceGraphic" in2="effect2_dropShadow_1990_158964" result="shape"/>
</filter>
<linearGradient id="paint0_linear_1990_158964" x1="83.9959" y1="0.0649414" x2="83.9959" y2="128.057" gradientUnits="userSpaceOnUse">
<stop stop-color="#022466"/>
<stop offset="1" stop-color="#00BDFF"/>
</linearGradient>
</defs>
</svg>
