<svg width="21" height="33" viewBox="0 0 21 33" fill="none" xmlns="http://www.w3.org/2000/svg">
<path d="M10.4999 1.71242e-05C6.69995 -0.00589718 3.05271 1.5204 0.357716 4.24432C0.12498 4.48635 -0.00366598 4.81248 7.95553e-05 5.15095C0.00382509 5.48943 0.139655 5.81252 0.377688 6.04917C0.615722 6.28581 0.93646 6.41662 1.26935 6.41281C1.60223 6.409 1.91999 6.27089 2.15273 6.02886C3.2486 4.91563 4.55041 4.03405 5.98307 3.43498C7.41572 2.83592 8.95086 2.53122 10.4999 2.53848C13.7679 2.53848 16.7038 3.85848 18.8483 6.02886C18.9636 6.14862 19.1009 6.24412 19.2524 6.30993C19.404 6.37573 19.5668 6.41053 19.7315 6.41236C19.8963 6.41419 20.0598 6.383 20.2127 6.32057C20.3657 6.25815 20.505 6.16571 20.6228 6.04853C20.7405 5.93136 20.8345 5.79174 20.8992 5.63766C20.9639 5.48357 20.9981 5.31804 20.9999 5.1505C21.0017 4.98297 20.9711 4.81671 20.9097 4.66123C20.8483 4.50575 20.7573 4.36408 20.6421 4.24432C17.9471 1.5204 14.2999 -0.00589718 10.4999 1.71242e-05ZM10.4999 5.07694C9.36856 5.07355 8.24912 5.3119 7.21415 5.77652C6.17918 6.24115 5.25176 6.92169 4.49199 7.77405C4.36384 7.89291 4.26147 8.03761 4.19139 8.19894C4.12131 8.36026 4.08506 8.53467 4.08496 8.71103C4.08487 8.88739 4.12092 9.06184 4.19082 9.22325C4.26072 9.38465 4.36293 9.52948 4.49094 9.64848C4.61895 9.76748 4.76995 9.85806 4.9343 9.91442C5.09865 9.97078 5.27276 9.9917 5.4455 9.97584C5.61825 9.95998 5.78585 9.90768 5.93761 9.82229C6.08938 9.7369 6.22197 9.62029 6.32694 9.4799C6.85476 8.88861 7.49914 8.41698 8.21813 8.09573C8.93711 7.77449 9.71458 7.61082 10.4999 7.6154C12.1564 7.6154 13.6431 8.32363 14.6741 9.4799C14.7786 9.62172 14.9111 9.73973 15.0632 9.82633C15.2152 9.91292 15.3834 9.96619 15.5569 9.98269C15.7304 9.9992 15.9054 9.97858 16.0706 9.92217C16.2358 9.86575 16.3876 9.77479 16.5161 9.65513C16.6447 9.53547 16.7471 9.38978 16.8169 9.22742C16.8868 9.06506 16.9224 8.88964 16.9215 8.71244C16.9206 8.53525 16.8832 8.36021 16.8117 8.19859C16.7403 8.03697 16.6363 7.89235 16.5066 7.77405C15.7465 6.92247 14.8192 6.24245 13.7845 5.77788C12.7499 5.31331 11.6309 5.07452 10.4999 5.07694ZM0.51375 8.88463V29.1923C0.51375 30.2022 0.908292 31.1707 1.61058 31.8848C2.31287 32.5988 3.26538 33 4.25856 33H16.7413C17.7344 33 18.687 32.5988 19.3892 31.8848C20.0915 31.1707 20.4861 30.2022 20.4861 29.1923V8.88463L17.9895 11.4231V26.0192C17.9895 26.1875 17.9238 26.349 17.8067 26.468C17.6897 26.587 17.5309 26.6539 17.3654 26.6539H3.63443C3.46889 26.6539 3.31014 26.587 3.1931 26.468C3.07605 26.349 3.01029 26.1875 3.01029 26.0192V11.4231L0.51375 8.88463ZM10.4999 10.1539C9.11683 10.1539 8.00337 11.2873 8.00337 12.6923C8.00337 14.0974 9.11683 15.2308 10.4999 15.2308C11.162 15.2308 11.797 14.9633 12.2652 14.4873C12.7334 14.0112 12.9965 13.3656 12.9965 12.6923C12.9965 12.0191 12.7334 11.3734 12.2652 10.8974C11.797 10.4213 11.162 10.1539 10.4999 10.1539ZM11.124 28.201C12.0053 28.201 12.7231 28.9308 12.7231 29.8269C12.7231 30.723 12.0053 31.4528 11.124 31.4528C10.7002 31.4521 10.2938 31.2806 9.99409 30.9759C9.69435 30.6711 9.52567 30.2579 9.52501 29.8269C9.52501 28.9308 10.2428 28.201 11.124 28.201Z" fill="url(#paint0_linear_1772_37394)"/>
<defs>
<linearGradient id="paint0_linear_1772_37394" x1="10.5" y1="0" x2="10.5" y2="33" gradientUnits="userSpaceOnUse">
<stop offset="0.336088" stop-color="#022466"/>
<stop offset="1" stop-color="#00BDFF"/>
</linearGradient>
</defs>
</svg>
