<svg width="24" height="24" viewBox="0 0 24 24" fill="none" xmlns="http://www.w3.org/2000/svg">
<g clip-path="url(#clip0_1772_48045)">
<path d="M0 21.5971H23.9959M2.39959 4.00012V16.7979C2.39959 17.2222 2.56813 17.6291 2.86814 17.9291C3.16815 18.2291 3.57504 18.3977 3.99932 18.3977H19.9966C20.4208 18.3977 20.8277 18.2291 21.1278 17.9291C21.4277 17.6291 21.5963 17.2222 21.5963 16.7979V4.00012C21.5963 3.57584 21.4277 3.16895 21.1278 2.86894C20.8277 2.56893 20.4208 2.40039 19.9966 2.40039H3.99932C3.57504 2.40039 3.16815 2.56893 2.86814 2.86894C2.56813 3.16895 2.39959 3.57584 2.39959 4.00012Z" stroke="url(#paint0_linear_1772_48045)" stroke-width="0.999829"/>
</g>
<defs>
<linearGradient id="paint0_linear_1772_48045" x1="11.9979" y1="2.40039" x2="11.9979" y2="21.5971" gradientUnits="userSpaceOnUse">
<stop stop-color="#022466"/>
<stop offset="1" stop-color="#00BDFF"/>
</linearGradient>
<clipPath id="clip0_1772_48045">
<rect width="23.9959" height="23.9959" fill="white"/>
</clipPath>
</defs>
</svg>
