<svg width="22" height="17" viewBox="0 0 22 17" fill="none" xmlns="http://www.w3.org/2000/svg">
<path d="M19.25 1.375C19.6147 1.375 19.9644 1.51987 20.2223 1.77773C20.4801 2.03559 20.625 2.38533 20.625 2.75V13.75C20.625 14.1147 20.4801 14.4644 20.2223 14.7223C19.9644 14.9801 19.6147 15.125 19.25 15.125H2.75C2.38533 15.125 2.03559 14.9801 1.77773 14.7223C1.51987 14.4644 1.375 14.1147 1.375 13.75V2.75C1.375 2.38533 1.51987 2.03559 1.77773 1.77773C2.03559 1.51987 2.38533 1.375 2.75 1.375H19.25ZM2.75 0C2.02065 0 1.32118 0.289731 0.805456 0.805456C0.289731 1.32118 0 2.02065 0 2.75L0 13.75C0 14.4793 0.289731 15.1788 0.805456 15.6945C1.32118 16.2103 2.02065 16.5 2.75 16.5H19.25C19.9793 16.5 20.6788 16.2103 21.1945 15.6945C21.7103 15.1788 22 14.4793 22 13.75V2.75C22 2.02065 21.7103 1.32118 21.1945 0.805456C20.6788 0.289731 19.9793 0 19.25 0H2.75Z" fill="url(#paint0_linear_1772_31045)"/>
<path d="M2.75 4.8125C2.75 4.63016 2.82243 4.4553 2.95136 4.32636C3.0803 4.19743 3.25516 4.125 3.4375 4.125H6.1875C6.36984 4.125 6.5447 4.19743 6.67364 4.32636C6.80257 4.4553 6.875 4.63016 6.875 4.8125V6.1875C6.875 6.36984 6.80257 6.5447 6.67364 6.67364C6.5447 6.80257 6.36984 6.875 6.1875 6.875H3.4375C3.25516 6.875 3.0803 6.80257 2.95136 6.67364C2.82243 6.5447 2.75 6.36984 2.75 6.1875V4.8125ZM2.75 8.9375C2.75 8.75516 2.82243 8.58029 2.95136 8.45136C3.0803 8.32243 3.25516 8.25 3.4375 8.25H10.3125C10.4948 8.25 10.6697 8.32243 10.7986 8.45136C10.9276 8.58029 11 8.75516 11 8.9375C11 9.11984 10.9276 9.29471 10.7986 9.42364C10.6697 9.55257 10.4948 9.625 10.3125 9.625H3.4375C3.25516 9.625 3.0803 9.55257 2.95136 9.42364C2.82243 9.29471 2.75 9.11984 2.75 8.9375ZM2.75 11.6875C2.75 11.5052 2.82243 11.3303 2.95136 11.2014C3.0803 11.0724 3.25516 11 3.4375 11H4.8125C4.99484 11 5.1697 11.0724 5.29864 11.2014C5.42757 11.3303 5.5 11.5052 5.5 11.6875C5.5 11.8698 5.42757 12.0447 5.29864 12.1736C5.1697 12.3026 4.99484 12.375 4.8125 12.375H3.4375C3.25516 12.375 3.0803 12.3026 2.95136 12.1736C2.82243 12.0447 2.75 11.8698 2.75 11.6875ZM6.875 11.6875C6.875 11.5052 6.94743 11.3303 7.07636 11.2014C7.2053 11.0724 7.38016 11 7.5625 11H8.9375C9.11984 11 9.2947 11.0724 9.42364 11.2014C9.55257 11.3303 9.625 11.5052 9.625 11.6875C9.625 11.8698 9.55257 12.0447 9.42364 12.1736C9.2947 12.3026 9.11984 12.375 8.9375 12.375H7.5625C7.38016 12.375 7.2053 12.3026 7.07636 12.1736C6.94743 12.0447 6.875 11.8698 6.875 11.6875ZM11 11.6875C11 11.5052 11.0724 11.3303 11.2014 11.2014C11.3303 11.0724 11.5052 11 11.6875 11H13.0625C13.2448 11 13.4197 11.0724 13.5486 11.2014C13.6776 11.3303 13.75 11.5052 13.75 11.6875C13.75 11.8698 13.6776 12.0447 13.5486 12.1736C13.4197 12.3026 13.2448 12.375 13.0625 12.375H11.6875C11.5052 12.375 11.3303 12.3026 11.2014 12.1736C11.0724 12.0447 11 11.8698 11 11.6875ZM15.125 11.6875C15.125 11.5052 15.1974 11.3303 15.3264 11.2014C15.4553 11.0724 15.6302 11 15.8125 11H17.1875C17.3698 11 17.5447 11.0724 17.6736 11.2014C17.8026 11.3303 17.875 11.5052 17.875 11.6875C17.875 11.8698 17.8026 12.0447 17.6736 12.1736C17.5447 12.3026 17.3698 12.375 17.1875 12.375H15.8125C15.6302 12.375 15.4553 12.3026 15.3264 12.1736C15.1974 12.0447 15.125 11.8698 15.125 11.6875Z" fill="url(#paint1_linear_1772_31045)"/>
<defs>
<linearGradient id="paint0_linear_1772_31045" x1="11" y1="0" x2="11" y2="16.5" gradientUnits="userSpaceOnUse">
<stop stop-color="#022466"/>
<stop offset="1" stop-color="#00BDFF"/>
</linearGradient>
<linearGradient id="paint1_linear_1772_31045" x1="10.3125" y1="4.125" x2="10.3125" y2="12.375" gradientUnits="userSpaceOnUse">
<stop stop-color="#022466"/>
<stop offset="1" stop-color="#00BDFF"/>
</linearGradient>
</defs>
</svg>
