<svg width="16" height="16" viewBox="0 0 16 16" fill="none" xmlns="http://www.w3.org/2000/svg">
<path d="M1.75 3.5C2.21413 3.5 2.65925 3.31563 2.98744 2.98744C3.31563 2.65925 3.5 2.21413 3.5 1.75C3.5 1.28587 3.31563 0.840752 2.98744 0.512563C2.65925 0.184374 2.21413 0 1.75 0C1.28587 0 0.840752 0.184374 0.512563 0.512563C0.184374 0.840752 0 1.28587 0 1.75C0 2.21413 0.184374 2.65925 0.512563 2.98744C0.840752 3.31563 1.28587 3.5 1.75 3.5ZM7.875 3.5C8.33913 3.5 8.78425 3.31563 9.11244 2.98744C9.44063 2.65925 9.625 2.21413 9.625 1.75C9.625 1.28587 9.44063 0.840752 9.11244 0.512563C8.78425 0.184374 8.33913 0 7.875 0C7.41087 0 6.96575 0.184374 6.63756 0.512563C6.30937 0.840752 6.125 1.28587 6.125 1.75C6.125 2.21413 6.30937 2.65925 6.63756 2.98744C6.96575 3.31563 7.41087 3.5 7.875 3.5ZM14 3.5C14.4641 3.5 14.9092 3.31563 15.2374 2.98744C15.5656 2.65925 15.75 2.21413 15.75 1.75C15.75 1.28587 15.5656 0.840752 15.2374 0.512563C14.9092 0.184374 14.4641 0 14 0C13.5359 0 13.0908 0.184374 12.7626 0.512563C12.4344 0.840752 12.25 1.28587 12.25 1.75C12.25 2.21413 12.4344 2.65925 12.7626 2.98744C13.0908 3.31563 13.5359 3.5 14 3.5ZM1.75 9.625C2.21413 9.625 2.65925 9.44063 2.98744 9.11244C3.31563 8.78425 3.5 8.33913 3.5 7.875C3.5 7.41087 3.31563 6.96575 2.98744 6.63756C2.65925 6.30937 2.21413 6.125 1.75 6.125C1.28587 6.125 0.840752 6.30937 0.512563 6.63756C0.184374 6.96575 0 7.41087 0 7.875C0 8.33913 0.184374 8.78425 0.512563 9.11244C0.840752 9.44063 1.28587 9.625 1.75 9.625ZM7.875 9.625C8.33913 9.625 8.78425 9.44063 9.11244 9.11244C9.44063 8.78425 9.625 8.33913 9.625 7.875C9.625 7.41087 9.44063 6.96575 9.11244 6.63756C8.78425 6.30937 8.33913 6.125 7.875 6.125C7.41087 6.125 6.96575 6.30937 6.63756 6.63756C6.30937 6.96575 6.125 7.41087 6.125 7.875C6.125 8.33913 6.30937 8.78425 6.63756 9.11244C6.96575 9.44063 7.41087 9.625 7.875 9.625ZM14 9.625C14.4641 9.625 14.9092 9.44063 15.2374 9.11244C15.5656 8.78425 15.75 8.33913 15.75 7.875C15.75 7.41087 15.5656 6.96575 15.2374 6.63756C14.9092 6.30937 14.4641 6.125 14 6.125C13.5359 6.125 13.0908 6.30937 12.7626 6.63756C12.4344 6.96575 12.25 7.41087 12.25 7.875C12.25 8.33913 12.4344 8.78425 12.7626 9.11244C13.0908 9.44063 13.5359 9.625 14 9.625ZM1.75 15.75C2.21413 15.75 2.65925 15.5656 2.98744 15.2374C3.31563 14.9092 3.5 14.4641 3.5 14C3.5 13.5359 3.31563 13.0908 2.98744 12.7626C2.65925 12.4344 2.21413 12.25 1.75 12.25C1.28587 12.25 0.840752 12.4344 0.512563 12.7626C0.184374 13.0908 0 13.5359 0 14C0 14.4641 0.184374 14.9092 0.512563 15.2374C0.840752 15.5656 1.28587 15.75 1.75 15.75ZM7.875 15.75C8.33913 15.75 8.78425 15.5656 9.11244 15.2374C9.44063 14.9092 9.625 14.4641 9.625 14C9.625 13.5359 9.44063 13.0908 9.11244 12.7626C8.78425 12.4344 8.33913 12.25 7.875 12.25C7.41087 12.25 6.96575 12.4344 6.63756 12.7626C6.30937 13.0908 6.125 13.5359 6.125 14C6.125 14.4641 6.30937 14.9092 6.63756 15.2374C6.96575 15.5656 7.41087 15.75 7.875 15.75ZM14 15.75C14.4641 15.75 14.9092 15.5656 15.2374 15.2374C15.5656 14.9092 15.75 14.4641 15.75 14C15.75 13.5359 15.5656 13.0908 15.2374 12.7626C14.9092 12.4344 14.4641 12.25 14 12.25C13.5359 12.25 13.0908 12.4344 12.7626 12.7626C12.4344 13.0908 12.25 13.5359 12.25 14C12.25 14.4641 12.4344 14.9092 12.7626 15.2374C13.0908 15.5656 13.5359 15.75 14 15.75Z" fill="url(#paint0_linear_1772_46312)"/>
<defs>
<linearGradient id="paint0_linear_1772_46312" x1="7.875" y1="0" x2="7.875" y2="15.75" gradientUnits="userSpaceOnUse">
<stop stop-color="#022466"/>
<stop offset="1" stop-color="#00BDFF"/>
</linearGradient>
</defs>
</svg>
