<svg width="19" height="19" viewBox="0 0 19 19" fill="none" xmlns="http://www.w3.org/2000/svg">
<path fill-rule="evenodd" clip-rule="evenodd" d="M17.7346 9.5C17.7346 8.41878 17.5216 7.34815 17.1079 6.34924C16.6941 5.35033 16.0876 4.44269 15.3231 3.67815C14.5586 2.91362 13.6509 2.30716 12.652 1.89339C11.6531 1.47963 10.5825 1.26667 9.50124 1.26667V0C11.4108 4.96822e-06 13.276 0.575455 14.8536 1.6513C16.4312 2.72714 17.648 4.25343 18.3452 6.0311C19.0425 7.80877 19.1879 9.75531 18.7624 11.6168C18.3369 13.4783 17.3603 15.1684 15.96 16.4667H19.0012V17.7333H13.9346V12.6667H15.2012V15.4407C16.0033 14.6732 16.6413 13.7511 17.0767 12.73C17.5122 11.7089 17.736 10.6101 17.7346 9.5ZM3.04124 2.53333H0.00124495V1.26667H5.06791V6.33333H3.80124V3.55933C2.61589 4.69678 1.79791 6.16282 1.4525 7.76892C1.10709 9.37501 1.25005 11.0477 1.863 12.5719C2.47594 14.0961 3.53084 15.4021 4.89202 16.3219C6.2532 17.2417 7.85843 17.7332 9.50124 17.7333V19C7.59161 19.0002 5.72623 18.425 4.14842 17.3492C2.57061 16.2735 1.35363 14.7472 0.656211 12.9695C-0.0412048 11.1918 -0.186675 9.24512 0.238775 7.38348C0.664226 5.52184 1.64085 3.83163 3.04124 2.53333Z" fill="url(#paint0_linear_1772_48293)"/>
<defs>
<linearGradient id="paint0_linear_1772_48293" x1="9.50062" y1="0" x2="9.50062" y2="19" gradientUnits="userSpaceOnUse">
<stop stop-color="#022466"/>
<stop offset="1" stop-color="#00BDFF"/>
</linearGradient>
</defs>
</svg>
