<svg width="24" height="24" viewBox="0 0 24 24" fill="none" xmlns="http://www.w3.org/2000/svg">
<path d="M2 8.5H14.5" stroke="url(#paint0_linear_1772_30985)" stroke-opacity="0.8" stroke-width="1.5" stroke-miterlimit="10" stroke-linecap="round" stroke-linejoin="round"/>
<path d="M6 16.5H8" stroke="url(#paint1_linear_1772_30985)" stroke-opacity="0.8" stroke-width="1.5" stroke-miterlimit="10" stroke-linecap="round" stroke-linejoin="round"/>
<path d="M10.5 16.5H14.5" stroke="url(#paint2_linear_1772_30985)" stroke-opacity="0.8" stroke-width="1.5" stroke-miterlimit="10" stroke-linecap="round" stroke-linejoin="round"/>
<path d="M22 14.03V16.11C22 19.62 21.11 20.5 17.56 20.5H6.44C2.89 20.5 2 19.62 2 16.11V7.89C2 4.38 2.89 3.5 6.44 3.5H14.5" stroke="url(#paint3_linear_1772_30985)" stroke-opacity="0.8" stroke-width="1.5" stroke-linecap="round" stroke-linejoin="round"/>
<path d="M20 3.5V9.5L22 7.5" stroke="url(#paint4_linear_1772_30985)" stroke-opacity="0.8" stroke-width="1.5" stroke-linecap="round" stroke-linejoin="round"/>
<path d="M20 9.5L18 7.5" stroke="url(#paint5_linear_1772_30985)" stroke-opacity="0.8" stroke-width="1.5" stroke-linecap="round" stroke-linejoin="round"/>
<defs>
<linearGradient id="paint0_linear_1772_30985" x1="8.25" y1="8.5" x2="8.25" y2="9.5" gradientUnits="userSpaceOnUse">
<stop stop-color="#022466"/>
<stop offset="1" stop-color="#00BDFF"/>
</linearGradient>
<linearGradient id="paint1_linear_1772_30985" x1="7" y1="16.5" x2="7" y2="17.5" gradientUnits="userSpaceOnUse">
<stop stop-color="#022466"/>
<stop offset="1" stop-color="#00BDFF"/>
</linearGradient>
<linearGradient id="paint2_linear_1772_30985" x1="12.5" y1="16.5" x2="12.5" y2="17.5" gradientUnits="userSpaceOnUse">
<stop stop-color="#022466"/>
<stop offset="1" stop-color="#00BDFF"/>
</linearGradient>
<linearGradient id="paint3_linear_1772_30985" x1="12" y1="3.5" x2="12" y2="20.5" gradientUnits="userSpaceOnUse">
<stop stop-color="#022466"/>
<stop offset="1" stop-color="#00BDFF"/>
</linearGradient>
<linearGradient id="paint4_linear_1772_30985" x1="21" y1="3.5" x2="21" y2="9.5" gradientUnits="userSpaceOnUse">
<stop stop-color="#022466"/>
<stop offset="1" stop-color="#00BDFF"/>
</linearGradient>
<linearGradient id="paint5_linear_1772_30985" x1="19" y1="7.5" x2="19" y2="9.5" gradientUnits="userSpaceOnUse">
<stop stop-color="#022466"/>
<stop offset="1" stop-color="#00BDFF"/>
</linearGradient>
</defs>
</svg>
