<svg width="25" height="25" viewBox="0 0 25 25" fill="none" xmlns="http://www.w3.org/2000/svg">
<path d="M12.5002 0C8.4125 0 5.0625 3.34 5.0625 7.4165C5.0625 8.996 5.567 10.464 6.42075 11.6705L11.5925 20.6112C12.3167 21.5575 12.7983 21.3778 13.4005 20.5613L19.105 10.8538C19.22 10.6453 19.3105 10.4233 19.3892 10.1965C19.7511 9.31433 19.9373 8.37 19.9373 7.4165C19.9375 3.34 16.5885 0 12.5002 0ZM12.5002 3.475C14.7017 3.475 16.4522 5.2215 16.4522 7.4165C16.4522 9.6115 14.7017 11.3575 12.5002 11.3575C10.299 11.3575 8.54775 9.612 8.54775 7.41675C8.54775 5.2215 10.299 3.47525 12.5 3.47525" fill="url(#paint0_linear_1772_32005)"/>
<path d="M17.2283 12.2266L17.2162 12.2581L17.2267 12.2293L17.2283 12.2266ZM8.5015 17.2638C4.97 17.7628 2.5 18.9566 2.5 20.7138C2.5 23.0808 6.627 24.9996 12.5 24.9996C18.373 24.9996 22.5 23.0808 22.5 20.7138C22.5 18.9566 20.0303 17.7628 16.499 17.2638L16.0098 18.0968C18.6712 18.4661 20.5 19.2421 20.5 20.1426C20.5 21.4051 16.9183 22.4283 12.5 22.4283C8.08175 22.4283 4.5 21.4051 4.5 20.1426C4.49975 19.2451 6.3165 18.4698 8.98625 18.0991L8.5015 17.2638Z" fill="url(#paint1_linear_1772_32005)"/>
<defs>
<linearGradient id="paint0_linear_1772_32005" x1="12.4999" y1="0" x2="12.4999" y2="21.2501" gradientUnits="userSpaceOnUse">
<stop stop-color="#022466"/>
<stop offset="1" stop-color="#00BDFF"/>
</linearGradient>
<linearGradient id="paint1_linear_1772_32005" x1="12.5" y1="12.2266" x2="12.5" y2="24.9996" gradientUnits="userSpaceOnUse">
<stop stop-color="#022466"/>
<stop offset="1" stop-color="#00BDFF"/>
</linearGradient>
</defs>
</svg>
