<svg width="15" height="22" viewBox="0 0 15 22" fill="none" xmlns="http://www.w3.org/2000/svg">
<path d="M7.43775 0C3.35 0 0 3.34 0 7.4165C0 8.996 0.5045 10.464 1.35825 11.6705L6.53 20.6112C7.25425 21.5575 7.73575 21.3778 8.338 20.5613L14.0425 10.8538C14.1575 10.6453 14.248 10.4233 14.3267 10.1965C14.6886 9.31433 14.8748 8.37 14.8748 7.4165C14.875 3.34 11.526 0 7.43775 0ZM7.43775 3.475C9.63925 3.475 11.3897 5.2215 11.3897 7.4165C11.3897 9.6115 9.63925 11.3575 7.43775 11.3575C5.2365 11.3575 3.48525 9.612 3.48525 7.41675C3.48525 5.2215 5.2365 3.47525 7.4375 3.47525" fill="url(#paint0_linear_1816_18622)"/>
<defs>
<linearGradient id="paint0_linear_1816_18622" x1="7.43738" y1="0" x2="7.43738" y2="21.2501" gradientUnits="userSpaceOnUse">
<stop stop-color="#022466"/>
<stop offset="1" stop-color="#00BDFF"/>
</linearGradient>
</defs>
</svg>
