<svg width="313" height="292" viewBox="0 0 313 292" fill="none" xmlns="http://www.w3.org/2000/svg">
<path d="M146.593 185.973C131.986 185.973 120.145 174.118 120.145 159.495C120.145 144.871 131.986 133.016 146.593 133.016C161.201 133.016 173.042 144.871 173.042 159.495C173.042 174.118 161.201 185.973 146.593 185.973Z" fill="url(#paint0_radial_539_7187)"/>
<path d="M123.449 52.9565C108.842 52.9565 97 41.1016 97 26.4783C97 11.8549 108.842 0 123.449 0C138.056 0 149.898 11.8549 149.898 26.4783C149.898 41.1016 138.056 52.9565 123.449 52.9565Z" fill="url(#paint1_radial_539_7187)"/>
<path d="M284.449 218.957C269.842 218.957 258 207.102 258 192.478C258 177.855 269.842 166 284.449 166C299.056 166 310.898 177.855 310.898 192.478C310.898 207.102 299.056 218.957 284.449 218.957Z" fill="url(#paint2_radial_539_7187)"/>
<path d="M123.449 308.435C108.842 308.435 97 296.58 97 281.956C97 267.333 108.842 255.478 123.449 255.478C138.056 255.478 149.898 267.333 149.898 281.956C149.898 296.58 138.056 308.435 123.449 308.435Z" fill="url(#paint3_radial_539_7187)"/>
<path d="M298.674 301.815C290.762 301.815 284.348 295.394 284.348 287.473C284.348 279.552 290.762 273.13 298.674 273.13C306.586 273.13 313.001 279.552 313.001 287.473C313.001 295.394 306.586 301.815 298.674 301.815Z" fill="url(#paint4_radial_539_7187)"/>
<path d="M242.471 109.848C219.343 109.848 200.594 91.0776 200.594 67.924C200.594 44.7703 219.343 26 242.471 26C265.599 26 284.349 44.7703 284.349 67.924C284.349 91.0776 265.599 109.848 242.471 109.848Z" fill="url(#paint5_radial_539_7187)"/>
<path d="M40.5 239C27.5215 239 17 228.479 17 215.5C17 202.522 27.5215 192 40.5 192C53.4785 192 64 202.522 64 215.5C64 228.479 53.4785 239 40.5 239Z" fill="url(#paint6_radial_539_7187)"/>
<path d="M56.5 116C43.5215 116 33 105.479 33 92.5C33 79.5215 43.5215 69 56.5 69C69.4785 69 80 79.5215 80 92.5C80 105.479 69.4785 116 56.5 116Z" fill="url(#paint7_radial_539_7187)"/>
<defs>
<radialGradient id="paint0_radial_539_7187" cx="0" cy="0" r="1" gradientUnits="userSpaceOnUse" gradientTransform="translate(146.594 159.495) scale(26.449 26.4783)">
<stop stop-color="#00BDFF"/>
<stop offset="0.16" stop-color="#00B8FA"/>
<stop offset="0.32" stop-color="#00ACEE"/>
<stop offset="0.48" stop-color="#0097D9"/>
<stop offset="0.64" stop-color="#007BBD"/>
<stop offset="0.81" stop-color="#015597"/>
<stop offset="0.97" stop-color="#01296B"/>
<stop offset="0.99" stop-color="#022466"/>
</radialGradient>
<radialGradient id="paint1_radial_539_7187" cx="0" cy="0" r="1" gradientUnits="userSpaceOnUse" gradientTransform="translate(123.449 26.4783) scale(26.449 26.4783)">
<stop stop-color="#00BDFF"/>
<stop offset="0.16" stop-color="#00B8FA"/>
<stop offset="0.32" stop-color="#00ACEE"/>
<stop offset="0.48" stop-color="#0097D9"/>
<stop offset="0.64" stop-color="#007BBD"/>
<stop offset="0.81" stop-color="#015597"/>
<stop offset="0.97" stop-color="#01296B"/>
<stop offset="0.99" stop-color="#022466"/>
</radialGradient>
<radialGradient id="paint2_radial_539_7187" cx="0" cy="0" r="1" gradientUnits="userSpaceOnUse" gradientTransform="translate(284.449 192.478) scale(26.449 26.4783)">
<stop stop-color="#00BDFF"/>
<stop offset="0.16" stop-color="#00B8FA"/>
<stop offset="0.32" stop-color="#00ACEE"/>
<stop offset="0.48" stop-color="#0097D9"/>
<stop offset="0.64" stop-color="#007BBD"/>
<stop offset="0.81" stop-color="#015597"/>
<stop offset="0.97" stop-color="#01296B"/>
<stop offset="0.99" stop-color="#022466"/>
</radialGradient>
<radialGradient id="paint3_radial_539_7187" cx="0" cy="0" r="1" gradientUnits="userSpaceOnUse" gradientTransform="translate(123.449 281.956) scale(26.449 26.4783)">
<stop stop-color="#00BDFF"/>
<stop offset="0.16" stop-color="#00B8FA"/>
<stop offset="0.32" stop-color="#00ACEE"/>
<stop offset="0.48" stop-color="#0097D9"/>
<stop offset="0.64" stop-color="#007BBD"/>
<stop offset="0.81" stop-color="#015597"/>
<stop offset="0.97" stop-color="#01296B"/>
<stop offset="0.99" stop-color="#022466"/>
</radialGradient>
<radialGradient id="paint4_radial_539_7187" cx="0" cy="0" r="1" gradientUnits="userSpaceOnUse" gradientTransform="translate(298.674 287.473) scale(14.3265 14.3424)">
<stop stop-color="#00BDFF"/>
<stop offset="0.16" stop-color="#00B8FA"/>
<stop offset="0.32" stop-color="#00ACEE"/>
<stop offset="0.48" stop-color="#0097D9"/>
<stop offset="0.64" stop-color="#007BBD"/>
<stop offset="0.81" stop-color="#015597"/>
<stop offset="0.97" stop-color="#01296B"/>
<stop offset="0.99" stop-color="#022466"/>
</radialGradient>
<radialGradient id="paint5_radial_539_7187" cx="0" cy="0" r="1" gradientUnits="userSpaceOnUse" gradientTransform="translate(242.471 67.9239) scale(41.8776 41.9239)">
<stop stop-color="#00BDFF"/>
<stop offset="0.16" stop-color="#00B8FA"/>
<stop offset="0.32" stop-color="#00ACEE"/>
<stop offset="0.48" stop-color="#0097D9"/>
<stop offset="0.64" stop-color="#007BBD"/>
<stop offset="0.81" stop-color="#015597"/>
<stop offset="0.97" stop-color="#01296B"/>
<stop offset="0.99" stop-color="#022466"/>
</radialGradient>
<radialGradient id="paint6_radial_539_7187" cx="0" cy="0" r="1" gradientUnits="userSpaceOnUse" gradientTransform="translate(40.5 215.5) scale(23.5)">
<stop stop-color="#00BDFF"/>
<stop offset="0.16" stop-color="#00B8FA"/>
<stop offset="0.32" stop-color="#00ACEE"/>
<stop offset="0.48" stop-color="#0097D9"/>
<stop offset="0.64" stop-color="#007BBD"/>
<stop offset="0.81" stop-color="#015597"/>
<stop offset="0.97" stop-color="#01296B"/>
<stop offset="0.99" stop-color="#022466"/>
</radialGradient>
<radialGradient id="paint7_radial_539_7187" cx="0" cy="0" r="1" gradientUnits="userSpaceOnUse" gradientTransform="translate(56.5 92.5) scale(23.5)">
<stop stop-color="#00BDFF"/>
<stop offset="0.16" stop-color="#00B8FA"/>
<stop offset="0.32" stop-color="#00ACEE"/>
<stop offset="0.48" stop-color="#0097D9"/>
<stop offset="0.64" stop-color="#007BBD"/>
<stop offset="0.81" stop-color="#015597"/>
<stop offset="0.97" stop-color="#01296B"/>
<stop offset="0.99" stop-color="#022466"/>
</radialGradient>
</defs>
</svg>
