<svg width="84" height="84" viewBox="0 0 84 84" fill="none" xmlns="http://www.w3.org/2000/svg">
<path d="M35.8333 49.1667L26.875 40.2083C26.1111 39.4444 25.1389 39.0625 23.9583 39.0625C22.7778 39.0625 21.8056 39.4444 21.0417 40.2083C20.2778 40.9722 19.8958 41.9444 19.8958 43.125C19.8958 44.3055 20.2778 45.2778 21.0417 46.0417L32.9167 57.9167C33.75 58.75 34.7222 59.1667 35.8333 59.1667C36.9444 59.1667 37.9167 58.75 38.75 57.9167L62.2917 34.375C63.0555 33.6111 63.4375 32.6389 63.4375 31.4583C63.4375 30.2778 63.0555 29.3056 62.2917 28.5417C61.5278 27.7778 60.5555 27.3958 59.375 27.3958C58.1944 27.3958 57.2222 27.7778 56.4583 28.5417L35.8333 49.1667ZM41.6667 83.3333C35.9028 83.3333 30.4861 82.2396 25.4167 80.0521C20.3472 77.8646 15.9375 74.8958 12.1875 71.1458C8.4375 67.3958 5.46875 62.9861 3.28125 57.9167C1.09375 52.8472 0 47.4305 0 41.6667C0 35.9028 1.09375 30.4861 3.28125 25.4167C5.46875 20.3472 8.4375 15.9375 12.1875 12.1875C15.9375 8.4375 20.3472 5.46875 25.4167 3.28125C30.4861 1.09375 35.9028 0 41.6667 0C47.4305 0 52.8472 1.09375 57.9167 3.28125C62.9861 5.46875 67.3958 8.4375 71.1458 12.1875C74.8958 15.9375 77.8646 20.3472 80.0521 25.4167C82.2396 30.4861 83.3333 35.9028 83.3333 41.6667C83.3333 47.4305 82.2396 52.8472 80.0521 57.9167C77.8646 62.9861 74.8958 67.3958 71.1458 71.1458C67.3958 74.8958 62.9861 77.8646 57.9167 80.0521C52.8472 82.2396 47.4305 83.3333 41.6667 83.3333Z" fill="#03B961"/>
</svg>
