<svg width="113" height="101" viewBox="0 0 113 101" fill="none" xmlns="http://www.w3.org/2000/svg">
<path d="M104.231 75.3628L112.113 62.2933C112.322 61.9473 112.329 61.5188 112.132 61.1659C111.932 60.8154 111.561 60.5977 111.158 60.5977H96.8303V54.0836C96.8303 53.4649 96.3308 52.9654 95.7121 52.9654H92.7632V6.53705C92.7632 2.93285 89.8304 0 86.2285 0H26.0478C22.4436 0 19.5108 2.93285 19.5108 6.53705V52.9654H16.5642C15.9455 52.9654 15.446 53.4649 15.446 54.0836V60.5977H1.11858C0.715314 60.5977 0.344125 60.8131 0.144783 61.1659C-0.0545593 61.5188 -0.0476855 61.9473 0.163113 62.2955L8.04744 75.3628L0.163113 88.43C-0.0453942 88.7783 -0.052268 89.2067 0.144783 89.5596C0.344125 89.9102 0.715314 90.1278 1.11858 90.1278H19.5108V94.463C19.5108 98.0671 22.4436 101 26.0478 101H86.2285C89.8304 101 92.7632 98.0671 92.7632 94.463V90.1278H111.155C111.559 90.1278 111.93 89.9125 112.129 89.5596C112.329 89.209 112.322 88.7783 112.111 88.4323L104.231 75.3628ZM21.7471 6.53705C21.7471 4.16556 23.6763 2.2363 26.0478 2.2363H86.2285C88.6 2.2363 90.5269 4.16556 90.5269 6.53705V52.9654H21.7471V6.53705ZM17.68 55.2017H94.594V80.2707H17.68V55.2017ZM3.09825 87.8915L10.3066 75.9402C10.522 75.5873 10.522 75.1405 10.3066 74.7877L3.09825 62.8363H15.4437V81.3889C15.4437 82.0075 15.9432 82.507 16.5619 82.507H19.5085V87.8915H3.09825ZM90.5269 94.463C90.5269 96.8344 88.6 98.7637 86.2285 98.7637H26.0478C23.6763 98.7637 21.7471 96.8344 21.7471 94.463C21.7471 93.6816 21.7471 82.0327 21.7471 82.507H90.5292C90.5269 82.9859 90.5269 94.6921 90.5269 94.463ZM92.7632 87.8915V82.507H95.7121C96.3308 82.507 96.8303 82.0075 96.8303 81.3889V62.8363H109.173L101.967 74.7877C101.752 75.1405 101.752 75.5873 101.967 75.9402L109.173 87.8915H92.7632Z" fill="#022466"/>
<path d="M75.1779 66.6172H37.0967C36.478 66.6172 35.9785 67.1167 35.9785 67.7353C35.9785 68.354 36.478 68.8535 37.0967 68.8535H75.1779C75.7965 68.8535 76.296 68.354 76.296 67.7353C76.296 67.1167 75.7965 66.6172 75.1779 66.6172Z" fill="#00BDFF"/>
<path d="M70.7827 22.2444L62.3828 21.0255L58.6274 13.4138C58.1554 12.4606 57.2022 11.8672 56.1367 11.8672C55.0713 11.8672 54.1181 12.4606 53.6461 13.4161L49.8907 21.0278L41.4908 22.2467C40.4368 22.4025 39.5753 23.1266 39.2477 24.1393C38.9177 25.1521 39.1881 26.245 39.9534 26.9874L46.0299 32.9104L44.5932 41.2736C44.4145 42.323 44.8407 43.3655 45.7022 43.9911C46.188 44.3416 46.7562 44.5226 47.3313 44.5226C47.7712 44.5226 48.2158 44.4149 48.6236 44.1996L56.1367 40.2494L63.6499 44.1996C64.5916 44.6945 65.7097 44.612 66.5736 43.9888C67.4351 43.3632 67.859 42.323 67.6803 41.2713L66.2436 32.9104L72.3247 26.9851C73.0877 26.2427 73.3558 25.1521 73.0258 24.1393C72.6936 23.1243 71.8366 22.4002 70.7827 22.2444ZM70.762 25.3812L64.2616 31.7143C63.9981 31.971 63.8767 32.3399 63.9386 32.7065L65.4737 41.6471C65.5264 41.9472 65.3408 42.1191 65.2584 42.1786C65.1759 42.2405 64.9605 42.3619 64.6878 42.2199L56.6546 37.997C56.4919 37.9123 56.3132 37.8687 56.1345 37.8687C55.9557 37.8687 55.777 37.9123 55.6143 37.997L47.5811 42.2199C47.3038 42.3665 47.0953 42.2382 47.0105 42.1786C46.9281 42.1168 46.7425 41.9472 46.7952 41.6471L48.3303 32.7042C48.3922 32.3421 48.2707 31.971 48.0072 31.712L41.5092 25.3789C41.2915 25.1681 41.3419 24.9207 41.3717 24.8244C41.4015 24.7282 41.5069 24.4991 41.8116 24.4555L50.7912 23.1518C51.1532 23.0968 51.4694 22.87 51.6321 22.54L55.6464 14.4036C55.7862 14.1333 56.0359 14.1035 56.1367 14.1035C56.2376 14.1035 56.4873 14.1333 56.6225 14.4059L60.6368 22.5423C60.7995 22.8722 61.1157 23.0991 61.4777 23.1541L70.4573 24.4578C70.7597 24.5014 70.8651 24.7305 70.8972 24.8267C70.9316 24.923 70.9797 25.1704 70.762 25.3812Z" fill="#00BDFF"/>
</svg>
