<svg width="50" height="50" viewBox="0 0 50 50" fill="none" xmlns="http://www.w3.org/2000/svg">
<path d="M46.418 37.3083L49.9281 30.8382C50.021 30.667 50.024 30.4549 49.9363 30.2802C49.8475 30.1066 49.6822 29.9989 49.5026 29.9989H43.1221V26.774C43.1221 26.4678 42.8996 26.2205 42.6241 26.2205H41.3109V3.23616C41.3109 1.45191 40.0048 0 38.4007 0H11.6C9.99496 0 8.68886 1.45191 8.68886 3.23616V26.2205H7.37663C7.10112 26.2205 6.87868 26.4678 6.87868 26.774V29.9989H0.498145C0.318555 29.9989 0.153251 30.1055 0.0644771 30.2802C-0.0242973 30.4549 -0.0212361 30.667 0.0726402 30.8394L3.58382 37.3083L0.0726402 43.7772C-0.0202157 43.9496 -0.0232769 44.1618 0.0644771 44.3364C0.153251 44.51 0.318555 44.6177 0.498145 44.6177H8.68886V46.7638C8.68886 48.5481 9.99496 50 11.6 50H38.4007C40.0048 50 41.3109 48.5481 41.3109 46.7638V44.6177H49.5016C49.6812 44.6177 49.8465 44.5111 49.9353 44.3364C50.024 44.1629 50.021 43.9496 49.9271 43.7784L46.418 37.3083ZM9.68476 3.23616C9.68476 2.06216 10.5439 1.10708 11.6 1.10708H38.4007C39.4568 1.10708 40.315 2.06216 40.315 3.23616V26.2205H9.68476V3.23616ZM7.87356 27.3276H42.1262V39.738H7.87356V27.3276ZM1.37977 43.5107L4.58993 37.5941C4.68585 37.4195 4.68585 37.1983 4.58993 37.0236L1.37977 31.1071H6.87766V40.2915C6.87766 40.5978 7.1001 40.8451 7.37561 40.8451H8.68784V43.5107H1.37977ZM40.315 46.7638C40.315 47.9378 39.4568 48.8929 38.4007 48.8929H11.6C10.5439 48.8929 9.68476 47.9378 9.68476 46.7638C9.68476 46.377 9.68476 40.6103 9.68476 40.8451H40.316C40.315 41.0821 40.315 46.8773 40.315 46.7638ZM41.3109 43.5107V40.8451H42.6241C42.8996 40.8451 43.1221 40.5978 43.1221 40.2915V31.1071H48.619L45.4098 37.0236C45.3139 37.1983 45.3139 37.4195 45.4098 37.5941L48.619 43.5107H41.3109Z" fill="#312783"/>
<path d="M33.4794 32.9795H16.5204C16.2449 32.9795 16.0225 33.2268 16.0225 33.533C16.0225 33.8393 16.2449 34.0866 16.5204 34.0866H33.4794C33.7549 34.0866 33.9773 33.8393 33.9773 33.533C33.9773 33.2268 33.7549 32.9795 33.4794 32.9795Z" fill="#CE2E81"/>
<path d="M31.5223 11.0123L27.7815 10.4088L26.1091 6.64065C25.8989 6.16878 25.4744 5.875 24.9999 5.875C24.5254 5.875 24.1009 6.16878 23.8907 6.64179L22.2183 10.4099L18.4775 11.0134C18.0082 11.0905 17.6245 11.449 17.4786 11.9503C17.3316 12.4517 17.452 12.9927 17.7929 13.3603L20.4989 16.2924L19.8592 20.4326C19.7796 20.9521 19.9694 21.4682 20.353 21.7779C20.5693 21.9515 20.8224 22.0411 21.0785 22.0411C21.2744 22.0411 21.4724 21.9878 21.654 21.8811L24.9999 19.9256L28.3458 21.8811C28.7652 22.1261 29.2631 22.0853 29.6478 21.7768C30.0315 21.4671 30.2202 20.9521 30.1407 20.4315L29.5009 16.2924L32.209 13.3591C32.5488 12.9916 32.6682 12.4517 32.5212 11.9503C32.3733 11.4478 31.9917 11.0894 31.5223 11.0123ZM31.5131 12.5651L28.6182 15.7003C28.5009 15.8274 28.4468 16.01 28.4744 16.1915L29.158 20.6175C29.1815 20.7661 29.0988 20.8512 29.0621 20.8807C29.0254 20.9113 28.9294 20.9714 28.808 20.9011L25.2305 18.8106C25.1581 18.7686 25.0785 18.7471 24.9989 18.7471C24.9193 18.7471 24.8397 18.7686 24.7673 18.8106L21.1898 20.9011C21.0663 20.9737 20.9734 20.9102 20.9357 20.8807C20.8989 20.85 20.8163 20.7661 20.8398 20.6175L21.5234 16.1903C21.551 16.0111 21.4969 15.8274 21.3795 15.6992L18.4857 12.564C18.3888 12.4596 18.4112 12.3371 18.4245 12.2895C18.4377 12.2418 18.4847 12.1284 18.6204 12.1069L22.6193 11.4614C22.7805 11.4342 22.9214 11.3219 22.9938 11.1586L24.7815 7.13067C24.8438 6.99682 24.955 6.98208 24.9999 6.98208C25.0448 6.98208 25.156 6.99682 25.2162 7.13181L27.004 11.1597C27.0764 11.323 27.2172 11.4353 27.3784 11.4626L31.3774 12.108C31.5121 12.1295 31.559 12.243 31.5733 12.2906C31.5886 12.3382 31.61 12.4608 31.5131 12.5651Z" fill="#CE2E81"/>
</svg>
