<svg width="9" height="12" viewBox="0 0 9 12" fill="none" xmlns="http://www.w3.org/2000/svg">
<path d="M8.37723 0.666672C8.37723 1.03486 8.07875 1.33334 7.71055 1.33334H7.00944C5.86826 1.33334 5.2289 2.64845 5.93375 3.54594L7.41782 5.43561C7.58361 5.64671 7.5836 5.94379 7.41781 6.15489C7.18468 6.45172 6.7351 6.45171 6.50197 6.15488L6.27285 5.86314C5.76036 5.21059 4.71219 5.57298 4.71219 6.40272V11.4764C4.71219 11.7656 4.47778 12 4.18861 12C3.89945 12 3.66503 11.7656 3.66503 11.4764V6.40273C3.66503 5.57299 2.61687 5.21059 2.10438 5.86314L1.87525 6.15488C1.64213 6.45171 1.19254 6.45172 0.959417 6.15489C0.793623 5.94379 0.793621 5.64671 0.959413 5.43561L2.44349 3.54596C3.14835 2.64847 2.50899 1.33334 1.36779 1.33334H0.666672C0.298479 1.33334 0 1.03486 0 0.666672C0 0.298479 0.298479 0 0.666672 0H7.71055C8.07875 0 8.37723 0.298479 8.37723 0.666672Z" fill="#022466"/>
</svg>
