<svg width="87" height="87" viewBox="0 0 87 87" fill="none" xmlns="http://www.w3.org/2000/svg">
<path d="M80.7673 64.9165L86.8749 53.6586C87.0365 53.3605 87.0418 52.9914 86.8891 52.6875C86.7347 52.3855 86.447 52.198 86.1346 52.198H75.0324V46.5868C75.0324 46.0539 74.6454 45.6237 74.166 45.6237H71.8809V5.63092C71.8809 2.52632 69.6083 0 66.8173 0H20.1841C17.3912 0 15.1186 2.52632 15.1186 5.63092V45.6237H12.8353C12.356 45.6237 11.9689 46.0539 11.9689 46.5868V52.198H0.866772C0.554287 52.198 0.266658 52.3835 0.11219 52.6875C-0.0422772 52.9914 -0.0369508 53.3605 0.126394 53.6605L6.23585 64.9165L0.126394 76.1724C-0.0351753 76.4724 -0.0405017 76.8414 0.11219 77.1454C0.266658 77.4474 0.554287 77.6349 0.866772 77.6349H15.1186V81.3691C15.1186 84.4737 17.3912 87 20.1841 87H66.8173C69.6083 87 71.8809 84.4737 71.8809 81.3691V77.6349H86.1328C86.4453 77.6349 86.7329 77.4493 86.8874 77.1454C87.0418 76.8434 87.0365 76.4724 86.8732 76.1743L80.7673 64.9165ZM16.8515 5.63092C16.8515 3.58816 18.3464 1.92632 20.1841 1.92632H66.8173C68.6549 1.92632 70.1481 3.58816 70.1481 5.63092V45.6237H16.8515V5.63092ZM13.7 47.55H73.2996V69.1441H13.7V47.55ZM2.40079 75.7085L7.98648 65.4138C8.15337 65.1099 8.15337 64.725 7.98648 64.421L2.40079 54.1263H11.9671V70.1072C11.9671 70.6401 12.3542 71.0704 12.8336 71.0704H15.1168V75.7085H2.40079ZM70.1481 81.3691C70.1481 83.4118 68.6549 85.0737 66.8173 85.0737H20.1841C18.3464 85.0737 16.8515 83.4118 16.8515 81.3691C16.8515 80.6961 16.8515 70.6618 16.8515 71.0704H70.1498C70.1481 71.4829 70.1481 81.5664 70.1481 81.3691ZM71.8809 75.7085V71.0704H74.166C74.6454 71.0704 75.0324 70.6401 75.0324 70.1072V54.1263H84.597L79.0131 64.421C78.8462 64.725 78.8462 65.1099 79.0131 65.4138L84.597 75.7085H71.8809Z" fill="#022466"/>
<path d="M58.254 57.3848H28.7453C28.266 57.3848 27.8789 57.815 27.8789 58.3479C27.8789 58.8808 28.266 59.3111 28.7453 59.3111H58.254C58.7333 59.3111 59.1204 58.8808 59.1204 58.3479C59.1204 57.815 58.7333 57.3848 58.254 57.3848Z" fill="#00BDFF"/>
<path d="M54.8479 19.1605L48.3389 18.1105L45.4289 11.5539C45.0632 10.7329 44.3246 10.2217 43.499 10.2217C42.6734 10.2217 41.9348 10.7329 41.569 11.5559L38.659 18.1125L32.15 19.1625C31.3333 19.2967 30.6657 19.9204 30.4118 20.7927C30.1562 21.6651 30.3657 22.6065 30.9587 23.246L35.6673 28.348L34.5541 35.5519C34.4156 36.4559 34.7458 37.3539 35.4134 37.8927C35.7898 38.1947 36.2301 38.3506 36.6758 38.3506C37.0167 38.3506 37.3611 38.2579 37.6771 38.0723L43.499 34.6697L49.3208 38.0723C50.0505 38.4987 50.9169 38.4276 51.5863 37.8908C52.2539 37.3519 52.5824 36.4559 52.4439 35.55L51.3306 28.348L56.0428 23.2441C56.634 22.6046 56.8417 21.6651 56.5861 20.7927C56.3286 19.9184 55.6646 19.2947 54.8479 19.1605ZM54.8319 21.8625L49.7948 27.3177C49.5907 27.5388 49.4966 27.8565 49.5445 28.1723L50.7341 35.8737C50.7749 36.1322 50.6311 36.2802 50.5672 36.3315C50.5033 36.3848 50.3364 36.4894 50.1251 36.3671L43.9002 32.7296C43.7742 32.6565 43.6357 32.619 43.4972 32.619C43.3587 32.619 43.2202 32.6565 43.0941 32.7296L36.8693 36.3671C36.6545 36.4934 36.4929 36.3829 36.4272 36.3315C36.3633 36.2783 36.2195 36.1322 36.2603 35.8737L37.4499 28.1704C37.4978 27.8585 37.4037 27.5388 37.1995 27.3158L32.1642 21.8605C31.9956 21.6789 32.0346 21.4658 32.0577 21.3829C32.0808 21.3 32.1625 21.1026 32.3986 21.0651L39.3567 19.9421C39.6373 19.8947 39.8823 19.6993 40.0083 19.4151L43.119 12.4065C43.2273 12.1737 43.4208 12.148 43.499 12.148C43.5771 12.148 43.7706 12.1737 43.8754 12.4085L46.986 19.4171C47.1121 19.7013 47.3571 19.8967 47.6376 19.944L54.5958 21.0671C54.8301 21.1046 54.9118 21.3019 54.9366 21.3848C54.9633 21.4677 55.0006 21.6809 54.8319 21.8625Z" fill="#00BDFF"/>
</svg>
