<svg width="348" height="151" viewBox="0 0 348 151" fill="none" xmlns="http://www.w3.org/2000/svg">
<path d="M10.5 24C10.5 10.7452 21.2452 0 34.5 0H313.5C326.755 0 337.5 10.7452 337.5 24C337.5 37.2548 326.755 48 313.5 48H34.5C21.2452 48 10.5 37.2548 10.5 24Z" fill="#312783"/>
<path d="M141.828 31V19.08H146.036C146.825 19.08 147.519 19.2293 148.116 19.528C148.713 19.8267 149.177 20.2533 149.508 20.808C149.849 21.3627 150.02 22.0133 150.02 22.76C150.02 23.6027 149.807 24.3173 149.38 24.904C148.953 25.4907 148.377 25.912 147.652 26.168L150.42 31H148.596L145.684 25.832L146.724 26.44H143.396V31H141.828ZM143.396 25H146.084C146.553 25 146.964 24.9093 147.316 24.728C147.668 24.5467 147.94 24.2853 148.132 23.944C148.335 23.6027 148.436 23.208 148.436 22.76C148.436 22.3013 148.335 21.9067 148.132 21.576C147.94 21.2347 147.668 20.9733 147.316 20.792C146.964 20.6107 146.553 20.52 146.084 20.52H143.396V25ZM155.831 31.192C154.999 31.192 154.257 30.9947 153.607 30.6C152.956 30.2053 152.444 29.6667 152.071 28.984C151.697 28.2907 151.511 27.5173 151.511 26.664C151.511 25.8 151.692 25.032 152.055 24.36C152.428 23.688 152.929 23.16 153.559 22.776C154.199 22.3813 154.913 22.184 155.703 22.184C156.343 22.184 156.908 22.3013 157.399 22.536C157.9 22.76 158.321 23.0693 158.663 23.464C159.015 23.848 159.281 24.2907 159.463 24.792C159.655 25.2827 159.751 25.7947 159.751 26.328C159.751 26.4453 159.74 26.5787 159.719 26.728C159.708 26.8667 159.692 27 159.671 27.128H152.599V25.848H158.807L158.103 26.424C158.199 25.8693 158.145 25.3733 157.943 24.936C157.74 24.4987 157.441 24.152 157.047 23.896C156.652 23.64 156.204 23.512 155.703 23.512C155.201 23.512 154.743 23.64 154.327 23.896C153.911 24.152 153.585 24.52 153.351 25C153.127 25.4693 153.036 26.0293 153.079 26.68C153.036 27.3093 153.132 27.864 153.367 28.344C153.612 28.8133 153.953 29.1813 154.391 29.448C154.839 29.704 155.324 29.832 155.847 29.832C156.423 29.832 156.908 29.6987 157.303 29.432C157.697 29.1653 158.017 28.824 158.263 28.408L159.511 29.048C159.34 29.4427 159.073 29.8053 158.711 30.136C158.359 30.456 157.937 30.712 157.447 30.904C156.967 31.096 156.428 31.192 155.831 31.192ZM166.123 34.52C165.515 34.52 164.949 34.424 164.427 34.232C163.915 34.04 163.472 33.7733 163.099 33.432C162.736 33.1013 162.459 32.712 162.267 32.264L163.659 31.624C163.808 32.0293 164.091 32.3707 164.507 32.648C164.933 32.936 165.467 33.08 166.107 33.08C166.597 33.08 167.04 32.984 167.435 32.792C167.84 32.6107 168.16 32.3333 168.395 31.96C168.629 31.5973 168.747 31.1547 168.747 30.632V28.696L169.019 28.984C168.72 29.5707 168.288 30.0187 167.723 30.328C167.168 30.6373 166.555 30.792 165.883 30.792C165.072 30.792 164.347 30.6053 163.707 30.232C163.067 29.848 162.565 29.3307 162.203 28.68C161.84 28.0187 161.659 27.288 161.659 26.488C161.659 25.6773 161.84 24.9467 162.203 24.296C162.565 23.6453 163.061 23.1333 163.691 22.76C164.331 22.376 165.056 22.184 165.867 22.184C166.539 22.184 167.147 22.3387 167.691 22.648C168.245 22.9467 168.688 23.3627 169.019 23.896L168.795 24.296V22.376H170.251V30.632C170.251 31.3787 170.075 32.0453 169.723 32.632C169.371 33.2187 168.88 33.6773 168.251 34.008C167.632 34.3493 166.923 34.52 166.123 34.52ZM166.011 29.352C166.523 29.352 166.981 29.224 167.387 28.968C167.803 28.712 168.133 28.3707 168.379 27.944C168.624 27.5067 168.747 27.0213 168.747 26.488C168.747 25.9653 168.624 25.4853 168.379 25.048C168.133 24.6107 167.803 24.264 167.387 24.008C166.981 23.752 166.523 23.624 166.011 23.624C165.488 23.624 165.013 23.752 164.587 24.008C164.16 24.264 163.824 24.6107 163.579 25.048C163.344 25.4747 163.227 25.9547 163.227 26.488C163.227 27.0213 163.344 27.5067 163.579 27.944C163.824 28.3707 164.155 28.712 164.571 28.968C164.997 29.224 165.477 29.352 166.011 29.352ZM172.878 31V22.376H174.366V31H172.878ZM172.878 21V19.08H174.366V21H172.878ZM180.082 31.192C179.218 31.192 178.466 30.9787 177.826 30.552C177.186 30.1253 176.733 29.5493 176.466 28.824L177.65 28.248C177.896 28.76 178.232 29.1653 178.658 29.464C179.085 29.7627 179.56 29.912 180.082 29.912C180.552 29.912 180.941 29.8 181.25 29.576C181.56 29.352 181.714 29.0587 181.714 28.696C181.714 28.44 181.64 28.2373 181.49 28.088C181.352 27.928 181.181 27.8053 180.978 27.72C180.776 27.624 180.589 27.5547 180.418 27.512L179.122 27.144C178.344 26.92 177.773 26.6 177.41 26.184C177.058 25.768 176.882 25.2827 176.882 24.728C176.882 24.216 177.01 23.7733 177.266 23.4C177.533 23.016 177.89 22.7173 178.338 22.504C178.797 22.2907 179.309 22.184 179.874 22.184C180.632 22.184 181.309 22.376 181.906 22.76C182.514 23.144 182.946 23.6827 183.202 24.376L181.986 24.936C181.794 24.488 181.506 24.136 181.122 23.88C180.738 23.6133 180.306 23.48 179.826 23.48C179.389 23.48 179.042 23.592 178.786 23.816C178.53 24.0293 178.402 24.3013 178.402 24.632C178.402 24.8773 178.466 25.08 178.594 25.24C178.722 25.3893 178.877 25.5067 179.058 25.592C179.24 25.6667 179.416 25.7307 179.586 25.784L180.994 26.2C181.698 26.4027 182.242 26.7173 182.626 27.144C183.021 27.5707 183.218 28.0827 183.218 28.68C183.218 29.16 183.085 29.592 182.818 29.976C182.552 30.36 182.184 30.6587 181.714 30.872C181.245 31.0853 180.701 31.192 180.082 31.192ZM188.99 31.096C188.148 31.096 187.497 30.856 187.038 30.376C186.59 29.896 186.366 29.2187 186.366 28.344V23.8H184.798V22.376H185.118C185.502 22.376 185.806 22.2587 186.03 22.024C186.254 21.7893 186.366 21.48 186.366 21.096V20.392H187.854V22.376H189.79V23.8H187.854V28.296C187.854 28.584 187.897 28.8347 187.982 29.048C188.078 29.2613 188.233 29.432 188.446 29.56C188.66 29.6773 188.942 29.736 189.294 29.736C189.369 29.736 189.46 29.7307 189.566 29.72C189.684 29.7093 189.79 29.6987 189.886 29.688V31C189.748 31.032 189.593 31.0533 189.422 31.064C189.252 31.0853 189.108 31.096 188.99 31.096ZM195.884 31.192C195.052 31.192 194.31 30.9947 193.66 30.6C193.009 30.2053 192.497 29.6667 192.124 28.984C191.75 28.2907 191.564 27.5173 191.564 26.664C191.564 25.8 191.745 25.032 192.108 24.36C192.481 23.688 192.982 23.16 193.612 22.776C194.252 22.3813 194.966 22.184 195.756 22.184C196.396 22.184 196.961 22.3013 197.452 22.536C197.953 22.76 198.374 23.0693 198.716 23.464C199.068 23.848 199.334 24.2907 199.516 24.792C199.708 25.2827 199.804 25.7947 199.804 26.328C199.804 26.4453 199.793 26.5787 199.772 26.728C199.761 26.8667 199.745 27 199.724 27.128H192.652V25.848H198.86L198.156 26.424C198.252 25.8693 198.198 25.3733 197.996 24.936C197.793 24.4987 197.494 24.152 197.1 23.896C196.705 23.64 196.257 23.512 195.756 23.512C195.254 23.512 194.796 23.64 194.38 23.896C193.964 24.152 193.638 24.52 193.404 25C193.18 25.4693 193.089 26.0293 193.132 26.68C193.089 27.3093 193.185 27.864 193.42 28.344C193.665 28.8133 194.006 29.1813 194.444 29.448C194.892 29.704 195.377 29.832 195.9 29.832C196.476 29.832 196.961 29.6987 197.356 29.432C197.75 29.1653 198.07 28.824 198.316 28.408L199.564 29.048C199.393 29.4427 199.126 29.8053 198.764 30.136C198.412 30.456 197.99 30.712 197.5 30.904C197.02 31.096 196.481 31.192 195.884 31.192ZM202.064 31V22.376H203.52V23.96L203.36 23.736C203.563 23.2453 203.872 22.8827 204.288 22.648C204.704 22.4027 205.211 22.28 205.808 22.28H206.336V23.688H205.584C204.976 23.688 204.485 23.88 204.112 24.264C203.739 24.6373 203.552 25.1707 203.552 25.864V31H202.064Z" fill="white"/>
<path d="M10.5 92C10.5 78.7452 21.2452 68 34.5 68H313.5C326.755 68 337.5 78.7452 337.5 92C337.5 105.255 326.755 116 313.5 116H34.5C21.2452 116 10.5 105.255 10.5 92Z" fill="#312783"/>
<path d="M153.328 99V87.08H154.896V97.56H160.128V99H153.328ZM166.13 99.192C165.298 99.192 164.546 99 163.874 98.616C163.202 98.2213 162.669 97.6827 162.274 97C161.88 96.3173 161.682 95.544 161.682 94.68C161.682 93.816 161.874 93.048 162.258 92.376C162.653 91.704 163.186 91.1707 163.858 90.776C164.53 90.3813 165.288 90.184 166.13 90.184C166.962 90.184 167.714 90.3813 168.386 90.776C169.058 91.16 169.586 91.688 169.97 92.36C170.365 93.032 170.562 93.8053 170.562 94.68C170.562 95.5547 170.36 96.3333 169.955 97.016C169.549 97.688 169.011 98.2213 168.339 98.616C167.677 99 166.941 99.192 166.13 99.192ZM166.13 97.752C166.664 97.752 167.144 97.6187 167.57 97.352C168.008 97.0853 168.349 96.7173 168.595 96.248C168.851 95.7787 168.979 95.256 168.979 94.68C168.979 94.0933 168.851 93.576 168.595 93.128C168.349 92.6693 168.008 92.3067 167.57 92.04C167.144 91.7627 166.664 91.624 166.13 91.624C165.586 91.624 165.096 91.7627 164.658 92.04C164.232 92.3067 163.89 92.6693 163.634 93.128C163.378 93.576 163.25 94.0933 163.25 94.68C163.25 95.256 163.378 95.7787 163.634 96.248C163.89 96.7173 164.232 97.0853 164.658 97.352C165.096 97.6187 165.586 97.752 166.13 97.752ZM176.935 102.52C176.327 102.52 175.762 102.424 175.239 102.232C174.727 102.04 174.285 101.773 173.911 101.432C173.549 101.101 173.271 100.712 173.079 100.264L174.471 99.624C174.621 100.029 174.903 100.371 175.319 100.648C175.746 100.936 176.279 101.08 176.919 101.08C177.41 101.08 177.853 100.984 178.247 100.792C178.653 100.611 178.973 100.333 179.207 99.96C179.442 99.5973 179.559 99.1547 179.559 98.632V96.696L179.831 96.984C179.533 97.5707 179.101 98.0187 178.535 98.328C177.981 98.6373 177.367 98.792 176.695 98.792C175.885 98.792 175.159 98.6053 174.519 98.232C173.879 97.848 173.378 97.3307 173.015 96.68C172.653 96.0187 172.471 95.288 172.471 94.488C172.471 93.6773 172.653 92.9467 173.015 92.296C173.378 91.6453 173.874 91.1333 174.503 90.76C175.143 90.376 175.869 90.184 176.679 90.184C177.351 90.184 177.959 90.3387 178.503 90.648C179.058 90.9467 179.501 91.3627 179.831 91.896L179.607 92.296V90.376H181.063V98.632C181.063 99.3787 180.887 100.045 180.535 100.632C180.183 101.219 179.693 101.677 179.063 102.008C178.445 102.349 177.735 102.52 176.935 102.52ZM176.823 97.352C177.335 97.352 177.794 97.224 178.199 96.968C178.615 96.712 178.946 96.3707 179.191 95.944C179.437 95.5067 179.559 95.0213 179.559 94.488C179.559 93.9653 179.437 93.4853 179.191 93.048C178.946 92.6107 178.615 92.264 178.199 92.008C177.794 91.752 177.335 91.624 176.823 91.624C176.301 91.624 175.826 91.752 175.399 92.008C174.973 92.264 174.637 92.6107 174.391 93.048C174.157 93.4747 174.039 93.9547 174.039 94.488C174.039 95.0213 174.157 95.5067 174.391 95.944C174.637 96.3707 174.967 96.712 175.383 96.968C175.81 97.224 176.29 97.352 176.823 97.352ZM183.69 99V90.376H185.178V99H183.69ZM183.69 89V87.08H185.178V89H183.69ZM187.807 99V90.376H189.263V92.056L189.023 91.912C189.236 91.368 189.578 90.9467 190.047 90.648C190.527 90.3387 191.087 90.184 191.727 90.184C192.346 90.184 192.895 90.3227 193.375 90.6C193.866 90.8773 194.25 91.2613 194.527 91.752C194.815 92.2427 194.959 92.7973 194.959 93.416V99H193.455V93.896C193.455 93.416 193.37 93.0107 193.199 92.68C193.028 92.3493 192.783 92.0933 192.463 91.912C192.154 91.72 191.796 91.624 191.391 91.624C190.986 91.624 190.623 91.72 190.303 91.912C189.994 92.0933 189.748 92.3547 189.567 92.696C189.386 93.0267 189.295 93.4267 189.295 93.896V99H187.807Z" fill="white"/>
<rect x="107" y="138" width="134" height="5" rx="2.5" fill="#A2A5B1"/>
</svg>
