<svg width="75" height="75" viewBox="0 0 75 75" fill="none" xmlns="http://www.w3.org/2000/svg">
<path d="M0 36.102C0 34.5733 1.23815 33.3294 2.77276 33.3294H22.9843C28.6984 33.3294 33.3313 28.6968 33.3313 22.983V2.77262C33.3313 1.24391 34.5752 0 36.104 0C37.6328 0 38.8768 1.24391 38.8768 2.77262V23.4829C38.8768 31.9809 31.9885 38.8746 23.49 38.8746H2.77857C1.24978 38.8746 0.0058186 37.6366 0.0058186 36.102" fill="#022466"/>
<path d="M75.0018 38.898C75.0018 40.4268 73.7637 41.6706 72.2291 41.6706H52.0175C46.3034 41.6706 41.6705 46.3033 41.6705 52.0171V72.2275C41.6705 73.7562 40.4266 75.0001 38.8978 75.0001C37.369 75.0001 36.125 73.7562 36.125 72.2275V51.5114C36.125 43.0134 43.0133 36.1196 51.5118 36.1196H72.2232C73.752 36.1196 74.996 37.3577 74.996 38.8922" fill="#022466"/>
<path d="M66.3262 18.2515C66.3262 22.6342 62.7745 26.1915 58.3858 26.1915C54.0028 26.1915 50.4453 22.64 50.4453 18.2515C50.4453 13.863 53.997 10.3115 58.3858 10.3115C62.7687 10.3115 66.3262 13.863 66.3262 18.2515Z" fill="#00BDFF"/>
<path d="M27.6817 58.3875C27.6817 62.7702 24.13 66.3275 19.7412 66.3275C15.3525 66.3275 11.8008 62.776 11.8008 58.3875C11.8008 53.999 15.3583 50.4475 19.7412 50.4475C24.1242 50.4475 27.6817 53.999 27.6817 58.3875Z" fill="#00BDFF"/>
<path d="M58.4014 66.3275C54.0184 66.3275 50.4609 62.776 50.4609 58.3875C50.4609 54.0048 54.0126 50.4475 58.4014 50.4475C62.7843 50.4475 66.3418 53.999 66.3418 58.3875C66.3418 62.7702 62.7901 66.3275 58.4014 66.3275Z" fill="#00BDFF"/>
<path d="M19.7451 26.1915C15.3622 26.1915 11.8047 22.64 11.8047 18.2515C11.8047 13.8688 15.3564 10.3115 19.7451 10.3115C24.1281 10.3115 27.6856 13.863 27.6856 18.2515C27.6856 22.6342 24.1339 26.1915 19.7451 26.1915Z" fill="#00BDFF"/>
</svg>
