<svg width="45" height="59" viewBox="0 0 45 59" fill="none" xmlns="http://www.w3.org/2000/svg">
<path d="M37.3789 0H11.2822C10.3716 0 9.50536 0.17768 8.68359 0.46641C9.17221 0.46641 9.66083 0.64409 10.1272 1.02166L25.8297 14.9473C28.4061 17.0573 30.4938 21.8102 30.4938 25.5859V38.5344H37.3789C41.3101 38.5344 44.5083 35.4916 44.5083 31.7159V6.81847C44.5083 3.06498 41.3101 0 37.3789 0Z" fill="#CE2E81"/>
<path d="M26.3633 27.0297V54.7478C26.3633 58.5013 24.2755 59.8561 21.6992 57.7462L4.6641 43.7983C2.08774 41.6883 0 36.9354 0 33.1597V8.24007C0 7.92913 0.04442 7.59598 0.0888401 7.26283C0.0888401 7.1962 0.11105 7.10736 0.13326 7.04073C0.62188 4.35332 2.59857 1.82138 4.55305 1.88801C5.04167 1.88801 5.53029 2.06569 5.9967 2.44326L21.6992 16.3689C24.2755 18.4789 26.3633 23.2318 26.3633 27.0075V27.0297Z" fill="#312783"/>
</svg>
