<svg width="91" height="98" viewBox="0 0 91 98" fill="none" xmlns="http://www.w3.org/2000/svg">
<path d="M45.5 45.9297C58.045 45.9297 68.25 35.7247 68.25 23.1797C68.25 10.6347 58.045 0.429688 45.5 0.429688C32.955 0.429688 22.75 10.6347 22.75 23.1797C22.75 35.7247 32.955 45.9297 45.5 45.9297ZM45.5 3.67969C56.2575 3.67969 65 12.4222 65 23.1797C65 33.9372 56.2575 42.6797 45.5 42.6797C34.7425 42.6797 26 33.9372 26 23.1797C26 12.4222 34.7425 3.67969 45.5 3.67969Z" fill="#022466"/>
<path d="M41.0965 32.4563C41.4052 32.7651 41.8115 32.9276 42.2502 32.9276H42.299C42.7377 32.9276 43.1602 32.7163 43.469 32.3913L58.094 16.1413C58.6952 15.4751 58.6465 14.4513 57.9802 13.8501C57.314 13.2488 56.2902 13.2976 55.689 13.9638L42.2177 28.9463L35.3115 22.0401C34.6777 21.4063 33.654 21.4063 33.0202 22.0401C32.3865 22.6738 32.3865 23.6976 33.0202 24.3313L41.1452 32.4563H41.0965Z" fill="#00BDFF"/>
<path d="M84.5 36.1797H68.9325C68.0387 36.1797 67.3075 36.9109 67.3075 37.8047C67.3075 38.6984 68.0387 39.4297 68.9325 39.4297H84.5C86.2875 39.4297 87.75 40.8922 87.75 42.6797V91.4297C87.75 93.2172 86.2875 94.6797 84.5 94.6797H6.5C4.7125 94.6797 3.25 93.2172 3.25 91.4297V42.6797C3.25 40.8922 4.7125 39.4297 6.5 39.4297H22.0675C22.9613 39.4297 23.6925 38.6984 23.6925 37.8047C23.6925 36.9109 22.9613 36.1797 22.0675 36.1797H6.5C2.90875 36.1797 0 39.0884 0 42.6797V91.4297C0 95.0209 2.90875 97.9297 6.5 97.9297H84.5C88.0912 97.9297 91 95.0209 91 91.4297V42.6797C91 39.0884 88.0912 36.1797 84.5 36.1797Z" fill="#022466"/>
<path d="M34.125 57.3047C34.125 52.8197 30.485 49.1797 26 49.1797C21.515 49.1797 17.875 52.8197 17.875 57.3047C17.875 61.7897 21.515 65.4297 26 65.4297C30.485 65.4297 34.125 61.7897 34.125 57.3047ZM21.125 57.3047C21.125 54.6234 23.3187 52.4297 26 52.4297C28.6812 52.4297 30.875 54.6234 30.875 57.3047C30.875 59.9859 28.6812 62.1797 26 62.1797C23.3187 62.1797 21.125 59.9859 21.125 57.3047Z" fill="#00BDFF"/>
<path d="M11.375 76.8047C11.375 81.4359 17.6637 84.9297 26 84.9297C34.3363 84.9297 40.625 81.4359 40.625 76.8047C40.625 72.1734 34.3363 68.6797 26 68.6797C17.6637 68.6797 11.375 72.1734 11.375 76.8047ZM26 71.9297C32.5163 71.9297 37.375 74.4972 37.375 76.8047C37.375 79.1122 32.5163 81.6797 26 81.6797C19.4837 81.6797 14.625 79.1122 14.625 76.8047C14.625 74.4972 19.4837 71.9297 26 71.9297Z" fill="#00BDFF"/>
<path d="M50.375 54.0547H55.25C56.1438 54.0547 56.875 53.3234 56.875 52.4297C56.875 51.5359 56.1438 50.8047 55.25 50.8047H50.375C49.4812 50.8047 48.75 51.5359 48.75 52.4297C48.75 53.3234 49.4812 54.0547 50.375 54.0547Z" fill="#022466"/>
<path d="M66.625 50.8047H61.75C60.8562 50.8047 60.125 51.5359 60.125 52.4297C60.125 53.3234 60.8562 54.0547 61.75 54.0547H66.625C67.5188 54.0547 68.25 53.3234 68.25 52.4297C68.25 51.5359 67.5188 50.8047 66.625 50.8047Z" fill="#022466"/>
<path d="M48.75 62.1797C48.75 63.0734 49.4812 63.8047 50.375 63.8047H78C78.8937 63.8047 79.625 63.0734 79.625 62.1797C79.625 61.2859 78.8937 60.5547 78 60.5547H50.375C49.4812 60.5547 48.75 61.2859 48.75 62.1797Z" fill="#022466"/>
<path d="M78 70.3047H50.375C49.4812 70.3047 48.75 71.0359 48.75 71.9297C48.75 72.8234 49.4812 73.5547 50.375 73.5547H78C78.8937 73.5547 79.625 72.8234 79.625 71.9297C79.625 71.0359 78.8937 70.3047 78 70.3047Z" fill="#022466"/>
<path d="M78 80.0547H50.375C49.4812 80.0547 48.75 80.7859 48.75 81.6797C48.75 82.5734 49.4812 83.3047 50.375 83.3047H78C78.8937 83.3047 79.625 82.5734 79.625 81.6797C79.625 80.7859 78.8937 80.0547 78 80.0547Z" fill="#022466"/>
<path d="M78 54.0547C78.8938 54.0547 79.625 53.3234 79.625 52.4297C79.625 51.5359 78.8938 50.8047 78 50.8047H73.125C72.2312 50.8047 71.5 51.5359 71.5 52.4297C71.5 53.3234 72.2312 54.0547 73.125 54.0547H78Z" fill="#022466"/>
</svg>
