<svg width="103" height="103" viewBox="0 0 103 103" fill="none" xmlns="http://www.w3.org/2000/svg">
<path d="M51.5 9.65625C28.4276 9.65625 9.65625 28.4276 9.65625 51.5C9.65625 74.5724 28.4276 93.3438 51.5 93.3438C74.5724 93.3438 93.3438 74.5724 93.3438 51.5C93.3438 28.4276 74.5724 9.65625 51.5 9.65625ZM51.9023 28.9688C54.7671 28.9688 57.5675 29.8182 59.9494 31.4098C62.3314 33.0014 64.1879 35.2635 65.2842 37.9102C66.3804 40.5569 66.6673 43.4692 66.1084 46.2789C65.5495 49.0886 64.17 51.6694 62.1443 53.6951C60.1187 55.7208 57.5378 57.1003 54.7281 57.6592C51.9184 58.2181 49.0061 57.9312 46.3594 56.8349C43.7127 55.7387 41.4506 53.8822 39.859 51.5002C38.2675 49.1183 37.418 46.3179 37.418 43.4531C37.418 39.6116 38.944 35.9275 41.6603 33.2111C44.3767 30.4948 48.0608 28.9688 51.9023 28.9688ZM51.5 86.9062C46.6165 86.9083 41.7856 85.8974 37.3126 83.9376C32.8396 81.9777 28.8216 79.1115 25.5126 75.5199C27.291 66.3103 43.264 64.375 51.5 64.375C59.736 64.375 75.709 66.3103 77.4874 75.5179C74.1788 79.1101 70.161 81.977 65.6879 83.9372C61.2148 85.8974 56.3837 86.9084 51.5 86.9062Z" fill="url(#paint0_linear_453_9008)"/>
<defs>
<linearGradient id="paint0_linear_453_9008" x1="51.5" y1="9.65625" x2="51.5" y2="93.3438" gradientUnits="userSpaceOnUse">
<stop stop-color="#00BDFF"/>
<stop offset="1" stop-color="#022566"/>
</linearGradient>
</defs>
</svg>
