<svg width="42" height="42" viewBox="0 0 42 42" fill="none" xmlns="http://www.w3.org/2000/svg">
<path d="M41.0094 24.5022L35.3628 19.5898C34.9753 19.2489 34.4006 19.2556 34.013 19.5764L33.0107 18.5738C35.4698 15.2721 35.5433 10.754 33.2379 7.37206V3.94335C33.2379 1.77117 31.467 0 29.2953 0H3.94257C1.77082 0 0 1.77117 0 3.94335V38.0567C0 40.2288 1.77082 42 3.94257 42H29.302C29.8967 42 30.4781 41.8596 31.006 41.6057C31.5873 41.7928 32.2021 41.8931 32.8436 41.8931C36.1714 41.8931 38.8844 39.1795 38.8844 35.8511C38.8844 32.6563 36.3919 30.0363 33.2445 29.8291V24.2817L36.9599 28.5458C37.4811 29.1407 38.2362 29.5016 39.0248 29.5283H39.125C39.8801 29.5283 40.6218 29.2276 41.1564 28.6862C41.7177 28.1248 42.0251 27.3495 41.9984 26.5541C41.965 25.7721 41.6041 25.0169 41.0094 24.5022ZM32.5028 19.2021L33.4383 20.1378L32.5897 20.9866L31.6542 20.0509C31.6675 20.0442 31.6742 20.0309 31.6809 20.0242C31.8012 19.9173 31.9214 19.8036 32.035 19.69C32.0551 19.67 32.0685 19.6566 32.0885 19.6432C32.1086 19.6232 32.1219 19.6098 32.142 19.5898C32.2556 19.4761 32.3625 19.3625 32.4694 19.2422C32.4828 19.2222 32.4894 19.2088 32.5028 19.2021ZM32.1553 18.3666C32.0952 18.4468 32.0217 18.5204 31.9549 18.6006C31.9148 18.6474 31.8814 18.6875 31.8413 18.7342C31.7744 18.8078 31.7009 18.888 31.6274 18.9615C31.594 18.9949 31.5606 19.035 31.5205 19.0751C31.5005 19.0952 31.4737 19.1152 31.4537 19.1353C31.3601 19.2222 31.2666 19.3157 31.1797 19.3959C31.1597 19.416 31.1396 19.4293 31.1196 19.4494C31.0193 19.5363 30.9124 19.6299 30.8122 19.7101C30.8122 19.7101 30.8122 19.7167 30.8055 19.7167C27.3374 22.5105 22.2321 22.2966 19.0112 19.0751C15.5631 15.6264 15.5631 10.0121 19.0112 6.56334C20.7352 4.82559 23.0005 3.9634 25.2659 3.9634C27.5312 3.9634 29.7965 4.82559 31.5205 6.54997C34.7481 9.77817 34.9552 14.8978 32.1553 18.3666ZM38.0759 35.8511C38.0759 38.7384 35.7237 41.091 32.8369 41.091C29.9502 41.091 27.598 38.7384 27.598 35.8511C27.598 32.9637 29.9435 30.6178 32.8302 30.6111C35.7237 30.6178 38.0759 32.9637 38.0759 35.8511ZM32.436 29.8291C29.2953 30.0363 26.7961 32.6563 26.7961 35.8511C26.7961 38.1168 28.0524 40.0952 29.9034 41.1311C29.7029 41.1712 29.5024 41.198 29.2953 41.198H3.94257C2.21185 41.198 0.801879 39.7877 0.801879 38.0567V3.94335C0.801879 2.21229 2.21185 0.802037 3.94257 0.802037H29.302C31.0327 0.802037 32.4427 2.21229 32.4427 3.94335V6.34946C32.3291 6.22915 32.2155 6.10885 32.1019 5.98854C28.3397 2.22565 22.2187 2.22565 18.4499 5.98854C14.6877 9.75143 14.6877 15.8736 18.4499 19.6432C20.3343 21.528 22.8001 22.4637 25.2725 22.4637C27.304 22.4637 29.3287 21.8288 31.0327 20.5589L32.035 21.5614C31.7143 21.9491 31.7076 22.5239 32.0484 22.9115L32.4427 23.366V29.8291H32.436ZM40.5817 28.1248C40.1741 28.5325 39.6262 28.753 39.0515 28.7263C38.4701 28.7062 37.9422 28.4523 37.5613 28.0178L32.6498 22.3701C32.5696 22.2766 32.5696 22.1295 32.6632 22.0427L33.0107 21.6951L34.3004 20.4118L34.307 20.4052L34.5142 20.198C34.561 20.1512 34.6211 20.1244 34.6879 20.1244C34.7414 20.1244 34.8015 20.1445 34.8483 20.1846L40.4949 25.0971C40.9292 25.478 41.1831 26.006 41.2032 26.5875C41.2032 27.1757 40.9894 27.7171 40.5817 28.1248Z" fill="#312783"/>
<path d="M25.2652 5.90137C23.4142 5.90137 21.6835 6.61652 20.3738 7.92651C18.1686 10.1321 17.7142 13.5608 19.2712 16.261C19.5719 16.7823 19.9394 17.2702 20.3738 17.7047C21.6768 19.008 23.4142 19.7298 25.2652 19.7298C27.1162 19.7298 28.847 19.0147 30.15 17.7047C30.5777 17.2769 30.9519 16.789 31.2526 16.261C32.8096 13.5608 32.3552 10.1321 30.15 7.92651C28.8537 6.61652 27.1162 5.90137 25.2652 5.90137ZM29.5887 17.1299C28.4393 18.2795 26.9024 18.9144 25.2719 18.9144C23.6414 18.9144 22.1045 18.2795 20.9551 17.1299C20.6277 16.8024 20.3404 16.4415 20.1065 16.0538C20.3471 15.6729 20.6277 15.3053 20.9551 14.9778C22.1446 13.7881 23.7016 13.1932 25.2652 13.1932H25.2786H25.292C26.849 13.1932 28.4126 13.7881 29.5954 14.9778C29.9228 15.3053 30.2035 15.6662 30.444 16.0538C30.1901 16.4415 29.9095 16.8024 29.5887 17.1299ZM23.4543 10.5799C23.4543 9.57737 24.2696 8.76197 25.2719 8.76197C26.2743 8.76197 27.0895 9.57737 27.0895 10.5799C27.0895 11.5758 26.281 12.3912 25.2853 12.3979C25.2786 12.3979 25.2719 12.3979 25.2652 12.3979C24.2629 12.3912 23.4543 11.5758 23.4543 10.5799ZM30.8583 15.2451C30.6445 14.951 30.4106 14.6703 30.15 14.4096C29.2279 13.4873 28.1052 12.8925 26.9225 12.5984C27.5038 12.1172 27.878 11.3886 27.878 10.5732C27.878 9.12957 26.7019 7.95324 25.2586 7.95324C23.8152 7.95324 22.6391 9.12957 22.6391 10.5732C22.6391 11.3886 23.0133 12.1172 23.5947 12.5984C22.4119 12.8925 21.2893 13.4873 20.3671 14.4096C20.1065 14.6703 19.8726 14.951 19.6588 15.2451C18.6698 12.966 19.1509 10.2725 20.9351 8.48794C22.0845 7.33835 23.6214 6.7034 25.2519 6.7034C26.8824 6.7034 28.4193 7.33835 29.5687 8.48794C31.3729 10.2792 31.854 12.9727 30.8583 15.2451Z" fill="#00BDFF"/>
<path d="M4.02594 5.40067H14.3167C14.5372 5.40067 14.7177 5.22021 14.7177 4.99965C14.7177 4.77909 14.5372 4.59863 14.3167 4.59863H4.02594C3.80542 4.59863 3.625 4.77909 3.625 4.99965C3.625 5.22021 3.80542 5.40067 4.02594 5.40067Z" fill="#00BDFF"/>
<path d="M4.02594 9.14335H14.3167C14.5372 9.14335 14.7177 8.96289 14.7177 8.74233C14.7177 8.52177 14.5372 8.34131 14.3167 8.34131H4.02594C3.80542 8.34131 3.625 8.52177 3.625 8.74233C3.625 8.96289 3.80542 9.14335 4.02594 9.14335Z" fill="#00BDFF"/>
<path d="M4.02594 12.8792H14.3167C14.5372 12.8792 14.7177 12.6987 14.7177 12.4782C14.7177 12.2576 14.5372 12.0771 14.3167 12.0771H4.02594C3.80542 12.0771 3.625 12.2576 3.625 12.4782C3.625 12.6987 3.80542 12.8792 4.02594 12.8792Z" fill="#00BDFF"/>
<path d="M4.02594 16.6223H14.3167C14.5372 16.6223 14.7177 16.4419 14.7177 16.2213C14.7177 16.0008 14.5372 15.8203 14.3167 15.8203H4.02594C3.80542 15.8203 3.625 16.0008 3.625 16.2213C3.625 16.4419 3.80542 16.6223 4.02594 16.6223Z" fill="#00BDFF"/>
<path d="M4.02594 20.3582H14.3167C14.5372 20.3582 14.7177 20.1777 14.7177 19.9572C14.7177 19.7366 14.5372 19.5562 14.3167 19.5562H4.02594C3.80542 19.5562 3.625 19.7366 3.625 19.9572C3.625 20.1777 3.80542 20.3582 4.02594 20.3582Z" fill="#00BDFF"/>
<path d="M8.20907 23.0254H4.99488C4.23977 23.0254 3.625 23.6403 3.625 24.3955V27.6104C3.625 28.3656 4.23977 28.9805 4.99488 28.9805H8.20907C8.96417 28.9805 9.57895 28.3656 9.57895 27.6104V24.3955C9.57227 23.6403 8.96417 23.0254 8.20907 23.0254ZM8.77039 27.6104C8.77039 27.9178 8.51646 28.1718 8.20907 28.1718H4.99488C4.68749 28.1718 4.43356 27.9178 4.43356 27.6104V24.3955C4.43356 24.0881 4.68749 23.8341 4.99488 23.8341H8.20907C8.51646 23.8341 8.77039 24.0881 8.77039 24.3955V27.6104Z" fill="#312783"/>
<path d="M8.20907 31.6401H4.99488C4.23977 31.6401 3.625 32.255 3.625 33.0103V36.2251C3.625 36.9804 4.23977 37.5953 4.99488 37.5953H8.20907C8.96417 37.5953 9.57895 36.9804 9.57895 36.2251V33.0103C9.57227 32.255 8.96417 31.6401 8.20907 31.6401ZM8.77039 36.2251C8.77039 36.5326 8.51646 36.7865 8.20907 36.7865H4.99488C4.68749 36.7865 4.43356 36.5326 4.43356 36.2251V33.0103C4.43356 32.7028 4.68749 32.4489 4.99488 32.4489H8.20907C8.51646 32.4489 8.77039 32.7028 8.77039 33.0103V36.2251Z" fill="#312783"/>
<path d="M25.878 24.3618H12.9009C12.6804 24.3618 12.5 24.5423 12.5 24.7628C12.5 24.9834 12.6804 25.1639 12.9009 25.1639H25.878C26.0985 25.1639 26.2789 24.9834 26.2789 24.7628C26.2789 24.5423 26.0985 24.3618 25.878 24.3618Z" fill="#00BDFF"/>
<path d="M12.9009 27.637H20.0844C20.305 27.637 20.4854 27.4565 20.4854 27.236C20.4854 27.0154 20.305 26.835 20.0844 26.835H12.9009C12.6804 26.835 12.5 27.0154 12.5 27.236C12.5 27.4565 12.6804 27.637 12.9009 27.637Z" fill="#00BDFF"/>
<path d="M25.878 32.9771H12.9009C12.6804 32.9771 12.5 33.1575 12.5 33.3781C12.5 33.5986 12.6804 33.7791 12.9009 33.7791H25.878C26.0985 33.7791 26.2789 33.5986 26.2789 33.3781C26.2789 33.1575 26.0985 32.9771 25.878 32.9771Z" fill="#00BDFF"/>
<path d="M20.0844 35.4502H12.9009C12.6804 35.4502 12.5 35.6307 12.5 35.8512C12.5 36.0718 12.6804 36.2522 12.9009 36.2522H20.0844C20.305 36.2522 20.4854 36.0718 20.4854 35.8512C20.4854 35.6307 20.305 35.4502 20.0844 35.4502Z" fill="#00BDFF"/>
<g clip-path="url(#clip0_453_8139)">
<path d="M33.3975 38.0783C33.3021 38.2912 33.239 38.5223 33.2148 38.7647L35.2336 38.3327C35.329 38.1197 35.392 37.8886 35.4162 37.6462L33.3975 38.0783Z" fill="#00BDFF"/>
<path d="M35.2336 37.0384C35.329 36.8255 35.392 36.5943 35.4162 36.352L33.8436 36.6887V36.0414L35.2335 35.744C35.3289 35.5311 35.392 35.2999 35.4161 35.0576L33.8436 35.394V33.0661C33.6026 33.2023 33.3886 33.3836 33.2147 33.5975V35.5287L32.5857 35.6632V32.7495C32.3448 32.8857 32.1308 33.067 31.9568 33.2809V35.7978L30.5496 36.0988C30.4542 36.3117 30.3911 36.5429 30.3669 36.7852L31.9568 36.4451V37.2602L30.2529 37.6248C30.1575 37.8377 30.0945 38.0688 30.0703 38.3112L31.8538 37.9296C31.999 37.8992 32.1238 37.8128 32.2049 37.6939L32.532 37.2057V37.2056C32.566 37.1551 32.5857 37.0942 32.5857 37.0286V36.3105L33.2147 36.1759V37.4705L35.2335 37.0383L35.2336 37.0384Z" fill="#00BDFF"/>
</g>
<defs>
<clipPath id="clip0_453_8139">
<rect width="5.34586" height="6.01528" fill="white" transform="translate(30.0703 32.7495)"/>
</clipPath>
</defs>
</svg>
