<svg width="60" height="60" viewBox="0 0 60 60" fill="none" xmlns="http://www.w3.org/2000/svg">
<path d="M58.5849 35.0032L50.5184 27.9854C49.9647 27.4984 49.1438 27.508 48.5901 27.9663L47.1582 26.5341C50.6711 21.8173 50.7762 15.3628 47.4827 10.5315V5.63336C47.4827 2.53024 44.953 0 41.8505 0H5.6323C2.5298 0 6.10352e-05 2.53024 6.10352e-05 5.63336V54.3666C6.10352e-05 57.4698 2.5298 60 5.6323 60H41.86C42.7096 60 43.5402 59.7995 44.2943 59.4367C45.1248 59.704 46.0031 59.8472 46.9195 59.8472C51.6735 59.8472 55.5492 55.9707 55.5492 51.2158C55.5492 46.6518 51.9885 42.909 47.4923 42.613V34.6881L52.7999 40.7798C53.5445 41.6295 54.6233 42.1451 55.7497 42.1833H55.8929C56.9716 42.1833 58.0312 41.7537 58.7949 40.9803C59.5968 40.1782 60.0359 39.0707 59.9978 37.9344C59.95 36.8173 59.4345 35.7384 58.5849 35.0032ZM46.4326 27.4316L47.7691 28.7683L46.5567 29.9809L45.2203 28.6442C45.2394 28.6346 45.2489 28.6155 45.2585 28.606C45.4303 28.4532 45.6021 28.2909 45.7644 28.1286C45.7931 28.0999 45.8121 28.0808 45.8408 28.0617C45.8694 28.0331 45.8885 28.014 45.9172 27.9854C46.0794 27.823 46.2322 27.6607 46.3849 27.4889C46.404 27.4602 46.4136 27.4411 46.4326 27.4316ZM45.9362 26.2381C45.8503 26.3526 45.7453 26.4577 45.6499 26.5722C45.5926 26.6391 45.5448 26.6964 45.4876 26.7632C45.3921 26.8682 45.2871 26.9828 45.1821 27.0878C45.1344 27.1356 45.0866 27.1929 45.0294 27.2502C45.0007 27.2788 44.9625 27.3074 44.9339 27.3361C44.8003 27.4602 44.6666 27.5939 44.5425 27.7085C44.5139 27.7371 44.4852 27.7562 44.4566 27.7849C44.3134 27.909 44.1607 28.0427 44.0175 28.1572C44.0175 28.1572 44.0175 28.1668 44.0079 28.1668C39.0535 32.1579 31.7602 31.8523 27.1589 27.2502C22.2331 22.3234 22.2331 14.303 27.1589 9.37619C29.6218 6.8937 32.858 5.662 36.0941 5.662C39.3303 5.662 42.5664 6.8937 45.0294 9.3571C49.6402 13.9688 49.9361 21.2826 45.9362 26.2381ZM54.3942 51.2158C54.3942 55.3405 51.0339 58.7015 46.91 58.7015C42.786 58.7015 39.4258 55.3405 39.4258 51.2158C39.4258 47.091 42.7765 43.7397 46.9004 43.7301C51.0339 43.7397 54.3942 47.091 54.3942 51.2158ZM46.3372 42.613C41.8505 42.909 38.2802 46.6518 38.2802 51.2158C38.2802 54.4526 40.0749 57.2788 42.7192 58.7588C42.4328 58.816 42.1464 58.8542 41.8505 58.8542H5.6323C3.15984 58.8542 1.1456 56.8396 1.1456 54.3666V5.63336C1.1456 3.16041 3.15984 1.14577 5.6323 1.14577H41.86C44.3325 1.14577 46.3467 3.16041 46.3467 5.63336V9.07066C46.1844 8.89879 46.0222 8.72693 45.8599 8.55506C40.4854 3.1795 31.7411 3.1795 26.357 8.55506C20.9825 13.9306 20.9825 22.6766 26.357 28.0617C29.0491 30.7543 32.5716 32.091 36.1037 32.091C39.0057 32.091 41.8982 31.184 44.3325 29.3698L45.7644 30.802C45.3062 31.3558 45.2967 32.177 45.7835 32.7307L46.3467 33.38V42.613H46.3372ZM57.974 40.1782C57.3917 40.7607 56.6089 41.0757 55.7879 41.0376C54.9574 41.0089 54.2032 40.6461 53.6591 40.0255L46.6427 31.9574C46.5281 31.8237 46.5281 31.6136 46.6618 31.4895L47.1582 30.993L49.0006 29.1598L49.0101 29.1502L49.306 28.8542C49.3729 28.7874 49.4588 28.7492 49.5542 28.7492C49.6306 28.7492 49.7165 28.7779 49.7834 28.8351L57.8499 35.853C58.4704 36.3972 58.8331 37.1515 58.8618 37.9822C58.8618 38.8224 58.5563 39.5958 57.974 40.1782Z" fill="#312783"/>
<path d="M36.094 8.43066C33.4497 8.43066 30.9773 9.45231 29.1062 11.3237C25.956 14.4746 25.3069 19.3727 27.5311 23.2302C27.9607 23.9749 28.4857 24.6719 29.1062 25.2925C30.9677 27.1544 33.4497 28.1856 36.094 28.1856C38.7383 28.1856 41.2108 27.164 43.0723 25.2925C43.6832 24.6815 44.2178 23.9845 44.6474 23.2302C46.8717 19.3727 46.2225 14.4746 43.0723 11.3237C41.2203 9.45231 38.7383 8.43066 36.094 8.43066ZM42.2704 24.4714C40.6285 26.1137 38.4328 27.0207 36.1036 27.0207C33.7743 27.0207 31.5787 26.1137 29.9367 24.4714C29.469 24.0035 29.0585 23.488 28.7244 22.9342C29.068 22.3899 29.469 21.8648 29.9367 21.3969C31.636 19.6974 33.8602 18.8476 36.094 18.8476H36.1131H36.1322C38.3565 18.8476 40.5903 19.6974 42.28 21.3969C42.7477 21.8648 43.1487 22.3804 43.4923 22.9342C43.1296 23.488 42.7286 24.0035 42.2704 24.4714ZM33.507 15.1143C33.507 13.6821 34.6717 12.5172 36.1036 12.5172C37.5355 12.5172 38.7001 13.6821 38.7001 15.1143C38.7001 16.537 37.545 17.7018 36.1227 17.7114C36.1131 17.7114 36.1036 17.7114 36.094 17.7114C34.6621 17.7018 33.507 16.537 33.507 15.1143ZM44.0842 21.7789C43.7787 21.3587 43.4446 20.9577 43.0723 20.5853C41.7549 19.2677 40.1512 18.4179 38.4615 17.9978C39.292 17.3104 39.8266 16.2696 39.8266 15.1048C39.8266 13.0424 38.1465 11.3619 36.0845 11.3619C34.0225 11.3619 32.3424 13.0424 32.3424 15.1048C32.3424 16.2696 32.877 17.3104 33.7075 17.9978C32.0178 18.4179 30.4141 19.2677 29.0967 20.5853C28.7244 20.9577 28.3903 21.3587 28.0848 21.7789C26.672 18.523 27.3593 14.6751 29.9081 12.1258C31.5501 10.4835 33.7457 9.57643 36.0749 9.57643C38.4042 9.57643 40.5998 10.4835 42.2418 12.1258C44.8192 14.6846 45.5066 18.5325 44.0842 21.7789Z" fill="#CE2E81"/>
<path d="M5.74715 7.7151H20.4483C20.7633 7.7151 21.021 7.45731 21.021 7.14222C21.021 6.82713 20.7633 6.56934 20.4483 6.56934H5.74715C5.43212 6.56934 5.17438 6.82713 5.17438 7.14222C5.17438 7.45731 5.43212 7.7151 5.74715 7.7151Z" fill="#CE2E81"/>
<path d="M5.74715 13.0618H20.4483C20.7633 13.0618 21.021 12.804 21.021 12.4889C21.021 12.1738 20.7633 11.916 20.4483 11.916H5.74715C5.43212 11.916 5.17438 12.1738 5.17438 12.4889C5.17438 12.804 5.43212 13.0618 5.74715 13.0618Z" fill="#CE2E81"/>
<path d="M5.74715 18.3987H20.4483C20.7633 18.3987 21.021 18.1409 21.021 17.8258C21.021 17.5107 20.7633 17.2529 20.4483 17.2529H5.74715C5.43212 17.2529 5.17438 17.5107 5.17438 17.8258C5.17438 18.1409 5.43212 18.3987 5.74715 18.3987Z" fill="#CE2E81"/>
<path d="M5.74715 23.7464H20.4483C20.7633 23.7464 21.021 23.4886 21.021 23.1735C21.021 22.8584 20.7633 22.6006 20.4483 22.6006H5.74715C5.43212 22.6006 5.17438 22.8584 5.17438 23.1735C5.17438 23.4886 5.43212 23.7464 5.74715 23.7464Z" fill="#CE2E81"/>
<path d="M5.74715 29.0833H20.4483C20.7633 29.0833 21.021 28.8255 21.021 28.5104C21.021 28.1953 20.7633 27.9375 20.4483 27.9375H5.74715C5.43212 27.9375 5.17438 28.1953 5.17438 28.5104C5.17438 28.8255 5.43212 29.0833 5.74715 29.0833Z" fill="#CE2E81"/>
<path d="M11.7231 32.8936H7.13134C6.05263 32.8936 5.17438 33.772 5.17438 34.8509V39.4435C5.17438 40.5225 6.05263 41.4009 7.13134 41.4009H11.7231C12.8018 41.4009 13.68 40.5225 13.68 39.4435V34.8509C13.6705 33.772 12.8018 32.8936 11.7231 32.8936ZM12.5249 39.4435C12.5249 39.8827 12.1622 40.2456 11.7231 40.2456H7.13134C6.69222 40.2456 6.32946 39.8827 6.32946 39.4435V34.8509C6.32946 34.4117 6.69222 34.0489 7.13134 34.0489H11.7231C12.1622 34.0489 12.5249 34.4117 12.5249 34.8509V39.4435Z" fill="#312783"/>
<path d="M11.7231 45.2002H7.13134C6.05263 45.2002 5.17438 46.0786 5.17438 47.1576V51.7502C5.17438 52.8291 6.05263 53.7075 7.13134 53.7075H11.7231C12.8018 53.7075 13.68 52.8291 13.68 51.7502V47.1576C13.6705 46.0786 12.8018 45.2002 11.7231 45.2002ZM12.5249 51.7502C12.5249 52.1894 12.1622 52.5522 11.7231 52.5522H7.13134C6.69222 52.5522 6.32946 52.1894 6.32946 51.7502V47.1576C6.32946 46.7183 6.69222 46.3555 7.13134 46.3555H11.7231C12.1622 46.3555 12.5249 46.7183 12.5249 47.1576V51.7502Z" fill="#312783"/>
<path d="M36.9723 34.8027H18.4337C18.1186 34.8027 17.8609 35.0605 17.8609 35.3756C17.8609 35.6907 18.1186 35.9485 18.4337 35.9485H36.9723C37.2874 35.9485 37.5451 35.6907 37.5451 35.3756C37.5451 35.0605 37.2874 34.8027 36.9723 34.8027Z" fill="#CE2E81"/>
<path d="M18.4337 39.4807H28.6958C29.0108 39.4807 29.2686 39.2229 29.2686 38.9078C29.2686 38.5928 29.0108 38.335 28.6958 38.335H18.4337C18.1186 38.335 17.8609 38.5928 17.8609 38.9078C17.8609 39.2229 18.1186 39.4807 18.4337 39.4807Z" fill="#CE2E81"/>
<path d="M36.9723 47.1104H18.4337C18.1186 47.1104 17.8609 47.3682 17.8609 47.6832C17.8609 47.9983 18.1186 48.2561 18.4337 48.2561H36.9723C37.2874 48.2561 37.5451 47.9983 37.5451 47.6832C37.5451 47.3682 37.2874 47.1104 36.9723 47.1104Z" fill="#CE2E81"/>
<path d="M28.6958 50.6426H18.4337C18.1186 50.6426 17.8609 50.9004 17.8609 51.2155C17.8609 51.5305 18.1186 51.7883 18.4337 51.7883H28.6958C29.0108 51.7883 29.2686 51.5305 29.2686 51.2155C29.2686 50.9004 29.0108 50.6426 28.6958 50.6426Z" fill="#CE2E81"/>
<g clip-path="url(#clip0_109617_1255)">
<path d="M47.7112 54.3975C47.5749 54.7017 47.4848 55.0319 47.4503 55.3781L50.3343 54.7609C50.4705 54.4567 50.5606 54.1265 50.5951 53.7803L47.7112 54.3975Z" fill="#CE2E81"/>
<path d="M50.3342 52.9121C50.4705 52.6079 50.5606 52.2777 50.5951 51.9315L48.3486 52.4125V51.4878L50.3341 51.063C50.4704 50.7588 50.5605 50.4286 50.595 50.0824L48.3485 50.563V47.2375C48.0043 47.432 47.6986 47.6911 47.45 47.9966V50.7554L46.5516 50.9476V46.7852C46.2074 46.9797 45.9017 47.2388 45.6531 47.5443V51.1398L43.6429 51.5699C43.5066 51.8741 43.4164 52.2043 43.3818 52.5505L45.6531 52.0645V53.2291L43.219 53.7498C43.0827 54.054 42.9926 54.3842 42.9581 54.7304L45.506 54.1853C45.7134 54.1419 45.8917 54.0184 46.0076 53.8485L46.4748 53.1511V53.1509C46.5233 53.0788 46.5516 52.9918 46.5516 52.8981V51.8723L47.45 51.68V53.5294L50.3341 52.912L50.3342 52.9121Z" fill="#CE2E81"/>
</g>
<defs>
<clipPath id="clip0_109617_1255">
<rect width="7.63694" height="8.59325" fill="white" transform="translate(42.9583 46.7852)"/>
</clipPath>
</defs>
</svg>
