<svg width="274" height="106" viewBox="0 0 274 106" fill="none" xmlns="http://www.w3.org/2000/svg">
<path fill-rule="evenodd" clip-rule="evenodd" d="M90.6599 38.3975C87.0446 38.2984 83.4576 39.0314 80.1716 40.5398C77.4628 41.9066 77.9054 43.6134 78.5818 44.8385L80.1362 47.7279C82.9123 45.6423 86.2975 44.534 89.7676 44.5765C95.0578 44.5765 97.6745 47.133 97.6745 51.4742V51.9487H89.4702C79.8388 51.9487 76.2695 56.1058 76.2695 61.4066C76.2695 66.7074 80.848 70.9211 88.1034 70.9211C92.8234 70.9211 96.2582 69.3985 98.0499 66.7003C98.2659 68.8567 100.079 70.4962 102.242 70.5033H105.111V51.8885C105.111 42.7317 99.8203 38.3905 90.6635 38.3905M89.6578 65.507C85.8513 65.507 83.5922 63.7861 83.5922 61.1056C83.5922 58.7863 84.9626 56.8848 90.0119 56.8848H97.6816V60.5709C96.3396 63.7649 93.1103 65.7478 89.6543 65.507" fill="#022466"/>
<path fill-rule="evenodd" clip-rule="evenodd" d="M173.927 54.8101C173.927 44.8813 167.146 38.4014 157.875 38.4014C149.161 38.0544 141.817 44.8388 141.47 53.5531C141.456 53.9143 141.453 54.2755 141.463 54.6331C141.463 64.091 148.361 70.925 159.001 70.925C164.472 70.925 168.93 69.1403 171.784 65.7517L169.975 63.6731C169.139 62.8977 168.325 61.2653 165.62 62.9366C163.676 64.098 161.441 64.6823 159.179 64.6221C153.648 64.6221 149.784 61.6512 148.892 57.0126H173.806C173.866 56.2973 173.927 55.4086 173.927 54.8137M157.875 44.3467C162.44 44.1448 166.374 47.53 166.852 52.0765H148.835C149.377 47.5406 153.308 44.1767 157.872 44.3467" fill="#022466"/>
<path fill-rule="evenodd" clip-rule="evenodd" d="M211.325 54.8101C211.325 44.8813 204.544 38.4014 195.274 38.4014C186.56 38.0544 179.216 44.8388 178.869 53.5531C178.855 53.9143 178.851 54.2755 178.862 54.6331C178.862 64.091 185.759 70.925 196.4 70.925C201.871 70.925 206.329 69.1403 209.183 65.7517L207.373 63.6731C206.538 62.8977 205.723 61.2653 203.018 62.9366C201.07 64.1016 198.836 64.6858 196.57 64.6221C191.039 64.6221 187.176 61.6512 186.283 57.0126H211.198C211.258 56.2973 211.318 55.4086 211.318 54.8137M195.267 44.3467C199.831 44.1448 203.765 47.53 204.243 52.0765H186.227C186.769 47.5406 190.699 44.1802 195.263 44.3467" fill="#022466"/>
<path fill-rule="evenodd" clip-rule="evenodd" d="M124.339 70.9224C133.258 70.9224 138.726 67.0521 138.726 61.1104C138.726 48.6852 119.105 54.3826 119.105 47.97C119.105 45.8879 121.248 44.4042 125.766 44.4042C128.96 44.3476 132.108 45.1691 134.863 46.7838L136.725 43.1012C137.051 42.4178 137.607 40.7925 135.075 39.9179C132.093 38.9264 128.97 38.4165 125.826 38.4023C117.264 38.4023 111.853 42.3257 111.853 48.3312C111.853 60.9936 131.474 55.2785 131.474 61.3512C131.474 63.5501 129.512 64.8603 124.813 64.8603C120.908 64.839 117.083 63.7484 113.755 61.7088L111.747 65.6676C111.273 66.5493 110.887 67.4558 112.558 68.3446C116.23 70.0973 120.26 70.9826 124.332 70.9259" fill="#022466"/>
<path fill-rule="evenodd" clip-rule="evenodd" d="M216.727 38.6745V70.4261H224.159V55.023C224.159 48.5431 227.725 45.2181 233.376 45.2181C233.953 45.2217 234.53 45.2819 235.097 45.3952V40.236C235.097 39.2729 235.327 38.1681 232.717 38.4514C229.215 38.593 225.968 40.3281 223.904 43.1608V42.782L223.805 42.9059V42.8917C223.798 40.5689 221.914 38.6851 219.591 38.678H216.727V38.6745Z" fill="#022466"/>
<path fill-rule="evenodd" clip-rule="evenodd" d="M13.7955 70.4249H21.5254V35.3448H35.3174V28.8047H0V29.4031C0.0106228 32.6785 2.66279 35.3342 5.93816 35.3413H13.792V70.4249H13.7955Z" fill="#022466"/>
<path fill-rule="evenodd" clip-rule="evenodd" d="M65.1733 40.6576L56.0908 61.882L46.1018 38.3984H38.3754L52.2276 70.2669L51.6929 71.5169C50.2588 74.6683 48.7221 75.9183 46.1018 75.9183C44.8837 75.9041 43.6868 75.6173 42.5927 75.0826C40.4929 74.0805 40.0113 75.0366 39.5227 75.7625L37.6602 79.1866C40.0645 81.127 43.0743 82.1574 46.162 82.1008C51.4521 82.1008 55.4959 79.9018 58.4101 72.7066L73.275 38.3984H68.0769C66.7703 38.5649 65.6549 39.4289 65.1733 40.6576Z" fill="#022466"/>
<path d="M232.312 19.592C232.312 18.7635 232.985 18.0871 233.817 18.0871H244.787C247.889 18.0871 250.403 15.5731 250.403 12.4712V1.5049C250.403 0.672779 251.076 0 251.908 0C252.74 0 253.413 0.672779 253.413 1.5049V12.7439C253.413 17.3577 249.674 21.0969 245.063 21.0969H233.824C232.996 21.0969 232.32 20.4242 232.32 19.592" fill="#022466"/>
<path d="M273.011 21.1104C273.011 21.939 272.338 22.6153 271.506 22.6153H260.536C257.434 22.6153 254.92 25.1293 254.92 28.2312V39.201C254.92 40.0332 254.247 40.7059 253.415 40.7059C252.583 40.7059 251.91 40.0332 251.91 39.201V27.9586C251.91 23.3447 255.649 19.6055 260.26 19.6055H271.499C272.327 19.6055 273.004 20.2782 273.004 21.1104" fill="#022466"/>
<path d="M268.302 9.91089C268.302 12.2904 266.372 14.2202 263.993 14.2202C261.613 14.2202 259.684 12.2904 259.684 9.91089C259.684 7.53138 261.613 5.60156 263.993 5.60156C266.372 5.60156 268.302 7.53138 268.302 9.91089Z" fill="#00BDFF"/>
<path d="M247.334 31.6882C247.334 34.0677 245.404 35.9976 243.024 35.9976C240.645 35.9976 238.715 34.0677 238.715 31.6882C238.715 29.3087 240.645 27.3789 243.024 27.3789C245.404 27.3789 247.334 29.3087 247.334 31.6882Z" fill="#00BDFF"/>
<path d="M264.005 35.9956C261.625 35.9956 259.695 34.0658 259.695 31.6863C259.695 29.3068 261.625 27.377 264.005 27.377C266.384 27.377 268.314 29.3068 268.314 31.6863C268.314 34.0658 266.384 35.9956 264.005 35.9956Z" fill="#00BDFF"/>
<path d="M243.024 14.2124C240.645 14.2124 238.715 12.2826 238.715 9.90308C238.715 7.52356 240.645 5.59375 243.024 5.59375C245.404 5.59375 247.334 7.52356 247.334 9.90308C247.334 12.2826 245.404 14.2124 243.024 14.2124Z" fill="#00BDFF"/>
<path d="M196.16 101.154V86.6088H201.075C202.216 86.6088 203.148 86.8148 203.873 87.2267C204.602 87.6339 205.142 88.1855 205.492 88.8816C205.843 89.5776 206.018 90.3541 206.018 91.2111C206.018 92.0681 205.843 92.847 205.492 93.5478C205.147 94.2485 204.612 94.8072 203.887 95.2239C203.163 95.6358 202.235 95.8418 201.103 95.8418H197.58V94.2793H201.046C201.827 94.2793 202.455 94.1444 202.928 93.8745C203.402 93.6046 203.745 93.24 203.958 92.7807C204.176 92.3167 204.285 91.7935 204.285 91.2111C204.285 90.6287 204.176 90.1079 203.958 89.6486C203.745 89.1893 203.399 88.8295 202.921 88.5691C202.443 88.3039 201.808 88.1713 201.018 88.1713H197.921V101.154H196.16ZM211.838 101.41C211.147 101.41 210.519 101.28 209.956 101.019C209.393 100.754 208.945 100.373 208.614 99.8759C208.282 99.374 208.116 98.7679 208.116 98.0577C208.116 97.4327 208.24 96.9261 208.486 96.5378C208.732 96.1448 209.061 95.8371 209.473 95.6145C209.885 95.392 210.339 95.2263 210.837 95.1174C211.339 95.0037 211.843 94.9138 212.349 94.8475C213.012 94.7623 213.55 94.6983 213.962 94.6557C214.378 94.6084 214.681 94.5302 214.871 94.4213C215.065 94.3124 215.162 94.123 215.162 93.8532V93.7963C215.162 93.0956 214.97 92.5511 214.587 92.1628C214.208 91.7746 213.633 91.5804 212.861 91.5804C212.061 91.5804 211.433 91.7556 210.979 92.106C210.524 92.4564 210.205 92.8304 210.02 93.2282L208.429 92.66C208.713 91.9971 209.092 91.481 209.565 91.1117C210.044 90.7376 210.564 90.4772 211.128 90.3304C211.696 90.1789 212.255 90.1032 212.804 90.1032C213.154 90.1032 213.557 90.1458 214.011 90.231C214.471 90.3115 214.913 90.4796 215.339 90.7353C215.77 90.9909 216.128 91.3768 216.412 91.8929C216.696 92.409 216.838 93.1003 216.838 93.9668V101.154H215.162V99.677H215.077C214.963 99.9138 214.774 100.167 214.509 100.437C214.243 100.707 213.891 100.936 213.45 101.126C213.01 101.315 212.473 101.41 211.838 101.41ZM212.094 99.9043C212.757 99.9043 213.315 99.7741 213.77 99.5137C214.229 99.2533 214.575 98.9171 214.807 98.5051C215.044 98.0932 215.162 97.66 215.162 97.2054V95.6713C215.091 95.7566 214.935 95.8347 214.693 95.9057C214.456 95.972 214.182 96.0312 213.869 96.0833C213.562 96.1306 213.261 96.1732 212.967 96.2111C212.679 96.2443 212.444 96.2727 212.264 96.2963C211.829 96.3532 211.421 96.4455 211.043 96.5733C210.669 96.6964 210.366 96.8835 210.134 97.1344C209.906 97.3806 209.793 97.7168 209.793 98.1429C209.793 98.7253 210.008 99.1657 210.439 99.464C210.875 99.7575 211.426 99.9043 212.094 99.9043ZM220.586 105.245C220.302 105.245 220.049 105.222 219.826 105.174C219.604 105.132 219.45 105.089 219.365 105.046L219.791 103.569C220.198 103.673 220.558 103.711 220.87 103.683C221.183 103.654 221.46 103.515 221.701 103.264C221.948 103.017 222.172 102.617 222.376 102.063L222.689 101.211L218.654 90.2452H220.473L223.484 98.9384H223.598L226.609 90.2452H228.427L223.797 102.745C223.588 103.309 223.33 103.775 223.022 104.144C222.715 104.518 222.357 104.795 221.95 104.975C221.547 105.155 221.093 105.245 220.586 105.245Z" fill="#00BDFF"/>
</svg>
