<svg width="452" height="174" viewBox="0 0 452 174" fill="none" xmlns="http://www.w3.org/2000/svg">
<g filter="url(#filter0_d_539_7159)">
<path fill-rule="evenodd" clip-rule="evenodd" d="M152.77 63.0092C146.838 62.8465 140.952 64.0493 135.559 66.5246C131.114 68.7674 131.841 71.5681 132.951 73.5786L135.501 78.32C140.057 74.8976 145.612 73.0789 151.306 73.1486C159.987 73.1486 164.281 77.3438 164.281 84.4676V85.2462H150.818C135.013 85.2462 129.156 92.0678 129.156 100.766C129.156 109.465 136.669 116.379 148.575 116.379C156.321 116.379 161.957 113.881 164.897 109.453C165.251 112.992 168.226 115.682 171.777 115.694H176.483V85.1474C176.483 70.1213 167.802 62.9976 152.776 62.9976M151.126 107.495C144.88 107.495 141.172 104.671 141.172 100.272C141.172 96.4664 143.421 93.3461 151.707 93.3461H164.293V99.3949C162.09 104.636 156.791 107.89 151.12 107.495" fill="#272D83"/>
</g>
<g filter="url(#filter1_d_539_7159)">
<path fill-rule="evenodd" clip-rule="evenodd" d="M289.402 89.9417C289.402 73.6489 278.275 63.0155 263.063 63.0155C248.763 62.4461 236.712 73.5791 236.143 87.8789C236.12 88.4716 236.114 89.0643 236.131 89.6511C236.131 105.171 247.45 116.386 264.911 116.386C273.888 116.386 281.204 113.457 285.887 107.896L282.918 104.486C281.547 103.213 280.21 100.534 275.771 103.277C272.581 105.183 268.914 106.142 265.201 106.043C256.125 106.043 249.786 101.168 248.322 93.5558H289.205C289.304 92.3821 289.402 90.9237 289.402 89.9475M263.063 72.7715C270.553 72.4403 277.009 77.9952 277.793 85.4559H248.229C249.118 78.0126 255.568 72.4926 263.057 72.7715" fill="#272D83"/>
</g>
<g filter="url(#filter2_d_539_7159)">
<path fill-rule="evenodd" clip-rule="evenodd" d="M350.774 89.9417C350.774 73.6489 339.646 63.0155 324.434 63.0155C310.134 62.4461 298.083 73.5791 297.514 87.8789C297.491 88.4716 297.485 89.0643 297.502 89.6511C297.502 105.171 308.821 116.386 326.282 116.386C335.259 116.386 342.575 113.457 347.258 107.896L344.289 104.486C342.918 103.213 341.581 100.534 337.142 103.277C333.946 105.189 330.28 106.147 326.561 106.043C317.485 106.043 311.146 101.168 309.681 93.5558H350.564C350.663 92.3821 350.762 90.9237 350.762 89.9475M324.423 72.7715C331.912 72.4403 338.368 77.9952 339.152 85.4559H309.588C310.477 78.0126 316.927 72.4984 324.417 72.7715" fill="#272D83"/>
</g>
<g filter="url(#filter3_d_539_7159)">
<path fill-rule="evenodd" clip-rule="evenodd" d="M208.038 116.382C222.675 116.382 231.646 110.031 231.646 100.28C231.646 79.8912 199.45 89.2404 199.45 78.7175C199.45 75.3009 202.965 72.8662 210.38 72.8662C215.621 72.7733 220.786 74.1213 225.307 76.7709L228.363 70.7279C228.898 69.6065 229.81 66.9395 225.655 65.5043C220.763 63.8773 215.638 63.0406 210.478 63.0173C196.428 63.0173 187.55 69.4554 187.55 79.3101C187.55 100.089 219.746 90.7105 219.746 100.676C219.746 104.284 216.527 106.434 208.817 106.434C202.407 106.399 196.132 104.609 190.67 101.262L187.376 107.759C186.597 109.205 185.964 110.693 188.706 112.151C194.732 115.028 201.344 116.48 208.026 116.387" fill="#272D83"/>
</g>
<g filter="url(#filter4_d_539_7159)">
<path fill-rule="evenodd" clip-rule="evenodd" d="M359.633 63.4621V115.565H371.829V90.2895C371.829 79.6561 377.68 74.2 386.954 74.2C387.901 74.2058 388.848 74.3046 389.778 74.4905V66.0246C389.778 64.4441 390.156 62.6312 385.873 63.096C380.127 63.3285 374.798 66.1756 371.411 70.8241V70.2024L371.248 70.4057V70.3825C371.236 66.5708 368.145 63.4795 364.334 63.4679H359.633V63.4621Z" fill="#272D83"/>
</g>
<g filter="url(#filter5_d_539_7159)">
<path fill-rule="evenodd" clip-rule="evenodd" d="M26.6379 115.563H39.3224V57.9975H61.9545V47.2654H4V48.2474C4.01743 53.6221 8.36953 57.9801 13.7443 57.9917H26.6321V115.563H26.6379Z" fill="#272D83"/>
</g>
<g filter="url(#filter6_d_539_7159)">
<path fill-rule="evenodd" clip-rule="evenodd" d="M110.949 66.7154L96.0447 101.544L79.6531 63.0083H66.9745L89.7054 115.303L88.828 117.354C86.4748 122.526 83.953 124.577 79.6531 124.577C77.6543 124.554 75.6904 124.083 73.8949 123.206C70.4492 121.561 69.659 123.13 68.8571 124.321L65.8008 129.94C69.7462 133.124 74.6851 134.815 79.7519 134.722C88.4329 134.722 95.0686 131.114 99.8507 119.307L124.243 63.0083H115.713C113.569 63.2814 111.739 64.6992 110.949 66.7154Z" fill="#272D83"/>
</g>
<path d="M385.215 32.1498C385.215 30.7901 386.319 29.6803 387.684 29.6803H405.685C410.775 29.6803 414.901 25.5548 414.901 20.4648V2.46949C414.901 1.10401 416.005 0 417.37 0C418.736 0 419.84 1.10401 419.84 2.46949V20.9122C419.84 28.4834 413.704 34.6193 406.139 34.6193H387.696C386.336 34.6193 385.226 33.5153 385.226 32.1498" fill="#272D83"/>
<path d="M452 34.6411C452 36.0008 450.896 37.1106 449.531 37.1106H431.53C426.439 37.1106 422.314 41.2361 422.314 46.3262V64.3273C422.314 65.6927 421.21 66.7967 419.844 66.7967C418.479 66.7967 417.375 65.6927 417.375 64.3273V45.8787C417.375 38.3076 423.511 32.1716 431.076 32.1716H449.519C450.879 32.1716 451.988 33.2756 451.988 34.6411" fill="#272D83"/>
<path d="M444.276 16.2594C444.276 20.1641 441.109 23.3309 437.204 23.3309C433.3 23.3309 430.133 20.1641 430.133 16.2594C430.133 12.3547 433.3 9.18799 437.204 9.18799C441.109 9.18799 444.276 12.3547 444.276 16.2594Z" fill="#00BDFF"/>
<path d="M409.869 51.9989C409.869 55.9036 406.703 59.0704 402.798 59.0704C398.893 59.0704 395.727 55.9036 395.727 51.9989C395.727 48.0942 398.893 44.9275 402.798 44.9275C406.703 44.9275 409.869 48.0942 409.869 51.9989Z" fill="#00BDFF"/>
<path d="M437.224 59.0658C433.319 59.0658 430.152 55.899 430.152 51.9943C430.152 48.0896 433.319 44.9229 437.224 44.9229C441.128 44.9229 444.295 48.0896 444.295 51.9943C444.295 55.899 441.128 59.0658 437.224 59.0658Z" fill="#00BDFF"/>
<path d="M402.798 23.3219C398.893 23.3219 395.727 20.1551 395.727 16.2504C395.727 12.3457 398.893 9.17896 402.798 9.17896C406.703 9.17896 409.869 12.3457 409.869 16.2504C409.869 20.1551 406.703 23.3219 402.798 23.3219Z" fill="#00BDFF"/>
<path d="M325.818 166.511V143.238H333.682C335.508 143.238 337 143.568 338.159 144.227C339.326 144.878 340.189 145.761 340.75 146.874C341.311 147.988 341.591 149.23 341.591 150.602C341.591 151.973 341.311 153.219 340.75 154.34C340.197 155.461 339.341 156.355 338.182 157.022C337.023 157.681 335.538 158.011 333.727 158.011H328.091V155.511H333.636C334.886 155.511 335.89 155.295 336.648 154.863C337.405 154.431 337.955 153.848 338.295 153.113C338.644 152.371 338.818 151.533 338.818 150.602C338.818 149.67 338.644 148.836 338.295 148.102C337.955 147.367 337.402 146.791 336.636 146.374C335.871 145.95 334.856 145.738 333.591 145.738H328.636V166.511H325.818ZM350.903 166.92C349.797 166.92 348.794 166.711 347.892 166.295C346.991 165.871 346.275 165.261 345.744 164.465C345.214 163.662 344.949 162.693 344.949 161.556C344.949 160.556 345.146 159.746 345.54 159.124C345.934 158.496 346.46 158.003 347.119 157.647C347.778 157.291 348.506 157.026 349.301 156.852C350.104 156.67 350.911 156.526 351.722 156.42C352.782 156.283 353.642 156.181 354.301 156.113C354.968 156.037 355.453 155.912 355.756 155.738C356.066 155.564 356.222 155.261 356.222 154.829V154.738C356.222 153.617 355.915 152.746 355.301 152.124C354.695 151.503 353.775 151.193 352.54 151.193C351.259 151.193 350.256 151.473 349.528 152.033C348.801 152.594 348.29 153.193 347.994 153.829L345.449 152.92C345.903 151.859 346.509 151.033 347.267 150.443C348.032 149.844 348.866 149.427 349.767 149.193C350.676 148.95 351.57 148.829 352.449 148.829C353.009 148.829 353.653 148.897 354.381 149.033C355.116 149.162 355.824 149.431 356.506 149.84C357.195 150.249 357.767 150.867 358.222 151.693C358.676 152.518 358.903 153.624 358.903 155.011V166.511H356.222V164.147H356.085C355.903 164.526 355.6 164.931 355.176 165.363C354.752 165.795 354.188 166.162 353.483 166.465C352.778 166.768 351.919 166.92 350.903 166.92ZM351.312 164.511C352.373 164.511 353.267 164.302 353.994 163.886C354.729 163.469 355.282 162.931 355.653 162.272C356.032 161.613 356.222 160.92 356.222 160.193V157.738C356.108 157.874 355.858 157.999 355.472 158.113C355.093 158.219 354.653 158.314 354.153 158.397C353.661 158.473 353.18 158.541 352.71 158.602C352.248 158.655 351.873 158.7 351.585 158.738C350.888 158.829 350.237 158.977 349.631 159.181C349.032 159.378 348.547 159.677 348.176 160.079C347.813 160.473 347.631 161.011 347.631 161.693C347.631 162.624 347.975 163.329 348.665 163.806C349.362 164.276 350.244 164.511 351.312 164.511ZM364.901 173.056C364.446 173.056 364.041 173.018 363.685 172.943C363.329 172.874 363.082 172.806 362.946 172.738L363.628 170.374C364.279 170.541 364.855 170.602 365.355 170.556C365.855 170.511 366.298 170.287 366.685 169.886C367.079 169.492 367.438 168.852 367.764 167.965L368.264 166.602L361.81 149.056H364.719L369.537 162.965H369.719L374.537 149.056H377.446L370.037 169.056C369.704 169.958 369.291 170.704 368.798 171.295C368.306 171.893 367.734 172.337 367.082 172.624C366.438 172.912 365.711 173.056 364.901 173.056Z" fill="#00BDFF"/>
<defs>
<filter id="filter0_d_539_7159" x="125.156" y="62.9946" width="55.3281" height="61.3845" filterUnits="userSpaceOnUse" color-interpolation-filters="sRGB">
<feFlood flood-opacity="0" result="BackgroundImageFix"/>
<feColorMatrix in="SourceAlpha" type="matrix" values="0 0 0 0 0 0 0 0 0 0 0 0 0 0 0 0 0 0 127 0" result="hardAlpha"/>
<feOffset dy="4"/>
<feGaussianBlur stdDeviation="2"/>
<feComposite in2="hardAlpha" operator="out"/>
<feColorMatrix type="matrix" values="0 0 0 0 1 0 0 0 0 1 0 0 0 0 1 0 0 0 1 0"/>
<feBlend mode="normal" in2="BackgroundImageFix" result="effect1_dropShadow_539_7159"/>
<feBlend mode="normal" in="SourceGraphic" in2="effect1_dropShadow_539_7159" result="shape"/>
</filter>
<filter id="filter1_d_539_7159" x="232.121" y="62.9946" width="61.2812" height="61.3909" filterUnits="userSpaceOnUse" color-interpolation-filters="sRGB">
<feFlood flood-opacity="0" result="BackgroundImageFix"/>
<feColorMatrix in="SourceAlpha" type="matrix" values="0 0 0 0 0 0 0 0 0 0 0 0 0 0 0 0 0 0 127 0" result="hardAlpha"/>
<feOffset dy="4"/>
<feGaussianBlur stdDeviation="2"/>
<feComposite in2="hardAlpha" operator="out"/>
<feColorMatrix type="matrix" values="0 0 0 0 1 0 0 0 0 1 0 0 0 0 1 0 0 0 1 0"/>
<feBlend mode="normal" in2="BackgroundImageFix" result="effect1_dropShadow_539_7159"/>
<feBlend mode="normal" in="SourceGraphic" in2="effect1_dropShadow_539_7159" result="shape"/>
</filter>
<filter id="filter2_d_539_7159" x="293.492" y="62.9946" width="61.2812" height="61.3909" filterUnits="userSpaceOnUse" color-interpolation-filters="sRGB">
<feFlood flood-opacity="0" result="BackgroundImageFix"/>
<feColorMatrix in="SourceAlpha" type="matrix" values="0 0 0 0 0 0 0 0 0 0 0 0 0 0 0 0 0 0 127 0" result="hardAlpha"/>
<feOffset dy="4"/>
<feGaussianBlur stdDeviation="2"/>
<feComposite in2="hardAlpha" operator="out"/>
<feColorMatrix type="matrix" values="0 0 0 0 1 0 0 0 0 1 0 0 0 0 1 0 0 0 1 0"/>
<feBlend mode="normal" in2="BackgroundImageFix" result="effect1_dropShadow_539_7159"/>
<feBlend mode="normal" in="SourceGraphic" in2="effect1_dropShadow_539_7159" result="shape"/>
</filter>
<filter id="filter3_d_539_7159" x="182.707" y="63.0173" width="52.9375" height="61.3743" filterUnits="userSpaceOnUse" color-interpolation-filters="sRGB">
<feFlood flood-opacity="0" result="BackgroundImageFix"/>
<feColorMatrix in="SourceAlpha" type="matrix" values="0 0 0 0 0 0 0 0 0 0 0 0 0 0 0 0 0 0 127 0" result="hardAlpha"/>
<feOffset dy="4"/>
<feGaussianBlur stdDeviation="2"/>
<feComposite in2="hardAlpha" operator="out"/>
<feColorMatrix type="matrix" values="0 0 0 0 1 0 0 0 0 1 0 0 0 0 1 0 0 0 1 0"/>
<feBlend mode="normal" in2="BackgroundImageFix" result="effect1_dropShadow_539_7159"/>
<feBlend mode="normal" in="SourceGraphic" in2="effect1_dropShadow_539_7159" result="shape"/>
</filter>
<filter id="filter4_d_539_7159" x="355.633" y="63.022" width="38.1523" height="60.5435" filterUnits="userSpaceOnUse" color-interpolation-filters="sRGB">
<feFlood flood-opacity="0" result="BackgroundImageFix"/>
<feColorMatrix in="SourceAlpha" type="matrix" values="0 0 0 0 0 0 0 0 0 0 0 0 0 0 0 0 0 0 127 0" result="hardAlpha"/>
<feOffset dy="4"/>
<feGaussianBlur stdDeviation="2"/>
<feComposite in2="hardAlpha" operator="out"/>
<feColorMatrix type="matrix" values="0 0 0 0 1 0 0 0 0 1 0 0 0 0 1 0 0 0 1 0"/>
<feBlend mode="normal" in2="BackgroundImageFix" result="effect1_dropShadow_539_7159"/>
<feBlend mode="normal" in="SourceGraphic" in2="effect1_dropShadow_539_7159" result="shape"/>
</filter>
<filter id="filter5_d_539_7159" x="0" y="47.2654" width="65.9531" height="76.2974" filterUnits="userSpaceOnUse" color-interpolation-filters="sRGB">
<feFlood flood-opacity="0" result="BackgroundImageFix"/>
<feColorMatrix in="SourceAlpha" type="matrix" values="0 0 0 0 0 0 0 0 0 0 0 0 0 0 0 0 0 0 127 0" result="hardAlpha"/>
<feOffset dy="4"/>
<feGaussianBlur stdDeviation="2"/>
<feComposite in2="hardAlpha" operator="out"/>
<feColorMatrix type="matrix" values="0 0 0 0 1 0 0 0 0 1 0 0 0 0 1 0 0 0 1 0"/>
<feBlend mode="normal" in2="BackgroundImageFix" result="effect1_dropShadow_539_7159"/>
<feBlend mode="normal" in="SourceGraphic" in2="effect1_dropShadow_539_7159" result="shape"/>
</filter>
<filter id="filter6_d_539_7159" x="61.8008" y="63.0083" width="66.4414" height="79.7175" filterUnits="userSpaceOnUse" color-interpolation-filters="sRGB">
<feFlood flood-opacity="0" result="BackgroundImageFix"/>
<feColorMatrix in="SourceAlpha" type="matrix" values="0 0 0 0 0 0 0 0 0 0 0 0 0 0 0 0 0 0 127 0" result="hardAlpha"/>
<feOffset dy="4"/>
<feGaussianBlur stdDeviation="2"/>
<feComposite in2="hardAlpha" operator="out"/>
<feColorMatrix type="matrix" values="0 0 0 0 1 0 0 0 0 1 0 0 0 0 1 0 0 0 1 0"/>
<feBlend mode="normal" in2="BackgroundImageFix" result="effect1_dropShadow_539_7159"/>
<feBlend mode="normal" in="SourceGraphic" in2="effect1_dropShadow_539_7159" result="shape"/>
</filter>
</defs>
</svg>
