<svg width="400" height="120" viewBox="0 0 400 120" fill="none" xmlns="http://www.w3.org/2000/svg">
<path d="M103.343 95.0906V3.95605H136.016C143.316 3.95605 149.517 4.43224 154.662 5.38461C159.895 6.33698 164.425 7.91206 168.25 10.1465C172.076 12.3809 174.979 15.3845 177.046 19.194C179.112 23.0035 180.124 27.6554 180.124 33.1132C180.124 37.6187 179.112 41.648 177.046 45.201C174.979 48.7541 172.12 51.7944 168.47 54.3218C164.776 56.8859 160.423 58.8273 155.454 60.1826C150.352 61.5379 145.075 62.2338 139.666 62.2338H130.256V95.1272H103.343V95.0906ZM130.256 23.2965V42.8934H137.951C142.877 42.8934 146.703 42.0509 149.385 40.3293C152.024 38.6443 153.299 36.2268 153.299 33.0034C153.299 29.78 151.98 27.4723 149.385 25.824C146.703 24.139 142.921 23.3331 137.951 23.3331H130.256V23.2965Z" fill="#312783"/>
<path d="M183.993 3.95607L208.575 3.88281V94.9441L183.993 95.2005V3.95607Z" fill="#312783"/>
<path d="M236.369 16.2269C235.226 17.802 233.686 19.084 231.751 20.073C229.817 21.062 227.618 21.5382 225.287 21.5382C222.956 21.5382 220.802 21.062 218.867 20.1097C216.932 19.1207 215.349 17.802 214.249 16.1903C213.062 14.4687 212.49 12.6739 212.49 10.7325C212.49 8.79111 213.062 6.95963 214.205 5.34793C215.437 3.66296 217.02 2.38093 218.911 1.42856C220.802 0.476185 222.956 0 225.331 0C227.706 0 229.861 0.476185 231.795 1.42856C233.686 2.38093 235.226 3.66296 236.413 5.34793C237.556 6.95963 238.128 8.79111 238.128 10.7325C238.128 12.6739 237.556 14.6152 236.413 16.1903L236.369 16.2269ZM237.952 29.377V95.2004H213.37V29.4502L237.952 29.377Z" fill="#312783"/>
<path d="M275.99 45.3115C269.702 45.5312 266.579 49.1576 266.579 56.2271V95.0911H241.909V56.2271C241.909 37.5093 253.255 27.6926 275.99 26.7402H277.397C300.133 27.6926 311.478 37.5093 311.478 56.2271V95.0911H286.808V56.2271C286.808 49.1576 283.686 45.5312 277.397 45.3115H275.99Z" fill="#312783"/>
<path d="M315.305 95.0906V4.02931L339.975 3.95605V54.3218H340.283L365.788 29.4137H394.724L366.184 57.6185L399.737 95.1272H368.955L339.975 62.8932V95.1272H315.305V95.0906Z" fill="#312783"/>
<path d="M0.0429688 16.1898C0.0429688 15.677 0.0858845 15.1276 0.214632 14.5781C0.0858845 15.1276 0.0429688 15.6404 0.0429688 16.1898Z" fill="#868686"/>
<path d="M74.0105 2.60156H22.3395C20.5365 2.60156 18.8214 2.8946 17.1943 3.37079C18.1618 3.37079 19.1293 3.66382 20.0527 4.28653L51.1433 27.2533C56.2445 30.7331 60.3782 38.5719 60.3782 44.7989V66.154H74.0105C81.7942 66.154 88.1266 61.1357 88.1266 54.9087V13.8469C88.1266 7.65645 81.7942 2.60156 74.0105 2.60156Z" fill="#CE2E81"/>
<path d="M52.1988 47.1788V92.8926C52.1988 99.083 48.0651 101.317 42.964 97.8376L9.23483 74.8342C4.13369 71.3543 0 63.5156 0 57.2886V16.1901C0 15.6773 0.0879508 15.1279 0.175902 14.5784C0.175902 14.4685 0.219877 14.322 0.263852 14.2121C1.23131 9.77993 5.14512 5.60415 9.01495 5.71404C9.98241 5.71404 10.9499 6.00707 11.8734 6.62978L42.964 29.5966C48.0651 33.0764 52.1988 40.9151 52.1988 47.1422V47.1788Z" fill="#312783"/>
<path d="M350.352 21.3556C350.352 21.3556 349.956 21.2823 349.824 21.1724C349.692 21.0625 349.604 20.916 349.604 20.7329V4.83559C349.604 4.83559 349.692 4.50593 349.824 4.39604C349.956 4.28615 350.132 4.21289 350.352 4.21289H358.356C359.939 4.21289 361.302 4.43267 362.489 4.83559C363.677 5.23852 364.556 5.86122 365.216 6.66708C365.875 7.50956 366.183 8.49856 366.183 9.74397C366.183 10.9894 365.875 12.015 365.216 12.8209C364.556 13.6267 363.633 14.2128 362.489 14.6157C361.302 15.0186 359.939 15.2018 358.356 15.2018H354.398V20.7329C354.398 20.7329 354.31 21.0625 354.178 21.1724C354.046 21.2823 353.87 21.3556 353.65 21.3556H350.308H350.352ZM354.354 12.1615H358.224C359.235 12.1615 359.983 11.9417 360.554 11.5388C361.126 11.1359 361.39 10.5132 361.39 9.70734C361.39 8.97474 361.126 8.38867 360.642 7.94911C360.159 7.50956 359.323 7.25315 358.224 7.25315H354.354V12.1615Z" fill="#312783"/>
<path d="M373.087 21.612C372.031 21.612 371.108 21.4288 370.316 21.0991C369.525 20.7695 368.821 20.3299 368.337 19.7438C367.854 19.1578 367.59 18.5351 367.59 17.8391C367.59 16.667 368.162 15.7512 369.261 15.0919C370.404 14.4325 371.855 13.9564 373.702 13.7366L377.572 13.2604V12.8208C377.572 12.1981 377.396 11.6853 377.045 11.3557C376.693 11.026 376.077 10.8428 375.198 10.8428C374.538 10.8428 374.01 10.9527 373.658 11.1725C373.263 11.3923 372.955 11.6487 372.735 12.015C372.559 12.2348 372.339 12.3447 372.075 12.3447H369.305C369.305 12.3447 368.909 12.308 368.821 12.1981C368.689 12.0882 368.645 11.9784 368.689 11.8318C368.689 11.5388 368.821 11.2458 369.085 10.8428C369.349 10.4765 369.745 10.1102 370.272 9.74395C370.8 9.37766 371.46 9.08462 372.295 8.82821C373.131 8.5718 374.142 8.46191 375.329 8.46191C376.517 8.46191 377.616 8.5718 378.496 8.82821C379.375 9.08462 380.079 9.41429 380.607 9.85384C381.134 10.2934 381.53 10.8062 381.794 11.3923C382.058 11.9784 382.19 12.6011 382.19 13.2604V20.8427C382.19 20.8427 382.102 21.1724 381.97 21.2823C381.838 21.3922 381.662 21.4654 381.442 21.4654H378.54C378.54 21.4654 378.188 21.3922 378.056 21.2823C377.924 21.1724 377.836 21.0259 377.836 20.8427V19.927C377.572 20.22 377.22 20.5131 376.825 20.8061C376.385 21.0625 375.857 21.2823 375.286 21.4654C374.67 21.612 373.966 21.7218 373.175 21.7218L373.087 21.612ZM374.274 19.0479C374.934 19.0479 375.505 18.938 375.989 18.7182C376.517 18.4984 376.913 18.1321 377.176 17.656C377.484 17.1798 377.616 16.5937 377.616 15.8611V15.4582L374.89 15.8245C373.834 15.971 373.043 16.1908 372.559 16.4838C372.075 16.7768 371.811 17.1431 371.811 17.5461C371.811 17.8391 371.943 18.1321 372.163 18.3519C372.383 18.5717 372.691 18.7548 373.043 18.8647C373.395 18.9746 373.79 19.0479 374.23 19.0479H374.274Z" fill="#312783"/>
<path d="M387.951 26.0075C387.951 26.0075 387.643 25.9708 387.511 25.861C387.379 25.7511 387.335 25.6412 387.335 25.4947C387.335 25.4947 387.335 25.4214 387.335 25.3481C387.335 25.2749 387.379 25.2383 387.423 25.1284L389.71 20.5497L384.081 9.45088C384.081 9.45088 383.993 9.2311 383.993 9.12121C383.993 8.9747 384.081 8.86481 384.213 8.75492C384.345 8.64503 384.477 8.6084 384.653 8.6084H387.511C387.775 8.6084 387.951 8.64503 388.083 8.75492C388.215 8.86481 388.303 8.9747 388.347 9.08458L391.997 16.6669L395.735 9.08458C395.735 9.08458 395.911 8.82818 396.042 8.75492C396.174 8.64503 396.35 8.6084 396.614 8.6084H399.385C399.385 8.6084 399.692 8.64503 399.824 8.75492C399.956 8.86481 400 8.9747 400 9.12121C400 9.19447 400 9.30436 399.868 9.45088L391.557 25.4947C391.557 25.4947 391.425 25.7511 391.293 25.8243C391.161 25.9342 390.985 25.9708 390.721 25.9708H387.951V26.0075Z" fill="#312783"/>
<path d="M323.747 98.7906C324.803 98.7906 325.726 98.8272 326.562 99.0104C327.353 99.1935 328.101 99.4499 328.716 99.7796C328.848 99.8528 328.936 99.8895 329.024 99.9261C329.112 99.9627 329.244 100.036 329.332 100.109C329.332 100.109 329.42 100.182 329.464 100.182C329.464 100.182 329.552 100.219 329.596 100.256C329.596 100.256 329.684 100.329 329.728 100.366C329.772 100.402 329.816 100.439 329.86 100.476C329.948 100.549 329.992 100.622 330.08 100.695C330.168 100.769 330.212 100.842 330.3 100.915C330.388 100.988 330.431 101.062 330.475 101.171C330.519 101.245 330.563 101.355 330.607 101.428C330.783 101.648 330.915 101.867 331.003 102.16C331.091 102.417 331.179 102.71 331.267 103.003C331.267 103.113 331.311 103.259 331.267 103.406C331.267 103.552 331.267 103.662 331.179 103.736C331.091 103.845 330.959 103.919 330.739 103.919C330.519 103.919 330.344 103.919 330.124 103.919H329.86C329.86 103.919 329.728 103.919 329.64 103.919C329.552 103.919 329.464 103.919 329.42 103.919C329.376 103.919 329.288 103.919 329.2 103.882C329.2 103.882 329.112 103.882 329.068 103.809C329.068 103.809 328.98 103.772 328.936 103.736C328.804 103.589 328.76 103.443 328.716 103.223C328.672 103.04 328.585 102.856 328.497 102.71C328.189 102.087 327.749 101.648 327.177 101.318C326.738 101.062 326.254 100.878 325.638 100.769C325.506 100.769 325.418 100.732 325.286 100.695C325.154 100.695 325.066 100.695 324.935 100.622H324.715C324.715 100.622 324.407 100.585 324.275 100.585H323.835C322.868 100.585 322.076 100.695 321.417 100.952C321.065 101.062 320.713 101.245 320.405 101.465C320.097 101.684 319.877 101.941 319.745 102.234C319.658 102.344 319.614 102.49 319.614 102.6C319.614 102.747 319.57 102.856 319.526 103.04C319.526 103.15 319.482 103.296 319.526 103.443C319.526 103.589 319.526 103.736 319.614 103.845C319.745 104.212 319.921 104.468 320.097 104.651C320.273 104.834 320.581 105.018 320.933 105.164C321.329 105.384 321.768 105.53 322.296 105.64C322.78 105.75 323.307 105.86 323.835 105.97C324.011 105.97 324.187 106.007 324.319 106.043C324.495 106.043 324.671 106.08 324.803 106.153C325.066 106.226 325.33 106.263 325.638 106.3C325.902 106.336 326.21 106.41 326.474 106.483C326.562 106.483 326.606 106.483 326.65 106.483C326.694 106.483 326.782 106.483 326.826 106.483C327.001 106.483 327.177 106.556 327.309 106.593C327.485 106.629 327.661 106.666 327.793 106.703C328.145 106.812 328.541 106.922 328.892 107.032C329.244 107.142 329.596 107.289 329.904 107.472C330.3 107.692 330.651 107.948 331.003 108.204C331.311 108.497 331.575 108.827 331.795 109.193C331.883 109.34 331.927 109.486 331.971 109.596C331.971 109.743 332.059 109.889 332.103 110.036C332.103 110.109 332.147 110.219 332.147 110.292C332.147 110.366 332.147 110.475 332.191 110.585V111.061C332.191 111.061 332.191 111.171 332.191 111.245V111.428C332.191 111.428 332.147 111.684 332.103 111.794C332.103 111.941 332.103 112.051 332.015 112.16C331.927 112.38 331.839 112.6 331.707 112.82C331.575 113.04 331.443 113.223 331.311 113.406C331.003 113.809 330.607 114.138 330.124 114.431C329.64 114.724 329.112 114.944 328.585 115.164C328.409 115.237 328.233 115.274 328.057 115.311C327.881 115.347 327.705 115.42 327.485 115.457C327.265 115.53 327.089 115.567 326.869 115.567C326.65 115.567 326.43 115.64 326.21 115.677C326.122 115.677 326.034 115.677 325.902 115.677C325.77 115.677 325.682 115.677 325.594 115.677C325.462 115.677 325.374 115.677 325.242 115.677C325.11 115.677 325.023 115.677 324.891 115.677C324.803 115.677 324.671 115.677 324.495 115.677C324.319 115.677 324.187 115.677 324.099 115.677H323.791C323.791 115.677 323.439 115.64 323.22 115.64C323 115.64 322.868 115.64 322.692 115.604C322.604 115.604 322.56 115.604 322.472 115.604C322.384 115.604 322.296 115.604 322.208 115.604C321.988 115.604 321.812 115.53 321.636 115.494C321.461 115.494 321.285 115.42 321.109 115.347C320.185 115.091 319.438 114.798 318.822 114.395C318.206 114.029 317.679 113.516 317.239 112.893C317.107 112.71 316.975 112.49 316.887 112.27C316.799 112.05 316.667 111.831 316.579 111.574C316.579 111.464 316.535 111.391 316.491 111.281C316.491 111.171 316.491 111.098 316.403 111.025C316.403 110.878 316.359 110.732 316.359 110.549C316.359 110.366 316.403 110.256 316.491 110.182C316.579 110.073 316.755 109.999 316.931 109.999C317.151 109.999 317.371 109.999 317.547 109.999H317.767C317.767 109.999 317.899 109.999 317.986 109.999C318.074 109.999 318.162 109.999 318.206 109.999C318.25 109.999 318.338 109.999 318.382 109.999C318.514 110.073 318.602 110.109 318.646 110.182C318.69 110.256 318.734 110.329 318.734 110.439C318.734 110.512 318.734 110.622 318.822 110.695C318.822 110.805 318.91 110.915 318.91 111.025C318.91 111.135 318.998 111.245 319.042 111.355C319.35 112.014 319.833 112.527 320.449 112.93C320.757 113.113 321.109 113.296 321.461 113.406C321.812 113.516 322.208 113.662 322.648 113.735C322.78 113.735 322.956 113.772 323.088 113.809C323.22 113.809 323.395 113.809 323.527 113.845C323.527 113.845 323.615 113.845 323.659 113.845C323.703 113.845 323.791 113.845 323.835 113.845C323.923 113.845 324.011 113.845 324.099 113.845C324.187 113.845 324.275 113.845 324.407 113.845C324.495 113.845 324.583 113.845 324.715 113.845C324.847 113.845 324.979 113.845 325.067 113.809H325.242C325.242 113.809 325.418 113.809 325.506 113.809C325.594 113.809 325.682 113.809 325.77 113.809C325.814 113.809 325.858 113.809 325.902 113.809C325.946 113.809 325.99 113.809 326.078 113.809C326.21 113.809 326.386 113.735 326.562 113.735C326.738 113.735 326.869 113.662 327.045 113.626C327.529 113.442 327.969 113.259 328.321 113.04C328.716 112.82 328.98 112.527 329.2 112.124C329.244 112.014 329.288 111.867 329.332 111.757C329.332 111.648 329.42 111.501 329.464 111.391C329.464 111.281 329.508 111.135 329.508 110.952C329.508 110.768 329.508 110.659 329.464 110.549C329.464 110.475 329.42 110.402 329.42 110.366C329.42 110.329 329.42 110.256 329.376 110.182C329.244 109.926 329.112 109.706 328.936 109.523C328.76 109.34 328.541 109.193 328.277 109.01C327.881 108.79 327.441 108.607 326.957 108.461C326.474 108.314 325.99 108.204 325.462 108.095C324.935 107.985 324.407 107.911 323.835 107.801C323.263 107.692 322.736 107.618 322.252 107.472C321.944 107.399 321.68 107.325 321.373 107.289C321.065 107.252 320.801 107.179 320.537 107.069C320.537 107.069 320.493 107.069 320.449 107.069C320.405 107.069 320.405 107.069 320.361 107.069C320.185 106.996 320.009 106.959 319.789 106.886C319.614 106.812 319.438 106.739 319.262 106.666C318.822 106.446 318.47 106.226 318.118 105.97C317.767 105.714 317.503 105.384 317.283 104.981C317.195 104.834 317.107 104.688 317.107 104.541C317.107 104.395 317.019 104.212 316.975 104.029C316.975 103.955 316.975 103.919 316.975 103.882C316.975 103.845 316.975 103.772 316.975 103.736C316.931 103.552 316.931 103.333 316.975 103.04C316.975 102.747 317.063 102.527 317.107 102.38C317.151 102.197 317.195 102.051 317.239 101.904C317.283 101.758 317.327 101.611 317.415 101.465C317.679 100.988 317.986 100.622 318.426 100.292C318.822 99.9627 319.262 99.7063 319.789 99.4133C319.789 99.4133 319.877 99.3766 319.921 99.34C319.965 99.34 320.009 99.34 320.053 99.2668C320.449 99.0836 320.933 98.9371 321.461 98.8272C321.592 98.8272 321.724 98.7539 321.856 98.7539C321.988 98.7539 322.12 98.7173 322.252 98.6807C322.384 98.6807 322.56 98.6441 322.736 98.6441C322.912 98.6441 323.088 98.6441 323.22 98.6074C323.263 98.6074 323.351 98.6074 323.483 98.6074C323.615 98.6074 323.659 98.6074 323.703 98.6074L323.747 98.7906Z" fill="#CE2E81"/>
<path d="M335.445 101.356C335.445 101.356 335.225 101.099 335.225 100.843C335.225 100.623 335.225 100.367 335.225 100.147V99.7438C335.225 99.7438 335.225 99.4874 335.313 99.4141C335.401 99.3042 335.532 99.1944 335.752 99.1211C335.752 99.1211 335.84 99.1211 335.884 99.1211C335.928 99.1211 335.972 99.1211 336.016 99.1211C336.324 99.1211 336.632 99.1211 336.896 99.1211C337.16 99.1211 337.336 99.231 337.467 99.4141C337.511 99.524 337.555 99.6339 337.555 99.7438V100.147C337.555 100.44 337.555 100.696 337.555 100.916C337.555 101.172 337.423 101.319 337.204 101.392C337.116 101.392 337.028 101.429 336.896 101.429H336.016C336.016 101.429 335.664 101.392 335.533 101.319L335.445 101.356ZM337.467 114.432C337.467 114.432 337.467 114.725 337.467 114.908C337.467 115.055 337.467 115.202 337.335 115.275C337.292 115.385 337.204 115.421 337.072 115.458C336.94 115.458 336.852 115.495 336.676 115.531H336.28C336.06 115.531 335.84 115.531 335.664 115.531C335.489 115.531 335.357 115.421 335.269 115.311C335.181 115.202 335.137 115.092 335.137 114.945V104.286C335.137 104.286 335.181 103.993 335.269 103.92C335.313 103.846 335.401 103.81 335.489 103.773C335.576 103.773 335.664 103.736 335.796 103.7C335.796 103.7 335.884 103.7 335.928 103.7C335.972 103.7 336.016 103.7 336.06 103.7C336.28 103.7 336.544 103.7 336.808 103.7C337.072 103.7 337.248 103.773 337.335 103.883C337.423 103.993 337.467 104.103 337.467 104.249V114.432Z" fill="#CE2E81"/>
<path d="M347.845 103.406C348.549 103.406 349.121 103.443 349.648 103.589C350.132 103.736 350.572 103.919 350.968 104.175C351.099 104.249 351.231 104.359 351.319 104.469C351.407 104.615 351.539 104.725 351.671 104.835C351.671 104.835 351.759 104.908 351.847 104.945C351.935 104.981 352.023 105.018 352.111 104.981C352.287 104.945 352.463 104.835 352.595 104.688C352.727 104.542 352.858 104.432 353.034 104.359C353.298 104.175 353.562 104.029 353.826 103.919C354.09 103.773 354.398 103.663 354.749 103.589C354.881 103.553 355.057 103.516 355.233 103.48C355.409 103.48 355.585 103.443 355.761 103.406C355.849 103.406 355.937 103.406 356.025 103.406H356.289C356.289 103.406 356.508 103.37 356.684 103.406C356.86 103.406 356.948 103.406 357.036 103.406C357.124 103.406 357.256 103.406 357.432 103.406C357.608 103.406 357.74 103.48 357.916 103.48C358.092 103.48 358.223 103.553 358.355 103.589C358.443 103.589 358.531 103.626 358.619 103.663C358.707 103.663 358.795 103.663 358.883 103.736C359.807 104.066 360.422 104.578 360.774 105.311C360.862 105.421 360.906 105.567 360.95 105.714C360.95 105.86 361.038 106.007 361.082 106.19C361.082 106.227 361.126 106.3 361.082 106.337C361.082 106.373 361.082 106.447 361.082 106.483V106.703C361.082 106.703 361.082 106.849 361.082 106.923C361.082 106.996 361.082 107.069 361.082 107.142V113.882C361.082 114.139 361.082 114.432 361.082 114.761C361.082 115.091 360.994 115.311 360.862 115.421C360.774 115.457 360.686 115.494 360.51 115.531C360.334 115.567 360.158 115.531 359.982 115.531C359.807 115.531 359.631 115.531 359.455 115.531C359.279 115.531 359.147 115.494 359.103 115.421C358.971 115.384 358.927 115.274 358.883 115.128C358.883 115.018 358.839 114.945 358.883 114.835C358.883 114.725 358.883 114.652 358.883 114.542C358.883 114.468 358.883 114.395 358.883 114.285C358.883 114.175 358.883 114.102 358.883 113.992V108.571C358.883 108.058 358.883 107.582 358.883 107.142C358.883 106.703 358.707 106.3 358.487 106.007C358.223 105.641 357.784 105.384 357.212 105.201C357.08 105.201 356.992 105.164 356.86 105.128C356.728 105.128 356.596 105.128 356.508 105.055C356.42 105.055 356.333 105.055 356.157 105.055C355.981 105.055 355.893 105.055 355.805 105.055C355.717 105.055 355.629 105.055 355.541 105.055C355.453 105.055 355.365 105.055 355.277 105.055C355.013 105.091 354.749 105.164 354.53 105.238C353.562 105.567 352.946 106.153 352.595 106.996C352.507 107.252 352.463 107.545 352.463 107.912C352.463 108.241 352.463 108.608 352.463 108.937V114.761C352.463 114.945 352.419 115.091 352.331 115.201C352.243 115.311 352.067 115.384 351.847 115.421C351.627 115.421 351.407 115.421 351.143 115.421C350.836 115.421 350.616 115.421 350.44 115.311C350.264 115.238 350.176 115.091 350.132 114.945C350.132 114.761 350.132 114.578 350.132 114.359V108.388C350.132 107.912 350.132 107.436 350.088 107.033C350.088 106.593 349.912 106.263 349.692 105.934C349.472 105.641 349.252 105.458 348.989 105.311C348.725 105.164 348.373 105.091 347.933 105.018C347.845 105.018 347.801 105.018 347.713 105.018H347.449C347.054 105.018 346.702 105.055 346.394 105.128C346.086 105.201 345.822 105.311 345.559 105.421C344.635 105.897 343.975 106.593 343.668 107.545C343.58 107.729 343.58 107.985 343.58 108.241C343.58 108.498 343.58 108.754 343.58 108.974V114.725C343.58 114.945 343.536 115.091 343.404 115.238C343.316 115.348 343.184 115.421 343.008 115.421C342.832 115.421 342.612 115.421 342.436 115.421H342.041C342.041 115.421 341.821 115.384 341.733 115.348C341.645 115.348 341.557 115.274 341.469 115.201C341.381 115.091 341.337 114.981 341.337 114.835V104.139C341.337 104.139 341.337 103.882 341.469 103.773C341.513 103.663 341.601 103.626 341.733 103.589C341.865 103.553 342.128 103.516 342.436 103.516C342.744 103.516 343.008 103.516 343.14 103.589C343.272 103.663 343.404 103.736 343.448 103.809C343.448 103.882 343.492 103.992 343.536 104.102C343.536 104.212 343.536 104.322 343.536 104.395C343.536 104.505 343.58 104.578 343.668 104.615C343.712 104.688 343.8 104.725 343.931 104.725C343.931 104.725 344.019 104.688 344.063 104.688C344.107 104.688 344.151 104.688 344.195 104.652C344.327 104.578 344.415 104.505 344.503 104.432C344.591 104.359 344.723 104.285 344.811 104.212C345.207 103.956 345.69 103.736 346.174 103.553C346.35 103.48 346.526 103.443 346.746 103.443C346.922 103.443 347.142 103.37 347.318 103.333C347.449 103.333 347.537 103.333 347.669 103.333C347.801 103.333 347.889 103.333 348.021 103.333L347.845 103.406Z" fill="#CE2E81"/>
<path d="M378.321 109.304C378.321 109.304 378.321 109.487 378.321 109.597C378.321 109.707 378.321 109.816 378.321 109.89C378.321 109.963 378.277 110.036 378.321 110.109C378.321 110.183 378.321 110.256 378.321 110.293C378.321 110.403 378.321 110.476 378.321 110.549C378.321 110.696 378.277 110.842 378.233 110.952C378.233 111.098 378.233 111.245 378.145 111.355C378.145 111.465 378.057 111.611 378.013 111.721C378.013 111.831 377.925 111.941 377.881 112.087C377.661 112.674 377.353 113.186 376.958 113.626C376.826 113.772 376.738 113.882 376.606 114.029C376.474 114.175 376.342 114.285 376.21 114.395L376.078 114.505C376.078 114.505 375.814 114.652 375.726 114.725C375.594 114.798 375.506 114.871 375.33 114.945C375.111 115.054 374.891 115.164 374.671 115.238C374.407 115.311 374.187 115.421 373.923 115.494C373.791 115.494 373.615 115.531 373.483 115.567C373.352 115.567 373.22 115.604 373.044 115.641H372.956C372.956 115.641 372.912 115.641 372.868 115.641C372.692 115.641 372.472 115.677 372.12 115.714C371.812 115.714 371.549 115.714 371.373 115.714H371.241C371.241 115.714 370.977 115.714 370.889 115.714C370.757 115.714 370.669 115.714 370.537 115.641C370.229 115.567 369.921 115.494 369.658 115.421C369.394 115.348 369.13 115.274 368.866 115.128C368.558 114.981 368.294 114.835 368.075 114.688C367.987 114.652 367.899 114.578 367.723 114.505C367.591 114.432 367.415 114.432 367.327 114.505C367.239 114.542 367.195 114.615 367.195 114.688C367.195 114.761 367.195 114.835 367.151 114.945C367.151 114.981 367.151 115.054 367.151 115.091C367.151 115.128 367.151 115.201 367.151 115.274C367.151 115.384 367.107 115.457 367.151 115.567C367.151 115.677 367.151 115.787 367.151 115.86V119.304C367.151 119.523 367.107 119.706 366.975 119.816C366.887 119.926 366.755 119.963 366.535 119.999C366.315 119.999 366.14 119.999 365.92 119.999H365.48C365.48 119.999 365.26 119.926 365.172 119.89C365.084 119.89 365.04 119.816 364.952 119.743C364.864 119.633 364.82 119.45 364.82 119.23C364.82 119.01 364.82 118.791 364.82 118.644V104.835C364.82 104.652 364.82 104.469 364.82 104.285C364.82 104.102 364.864 103.919 364.952 103.809C364.996 103.736 365.128 103.699 365.304 103.663C365.48 103.626 365.7 103.626 365.92 103.626C366.14 103.626 366.359 103.626 366.535 103.699C366.711 103.736 366.843 103.773 366.887 103.846C366.975 103.919 367.019 104.029 367.019 104.139C367.019 104.249 367.019 104.359 367.107 104.469C367.107 104.505 367.195 104.542 367.195 104.578C367.195 104.615 367.239 104.615 367.283 104.652C367.503 104.652 367.635 104.615 367.811 104.505C367.943 104.395 368.075 104.285 368.206 104.212C368.69 103.919 369.262 103.736 369.921 103.553C370.097 103.553 370.273 103.516 370.449 103.48C370.625 103.48 370.801 103.443 370.977 103.406C371.065 103.406 371.153 103.406 371.241 103.406C371.373 103.406 371.417 103.406 371.461 103.406C372.252 103.406 372.956 103.443 373.571 103.589C374.187 103.736 374.715 103.956 375.199 104.212C375.286 104.285 375.374 104.322 375.462 104.395C375.55 104.432 375.638 104.505 375.726 104.578L375.814 104.652C375.814 104.652 375.858 104.688 375.902 104.725C375.99 104.798 376.078 104.871 376.21 104.981C376.342 105.091 376.43 105.164 376.518 105.274C376.738 105.531 376.958 105.824 377.221 106.117C377.353 106.3 377.485 106.556 377.573 106.776C377.661 107.033 377.793 107.252 377.881 107.509C377.881 107.619 377.969 107.765 377.969 107.912C377.969 108.058 378.013 108.168 378.057 108.315C378.057 108.388 378.057 108.425 378.057 108.498C378.057 108.534 378.057 108.608 378.057 108.644C378.057 108.718 378.101 108.791 378.057 108.901C378.057 109.011 378.057 109.084 378.057 109.157V109.377L378.321 109.304ZM375.858 109.926C375.858 109.926 375.902 109.743 375.858 109.633C375.858 109.523 375.858 109.414 375.858 109.34C375.858 109.084 375.858 108.827 375.858 108.608C375.858 108.388 375.77 108.168 375.682 107.948C375.682 107.838 375.594 107.765 375.594 107.655C375.594 107.545 375.506 107.472 375.462 107.362C375.243 106.959 374.935 106.556 374.495 106.153C374.055 105.787 373.659 105.494 373.264 105.384C373.132 105.311 372.956 105.274 372.824 105.238C372.648 105.238 372.516 105.164 372.34 105.128C372.164 105.128 371.988 105.091 371.768 105.091H371.153C371.153 105.091 371.065 105.128 370.933 105.091C370.845 105.091 370.757 105.091 370.669 105.091C370.493 105.091 370.361 105.164 370.185 105.201C370.009 105.201 369.877 105.274 369.746 105.348C369.174 105.567 368.69 105.86 368.294 106.263C367.899 106.666 367.635 107.142 367.415 107.692C367.327 107.875 367.283 108.022 367.283 108.205C367.283 108.388 367.239 108.534 367.195 108.718C367.195 108.791 367.195 108.827 367.195 108.901C367.195 108.974 367.195 109.011 367.195 109.084V109.267C367.195 109.267 367.195 109.45 367.195 109.597C367.195 109.743 367.195 109.853 367.195 109.926V110.109C367.195 110.109 367.195 110.219 367.195 110.293C367.195 110.366 367.195 110.403 367.195 110.439C367.195 110.476 367.195 110.549 367.195 110.586C367.195 110.622 367.195 110.696 367.195 110.732C367.195 110.842 367.283 110.989 367.283 111.098C367.283 111.208 367.327 111.355 367.371 111.465C367.591 111.978 367.855 112.454 368.206 112.82C368.558 113.223 369.042 113.516 369.614 113.736C369.965 113.846 370.317 113.956 370.713 114.029C370.801 114.029 370.845 114.065 370.933 114.029C371.021 114.029 371.065 114.029 371.153 114.029H371.373C371.373 114.029 371.637 114.029 371.768 114.029H371.988C371.988 114.029 372.384 113.992 372.56 113.956C372.736 113.956 372.912 113.919 373.132 113.846C373.703 113.663 374.187 113.37 374.539 113.04C374.891 112.71 375.199 112.307 375.418 111.831C375.506 111.611 375.594 111.392 375.638 111.172C375.682 110.952 375.726 110.732 375.814 110.476C375.814 110.403 375.814 110.329 375.814 110.256C375.814 110.183 375.814 110.109 375.814 110.036V109.853L375.858 109.926Z" fill="#CE2E81"/>
<path d="M382.102 99.1211H382.85C383.113 99.1211 383.333 99.1577 383.465 99.2676C383.553 99.3775 383.597 99.524 383.597 99.7072C383.597 99.8903 383.597 100.073 383.597 100.257V114.799C383.597 115.018 383.553 115.165 383.465 115.311C383.421 115.385 383.333 115.421 383.245 115.458C383.157 115.458 383.026 115.495 382.894 115.531H382.498C382.498 115.531 382.102 115.531 381.926 115.531C381.75 115.531 381.618 115.458 381.53 115.385C381.442 115.275 381.398 115.092 381.398 114.908C381.398 114.725 381.398 114.542 381.398 114.322V100.367C381.398 100.367 381.398 100 381.398 99.8171C381.398 99.6339 381.398 99.4874 381.53 99.3775C381.618 99.2676 381.75 99.1944 381.926 99.1577C381.926 99.1577 382.014 99.1577 382.058 99.1577C382.102 99.1577 382.146 99.1577 382.19 99.1577L382.102 99.1211Z" fill="#CE2E81"/>
<path d="M399.605 109.12C399.605 109.12 399.605 109.45 399.605 109.633C399.605 109.816 399.517 109.963 399.429 110.036C399.341 110.109 399.209 110.146 399.033 110.146C398.857 110.146 398.681 110.146 398.417 110.146C398.153 110.146 397.978 110.146 397.758 110.146C397.538 110.146 397.362 110.146 397.186 110.146H390.106C390.106 110.146 389.798 110.146 389.666 110.146C389.534 110.146 389.402 110.146 389.314 110.219C389.226 110.219 389.183 110.329 389.095 110.403C389.095 110.439 389.007 110.512 388.963 110.586C388.963 110.659 388.963 110.769 388.963 110.842C388.963 110.915 388.963 110.989 388.963 111.062C388.963 111.135 388.963 111.172 388.963 111.245C388.963 111.355 389.051 111.501 389.095 111.611C389.095 111.758 389.183 111.868 389.27 111.978C389.71 112.82 390.414 113.406 391.381 113.736C391.513 113.772 391.601 113.809 391.733 113.846C391.865 113.846 391.997 113.919 392.129 113.956C392.173 113.956 392.261 113.956 392.393 113.956C392.657 114.029 393.008 114.065 393.404 114.065C393.8 114.065 394.152 114.065 394.416 113.956C394.679 113.882 394.899 113.846 395.119 113.772C395.339 113.699 395.515 113.626 395.735 113.516C395.955 113.406 396.131 113.296 396.263 113.15C396.394 113.003 396.526 112.857 396.658 112.674C396.79 112.527 396.878 112.344 396.966 112.197C397.054 112.014 397.186 111.904 397.406 111.831C397.494 111.831 397.582 111.794 397.758 111.758C397.934 111.758 398.11 111.758 398.241 111.758C398.417 111.758 398.549 111.758 398.725 111.758C398.857 111.758 398.989 111.794 399.033 111.868C399.209 111.978 399.253 112.161 399.165 112.381C399.033 112.783 398.813 113.15 398.593 113.479C398.241 113.956 397.802 114.359 397.318 114.688C396.834 115.018 396.263 115.274 395.515 115.457C395.339 115.531 395.163 115.567 394.943 115.567C394.767 115.567 394.548 115.604 394.372 115.641C394.284 115.641 394.196 115.641 394.108 115.641C394.02 115.641 393.932 115.641 393.844 115.641H393.58C393.58 115.641 393.36 115.641 393.272 115.641C393.184 115.641 393.052 115.641 392.964 115.641H392.701C392.701 115.641 392.525 115.641 392.437 115.641C392.349 115.641 392.305 115.641 392.217 115.641C392.129 115.641 392.041 115.641 391.909 115.641C391.777 115.641 391.689 115.641 391.601 115.641C391.425 115.641 391.249 115.567 391.117 115.531C390.942 115.494 390.81 115.457 390.634 115.421C390.546 115.421 390.502 115.384 390.458 115.348C390.414 115.348 390.326 115.348 390.282 115.274C390.018 115.164 389.71 115.054 389.402 114.871C388.875 114.578 388.391 114.212 388.039 113.809C387.643 113.37 387.336 112.93 387.072 112.381C386.984 112.197 386.896 112.051 386.852 111.868C386.808 111.685 386.764 111.501 386.676 111.318C386.676 111.245 386.676 111.208 386.676 111.172C386.676 111.135 386.676 111.062 386.676 110.989C386.676 110.879 386.632 110.732 386.588 110.586C386.588 110.439 386.544 110.293 386.5 110.183V109.853C386.5 109.853 386.5 109.707 386.5 109.597C386.5 109.487 386.5 109.377 386.5 109.304V109.047C386.5 109.047 386.544 108.901 386.5 108.791C386.5 108.718 386.5 108.608 386.5 108.534C386.588 108.278 386.632 108.058 386.676 107.802C386.72 107.545 386.808 107.326 386.896 107.106C386.984 106.923 387.072 106.776 387.16 106.593C387.248 106.41 387.336 106.227 387.467 106.08C387.863 105.531 388.347 105.091 388.831 104.688C389.358 104.285 389.974 103.956 390.722 103.699C390.942 103.626 391.161 103.553 391.381 103.516C391.601 103.48 391.865 103.443 392.129 103.406C392.217 103.406 392.305 103.406 392.393 103.406C392.481 103.406 392.569 103.406 392.657 103.406C392.657 103.406 392.745 103.406 392.788 103.406C392.832 103.406 392.876 103.406 392.92 103.406C393.712 103.406 394.372 103.443 394.943 103.589C395.515 103.736 396.043 103.919 396.482 104.175C396.57 104.175 396.658 104.249 396.702 104.285C396.746 104.322 396.834 104.395 396.878 104.395C397.01 104.505 397.186 104.578 397.318 104.725C397.494 104.835 397.626 104.981 397.714 105.091C398.022 105.421 398.241 105.714 398.461 106.007C398.593 106.19 398.681 106.373 398.769 106.556C398.857 106.74 398.945 106.959 399.033 107.142C399.121 107.326 399.209 107.545 399.253 107.765C399.297 107.985 399.341 108.205 399.429 108.425C399.429 108.534 399.429 108.644 399.429 108.754C399.429 108.864 399.429 108.974 399.429 109.084L399.605 109.12ZM396.922 108.351C396.922 108.351 397.01 108.205 397.054 108.095C397.054 107.985 397.054 107.875 397.054 107.802C396.922 107.472 396.79 107.142 396.57 106.849C396.307 106.483 396.043 106.19 395.735 105.934C395.427 105.677 395.031 105.494 394.504 105.311C394.372 105.311 394.24 105.238 394.108 105.238C393.976 105.238 393.844 105.201 393.712 105.164C393.58 105.164 393.404 105.128 393.228 105.128H392.745C392.745 105.128 392.613 105.164 392.569 105.128C392.481 105.128 392.437 105.128 392.393 105.128C392.261 105.128 392.085 105.201 391.953 105.201C391.821 105.201 391.689 105.238 391.557 105.274C391.029 105.458 390.59 105.677 390.282 105.97C389.974 106.263 389.666 106.593 389.402 106.996C389.358 107.069 389.27 107.179 389.226 107.289C389.183 107.399 389.139 107.545 389.095 107.655C389.095 107.802 389.051 107.912 389.095 108.058C389.095 108.168 389.183 108.278 389.27 108.351C389.402 108.461 389.666 108.498 390.018 108.461C390.37 108.461 390.678 108.461 390.942 108.461H395.163C395.427 108.461 395.779 108.461 396.175 108.461C396.57 108.461 396.834 108.425 396.966 108.278L396.922 108.351Z" fill="#CE2E81"/>
</svg>
