<svg width="11" height="11" viewBox="0 0 11 11" fill="none" xmlns="http://www.w3.org/2000/svg">
<path d="M0.991918 10.5605C0.878435 10.6735 0.741355 10.73 0.580675 10.73C0.419997 10.73 0.283181 10.6733 0.170228 10.5597C0.0572754 10.4462 0.000533976 10.3101 3.6826e-06 10.1515C-0.000526611 9.99285 0.0562148 9.8565 0.170228 9.74243L3.59062 6.33632L2.33144 5.92249C2.17659 5.86626 2.0997 5.76068 2.10076 5.60576C2.10182 5.45084 2.18031 5.3503 2.33621 5.30414L6.17421 4.15179C6.28929 4.11943 6.39375 4.1502 6.48762 4.24411C6.58148 4.33749 6.61197 4.442 6.57909 4.55766L5.42729 8.39749C5.38169 8.55241 5.2812 8.63067 5.12582 8.63226C4.97098 8.63385 4.86545 8.55692 4.80924 8.40147L4.3964 7.14249L0.991918 10.5605ZM10.7297 3.9791C10.7297 4.82108 10.4972 5.57578 10.0321 6.24321C9.56703 6.91064 8.95375 7.39158 8.19225 7.68603C8.09202 7.72476 7.991 7.72476 7.88918 7.68603C7.78684 7.64677 7.71631 7.57727 7.6776 7.47753C7.63888 7.37778 7.63968 7.27698 7.67998 7.17512C7.72028 7.07325 7.79055 7.00269 7.89077 6.96343C8.48735 6.73794 8.97708 6.3533 9.35995 5.80949C9.74282 5.26568 9.93426 4.65555 9.93426 3.9791C9.93426 3.1037 9.62271 2.3543 8.99962 1.73091C8.37652 1.10752 7.62748 0.79582 6.7525 0.79582C6.07637 0.79582 5.46919 0.98496 4.93094 1.36324C4.39216 1.74099 4.01008 2.2283 3.78471 2.82516C3.746 2.92544 3.67653 3.00077 3.5763 3.05117C3.47555 3.10158 3.37532 3.10741 3.27563 3.06868C3.1754 3.02995 3.10275 2.957 3.05768 2.84983C3.0126 2.74266 3.00916 2.6392 3.04734 2.53946C3.33104 1.77972 3.80751 1.16667 4.47674 0.700322C5.14597 0.233971 5.90429 0.000530547 6.7517 0C7.85365 0 8.79227 0.38783 9.56756 1.16349C10.3429 1.93915 10.7297 2.87769 10.7281 3.9791" fill="#FD1515"/>
</svg>
