<svg width="60" height="60" viewBox="0 0 60 60" fill="none" xmlns="http://www.w3.org/2000/svg">
<path d="M3 49H8V55C8.00331 57.7601 10.2399 59.9967 13 60H47C49.7601 59.9967 51.9967 57.7601 52 55V49H57C58.6569 49 60 47.6569 60 46V36C60 34.3431 58.6569 33 57 33H52V27C51.9967 24.2399 49.7601 22.0033 47 22V17C47 7.61116 39.3888 0 30 0C20.6112 0 13 7.61116 13 17V22C10.2399 22.0033 8.00331 24.2399 8 27V33H3C1.34315 33 0 34.3431 0 36V46C0 47.6569 1.34315 49 3 49ZM50 55C50 56.6569 48.6569 58 47 58H13C11.3431 58 10 56.6569 10 55V49H50V55ZM15 17C15 8.71573 21.7157 2 30 2C38.2843 2 45 8.71573 45 17V22H41V17C41 10.9249 36.0751 6 30 6C23.9249 6 19 10.9249 19 17V22H15V17ZM21 22V17C21 12.0294 25.0294 8 30 8C34.9706 8 39 12.0294 39 17V22H21ZM10 27C10 25.3431 11.3431 24 13 24H47C48.6569 24 50 25.3431 50 27V33H10V27ZM2 36C2 35.4477 2.44772 35 3 35H57C57.5523 35 58 35.4477 58 36V46C58 46.5523 57.5523 47 57 47H3C2.44772 47 2 46.5523 2 46V36Z" fill="#312783"/>
<path d="M4.16774 43.555C4.31492 43.7757 4.54374 43.9289 4.80386 43.9808C5.06399 44.0328 5.33409 43.9792 5.55474 43.832L6.99974 42.868V44C6.99974 44.5523 7.44746 45 7.99974 45C8.55203 45 8.99974 44.5523 8.99974 44V42.868L10.4447 43.832C10.742 44.0303 11.1224 44.0549 11.4428 43.8966C11.7631 43.7384 11.9747 43.4212 11.9978 43.0646C12.0209 42.7081 11.852 42.3663 11.5547 42.168L9.79974 41L11.5517 39.832C11.849 39.6337 12.0179 39.2919 11.9948 38.9354C11.9717 38.5788 11.7601 38.2616 11.4398 38.1034C11.1194 37.9451 10.739 37.9697 10.4417 38.168L8.99974 39.132V38C8.99974 37.4477 8.55203 37 7.99974 37C7.44746 37 6.99974 37.4477 6.99974 38V39.132L5.55474 38.168C5.09524 37.8615 4.47426 37.9855 4.16774 38.445C3.86122 38.9045 3.98524 39.5255 4.44474 39.832L6.19974 41L4.44474 42.168C4.22406 42.3152 4.07088 42.544 4.01893 42.8041C3.96698 43.0642 4.02051 43.3344 4.16774 43.555Z" fill="#CE2E81"/>
<path d="M15.168 43.555C15.3152 43.7757 15.544 43.9289 15.8041 43.9808C16.0642 44.0328 16.3343 43.9792 16.555 43.832L18 42.868V44C18 44.5523 18.4477 45 19 45C19.5523 45 20 44.5523 20 44V42.868L21.445 43.832C21.7422 44.0303 22.1227 44.0549 22.443 43.8966C22.7634 43.7384 22.9749 43.4212 22.998 43.0646C23.0211 42.7081 22.8522 42.3663 22.555 42.168L20.8 41L22.552 39.832C22.8492 39.6337 23.0181 39.2919 22.995 38.9354C22.9719 38.5788 22.7604 38.2616 22.44 38.1034C22.1197 37.9451 21.7392 37.9697 21.442 38.168L20 39.132V38C20 37.4477 19.5523 37 19 37C18.4477 37 18 37.4477 18 38V39.132L16.555 38.168C16.0955 37.8615 15.4745 37.9855 15.168 38.445C14.8615 38.9045 14.9855 39.5255 15.445 39.832L17.2 41L15.448 42.168C15.2268 42.3147 15.073 42.5433 15.0205 42.8035C14.968 43.0636 15.021 43.334 15.168 43.555Z" fill="#CE2E81"/>
<path d="M37.1677 43.555C37.3149 43.7757 37.5437 43.9289 37.8039 43.9808C38.064 44.0328 38.3341 43.9792 38.5547 43.832L39.9997 42.868V44C39.9997 44.5523 40.4475 45 40.9997 45C41.552 45 41.9997 44.5523 41.9997 44V42.868L43.4447 43.832C43.742 44.0303 44.1224 44.0549 44.4428 43.8966C44.7631 43.7384 44.9747 43.4212 44.9978 43.0646C45.0209 42.7081 44.852 42.3663 44.5547 42.168L42.7997 41L44.5517 39.832C44.849 39.6337 45.0179 39.2919 44.9948 38.9354C44.9717 38.5788 44.7601 38.2616 44.4398 38.1034C44.1194 37.9451 43.739 37.9697 43.4417 38.168L41.9997 39.132V38C41.9997 37.4477 41.552 37 40.9997 37C40.4475 37 39.9997 37.4477 39.9997 38V39.132L38.5547 38.168C38.0952 37.8615 37.4743 37.9855 37.1677 38.445C36.8612 38.9045 36.9852 39.5255 37.4447 39.832L39.1997 41L37.4477 42.168C37.2266 42.3147 37.0728 42.5433 37.0203 42.8035C36.9677 43.0636 37.0208 43.334 37.1677 43.555Z" fill="#CE2E81"/>
<path d="M26.168 43.555C26.3152 43.7757 26.544 43.9289 26.8041 43.9808C27.0642 44.0328 27.3343 43.9792 27.555 43.832L29 42.868V44C29 44.5523 29.4477 45 30 45C30.5523 45 31 44.5523 31 44V42.868L32.445 43.832C32.7422 44.0303 33.1227 44.0549 33.443 43.8966C33.7634 43.7384 33.9749 43.4212 33.998 43.0646C34.0211 42.7081 33.8522 42.3663 33.555 42.168L31.8 41L33.552 39.832C33.8492 39.6337 34.0181 39.2919 33.995 38.9354C33.9719 38.5788 33.7604 38.2616 33.44 38.1034C33.1197 37.9451 32.7392 37.9697 32.442 38.168L31 39.132V38C31 37.4477 30.5523 37 30 37C29.4477 37 29 37.4477 29 38V39.132L27.555 38.168C27.0955 37.8615 26.4745 37.9855 26.168 38.445C25.8615 38.9045 25.9855 39.5255 26.445 39.832L28.2 41L26.448 42.168C26.2268 42.3147 26.073 42.5433 26.0205 42.8035C25.968 43.0636 26.021 43.334 26.168 43.555Z" fill="#CE2E81"/>
<path d="M16 26H13C12.4477 26 12 26.4477 12 27V30C12 30.5523 12.4477 31 13 31C13.5523 31 14 30.5523 14 30V28H16C16.5523 28 17 27.5523 17 27C17 26.4477 16.5523 26 16 26Z" fill="#CE2E81"/>
<path d="M49 45H55C55.5523 45 56 44.5523 56 44C56 43.4477 55.5523 43 55 43H49C48.4477 43 48 43.4477 48 44C48 44.5523 48.4477 45 49 45Z" fill="#CE2E81"/>
</svg>
