<svg width="48" height="48" viewBox="0 0 48 48" fill="none" xmlns="http://www.w3.org/2000/svg">
<path d="M2.4 39.2H6.4V44C6.40265 46.208 8.19196 47.9974 10.4 48H37.6C39.808 47.9974 41.5974 46.208 41.6 44V39.2H45.6C46.9255 39.2 48 38.1255 48 36.8V28.8C48 27.4745 46.9255 26.4 45.6 26.4H41.6V21.6C41.5974 19.392 39.808 17.6026 37.6 17.6V13.6C37.6 6.08893 31.5111 0 24 0C16.4889 0 10.4 6.08893 10.4 13.6V17.6C8.19196 17.6026 6.40265 19.392 6.4 21.6V26.4H2.4C1.07452 26.4 0 27.4745 0 28.8V36.8C0 38.1255 1.07452 39.2 2.4 39.2ZM40 44C40 45.3255 38.9255 46.4 37.6 46.4H10.4C9.07452 46.4 8 45.3255 8 44V39.2H40V44ZM12 13.6C12 6.97258 17.3726 1.6 24 1.6C30.6274 1.6 36 6.97258 36 13.6V17.6H32.8V13.6C32.8 8.73989 28.8601 4.8 24 4.8C19.1399 4.8 15.2 8.73989 15.2 13.6V17.6H12V13.6ZM16.8 17.6V13.6C16.8 9.62355 20.0236 6.4 24 6.4C27.9764 6.4 31.2 9.62355 31.2 13.6V17.6H16.8ZM8 21.6C8 20.2745 9.07452 19.2 10.4 19.2H37.6C38.9255 19.2 40 20.2745 40 21.6V26.4H8V21.6ZM1.6 28.8C1.6 28.3582 1.95817 28 2.4 28H45.6C46.0418 28 46.4 28.3582 46.4 28.8V36.8C46.4 37.2418 46.0418 37.6 45.6 37.6H2.4C1.95817 37.6 1.6 37.2418 1.6 36.8V28.8Z" fill="#022466"/>
<path d="M3.3338 34.8436C3.45154 35.0202 3.6346 35.1427 3.8427 35.1843C4.0508 35.2258 4.26688 35.183 4.4434 35.0652L5.5994 34.294V35.1996C5.5994 35.6414 5.95758 35.9996 6.3994 35.9996C6.84123 35.9996 7.1994 35.6414 7.1994 35.1996V34.294L8.3554 35.0652C8.5932 35.2238 8.89756 35.2435 9.15383 35.1169C9.4101 34.9903 9.57935 34.7366 9.59783 34.4513C9.61631 34.1661 9.4812 33.8926 9.2434 33.734L7.8394 32.7996L9.241 31.8652C9.4788 31.7066 9.61391 31.4331 9.59543 31.1479C9.57695 30.8626 9.4077 30.6089 9.15143 30.4823C8.89516 30.3557 8.5908 30.3754 8.353 30.534L7.1994 31.3052V30.3996C7.1994 29.9578 6.84123 29.5996 6.3994 29.5996C5.95758 29.5996 5.5994 29.9578 5.5994 30.3996V31.3052L4.4434 30.534C4.0758 30.2888 3.57902 30.388 3.3338 30.7556C3.08859 31.1232 3.1878 31.62 3.5554 31.8652L4.9594 32.7996L3.5554 33.734C3.37885 33.8517 3.25632 34.0348 3.21476 34.2429C3.1732 34.451 3.21602 34.6671 3.3338 34.8436Z" fill="#00BDFF"/>
<path d="M12.1346 34.8436C12.2523 35.0202 12.4354 35.1427 12.6435 35.1843C12.8516 35.2258 13.0677 35.183 13.2442 35.0652L14.4002 34.294V35.1996C14.4002 35.6414 14.7584 35.9996 15.2002 35.9996C15.642 35.9996 16.0002 35.6414 16.0002 35.1996V34.294L17.1562 35.0652C17.394 35.2238 17.6983 35.2435 17.9546 35.1169C18.2109 34.9903 18.3801 34.7366 18.3986 34.4513C18.4171 34.1661 18.282 33.8926 18.0442 33.734L16.6402 32.7996L18.0418 31.8652C18.2796 31.7066 18.4147 31.4331 18.3962 31.1479C18.3777 30.8626 18.2085 30.6089 17.9522 30.4823C17.6959 30.3557 17.3916 30.3754 17.1538 30.534L16.0002 31.3052V30.3996C16.0002 29.9578 15.642 29.5996 15.2002 29.5996C14.7584 29.5996 14.4002 29.9578 14.4002 30.3996V31.3052L13.2442 30.534C12.8766 30.2888 12.3798 30.388 12.1346 30.7556C11.8894 31.1232 11.9886 31.62 12.3562 31.8652L13.7602 32.7996L12.3586 33.734C12.1816 33.8514 12.0586 34.0343 12.0166 34.2424C11.9746 34.4505 12.017 34.6668 12.1346 34.8436Z" fill="#00BDFF"/>
<path d="M29.7361 34.8436C29.8539 35.0202 30.0369 35.1427 30.245 35.1843C30.4531 35.2258 30.6692 35.183 30.8457 35.0652L32.0017 34.294V35.1996C32.0017 35.6414 32.3599 35.9996 32.8017 35.9996C33.2436 35.9996 33.6017 35.6414 33.6017 35.1996V34.294L34.7577 35.0652C34.9955 35.2238 35.2999 35.2435 35.5562 35.1169C35.8124 34.9903 35.9817 34.7366 36.0002 34.4513C36.0186 34.1661 35.8835 33.8926 35.6457 33.734L34.2417 32.7996L35.6433 31.8652C35.8811 31.7066 36.0163 31.4331 35.9978 31.1479C35.9793 30.8626 35.81 30.6089 35.5538 30.4823C35.2975 30.3557 34.9931 30.3754 34.7553 30.534L33.6017 31.3052V30.3996C33.6017 29.9578 33.2436 29.5996 32.8017 29.5996C32.3599 29.5996 32.0017 29.9578 32.0017 30.3996V31.3052L30.8457 30.534C30.4781 30.2888 29.9814 30.388 29.7361 30.7556C29.4909 31.1232 29.5901 31.62 29.9577 31.8652L31.3617 32.7996L29.9601 33.734C29.7832 33.8514 29.6602 34.0343 29.6182 34.2424C29.5762 34.4505 29.6186 34.6668 29.7361 34.8436Z" fill="#00BDFF"/>
<path d="M20.9354 34.8436C21.0531 35.0202 21.2362 35.1427 21.4443 35.1843C21.6524 35.2258 21.8684 35.183 22.045 35.0652L23.201 34.294V35.1996C23.201 35.6414 23.5591 35.9996 24.001 35.9996C24.4428 35.9996 24.801 35.6414 24.801 35.1996V34.294L25.957 35.0652C26.1948 35.2238 26.4991 35.2435 26.7554 35.1169C27.0117 34.9903 27.1809 34.7366 27.1994 34.4513C27.2179 34.1661 27.0828 33.8926 26.845 33.734L25.441 32.7996L26.8426 31.8652C27.0804 31.7066 27.2155 31.4331 27.197 31.1479C27.1785 30.8626 27.0093 30.6089 26.753 30.4823C26.4967 30.3557 26.1924 30.3754 25.9546 30.534L24.801 31.3052V30.3996C24.801 29.9578 24.4428 29.5996 24.001 29.5996C23.5591 29.5996 23.201 29.9578 23.201 30.3996V31.3052L22.045 30.534C21.6774 30.2888 21.1806 30.388 20.9354 30.7556C20.6902 31.1232 20.7894 31.62 21.157 31.8652L22.561 32.7996L21.1594 33.734C20.9824 33.8514 20.8594 34.0343 20.8174 34.2424C20.7754 34.4505 20.8178 34.6668 20.9354 34.8436Z" fill="#00BDFF"/>
<path d="M12.8016 20.8003H10.4016C9.95973 20.8003 9.60156 21.1585 9.60156 21.6003V24.0003C9.60156 24.4421 9.95973 24.8003 10.4016 24.8003C10.8434 24.8003 11.2016 24.4421 11.2016 24.0003V22.4003H12.8016C13.2434 22.4003 13.6016 22.0421 13.6016 21.6003C13.6016 21.1585 13.2434 20.8003 12.8016 20.8003Z" fill="#00BDFF"/>
<path d="M39.1984 35.9997H43.9984C44.4403 35.9997 44.7984 35.6415 44.7984 35.1997C44.7984 34.7578 44.4403 34.3997 43.9984 34.3997H39.1984C38.7566 34.3997 38.3984 34.7578 38.3984 35.1997C38.3984 35.6415 38.7566 35.9997 39.1984 35.9997Z" fill="#00BDFF"/>
</svg>
