<svg width="60" height="60" viewBox="0 0 60 60" fill="none" xmlns="http://www.w3.org/2000/svg">
<g clip-path="url(#clip0_699_11931)">
<path d="M30 60C46.5685 60 60 46.5685 60 30C60 13.4315 46.5685 0 30 0C13.4315 0 0 13.4315 0 30C0 46.5685 13.4315 60 30 60Z" fill="#FF5A54"/>
<path fill-rule="evenodd" clip-rule="evenodd" d="M59.9916 30.5841C59.6841 46.6878 46.6878 59.6853 30.5828 59.9928C25.4866 54.8966 20.3778 49.8128 15.2816 44.7166C13.9478 43.3828 13.9478 41.2016 15.2816 39.8678L25.1503 29.9991L15.2816 20.1303C13.9478 18.7966 13.9478 16.6153 15.2816 15.2816C16.6153 13.9478 18.7966 13.9478 20.1303 15.2816L29.9991 25.1503L39.8678 15.2816C41.2016 13.9478 43.3828 13.9478 44.7166 15.2816C49.8116 20.3766 54.8966 25.4866 59.9928 30.5828L59.9916 30.5841Z" fill="#DB3A3C"/>
<path fill-rule="evenodd" clip-rule="evenodd" d="M15.2816 44.7166C16.6153 46.0503 18.7966 46.0503 20.1303 44.7166L29.9991 34.8478L39.8678 44.7166C41.2016 46.0503 43.3828 46.0503 44.7166 44.7166C46.0503 43.3828 46.0503 41.2016 44.7166 39.8678L34.8478 29.9991L44.7166 20.1303C46.0503 18.7966 46.0503 16.6153 44.7166 15.2816C43.3828 13.9478 41.2016 13.9478 39.8678 15.2816L29.9991 25.1503L20.1303 15.2816C18.7966 13.9478 16.6153 13.9478 15.2816 15.2816C13.9478 16.6153 13.9478 18.7966 15.2816 20.1303L25.1503 29.9991L15.2816 39.8678C13.9478 41.2016 13.9478 43.3828 15.2816 44.7166Z" fill="white"/>
</g>
<defs>
<clipPath id="clip0_699_11931">
<rect width="60" height="60" fill="white"/>
</clipPath>
</defs>
</svg>
