<svg width="52" height="50" viewBox="0 0 52 50" fill="none" xmlns="http://www.w3.org/2000/svg">
<path d="M39.6731 26C37.045 26 34.4764 26.9079 32.448 28.5545C29.6073 30.8144 27.9785 34.227 27.9785 37.9168C27.9785 44.4883 33.2262 49.8335 39.673 49.8335C40.7786 49.8335 41.8525 49.6796 42.8603 49.3806C47.8677 47.9442 51.3676 43.2294 51.3676 37.9168C51.3676 31.3452 46.1199 26 39.6731 26ZM42.2735 47.2964C41.4506 47.5412 40.5746 47.6669 39.673 47.6669C34.3977 47.6669 30.1048 43.2923 30.1048 37.9168C30.1048 34.8986 31.4358 32.1078 33.7641 30.2553C35.4248 28.9077 37.5234 28.1667 39.6731 28.1667C44.9484 28.1667 49.2413 32.5412 49.2413 37.9168C49.2413 42.2632 46.3793 46.1198 42.2735 47.2964Z" fill="#CE2E81"/>
<path d="M31.3774 28.5569C31.7517 28.5569 32.1152 28.3554 32.3087 27.9979C32.5937 27.4736 32.4065 26.8149 31.892 26.5245C30.4312 25.7034 28.8705 25.0815 27.2631 24.6309C31.4603 22.501 34.3563 18.094 34.3563 13.0001C34.3563 5.83056 28.6345 0 21.5987 0C14.5628 0 8.84101 5.83056 8.84101 13.0001C8.84101 18.0918 11.7349 22.4946 15.9258 24.6266C12.4174 25.6081 9.19613 27.4845 6.55739 30.1733C2.5451 34.2619 0.335938 39.7045 0.335938 45.5005V48.7505C0.335938 49.3485 0.812256 49.8339 1.39911 49.8339C1.98596 49.8339 2.46228 49.3485 2.46228 48.7505V45.5005C2.46228 40.2831 4.45247 35.3864 8.06289 31.7052C11.6733 28.024 16.4808 26.0003 21.5988 26.0003C24.8413 26.0003 28.0457 26.8388 30.8651 28.4227C31.0266 28.5136 31.2031 28.5569 31.3774 28.5569ZM10.9673 13.0001C10.9673 7.02657 15.7365 2.16666 21.5987 2.16666C27.4608 2.16666 32.2301 7.02657 32.2301 13.0001C32.2301 18.9737 27.4608 23.8336 21.5987 23.8336C15.7365 23.8335 10.9673 18.9737 10.9673 13.0001Z" fill="#312783"/>
<path d="M44.9885 36.8338H40.7359V32.5004C40.7359 31.9024 40.2596 31.417 39.6728 31.417C39.0859 31.417 38.6097 31.9025 38.6097 32.5005V36.8339H34.3571C33.7703 36.8339 33.2939 37.3193 33.2939 37.9173C33.2939 38.5153 33.7703 39.0006 34.3571 39.0006H38.6097V43.3341C38.6097 43.9321 39.086 44.4174 39.6729 44.4174C40.2597 44.4174 40.736 43.9321 40.736 43.3341V39.0006H44.9885C45.5754 39.0006 46.0517 38.5153 46.0517 37.9173C46.0517 37.3193 45.5754 36.8338 44.9885 36.8338Z" fill="#312783"/>
</svg>
