<svg width="52" height="51" viewBox="0 0 52 51" fill="none" xmlns="http://www.w3.org/2000/svg">
<path d="M39.3352 26.2461C36.7071 26.2461 34.1386 27.154 32.1101 28.8006C29.2694 31.0605 27.6406 34.473 27.6406 38.1629C27.6406 44.7344 32.8883 50.0796 39.3351 50.0796C40.4407 50.0796 41.5146 49.9257 42.5224 49.6267C47.5298 48.1903 51.0297 43.4755 51.0297 38.1629C51.0297 31.5913 45.782 26.2461 39.3352 26.2461ZM41.9356 47.5424C41.1127 47.7873 40.2367 47.913 39.3351 47.913C34.0598 47.913 29.7669 43.5384 29.7669 38.1629C29.7669 35.1447 31.0979 32.3539 33.4262 30.5014C35.0869 29.1538 37.1855 28.4127 39.3352 28.4127C44.6105 28.4127 48.9034 32.7873 48.9034 38.1629C48.9034 42.5093 46.0414 46.3659 41.9356 47.5424Z" fill="#00BDFF"/>
<path d="M31.0415 28.8025C31.4157 28.8025 31.7793 28.601 31.9728 28.2435C32.2577 27.7192 32.0705 27.0605 31.5561 26.7701C30.0953 25.949 28.5346 25.3271 26.9271 24.8765C31.1244 22.7466 34.0204 18.3396 34.0204 13.2457C34.0204 6.07617 28.2986 0.245605 21.2627 0.245605C14.2269 0.245605 8.50507 6.07617 8.50507 13.2457C8.50507 18.3374 11.399 22.7402 15.5899 24.8722C12.0815 25.8537 8.86019 27.7301 6.22145 30.4189C2.20917 34.5075 0 39.9501 0 45.7461V48.9961C0 49.5941 0.476319 50.0795 1.06317 50.0795C1.65002 50.0795 2.12634 49.5941 2.12634 48.9961V45.7461C2.12634 40.5287 4.11654 35.632 7.72695 31.9508C11.3374 28.2696 16.1449 26.2459 21.2628 26.2459C24.5054 26.2459 27.7097 27.0844 30.5292 28.6683C30.6906 28.7592 30.8671 28.8025 31.0415 28.8025ZM10.6314 13.2457C10.6314 7.27218 15.4006 2.41226 21.2627 2.41226C27.1249 2.41226 31.8941 7.27218 31.8941 13.2457C31.8941 19.2193 27.1249 24.0792 21.2627 24.0792C15.4006 24.0791 10.6314 19.2193 10.6314 13.2457Z" fill="#023B67"/>
<path d="M44.6516 37.0794H40.399V32.746C40.399 32.148 39.9227 31.6626 39.3359 31.6626C38.749 31.6626 38.2728 32.1481 38.2728 32.7461V37.0795H34.0202C33.4334 37.0795 32.957 37.5649 32.957 38.1629C32.957 38.7609 33.4334 39.2462 34.0202 39.2462H38.2728V43.5797C38.2728 44.1777 38.7491 44.663 39.336 44.663C39.9228 44.663 40.3991 44.1777 40.3991 43.5797V39.2462H44.6516C45.2385 39.2462 45.7148 38.7609 45.7148 38.1629C45.7148 37.5649 45.2385 37.0794 44.6516 37.0794Z" fill="#023B67"/>
</svg>
