<svg width="60" height="60" viewBox="0 0 60 60" fill="none" xmlns="http://www.w3.org/2000/svg">
<path d="M44.2483 24.2505C44.7037 23.7789 44.9557 23.1474 44.95 22.4919C44.9443 21.8365 44.6814 21.2094 44.2179 20.7459C43.7544 20.2824 43.1273 20.0195 42.4718 20.0138C41.8163 20.0081 41.1848 20.2601 40.7133 20.7155L27.4633 33.9655L19.2133 25.7155C18.7418 25.2601 18.1103 25.0081 17.4548 25.0138C16.7993 25.0195 16.1723 25.2824 15.7088 25.7459C15.2453 26.2094 14.9824 26.8365 14.9767 27.4919C14.971 28.1474 15.2229 28.7789 15.6783 29.2505L25.6783 39.2505C26.1472 39.7191 26.7829 39.9824 27.4458 39.9824C28.1088 39.9824 28.7445 39.7191 29.2133 39.2505L44.2133 24.2505H44.2483Z" fill="#00BDFF"/>
<path fill-rule="evenodd" clip-rule="evenodd" d="M60 30C60 46.55 46.55 60 30 60C13.45 60 0 46.55 0 30C0 13.45 13.45 0 30 0C46.55 0 60 13.45 60 30ZM55 30C55 43.8 43.8 55 30 55C16.2 55 5 43.8 5 30C5 16.2 16.2 5 30 5C43.8 5 55 16.2 55 30Z" fill="#022466"/>
</svg>
