<svg width="348" height="156" viewBox="0 0 348 156" fill="none" xmlns="http://www.w3.org/2000/svg">
<path d="M44.181 19.736C44.181 17.5173 44.661 15.544 45.621 13.816C46.581 12.0667 47.9143 10.712 49.621 9.752C51.349 8.77067 53.301 8.28 55.477 8.28C58.1437 8.28 60.4263 8.984 62.325 10.392C64.2237 11.8 65.493 13.72 66.133 16.152H60.117C59.669 15.2133 59.029 14.4987 58.197 14.008C57.3863 13.5173 56.4583 13.272 55.413 13.272C53.7277 13.272 52.3623 13.8587 51.317 15.032C50.2717 16.2053 49.749 17.7733 49.749 19.736C49.749 21.6987 50.2717 23.2667 51.317 24.44C52.3623 25.6133 53.7277 26.2 55.413 26.2C56.4583 26.2 57.3863 25.9547 58.197 25.464C59.029 24.9733 59.669 24.2587 60.117 23.32H66.133C65.493 25.752 64.2237 27.672 62.325 29.08C60.4263 30.4667 58.1437 31.16 55.477 31.16C53.301 31.16 51.349 30.68 49.621 29.72C47.9143 28.7387 46.581 27.384 45.621 25.656C44.661 23.928 44.181 21.9547 44.181 19.736ZM74.956 16.12C75.596 15.1387 76.396 14.3707 77.356 13.816C78.316 13.24 79.3827 12.952 80.556 12.952V18.744H79.052C77.6867 18.744 76.6627 19.0427 75.98 19.64C75.2973 20.216 74.956 21.24 74.956 22.712V31H69.484V13.144H74.956V16.12ZM100.003 21.784C100.003 22.296 99.9715 22.8293 99.9075 23.384H87.5235C87.6088 24.4933 87.9608 25.3467 88.5795 25.944C89.2195 26.52 89.9982 26.808 90.9155 26.808C92.2808 26.808 93.2302 26.232 93.7635 25.08H99.5875C99.2888 26.2533 98.7448 27.3093 97.9555 28.248C97.1875 29.1867 96.2168 29.9227 95.0435 30.456C93.8702 30.9893 92.5582 31.256 91.1075 31.256C89.3582 31.256 87.8008 30.8827 86.4355 30.136C85.0702 29.3893 84.0035 28.3227 83.2355 26.936C82.4675 25.5493 82.0835 23.928 82.0835 22.072C82.0835 20.216 82.4568 18.5947 83.2035 17.208C83.9715 15.8213 85.0382 14.7547 86.4035 14.008C87.7688 13.2613 89.3368 12.888 91.1075 12.888C92.8355 12.888 94.3715 13.2507 95.7155 13.976C97.0595 14.7013 98.1048 15.736 98.8515 17.08C99.6195 18.424 100.003 19.992 100.003 21.784ZM94.4035 20.344C94.4035 19.4053 94.0835 18.6587 93.4435 18.104C92.8035 17.5493 92.0035 17.272 91.0435 17.272C90.1262 17.272 89.3475 17.5387 88.7075 18.072C88.0888 18.6053 87.7048 19.3627 87.5555 20.344H94.4035ZM101.802 22.04C101.802 20.2053 102.144 18.5947 102.826 17.208C103.53 15.8213 104.48 14.7547 105.674 14.008C106.869 13.2613 108.202 12.888 109.674 12.888C110.933 12.888 112.032 13.144 112.97 13.656C113.93 14.168 114.666 14.84 115.178 15.672V13.144H120.65V31H115.178V28.472C114.645 29.304 113.898 29.976 112.938 30.488C112 31 110.901 31.256 109.642 31.256C108.192 31.256 106.869 30.8827 105.674 30.136C104.48 29.368 103.53 28.2907 102.826 26.904C102.144 25.496 101.802 23.8747 101.802 22.04ZM115.178 22.072C115.178 20.7067 114.794 19.6293 114.026 18.84C113.28 18.0507 112.362 17.656 111.274 17.656C110.186 17.656 109.258 18.0507 108.49 18.84C107.744 19.608 107.37 20.6747 107.37 22.04C107.37 23.4053 107.744 24.4933 108.49 25.304C109.258 26.0933 110.186 26.488 111.274 26.488C112.362 26.488 113.28 26.0933 114.026 25.304C114.794 24.5147 115.178 23.4373 115.178 22.072ZM134.561 26.36V31H131.777C129.793 31 128.246 30.52 127.137 29.56C126.028 28.5787 125.473 26.9893 125.473 24.792V17.688H123.297V13.144H125.473V8.792H130.945V13.144H134.529V17.688H130.945V24.856C130.945 25.3893 131.073 25.7733 131.329 26.008C131.585 26.2427 132.012 26.36 132.609 26.36H134.561ZM154.441 21.784C154.441 22.296 154.409 22.8293 154.345 23.384H141.961C142.046 24.4933 142.398 25.3467 143.017 25.944C143.657 26.52 144.436 26.808 145.353 26.808C146.718 26.808 147.668 26.232 148.201 25.08H154.025C153.726 26.2533 153.182 27.3093 152.393 28.248C151.625 29.1867 150.654 29.9227 149.481 30.456C148.308 30.9893 146.996 31.256 145.545 31.256C143.796 31.256 142.238 30.8827 140.873 30.136C139.508 29.3893 138.441 28.3227 137.673 26.936C136.905 25.5493 136.521 23.928 136.521 22.072C136.521 20.216 136.894 18.5947 137.641 17.208C138.409 15.8213 139.476 14.7547 140.841 14.008C142.206 13.2613 143.774 12.888 145.545 12.888C147.273 12.888 148.809 13.2507 150.153 13.976C151.497 14.7013 152.542 15.736 153.289 17.08C154.057 18.424 154.441 19.992 154.441 21.784ZM148.841 20.344C148.841 19.4053 148.521 18.6587 147.881 18.104C147.241 17.5493 146.441 17.272 145.481 17.272C144.564 17.272 143.785 17.5387 143.145 18.072C142.526 18.6053 142.142 19.3627 141.993 20.344H148.841ZM163.181 19.736C163.181 17.5173 163.661 15.544 164.621 13.816C165.581 12.0667 166.914 10.712 168.621 9.752C170.349 8.77067 172.301 8.28 174.477 8.28C177.144 8.28 179.426 8.984 181.325 10.392C183.224 11.8 184.493 13.72 185.133 16.152H179.117C178.669 15.2133 178.029 14.4987 177.197 14.008C176.386 13.5173 175.458 13.272 174.413 13.272C172.728 13.272 171.362 13.8587 170.317 15.032C169.272 16.2053 168.749 17.7733 168.749 19.736C168.749 21.6987 169.272 23.2667 170.317 24.44C171.362 25.6133 172.728 26.2 174.413 26.2C175.458 26.2 176.386 25.9547 177.197 25.464C178.029 24.9733 178.669 24.2587 179.117 23.32H185.133C184.493 25.752 183.224 27.672 181.325 29.08C179.426 30.4667 177.144 31.16 174.477 31.16C172.301 31.16 170.349 30.68 168.621 29.72C166.914 28.7387 165.581 27.384 164.621 25.656C163.661 23.928 163.181 21.9547 163.181 19.736ZM196.612 31.256C194.863 31.256 193.284 30.8827 191.876 30.136C190.489 29.3893 189.391 28.3227 188.58 26.936C187.791 25.5493 187.396 23.928 187.396 22.072C187.396 20.2373 187.801 18.6267 188.612 17.24C189.423 15.832 190.532 14.7547 191.94 14.008C193.348 13.2613 194.927 12.888 196.676 12.888C198.425 12.888 200.004 13.2613 201.412 14.008C202.82 14.7547 203.929 15.832 204.74 17.24C205.551 18.6267 205.956 20.2373 205.956 22.072C205.956 23.9067 205.54 25.528 204.708 26.936C203.897 28.3227 202.777 29.3893 201.348 30.136C199.94 30.8827 198.361 31.256 196.612 31.256ZM196.612 26.52C197.657 26.52 198.543 26.136 199.268 25.368C200.015 24.6 200.388 23.5013 200.388 22.072C200.388 20.6427 200.025 19.544 199.3 18.776C198.596 18.008 197.721 17.624 196.676 17.624C195.609 17.624 194.724 18.008 194.02 18.776C193.316 19.5227 192.964 20.6213 192.964 22.072C192.964 23.5013 193.305 24.6 193.988 25.368C194.692 26.136 195.567 26.52 196.612 26.52ZM214.331 7.32V31H208.859V7.32H214.331ZM223.769 7.32V31H218.297V7.32H223.769ZM244.566 21.784C244.566 22.296 244.534 22.8293 244.47 23.384H232.086C232.171 24.4933 232.523 25.3467 233.142 25.944C233.782 26.52 234.561 26.808 235.478 26.808C236.843 26.808 237.793 26.232 238.326 25.08H244.15C243.851 26.2533 243.307 27.3093 242.518 28.248C241.75 29.1867 240.779 29.9227 239.606 30.456C238.433 30.9893 237.121 31.256 235.67 31.256C233.921 31.256 232.363 30.8827 230.998 30.136C229.633 29.3893 228.566 28.3227 227.798 26.936C227.03 25.5493 226.646 23.928 226.646 22.072C226.646 20.216 227.019 18.5947 227.766 17.208C228.534 15.8213 229.601 14.7547 230.966 14.008C232.331 13.2613 233.899 12.888 235.67 12.888C237.398 12.888 238.934 13.2507 240.278 13.976C241.622 14.7013 242.667 15.736 243.414 17.08C244.182 18.424 244.566 19.992 244.566 21.784ZM238.966 20.344C238.966 19.4053 238.646 18.6587 238.006 18.104C237.366 17.5493 236.566 17.272 235.606 17.272C234.689 17.272 233.91 17.5387 233.27 18.072C232.651 18.6053 232.267 19.3627 232.118 20.344H238.966ZM246.365 22.072C246.365 20.216 246.738 18.5947 247.485 17.208C248.253 15.8213 249.309 14.7547 250.653 14.008C252.018 13.2613 253.575 12.888 255.325 12.888C257.565 12.888 259.431 13.4747 260.925 14.648C262.439 15.8213 263.431 17.4747 263.901 19.608H258.077C257.586 18.2427 256.637 17.56 255.229 17.56C254.226 17.56 253.426 17.9547 252.829 18.744C252.231 19.512 251.933 20.6213 251.933 22.072C251.933 23.5227 252.231 24.6427 252.829 25.432C253.426 26.2 254.226 26.584 255.229 26.584C256.637 26.584 257.586 25.9013 258.077 24.536H263.901C263.431 26.6267 262.439 28.2693 260.925 29.464C259.41 30.6587 257.543 31.256 255.325 31.256C253.575 31.256 252.018 30.8827 250.653 30.136C249.309 29.3893 248.253 28.3227 247.485 26.936C246.738 25.5493 246.365 23.928 246.365 22.072ZM276.78 26.36V31H273.996C272.012 31 270.465 30.52 269.356 29.56C268.246 28.5787 267.692 26.9893 267.692 24.792V17.688H265.516V13.144H267.692V8.792H273.164V13.144H276.748V17.688H273.164V24.856C273.164 25.3893 273.292 25.7733 273.548 26.008C273.804 26.2427 274.23 26.36 274.828 26.36H276.78ZM287.092 31.256C285.534 31.256 284.148 30.9893 282.932 30.456C281.716 29.9227 280.756 29.1973 280.052 28.28C279.348 27.3413 278.953 26.296 278.868 25.144H284.276C284.34 25.7627 284.628 26.264 285.14 26.648C285.652 27.032 286.281 27.224 287.028 27.224C287.71 27.224 288.233 27.096 288.596 26.84C288.98 26.5627 289.172 26.2107 289.172 25.784C289.172 25.272 288.905 24.8987 288.372 24.664C287.838 24.408 286.974 24.1307 285.78 23.832C284.5 23.5333 283.433 23.224 282.58 22.904C281.726 22.5627 280.99 22.04 280.372 21.336C279.753 20.6107 279.444 19.64 279.444 18.424C279.444 17.4 279.721 16.472 280.276 15.64C280.852 14.7867 281.684 14.1147 282.772 13.624C283.881 13.1333 285.193 12.888 286.708 12.888C288.948 12.888 290.708 13.4427 291.988 14.552C293.289 15.6613 294.036 17.1333 294.228 18.968H289.172C289.086 18.3493 288.809 17.8587 288.34 17.496C287.892 17.1333 287.294 16.952 286.548 16.952C285.908 16.952 285.417 17.08 285.076 17.336C284.734 17.5707 284.564 17.9013 284.564 18.328C284.564 18.84 284.83 19.224 285.364 19.48C285.918 19.736 286.772 19.992 287.924 20.248C289.246 20.5893 290.324 20.9307 291.156 21.272C291.988 21.592 292.713 22.1253 293.332 22.872C293.972 23.5973 294.302 24.5787 294.324 25.816C294.324 26.8613 294.025 27.8 293.428 28.632C292.852 29.4427 292.009 30.0827 290.9 30.552C289.812 31.0213 288.542 31.256 287.092 31.256ZM303.56 25.944L300.008 35.128H296.52L298.376 25.944H303.56ZM40.519 48.536V52.92H34.567V71H29.095V52.92H23.143V48.536H40.519ZM46.0173 51.288C45.0573 51.288 44.2679 51.0107 43.6493 50.456C43.0519 49.88 42.7533 49.176 42.7533 48.344C42.7533 47.4907 43.0519 46.7867 43.6493 46.232C44.2679 45.656 45.0573 45.368 46.0173 45.368C46.9559 45.368 47.7239 45.656 48.3213 46.232C48.9399 46.7867 49.2493 47.4907 49.2493 48.344C49.2493 49.176 48.9399 49.88 48.3213 50.456C47.7239 51.0107 46.9559 51.288 46.0173 51.288ZM48.7373 53.144V71H43.2653V53.144H48.7373ZM75.4868 52.952C77.7054 52.952 79.4654 53.624 80.7668 54.968C82.0894 56.312 82.7508 58.1787 82.7508 60.568V71H77.3108V61.304C77.3108 60.152 77.0014 59.2667 76.3828 58.648C75.7854 58.008 74.9534 57.688 73.8868 57.688C72.8201 57.688 71.9774 58.008 71.3588 58.648C70.7614 59.2667 70.4628 60.152 70.4628 61.304V71H65.0228V61.304C65.0228 60.152 64.7134 59.2667 64.0948 58.648C63.4974 58.008 62.6654 57.688 61.5988 57.688C60.5321 57.688 59.6894 58.008 59.0708 58.648C58.4734 59.2667 58.1748 60.152 58.1748 61.304V71H52.7028V53.144H58.1748V55.384C58.7294 54.6373 59.4548 54.0507 60.3508 53.624C61.2468 53.176 62.2601 52.952 63.3908 52.952C64.7348 52.952 65.9294 53.24 66.9748 53.816C68.0414 54.392 68.8734 55.2133 69.4708 56.28C70.0894 55.2987 70.9321 54.4987 71.9988 53.88C73.0654 53.2613 74.2281 52.952 75.4868 52.952ZM103.41 61.784C103.41 62.296 103.378 62.8293 103.314 63.384H90.9298C91.0151 64.4933 91.3671 65.3467 91.9858 65.944C92.6258 66.52 93.4044 66.808 94.3218 66.808C95.6871 66.808 96.6364 66.232 97.1698 65.08H102.994C102.695 66.2533 102.151 67.3093 101.362 68.248C100.594 69.1867 99.6231 69.9227 98.4498 70.456C97.2764 70.9893 95.9644 71.256 94.5138 71.256C92.7644 71.256 91.2071 70.8827 89.8418 70.136C88.4764 69.3893 87.4098 68.3227 86.6418 66.936C85.8738 65.5493 85.4898 63.928 85.4898 62.072C85.4898 60.216 85.8631 58.5947 86.6098 57.208C87.3778 55.8213 88.4444 54.7547 89.8098 54.008C91.1751 53.2613 92.7431 52.888 94.5138 52.888C96.2418 52.888 97.7778 53.2507 99.1218 53.976C100.466 54.7013 101.511 55.736 102.258 57.08C103.026 58.424 103.41 59.992 103.41 61.784ZM97.8098 60.344C97.8098 59.4053 97.4898 58.6587 96.8498 58.104C96.2098 57.5493 95.4098 57.272 94.4498 57.272C93.5324 57.272 92.7538 57.5387 92.1138 58.072C91.4951 58.6053 91.1111 59.3627 90.9618 60.344H97.8098ZM111.769 47.32V71H106.297V47.32H111.769ZM132.566 61.784C132.566 62.296 132.534 62.8293 132.47 63.384H120.086C120.171 64.4933 120.523 65.3467 121.142 65.944C121.782 66.52 122.561 66.808 123.478 66.808C124.843 66.808 125.793 66.232 126.326 65.08H132.15C131.851 66.2533 131.307 67.3093 130.518 68.248C129.75 69.1867 128.779 69.9227 127.606 70.456C126.433 70.9893 125.121 71.256 123.67 71.256C121.921 71.256 120.363 70.8827 118.998 70.136C117.633 69.3893 116.566 68.3227 115.798 66.936C115.03 65.5493 114.646 63.928 114.646 62.072C114.646 60.216 115.019 58.5947 115.766 57.208C116.534 55.8213 117.601 54.7547 118.966 54.008C120.331 53.2613 121.899 52.888 123.67 52.888C125.398 52.888 126.934 53.2507 128.278 53.976C129.622 54.7013 130.667 55.736 131.414 57.08C132.182 58.424 132.566 59.992 132.566 61.784ZM126.966 60.344C126.966 59.4053 126.646 58.6587 126.006 58.104C125.366 57.5493 124.566 57.272 123.606 57.272C122.689 57.272 121.91 57.5387 121.27 58.072C120.651 58.6053 120.267 59.3627 120.118 60.344H126.966ZM142.717 71.256C141.159 71.256 139.773 70.9893 138.557 70.456C137.341 69.9227 136.381 69.1973 135.677 68.28C134.973 67.3413 134.578 66.296 134.493 65.144H139.901C139.965 65.7627 140.253 66.264 140.765 66.648C141.277 67.032 141.906 67.224 142.653 67.224C143.335 67.224 143.858 67.096 144.221 66.84C144.605 66.5627 144.797 66.2107 144.797 65.784C144.797 65.272 144.53 64.8987 143.997 64.664C143.463 64.408 142.599 64.1307 141.405 63.832C140.125 63.5333 139.058 63.224 138.205 62.904C137.351 62.5627 136.615 62.04 135.997 61.336C135.378 60.6107 135.069 59.64 135.069 58.424C135.069 57.4 135.346 56.472 135.901 55.64C136.477 54.7867 137.309 54.1147 138.397 53.624C139.506 53.1333 140.818 52.888 142.333 52.888C144.573 52.888 146.333 53.4427 147.613 54.552C148.914 55.6613 149.661 57.1333 149.853 58.968H144.797C144.711 58.3493 144.434 57.8587 143.965 57.496C143.517 57.1333 142.919 56.952 142.173 56.952C141.533 56.952 141.042 57.08 140.701 57.336C140.359 57.5707 140.189 57.9013 140.189 58.328C140.189 58.84 140.455 59.224 140.989 59.48C141.543 59.736 142.397 59.992 143.549 60.248C144.871 60.5893 145.949 60.9307 146.781 61.272C147.613 61.592 148.338 62.1253 148.957 62.872C149.597 63.5973 149.927 64.5787 149.949 65.816C149.949 66.8613 149.65 67.8 149.053 68.632C148.477 69.4427 147.634 70.0827 146.525 70.552C145.437 71.0213 144.167 71.256 142.717 71.256ZM160.561 71.256C159.003 71.256 157.617 70.9893 156.401 70.456C155.185 69.9227 154.225 69.1973 153.521 68.28C152.817 67.3413 152.422 66.296 152.337 65.144H157.745C157.809 65.7627 158.097 66.264 158.609 66.648C159.121 67.032 159.75 67.224 160.497 67.224C161.179 67.224 161.702 67.096 162.065 66.84C162.449 66.5627 162.641 66.2107 162.641 65.784C162.641 65.272 162.374 64.8987 161.841 64.664C161.307 64.408 160.443 64.1307 159.249 63.832C157.969 63.5333 156.902 63.224 156.049 62.904C155.195 62.5627 154.459 62.04 153.841 61.336C153.222 60.6107 152.913 59.64 152.913 58.424C152.913 57.4 153.19 56.472 153.745 55.64C154.321 54.7867 155.153 54.1147 156.241 53.624C157.35 53.1333 158.662 52.888 160.177 52.888C162.417 52.888 164.177 53.4427 165.457 54.552C166.758 55.6613 167.505 57.1333 167.697 58.968H162.641C162.555 58.3493 162.278 57.8587 161.809 57.496C161.361 57.1333 160.763 56.952 160.017 56.952C159.377 56.952 158.886 57.08 158.545 57.336C158.203 57.5707 158.033 57.9013 158.033 58.328C158.033 58.84 158.299 59.224 158.833 59.48C159.387 59.736 160.241 59.992 161.393 60.248C162.715 60.5893 163.793 60.9307 164.625 61.272C165.457 61.592 166.182 62.1253 166.801 62.872C167.441 63.5973 167.771 64.5787 167.793 65.816C167.793 66.8613 167.494 67.8 166.897 68.632C166.321 69.4427 165.478 70.0827 164.369 70.552C163.281 71.0213 162.011 71.256 160.561 71.256ZM191.906 67.032H183.522L182.178 71H176.45L184.578 48.536H190.914L199.042 71H193.25L191.906 67.032ZM190.498 62.808L187.714 54.584L184.962 62.808H190.498ZM206.987 56.12C207.627 55.1387 208.427 54.3707 209.387 53.816C210.347 53.24 211.414 52.952 212.587 52.952V58.744H211.083C209.718 58.744 208.694 59.0427 208.011 59.64C207.329 60.216 206.987 61.24 206.987 62.712V71H201.515V53.144H206.987V56.12ZM225.155 66.36V71H222.371C220.387 71 218.84 70.52 217.731 69.56C216.621 68.5787 216.067 66.9893 216.067 64.792V57.688H213.891V53.144H216.067V48.792H221.539V53.144H225.123V57.688H221.539V64.856C221.539 65.3893 221.667 65.7733 221.923 66.008C222.179 66.2427 222.605 66.36 223.203 66.36H225.155ZM253.835 53.144L249.003 71H242.955L240.139 59.416L237.227 71H231.211L226.347 53.144H231.819L234.347 65.912L237.355 53.144H243.147L246.187 65.848L248.683 53.144H253.835ZM264.05 71.256C262.3 71.256 260.722 70.8827 259.314 70.136C257.927 69.3893 256.828 68.3227 256.018 66.936C255.228 65.5493 254.834 63.928 254.834 62.072C254.834 60.2373 255.239 58.6267 256.049 57.24C256.86 55.832 257.97 54.7547 259.378 54.008C260.786 53.2613 262.364 52.888 264.114 52.888C265.863 52.888 267.442 53.2613 268.85 54.008C270.258 54.7547 271.367 55.832 272.178 57.24C272.988 58.6267 273.394 60.2373 273.394 62.072C273.394 63.9067 272.978 65.528 272.146 66.936C271.335 68.3227 270.215 69.3893 268.786 70.136C267.378 70.8827 265.799 71.256 264.05 71.256ZM264.05 66.52C265.095 66.52 265.98 66.136 266.706 65.368C267.452 64.6 267.826 63.5013 267.826 62.072C267.826 60.6427 267.463 59.544 266.738 58.776C266.034 58.008 265.159 57.624 264.114 57.624C263.047 57.624 262.162 58.008 261.458 58.776C260.754 59.5227 260.402 60.6213 260.402 62.072C260.402 63.5013 260.743 64.6 261.426 65.368C262.13 66.136 263.004 66.52 264.05 66.52ZM281.769 56.12C282.409 55.1387 283.209 54.3707 284.169 53.816C285.129 53.24 286.195 52.952 287.369 52.952V58.744H285.865C284.499 58.744 283.475 59.0427 282.793 59.64C282.11 60.216 281.769 61.24 281.769 62.712V71H276.297V53.144H281.769V56.12ZM300.896 71L295.456 63.512V71H289.984V47.32H295.456V60.408L300.864 53.144H307.616L300.192 62.104L307.68 71H300.896ZM317.029 71.256C315.472 71.256 314.085 70.9893 312.869 70.456C311.653 69.9227 310.693 69.1973 309.989 68.28C309.285 67.3413 308.891 66.296 308.805 65.144H314.213C314.277 65.7627 314.565 66.264 315.077 66.648C315.589 67.032 316.219 67.224 316.965 67.224C317.648 67.224 318.171 67.096 318.533 66.84C318.917 66.5627 319.109 66.2107 319.109 65.784C319.109 65.272 318.843 64.8987 318.309 64.664C317.776 64.408 316.912 64.1307 315.717 63.832C314.437 63.5333 313.371 63.224 312.517 62.904C311.664 62.5627 310.928 62.04 310.309 61.336C309.691 60.6107 309.381 59.64 309.381 58.424C309.381 57.4 309.659 56.472 310.213 55.64C310.789 54.7867 311.621 54.1147 312.709 53.624C313.819 53.1333 315.131 52.888 316.645 52.888C318.885 52.888 320.645 53.4427 321.925 54.552C323.227 55.6613 323.973 57.1333 324.165 58.968H319.109C319.024 58.3493 318.747 57.8587 318.277 57.496C317.829 57.1333 317.232 56.952 316.485 56.952C315.845 56.952 315.355 57.08 315.013 57.336C314.672 57.5707 314.501 57.9013 314.501 58.328C314.501 58.84 314.768 59.224 315.301 59.48C315.856 59.736 316.709 59.992 317.861 60.248C319.184 60.5893 320.261 60.9307 321.093 61.272C321.925 61.592 322.651 62.1253 323.269 62.872C323.909 63.5973 324.24 64.5787 324.261 65.816C324.261 66.8613 323.963 67.8 323.365 68.632C322.789 69.4427 321.947 70.0827 320.837 70.552C319.749 71.0213 318.48 71.256 317.029 71.256Z" fill="#CE2E81"/>
<path d="M26.191 105.256C26.5963 105.32 26.9643 105.485 27.295 105.752C27.6363 106.019 27.903 106.349 28.095 106.744C28.2977 107.139 28.399 107.56 28.399 108.008C28.399 108.573 28.255 109.085 27.967 109.544C27.679 109.992 27.2577 110.349 26.703 110.616C26.159 110.872 25.5137 111 24.767 111H20.607V99.848H24.607C25.3643 99.848 26.0097 99.976 26.543 100.232C27.0763 100.477 27.4763 100.813 27.743 101.24C28.0097 101.667 28.143 102.147 28.143 102.68C28.143 103.341 27.9617 103.891 27.599 104.328C27.247 104.755 26.7777 105.064 26.191 105.256ZM22.063 104.664H24.511C25.1937 104.664 25.7217 104.504 26.095 104.184C26.4683 103.864 26.655 103.421 26.655 102.856C26.655 102.291 26.4683 101.848 26.095 101.528C25.7217 101.208 25.183 101.048 24.479 101.048H22.063V104.664ZM24.639 109.8C25.3643 109.8 25.9297 109.629 26.335 109.288C26.7403 108.947 26.943 108.472 26.943 107.864C26.943 107.245 26.7297 106.76 26.303 106.408C25.8763 106.045 25.3057 105.864 24.591 105.864H22.063V109.8H24.639ZM31.8755 103.656C32.1315 103.155 32.4942 102.765 32.9635 102.488C33.4435 102.211 34.0248 102.072 34.7075 102.072V103.576H34.3235C32.6915 103.576 31.8755 104.461 31.8755 106.232V111H30.4195V102.232H31.8755V103.656ZM40.2123 111.144C39.3909 111.144 38.6443 110.957 37.9723 110.584C37.3109 110.211 36.7883 109.683 36.4043 109C36.0309 108.307 35.8443 107.507 35.8443 106.6C35.8443 105.704 36.0363 104.915 36.4203 104.232C36.8149 103.539 37.3483 103.011 38.0203 102.648C38.6923 102.275 39.4443 102.088 40.2763 102.088C41.1083 102.088 41.8603 102.275 42.5323 102.648C43.2043 103.011 43.7323 103.533 44.1163 104.216C44.5109 104.899 44.7083 105.693 44.7083 106.6C44.7083 107.507 44.5056 108.307 44.1003 109C43.7056 109.683 43.1669 110.211 42.4843 110.584C41.8016 110.957 41.0443 111.144 40.2123 111.144ZM40.2123 109.864C40.7349 109.864 41.2256 109.741 41.6843 109.496C42.1429 109.251 42.5109 108.883 42.7883 108.392C43.0763 107.901 43.2203 107.304 43.2203 106.6C43.2203 105.896 43.0816 105.299 42.8043 104.808C42.5269 104.317 42.1643 103.955 41.7163 103.72C41.2683 103.475 40.7829 103.352 40.2603 103.352C39.7269 103.352 39.2363 103.475 38.7883 103.72C38.3509 103.955 37.9989 104.317 37.7323 104.808C37.4656 105.299 37.3323 105.896 37.3323 106.6C37.3323 107.315 37.4603 107.917 37.7163 108.408C37.9829 108.899 38.3349 109.267 38.7723 109.512C39.2096 109.747 39.6896 109.864 40.2123 109.864ZM58.3026 102.232L55.5666 111H54.0626L51.9506 104.04L49.8386 111H48.3346L45.5826 102.232H47.0706L49.0866 109.592L51.2626 102.232H52.7506L54.8786 109.608L56.8626 102.232H58.3026ZM62.8516 111.144C62.1796 111.144 61.577 111.032 61.0436 110.808C60.5103 110.573 60.089 110.253 59.7796 109.848C59.4703 109.432 59.2996 108.957 59.2676 108.424H60.7716C60.8143 108.861 61.017 109.219 61.3796 109.496C61.753 109.773 62.2383 109.912 62.8356 109.912C63.3903 109.912 63.8276 109.789 64.1476 109.544C64.4676 109.299 64.6276 108.989 64.6276 108.616C64.6276 108.232 64.457 107.949 64.1156 107.768C63.7743 107.576 63.2463 107.389 62.5316 107.208C61.881 107.037 61.3476 106.867 60.9316 106.696C60.5263 106.515 60.1743 106.253 59.8756 105.912C59.5876 105.56 59.4436 105.101 59.4436 104.536C59.4436 104.088 59.577 103.677 59.8436 103.304C60.1103 102.931 60.489 102.637 60.9796 102.424C61.4703 102.2 62.0303 102.088 62.6596 102.088C63.6303 102.088 64.4143 102.333 65.0116 102.824C65.609 103.315 65.929 103.987 65.9716 104.84H64.5156C64.4836 104.381 64.297 104.013 63.9556 103.736C63.625 103.459 63.177 103.32 62.6116 103.32C62.089 103.32 61.673 103.432 61.3636 103.656C61.0543 103.88 60.8996 104.173 60.8996 104.536C60.8996 104.824 60.9903 105.064 61.1716 105.256C61.3636 105.437 61.5983 105.587 61.8756 105.704C62.1636 105.811 62.5583 105.933 63.0596 106.072C63.689 106.243 64.201 106.413 64.5956 106.584C64.9903 106.744 65.3263 106.989 65.6036 107.32C65.8916 107.651 66.041 108.083 66.0516 108.616C66.0516 109.096 65.9183 109.528 65.6516 109.912C65.385 110.296 65.0063 110.6 64.5156 110.824C64.0356 111.037 63.481 111.144 62.8516 111.144ZM76.107 106.28C76.107 106.557 76.091 106.851 76.059 107.16H69.051C69.1043 108.024 69.3977 108.701 69.931 109.192C70.475 109.672 71.131 109.912 71.899 109.912C72.5283 109.912 73.051 109.768 73.467 109.48C73.8937 109.181 74.1923 108.787 74.363 108.296H75.931C75.6963 109.139 75.227 109.827 74.523 110.36C73.819 110.883 72.9443 111.144 71.899 111.144C71.067 111.144 70.3203 110.957 69.659 110.584C69.0083 110.211 68.4963 109.683 68.123 109C67.7497 108.307 67.563 107.507 67.563 106.6C67.563 105.693 67.7443 104.899 68.107 104.216C68.4697 103.533 68.9763 103.011 69.627 102.648C70.2883 102.275 71.0457 102.088 71.899 102.088C72.731 102.088 73.467 102.269 74.107 102.632C74.747 102.995 75.2377 103.496 75.579 104.136C75.931 104.765 76.107 105.48 76.107 106.28ZM74.603 105.976C74.603 105.421 74.4803 104.947 74.235 104.552C73.9897 104.147 73.6537 103.843 73.227 103.64C72.811 103.427 72.347 103.32 71.835 103.32C71.099 103.32 70.4697 103.555 69.947 104.024C69.435 104.493 69.1417 105.144 69.067 105.976H74.603ZM81.7505 106.584C81.7505 105.688 81.9318 104.904 82.2945 104.232C82.6572 103.549 83.1532 103.021 83.7825 102.648C84.4225 102.275 85.1318 102.088 85.9105 102.088C86.6785 102.088 87.3452 102.253 87.9105 102.584C88.4758 102.915 88.8972 103.331 89.1745 103.832V102.232H90.6465V111H89.1745V109.368C88.8865 109.88 88.4545 110.307 87.8785 110.648C87.3132 110.979 86.6518 111.144 85.8945 111.144C85.1158 111.144 84.4118 110.952 83.7825 110.568C83.1532 110.184 82.6572 109.645 82.2945 108.952C81.9318 108.259 81.7505 107.469 81.7505 106.584ZM89.1745 106.6C89.1745 105.939 89.0412 105.363 88.7745 104.872C88.5078 104.381 88.1452 104.008 87.6865 103.752C87.2385 103.485 86.7425 103.352 86.1985 103.352C85.6545 103.352 85.1585 103.48 84.7105 103.736C84.2625 103.992 83.9052 104.365 83.6385 104.856C83.3718 105.347 83.2385 105.923 83.2385 106.584C83.2385 107.256 83.3718 107.843 83.6385 108.344C83.9052 108.835 84.2625 109.213 84.7105 109.48C85.1585 109.736 85.6545 109.864 86.1985 109.864C86.7425 109.864 87.2385 109.736 87.6865 109.48C88.1452 109.213 88.5078 108.835 88.7745 108.344C89.0412 107.843 89.1745 107.261 89.1745 106.6ZM97.379 102.072C98.4457 102.072 99.3097 102.397 99.971 103.048C100.632 103.688 100.963 104.616 100.963 105.832V111H99.523V106.04C99.523 105.165 99.3043 104.499 98.867 104.04C98.4297 103.571 97.8323 103.336 97.075 103.336C96.307 103.336 95.6937 103.576 95.235 104.056C94.787 104.536 94.563 105.235 94.563 106.152V111H93.107V102.232H94.563V103.48C94.851 103.032 95.2403 102.685 95.731 102.44C96.2323 102.195 96.7817 102.072 97.379 102.072ZM102.797 106.584C102.797 105.688 102.979 104.904 103.341 104.232C103.704 103.549 104.2 103.021 104.829 102.648C105.469 102.275 106.184 102.088 106.973 102.088C107.656 102.088 108.291 102.248 108.877 102.568C109.464 102.877 109.912 103.288 110.221 103.8V99.16H111.693V111H110.221V109.352C109.933 109.875 109.507 110.307 108.941 110.648C108.376 110.979 107.715 111.144 106.957 111.144C106.179 111.144 105.469 110.952 104.829 110.568C104.2 110.184 103.704 109.645 103.341 108.952C102.979 108.259 102.797 107.469 102.797 106.584ZM110.221 106.6C110.221 105.939 110.088 105.363 109.821 104.872C109.555 104.381 109.192 104.008 108.733 103.752C108.285 103.485 107.789 103.352 107.245 103.352C106.701 103.352 106.205 103.48 105.757 103.736C105.309 103.992 104.952 104.365 104.685 104.856C104.419 105.347 104.285 105.923 104.285 106.584C104.285 107.256 104.419 107.843 104.685 108.344C104.952 108.835 105.309 109.213 105.757 109.48C106.205 109.736 106.701 109.864 107.245 109.864C107.789 109.864 108.285 109.736 108.733 109.48C109.192 109.213 109.555 108.835 109.821 108.344C110.088 107.843 110.221 107.261 110.221 106.6ZM119.876 103.864C120.174 103.341 120.612 102.915 121.188 102.584C121.764 102.253 122.42 102.088 123.156 102.088C123.945 102.088 124.654 102.275 125.284 102.648C125.913 103.021 126.409 103.549 126.772 104.232C127.134 104.904 127.316 105.688 127.316 106.584C127.316 107.469 127.134 108.259 126.772 108.952C126.409 109.645 125.907 110.184 125.267 110.568C124.638 110.952 123.934 111.144 123.156 111.144C122.398 111.144 121.732 110.979 121.156 110.648C120.59 110.317 120.164 109.896 119.876 109.384V111H118.42V99.16H119.876V103.864ZM125.828 106.584C125.828 105.923 125.694 105.347 125.428 104.856C125.161 104.365 124.798 103.992 124.34 103.736C123.892 103.48 123.396 103.352 122.852 103.352C122.318 103.352 121.822 103.485 121.364 103.752C120.916 104.008 120.553 104.387 120.276 104.888C120.009 105.379 119.876 105.949 119.876 106.6C119.876 107.261 120.009 107.843 120.276 108.344C120.553 108.835 120.916 109.213 121.364 109.48C121.822 109.736 122.318 109.864 122.852 109.864C123.396 109.864 123.892 109.736 124.34 109.48C124.798 109.213 125.161 108.835 125.428 108.344C125.694 107.843 125.828 107.256 125.828 106.584ZM137.008 102.232V111H135.552V109.704C135.275 110.152 134.885 110.504 134.384 110.76C133.893 111.005 133.349 111.128 132.752 111.128C132.069 111.128 131.456 110.989 130.912 110.712C130.368 110.424 129.936 109.997 129.616 109.432C129.307 108.867 129.152 108.179 129.152 107.368V102.232H130.592V107.176C130.592 108.04 130.811 108.707 131.248 109.176C131.685 109.635 132.283 109.864 133.04 109.864C133.819 109.864 134.432 109.624 134.88 109.144C135.328 108.664 135.552 107.965 135.552 107.048V102.232H137.008ZM140.218 100.808C139.941 100.808 139.706 100.712 139.514 100.52C139.322 100.328 139.226 100.093 139.226 99.816C139.226 99.5387 139.322 99.304 139.514 99.112C139.706 98.92 139.941 98.824 140.218 98.824C140.485 98.824 140.709 98.92 140.89 99.112C141.082 99.304 141.178 99.5387 141.178 99.816C141.178 100.093 141.082 100.328 140.89 100.52C140.709 100.712 140.485 100.808 140.218 100.808ZM140.922 102.232V111H139.466V102.232H140.922ZM144.86 99.16V111H143.404V99.16H144.86ZM146.797 106.584C146.797 105.688 146.979 104.904 147.341 104.232C147.704 103.549 148.2 103.021 148.829 102.648C149.469 102.275 150.184 102.088 150.973 102.088C151.656 102.088 152.291 102.248 152.877 102.568C153.464 102.877 153.912 103.288 154.221 103.8V99.16H155.693V111H154.221V109.352C153.933 109.875 153.507 110.307 152.941 110.648C152.376 110.979 151.715 111.144 150.957 111.144C150.179 111.144 149.469 110.952 148.829 110.568C148.2 110.184 147.704 109.645 147.341 108.952C146.979 108.259 146.797 107.469 146.797 106.584ZM154.221 106.6C154.221 105.939 154.088 105.363 153.821 104.872C153.555 104.381 153.192 104.008 152.733 103.752C152.285 103.485 151.789 103.352 151.245 103.352C150.701 103.352 150.205 103.48 149.757 103.736C149.309 103.992 148.952 104.365 148.685 104.856C148.419 105.347 148.285 105.923 148.285 106.584C148.285 107.256 148.419 107.843 148.685 108.344C148.952 108.835 149.309 109.213 149.757 109.48C150.205 109.736 150.701 109.864 151.245 109.864C151.789 109.864 152.285 109.736 152.733 109.48C153.192 109.213 153.555 108.835 153.821 108.344C154.088 107.843 154.221 107.261 154.221 106.6ZM169.972 102.232L164.692 115.128H163.188L164.916 110.904L161.38 102.232H162.996L165.748 109.336L168.468 102.232H169.972ZM175.259 111.144C174.438 111.144 173.691 110.957 173.019 110.584C172.358 110.211 171.835 109.683 171.451 109C171.078 108.307 170.891 107.507 170.891 106.6C170.891 105.704 171.083 104.915 171.467 104.232C171.862 103.539 172.395 103.011 173.067 102.648C173.739 102.275 174.491 102.088 175.323 102.088C176.155 102.088 176.907 102.275 177.579 102.648C178.251 103.011 178.779 103.533 179.163 104.216C179.558 104.899 179.755 105.693 179.755 106.6C179.755 107.507 179.552 108.307 179.147 109C178.752 109.683 178.214 110.211 177.531 110.584C176.848 110.957 176.091 111.144 175.259 111.144ZM175.259 109.864C175.782 109.864 176.272 109.741 176.731 109.496C177.19 109.251 177.558 108.883 177.835 108.392C178.123 107.901 178.267 107.304 178.267 106.6C178.267 105.896 178.128 105.299 177.851 104.808C177.574 104.317 177.211 103.955 176.763 103.72C176.315 103.475 175.83 103.352 175.307 103.352C174.774 103.352 174.283 103.475 173.835 103.72C173.398 103.955 173.046 104.317 172.779 104.808C172.512 105.299 172.379 105.896 172.379 106.6C172.379 107.315 172.507 107.917 172.763 108.408C173.03 108.899 173.382 109.267 173.819 109.512C174.256 109.747 174.736 109.864 175.259 109.864ZM189.446 102.232V111H187.99V109.704C187.712 110.152 187.323 110.504 186.822 110.76C186.331 111.005 185.787 111.128 185.19 111.128C184.507 111.128 183.894 110.989 183.35 110.712C182.806 110.424 182.374 109.997 182.054 109.432C181.744 108.867 181.59 108.179 181.59 107.368V102.232H183.03V107.176C183.03 108.04 183.248 108.707 183.686 109.176C184.123 109.635 184.72 109.864 185.478 109.864C186.256 109.864 186.87 109.624 187.318 109.144C187.766 108.664 187.99 107.965 187.99 107.048V102.232H189.446ZM193.36 103.656C193.616 103.155 193.979 102.765 194.448 102.488C194.928 102.211 195.509 102.072 196.192 102.072V103.576H195.808C194.176 103.576 193.36 104.461 193.36 106.232V111H191.904V102.232H193.36V103.656ZM201.594 106.6C201.594 105.693 201.776 104.904 202.138 104.232C202.501 103.549 203.002 103.021 203.642 102.648C204.293 102.275 205.034 102.088 205.866 102.088C206.944 102.088 207.829 102.349 208.522 102.872C209.226 103.395 209.69 104.12 209.914 105.048H208.346C208.197 104.515 207.904 104.093 207.466 103.784C207.04 103.475 206.506 103.32 205.866 103.32C205.034 103.32 204.362 103.608 203.85 104.184C203.338 104.749 203.082 105.555 203.082 106.6C203.082 107.656 203.338 108.472 203.85 109.048C204.362 109.624 205.034 109.912 205.866 109.912C206.506 109.912 207.04 109.763 207.466 109.464C207.893 109.165 208.186 108.739 208.346 108.184H209.914C209.68 109.08 209.21 109.8 208.506 110.344C207.802 110.877 206.922 111.144 205.866 111.144C205.034 111.144 204.293 110.957 203.642 110.584C203.002 110.211 202.501 109.683 202.138 109C201.776 108.317 201.594 107.517 201.594 106.6ZM215.681 111.144C214.86 111.144 214.113 110.957 213.441 110.584C212.78 110.211 212.257 109.683 211.873 109C211.5 108.307 211.313 107.507 211.313 106.6C211.313 105.704 211.505 104.915 211.889 104.232C212.284 103.539 212.817 103.011 213.489 102.648C214.161 102.275 214.913 102.088 215.745 102.088C216.577 102.088 217.329 102.275 218.001 102.648C218.673 103.011 219.201 103.533 219.585 104.216C219.98 104.899 220.177 105.693 220.177 106.6C220.177 107.507 219.974 108.307 219.569 109C219.174 109.683 218.636 110.211 217.953 110.584C217.27 110.957 216.513 111.144 215.681 111.144ZM215.681 109.864C216.204 109.864 216.694 109.741 217.153 109.496C217.612 109.251 217.98 108.883 218.257 108.392C218.545 107.901 218.689 107.304 218.689 106.6C218.689 105.896 218.55 105.299 218.273 104.808C217.996 104.317 217.633 103.955 217.185 103.72C216.737 103.475 216.252 103.352 215.729 103.352C215.196 103.352 214.705 103.475 214.257 103.72C213.82 103.955 213.468 104.317 213.201 104.808C212.934 105.299 212.801 105.896 212.801 106.6C212.801 107.315 212.929 107.917 213.185 108.408C213.452 108.899 213.804 109.267 214.241 109.512C214.678 109.747 215.158 109.864 215.681 109.864ZM223.547 99.16V111H222.091V99.16H223.547ZM227.485 99.16V111H226.029V99.16H227.485ZM237.966 106.28C237.966 106.557 237.95 106.851 237.918 107.16H230.91C230.964 108.024 231.257 108.701 231.79 109.192C232.334 109.672 232.99 109.912 233.758 109.912C234.388 109.912 234.91 109.768 235.326 109.48C235.753 109.181 236.052 108.787 236.222 108.296H237.79C237.556 109.139 237.086 109.827 236.382 110.36C235.678 110.883 234.804 111.144 233.758 111.144C232.926 111.144 232.18 110.957 231.518 110.584C230.868 110.211 230.356 109.683 229.982 109C229.609 108.307 229.422 107.507 229.422 106.6C229.422 105.693 229.604 104.899 229.966 104.216C230.329 103.533 230.836 103.011 231.486 102.648C232.148 102.275 232.905 102.088 233.758 102.088C234.59 102.088 235.326 102.269 235.966 102.632C236.606 102.995 237.097 103.496 237.438 104.136C237.79 104.765 237.966 105.48 237.966 106.28ZM236.462 105.976C236.462 105.421 236.34 104.947 236.094 104.552C235.849 104.147 235.513 103.843 235.086 103.64C234.67 103.427 234.206 103.32 233.694 103.32C232.958 103.32 232.329 103.555 231.806 104.024C231.294 104.493 231.001 105.144 230.926 105.976H236.462ZM239.344 106.6C239.344 105.693 239.526 104.904 239.888 104.232C240.251 103.549 240.752 103.021 241.392 102.648C242.043 102.275 242.784 102.088 243.616 102.088C244.694 102.088 245.579 102.349 246.272 102.872C246.976 103.395 247.44 104.12 247.664 105.048H246.096C245.947 104.515 245.654 104.093 245.216 103.784C244.79 103.475 244.256 103.32 243.616 103.32C242.784 103.32 242.112 103.608 241.6 104.184C241.088 104.749 240.832 105.555 240.832 106.6C240.832 107.656 241.088 108.472 241.6 109.048C242.112 109.624 242.784 109.912 243.616 109.912C244.256 109.912 244.79 109.763 245.216 109.464C245.643 109.165 245.936 108.739 246.096 108.184H247.664C247.43 109.08 246.96 109.8 246.256 110.344C245.552 110.877 244.672 111.144 243.616 111.144C242.784 111.144 242.043 110.957 241.392 110.584C240.752 110.211 240.251 109.683 239.888 109C239.526 108.317 239.344 107.517 239.344 106.6ZM251.383 103.432V108.6C251.383 109.027 251.474 109.331 251.655 109.512C251.836 109.683 252.151 109.768 252.599 109.768H253.671V111H252.359C251.548 111 250.94 110.813 250.535 110.44C250.13 110.067 249.927 109.453 249.927 108.6V103.432H248.791V102.232H249.927V100.024H251.383V102.232H253.671V103.432H251.383ZM256.187 100.808C255.91 100.808 255.675 100.712 255.483 100.52C255.291 100.328 255.195 100.093 255.195 99.816C255.195 99.5387 255.291 99.304 255.483 99.112C255.675 98.92 255.91 98.824 256.187 98.824C256.454 98.824 256.678 98.92 256.859 99.112C257.051 99.304 257.147 99.5387 257.147 99.816C257.147 100.093 257.051 100.328 256.859 100.52C256.678 100.712 256.454 100.808 256.187 100.808ZM256.891 102.232V111H255.435V102.232H256.891ZM263.197 111.144C262.375 111.144 261.629 110.957 260.957 110.584C260.295 110.211 259.773 109.683 259.389 109C259.015 108.307 258.829 107.507 258.829 106.6C258.829 105.704 259.021 104.915 259.405 104.232C259.799 103.539 260.333 103.011 261.005 102.648C261.677 102.275 262.429 102.088 263.261 102.088C264.093 102.088 264.845 102.275 265.517 102.648C266.189 103.011 266.717 103.533 267.101 104.216C267.495 104.899 267.693 105.693 267.693 106.6C267.693 107.507 267.49 108.307 267.085 109C266.69 109.683 266.151 110.211 265.469 110.584C264.786 110.957 264.029 111.144 263.197 111.144ZM263.197 109.864C263.719 109.864 264.21 109.741 264.669 109.496C265.127 109.251 265.495 108.883 265.773 108.392C266.061 107.901 266.205 107.304 266.205 106.6C266.205 105.896 266.066 105.299 265.789 104.808C265.511 104.317 265.149 103.955 264.701 103.72C264.253 103.475 263.767 103.352 263.245 103.352C262.711 103.352 262.221 103.475 261.773 103.72C261.335 103.955 260.983 104.317 260.717 104.808C260.45 105.299 260.317 105.896 260.317 106.6C260.317 107.315 260.445 107.917 260.701 108.408C260.967 108.899 261.319 109.267 261.757 109.512C262.194 109.747 262.674 109.864 263.197 109.864ZM273.879 102.072C274.946 102.072 275.81 102.397 276.471 103.048C277.132 103.688 277.463 104.616 277.463 105.832V111H276.023V106.04C276.023 105.165 275.804 104.499 275.367 104.04C274.93 103.571 274.332 103.336 273.575 103.336C272.807 103.336 272.194 103.576 271.735 104.056C271.287 104.536 271.063 105.235 271.063 106.152V111H269.607V102.232H271.063V103.48C271.351 103.032 271.74 102.685 272.231 102.44C272.732 102.195 273.282 102.072 273.879 102.072ZM287.931 111.144C287.11 111.144 286.363 110.957 285.691 110.584C285.03 110.211 284.507 109.683 284.123 109C283.75 108.307 283.563 107.507 283.563 106.6C283.563 105.704 283.755 104.915 284.139 104.232C284.534 103.539 285.067 103.011 285.739 102.648C286.411 102.275 287.163 102.088 287.995 102.088C288.827 102.088 289.579 102.275 290.251 102.648C290.923 103.011 291.451 103.533 291.835 104.216C292.23 104.899 292.427 105.693 292.427 106.6C292.427 107.507 292.224 108.307 291.819 109C291.424 109.683 290.886 110.211 290.203 110.584C289.52 110.957 288.763 111.144 287.931 111.144ZM287.931 109.864C288.454 109.864 288.944 109.741 289.403 109.496C289.862 109.251 290.23 108.883 290.507 108.392C290.795 107.901 290.939 107.304 290.939 106.6C290.939 105.896 290.8 105.299 290.523 104.808C290.246 104.317 289.883 103.955 289.435 103.72C288.987 103.475 288.502 103.352 287.979 103.352C287.446 103.352 286.955 103.475 286.507 103.72C286.07 103.955 285.718 104.317 285.451 104.808C285.184 105.299 285.051 105.896 285.051 106.6C285.051 107.315 285.179 107.917 285.435 108.408C285.702 108.899 286.054 109.267 286.491 109.512C286.928 109.747 287.408 109.864 287.931 109.864ZM297.909 103.432H296.069V111H294.613V103.432H293.477V102.232H294.613V101.608C294.613 100.627 294.864 99.912 295.365 99.464C295.877 99.0053 296.693 98.776 297.813 98.776V99.992C297.173 99.992 296.72 100.12 296.453 100.376C296.197 100.621 296.069 101.032 296.069 101.608V102.232H297.909V103.432ZM305.649 103.432V108.6C305.649 109.027 305.739 109.331 305.921 109.512C306.102 109.683 306.417 109.768 306.865 109.768H307.937V111H306.625C305.814 111 305.206 110.813 304.801 110.44C304.395 110.067 304.193 109.453 304.193 108.6V103.432H303.057V102.232H304.193V100.024H305.649V102.232H307.937V103.432H305.649ZM314.053 102.072C314.714 102.072 315.311 102.216 315.845 102.504C316.378 102.781 316.794 103.203 317.093 103.768C317.402 104.333 317.557 105.021 317.557 105.832V111H316.117V106.04C316.117 105.165 315.898 104.499 315.461 104.04C315.023 103.571 314.426 103.336 313.669 103.336C312.901 103.336 312.287 103.576 311.829 104.056C311.381 104.536 311.157 105.235 311.157 106.152V111H309.701V99.16H311.157V103.48C311.445 103.032 311.839 102.685 312.341 102.44C312.853 102.195 313.423 102.072 314.053 102.072ZM327.935 106.28C327.935 106.557 327.919 106.851 327.887 107.16H320.879C320.932 108.024 321.226 108.701 321.759 109.192C322.303 109.672 322.959 109.912 323.727 109.912C324.356 109.912 324.879 109.768 325.295 109.48C325.722 109.181 326.02 108.787 326.191 108.296H327.759C327.524 109.139 327.055 109.827 326.351 110.36C325.647 110.883 324.772 111.144 323.727 111.144C322.895 111.144 322.148 110.957 321.487 110.584C320.836 110.211 320.324 109.683 319.951 109C319.578 108.307 319.391 107.507 319.391 106.6C319.391 105.693 319.572 104.899 319.935 104.216C320.298 103.533 320.804 103.011 321.455 102.648C322.116 102.275 322.874 102.088 323.727 102.088C324.559 102.088 325.295 102.269 325.935 102.632C326.575 102.995 327.066 103.496 327.407 104.136C327.759 104.765 327.935 105.48 327.935 106.28ZM326.431 105.976C326.431 105.421 326.308 104.947 326.063 104.552C325.818 104.147 325.482 103.843 325.055 103.64C324.639 103.427 324.175 103.32 323.663 103.32C322.927 103.32 322.298 103.555 321.775 104.024C321.263 104.493 320.97 105.144 320.895 105.976H326.431ZM94.0683 128.232L91.3323 137H89.8283L87.7163 130.04L85.6043 137H84.1003L81.3483 128.232H82.8363L84.8523 135.592L87.0283 128.232H88.5163L90.6443 135.608L92.6283 128.232H94.0683ZM99.3373 137.144C98.5159 137.144 97.7693 136.957 97.0973 136.584C96.4359 136.211 95.9133 135.683 95.5293 135C95.1559 134.307 94.9693 133.507 94.9693 132.6C94.9693 131.704 95.1613 130.915 95.5453 130.232C95.9399 129.539 96.4733 129.011 97.1453 128.648C97.8173 128.275 98.5693 128.088 99.4013 128.088C100.233 128.088 100.985 128.275 101.657 128.648C102.329 129.011 102.857 129.533 103.241 130.216C103.636 130.899 103.833 131.693 103.833 132.6C103.833 133.507 103.631 134.307 103.225 135C102.831 135.683 102.292 136.211 101.609 136.584C100.927 136.957 100.169 137.144 99.3373 137.144ZM99.3373 135.864C99.8599 135.864 100.351 135.741 100.809 135.496C101.268 135.251 101.636 134.883 101.913 134.392C102.201 133.901 102.345 133.304 102.345 132.6C102.345 131.896 102.207 131.299 101.929 130.808C101.652 130.317 101.289 129.955 100.841 129.72C100.393 129.475 99.9079 129.352 99.3853 129.352C98.8519 129.352 98.3613 129.475 97.9133 129.72C97.4759 129.955 97.1239 130.317 96.8573 130.808C96.5906 131.299 96.4573 131.896 96.4573 132.6C96.4573 133.315 96.5853 133.917 96.8413 134.408C97.1079 134.899 97.4599 135.267 97.8973 135.512C98.3346 135.747 98.8146 135.864 99.3373 135.864ZM107.204 129.656C107.46 129.155 107.822 128.765 108.292 128.488C108.772 128.211 109.353 128.072 110.036 128.072V129.576H109.652C108.02 129.576 107.204 130.461 107.204 132.232V137H105.748V128.232H107.204V129.656ZM113.172 125.16V137H111.716V125.16H113.172ZM115.11 132.584C115.11 131.688 115.291 130.904 115.654 130.232C116.017 129.549 116.513 129.021 117.142 128.648C117.782 128.275 118.497 128.088 119.286 128.088C119.969 128.088 120.603 128.248 121.19 128.568C121.777 128.877 122.225 129.288 122.534 129.8V125.16H124.006V137H122.534V135.352C122.246 135.875 121.819 136.307 121.254 136.648C120.689 136.979 120.027 137.144 119.27 137.144C118.491 137.144 117.782 136.952 117.142 136.568C116.513 136.184 116.017 135.645 115.654 134.952C115.291 134.259 115.11 133.469 115.11 132.584ZM122.534 132.6C122.534 131.939 122.401 131.363 122.134 130.872C121.867 130.381 121.505 130.008 121.046 129.752C120.598 129.485 120.102 129.352 119.558 129.352C119.014 129.352 118.518 129.48 118.07 129.736C117.622 129.992 117.265 130.365 116.998 130.856C116.731 131.347 116.598 131.923 116.598 132.584C116.598 133.256 116.731 133.843 116.998 134.344C117.265 134.835 117.622 135.213 118.07 135.48C118.518 135.736 119.014 135.864 119.558 135.864C120.102 135.864 120.598 135.736 121.046 135.48C121.505 135.213 121.867 134.835 122.134 134.344C122.401 133.843 122.534 133.261 122.534 132.6ZM126.69 125.848H128.306L126.77 129.48H125.746L126.69 125.848ZM133.07 137.144C132.398 137.144 131.796 137.032 131.262 136.808C130.729 136.573 130.308 136.253 129.998 135.848C129.689 135.432 129.518 134.957 129.486 134.424H130.99C131.033 134.861 131.236 135.219 131.598 135.496C131.972 135.773 132.457 135.912 133.054 135.912C133.609 135.912 134.046 135.789 134.366 135.544C134.686 135.299 134.846 134.989 134.846 134.616C134.846 134.232 134.676 133.949 134.334 133.768C133.993 133.576 133.465 133.389 132.75 133.208C132.1 133.037 131.566 132.867 131.15 132.696C130.745 132.515 130.393 132.253 130.094 131.912C129.806 131.56 129.662 131.101 129.662 130.536C129.662 130.088 129.796 129.677 130.062 129.304C130.329 128.931 130.708 128.637 131.198 128.424C131.689 128.2 132.249 128.088 132.878 128.088C133.849 128.088 134.633 128.333 135.23 128.824C135.828 129.315 136.148 129.987 136.19 130.84H134.734C134.702 130.381 134.516 130.013 134.174 129.736C133.844 129.459 133.396 129.32 132.83 129.32C132.308 129.32 131.892 129.432 131.582 129.656C131.273 129.88 131.118 130.173 131.118 130.536C131.118 130.824 131.209 131.064 131.39 131.256C131.582 131.437 131.817 131.587 132.094 131.704C132.382 131.811 132.777 131.933 133.278 132.072C133.908 132.243 134.42 132.413 134.814 132.584C135.209 132.744 135.545 132.989 135.822 133.32C136.11 133.651 136.26 134.083 136.27 134.616C136.27 135.096 136.137 135.528 135.87 135.912C135.604 136.296 135.225 136.6 134.734 136.824C134.254 137.037 133.7 137.144 133.07 137.144ZM153.135 128.072C153.818 128.072 154.426 128.216 154.959 128.504C155.493 128.781 155.914 129.203 156.223 129.768C156.533 130.333 156.687 131.021 156.687 131.832V137H155.247V132.04C155.247 131.165 155.029 130.499 154.591 130.04C154.165 129.571 153.583 129.336 152.847 129.336C152.09 129.336 151.487 129.581 151.039 130.072C150.591 130.552 150.367 131.251 150.367 132.168V137H148.927V132.04C148.927 131.165 148.709 130.499 148.271 130.04C147.845 129.571 147.263 129.336 146.527 129.336C145.77 129.336 145.167 129.581 144.719 130.072C144.271 130.552 144.047 131.251 144.047 132.168V137H142.591V128.232H144.047V129.496C144.335 129.037 144.719 128.685 145.199 128.44C145.69 128.195 146.229 128.072 146.815 128.072C147.551 128.072 148.202 128.237 148.767 128.568C149.333 128.899 149.754 129.384 150.031 130.024C150.277 129.405 150.682 128.925 151.247 128.584C151.813 128.243 152.442 128.072 153.135 128.072ZM162.9 137.144C162.078 137.144 161.332 136.957 160.66 136.584C159.998 136.211 159.476 135.683 159.092 135C158.718 134.307 158.532 133.507 158.532 132.6C158.532 131.704 158.724 130.915 159.108 130.232C159.502 129.539 160.036 129.011 160.708 128.648C161.38 128.275 162.132 128.088 162.964 128.088C163.796 128.088 164.548 128.275 165.22 128.648C165.892 129.011 166.42 129.533 166.804 130.216C167.198 130.899 167.396 131.693 167.396 132.6C167.396 133.507 167.193 134.307 166.788 135C166.393 135.683 165.854 136.211 165.172 136.584C164.489 136.957 163.732 137.144 162.9 137.144ZM162.9 135.864C163.422 135.864 163.913 135.741 164.372 135.496C164.83 135.251 165.198 134.883 165.476 134.392C165.764 133.901 165.908 133.304 165.908 132.6C165.908 131.896 165.769 131.299 165.492 130.808C165.214 130.317 164.852 129.955 164.404 129.72C163.956 129.475 163.47 129.352 162.948 129.352C162.414 129.352 161.924 129.475 161.476 129.72C161.038 129.955 160.686 130.317 160.42 130.808C160.153 131.299 160.02 131.896 160.02 132.6C160.02 133.315 160.148 133.917 160.404 134.408C160.67 134.899 161.022 135.267 161.46 135.512C161.897 135.747 162.377 135.864 162.9 135.864ZM172.414 137.144C171.742 137.144 171.139 137.032 170.606 136.808C170.073 136.573 169.651 136.253 169.342 135.848C169.033 135.432 168.862 134.957 168.83 134.424H170.334C170.377 134.861 170.579 135.219 170.942 135.496C171.315 135.773 171.801 135.912 172.398 135.912C172.953 135.912 173.39 135.789 173.71 135.544C174.03 135.299 174.19 134.989 174.19 134.616C174.19 134.232 174.019 133.949 173.678 133.768C173.337 133.576 172.809 133.389 172.094 133.208C171.443 133.037 170.91 132.867 170.494 132.696C170.089 132.515 169.737 132.253 169.438 131.912C169.15 131.56 169.006 131.101 169.006 130.536C169.006 130.088 169.139 129.677 169.406 129.304C169.673 128.931 170.051 128.637 170.542 128.424C171.033 128.2 171.593 128.088 172.222 128.088C173.193 128.088 173.977 128.333 174.574 128.824C175.171 129.315 175.491 129.987 175.534 130.84H174.078C174.046 130.381 173.859 130.013 173.518 129.736C173.187 129.459 172.739 129.32 172.174 129.32C171.651 129.32 171.235 129.432 170.926 129.656C170.617 129.88 170.462 130.173 170.462 130.536C170.462 130.824 170.553 131.064 170.734 131.256C170.926 131.437 171.161 131.587 171.438 131.704C171.726 131.811 172.121 131.933 172.622 132.072C173.251 132.243 173.763 132.413 174.158 132.584C174.553 132.744 174.889 132.989 175.166 133.32C175.454 133.651 175.603 134.083 175.614 134.616C175.614 135.096 175.481 135.528 175.214 135.912C174.947 136.296 174.569 136.6 174.078 136.824C173.598 137.037 173.043 137.144 172.414 137.144ZM179.446 129.432V134.6C179.446 135.027 179.536 135.331 179.718 135.512C179.899 135.683 180.214 135.768 180.661 135.768H181.734V137H180.422C179.611 137 179.003 136.813 178.598 136.44C178.192 136.067 177.99 135.453 177.99 134.6V129.432H176.854V128.232H177.99V126.024H179.446V128.232H181.734V129.432H179.446ZM187.219 132.584C187.219 131.688 187.401 130.904 187.763 130.232C188.126 129.549 188.622 129.021 189.251 128.648C189.891 128.275 190.606 128.088 191.395 128.088C192.078 128.088 192.713 128.248 193.299 128.568C193.886 128.877 194.334 129.288 194.643 129.8V125.16H196.115V137H194.643V135.352C194.355 135.875 193.929 136.307 193.363 136.648C192.798 136.979 192.137 137.144 191.379 137.144C190.601 137.144 189.891 136.952 189.251 136.568C188.622 136.184 188.126 135.645 187.763 134.952C187.401 134.259 187.219 133.469 187.219 132.584ZM194.643 132.6C194.643 131.939 194.51 131.363 194.243 130.872C193.977 130.381 193.614 130.008 193.155 129.752C192.707 129.485 192.211 129.352 191.667 129.352C191.123 129.352 190.627 129.48 190.179 129.736C189.731 129.992 189.374 130.365 189.107 130.856C188.841 131.347 188.707 131.923 188.707 132.584C188.707 133.256 188.841 133.843 189.107 134.344C189.374 134.835 189.731 135.213 190.179 135.48C190.627 135.736 191.123 135.864 191.667 135.864C192.211 135.864 192.707 135.736 193.155 135.48C193.614 135.213 193.977 134.835 194.243 134.344C194.51 133.843 194.643 133.261 194.643 132.6ZM199.328 126.808C199.05 126.808 198.816 126.712 198.624 126.52C198.432 126.328 198.336 126.093 198.336 125.816C198.336 125.539 198.432 125.304 198.624 125.112C198.816 124.92 199.05 124.824 199.328 124.824C199.594 124.824 199.818 124.92 200 125.112C200.192 125.304 200.288 125.539 200.288 125.816C200.288 126.093 200.192 126.328 200 126.52C199.818 126.712 199.594 126.808 199.328 126.808ZM200.032 128.232V137H198.576V128.232H200.032ZM206.129 128.088C206.887 128.088 207.548 128.253 208.113 128.584C208.689 128.915 209.116 129.331 209.393 129.832V128.232H210.865V137.192C210.865 137.992 210.695 138.701 210.353 139.32C210.012 139.949 209.521 140.44 208.881 140.792C208.252 141.144 207.516 141.32 206.673 141.32C205.521 141.32 204.561 141.048 203.793 140.504C203.025 139.96 202.572 139.219 202.433 138.28H203.873C204.033 138.813 204.364 139.24 204.865 139.56C205.367 139.891 205.969 140.056 206.673 140.056C207.473 140.056 208.124 139.805 208.625 139.304C209.137 138.803 209.393 138.099 209.393 137.192V135.352C209.105 135.864 208.679 136.291 208.113 136.632C207.548 136.973 206.887 137.144 206.129 137.144C205.351 137.144 204.641 136.952 204.001 136.568C203.372 136.184 202.876 135.645 202.513 134.952C202.151 134.259 201.969 133.469 201.969 132.584C201.969 131.688 202.151 130.904 202.513 130.232C202.876 129.549 203.372 129.021 204.001 128.648C204.641 128.275 205.351 128.088 206.129 128.088ZM209.393 132.6C209.393 131.939 209.26 131.363 208.993 130.872C208.727 130.381 208.364 130.008 207.905 129.752C207.457 129.485 206.961 129.352 206.417 129.352C205.873 129.352 205.377 129.48 204.929 129.736C204.481 129.992 204.124 130.365 203.857 130.856C203.591 131.347 203.457 131.923 203.457 132.584C203.457 133.256 203.591 133.843 203.857 134.344C204.124 134.835 204.481 135.213 204.929 135.48C205.377 135.736 205.873 135.864 206.417 135.864C206.961 135.864 207.457 135.736 207.905 135.48C208.364 135.213 208.727 134.835 208.993 134.344C209.26 133.843 209.393 133.261 209.393 132.6ZM214.078 126.808C213.8 126.808 213.566 126.712 213.374 126.52C213.182 126.328 213.086 126.093 213.086 125.816C213.086 125.539 213.182 125.304 213.374 125.112C213.566 124.92 213.8 124.824 214.078 124.824C214.344 124.824 214.568 124.92 214.75 125.112C214.942 125.304 215.038 125.539 215.038 125.816C215.038 126.093 214.942 126.328 214.75 126.52C214.568 126.712 214.344 126.808 214.078 126.808ZM214.782 128.232V137H213.326V128.232H214.782ZM219.039 129.432V134.6C219.039 135.027 219.13 135.331 219.311 135.512C219.493 135.683 219.807 135.768 220.255 135.768H221.327V137H220.015C219.205 137 218.597 136.813 218.191 136.44C217.786 136.067 217.583 135.453 217.583 134.6V129.432H216.447V128.232H217.583V126.024H219.039V128.232H221.327V129.432H219.039ZM222.547 132.584C222.547 131.688 222.729 130.904 223.091 130.232C223.454 129.549 223.95 129.021 224.579 128.648C225.219 128.275 225.929 128.088 226.707 128.088C227.475 128.088 228.142 128.253 228.707 128.584C229.273 128.915 229.694 129.331 229.971 129.832V128.232H231.443V137H229.971V135.368C229.683 135.88 229.251 136.307 228.675 136.648C228.11 136.979 227.449 137.144 226.691 137.144C225.913 137.144 225.209 136.952 224.579 136.568C223.95 136.184 223.454 135.645 223.091 134.952C222.729 134.259 222.547 133.469 222.547 132.584ZM229.971 132.6C229.971 131.939 229.838 131.363 229.571 130.872C229.305 130.381 228.942 130.008 228.483 129.752C228.035 129.485 227.539 129.352 226.995 129.352C226.451 129.352 225.955 129.48 225.507 129.736C225.059 129.992 224.702 130.365 224.435 130.856C224.169 131.347 224.035 131.923 224.035 132.584C224.035 133.256 224.169 133.843 224.435 134.344C224.702 134.835 225.059 135.213 225.507 135.48C225.955 135.736 226.451 135.864 226.995 135.864C227.539 135.864 228.035 135.736 228.483 135.48C228.942 135.213 229.305 134.835 229.571 134.344C229.838 133.843 229.971 133.261 229.971 132.6ZM235.36 125.16V137H233.904V125.16H235.36ZM241.563 132.584C241.563 131.688 241.744 130.904 242.107 130.232C242.47 129.549 242.966 129.021 243.595 128.648C244.235 128.275 244.944 128.088 245.723 128.088C246.491 128.088 247.158 128.253 247.723 128.584C248.288 128.915 248.71 129.331 248.987 129.832V128.232H250.459V137H248.987V135.368C248.699 135.88 248.267 136.307 247.691 136.648C247.126 136.979 246.464 137.144 245.707 137.144C244.928 137.144 244.224 136.952 243.595 136.568C242.966 136.184 242.47 135.645 242.107 134.952C241.744 134.259 241.563 133.469 241.563 132.584ZM248.987 132.6C248.987 131.939 248.854 131.363 248.587 130.872C248.32 130.381 247.958 130.008 247.499 129.752C247.051 129.485 246.555 129.352 246.011 129.352C245.467 129.352 244.971 129.48 244.523 129.736C244.075 129.992 243.718 130.365 243.451 130.856C243.184 131.347 243.051 131.923 243.051 132.584C243.051 133.256 243.184 133.843 243.451 134.344C243.718 134.835 244.075 135.213 244.523 135.48C244.971 135.736 245.467 135.864 246.011 135.864C246.555 135.864 247.051 135.736 247.499 135.48C247.958 135.213 248.32 134.835 248.587 134.344C248.854 133.843 248.987 133.261 248.987 132.6ZM254.376 129.656C254.632 129.155 254.994 128.765 255.464 128.488C255.944 128.211 256.525 128.072 257.208 128.072V129.576H256.824C255.192 129.576 254.376 130.461 254.376 132.232V137H252.92V128.232H254.376V129.656ZM260.664 129.432V134.6C260.664 135.027 260.755 135.331 260.936 135.512C261.118 135.683 261.432 135.768 261.88 135.768H262.952V137H261.64C260.83 137 260.222 136.813 259.816 136.44C259.411 136.067 259.208 135.453 259.208 134.6V129.432H258.072V128.232H259.208V126.024H260.664V128.232H262.952V129.432H260.664ZM265.18 137.096C264.903 137.096 264.668 137 264.476 136.808C264.284 136.616 264.188 136.381 264.188 136.104C264.188 135.827 264.284 135.592 264.476 135.4C264.668 135.208 264.903 135.112 265.18 135.112C265.447 135.112 265.671 135.208 265.852 135.4C266.044 135.592 266.14 135.827 266.14 136.104C266.14 136.381 266.044 136.616 265.852 136.808C265.671 137 265.447 137.096 265.18 137.096Z" fill="#494747"/>
</svg>
