<svg width="39" height="24" viewBox="0 0 39 24" fill="none" xmlns="http://www.w3.org/2000/svg">
<path d="M25.1696 2.56384H13.6278V21.415H25.1696V2.56384Z" fill="#FF5F00"/>
<path d="M14.8167 11.991C14.8153 10.1758 15.2268 8.3841 16.0201 6.75142C16.8133 5.11873 17.9676 3.68788 19.3955 2.56714C17.627 1.17727 15.5031 0.312994 13.2666 0.073088C11.0301 -0.166818 8.77127 0.227326 6.74819 1.21047C4.72512 2.19362 3.01945 3.72611 1.82614 5.63278C0.632821 7.53945 0 9.74339 0 11.9927C0 14.242 0.632821 16.446 1.82614 18.3526C3.01945 20.2593 4.72512 21.7918 6.74819 22.7749C8.77127 23.7581 11.0301 24.1522 13.2666 23.9123C15.5031 23.6724 17.627 22.8081 19.3955 21.4183C17.9671 20.2972 16.8126 18.8658 16.0193 17.2325C15.226 15.5992 14.8148 13.8068 14.8167 11.991Z" fill="#EB001B"/>
<path d="M37.6473 19.4203V19.034H37.8138V18.9541H37.4175V19.034H37.574V19.4203H37.6473ZM38.4165 19.4203V18.9541H38.2966L38.1567 19.2871L38.0169 18.9541H37.897V19.4203H37.9836V19.0673L38.1135 19.3704H38.2034L38.3332 19.0673V19.4203H38.4165Z" fill="#F79E1B"/>
<path d="M38.7928 11.9911C38.7927 14.2405 38.1597 16.4446 36.9662 18.3514C35.7727 20.2581 34.0668 21.7906 32.0434 22.7736C30.0201 23.7566 27.761 24.1505 25.5244 23.9102C23.2878 23.67 21.1639 22.8053 19.3955 21.415C20.8228 20.2932 21.9768 18.862 22.7703 17.2292C23.5637 15.5964 23.976 13.8048 23.976 11.9894C23.976 10.174 23.5637 8.38236 22.7703 6.74958C21.9768 5.11681 20.8228 3.68556 19.3955 2.56383C21.1639 1.17352 23.2878 0.308826 25.5244 0.0685752C27.761 -0.171676 30.0201 0.222215 32.0434 1.20522C34.0668 2.18823 35.7727 3.72069 36.9662 5.62743C38.1597 7.53417 38.7927 9.73825 38.7928 11.9877V11.9911Z" fill="#F79E1B"/>
</svg>
