<svg width="200" height="120" viewBox="0 0 200 120" fill="none" xmlns="http://www.w3.org/2000/svg">
<path d="M199.946 11.3311L200 108.576C200.006 114.829 194.647 119.905 188.042 119.911L12.0241 120.001C10.9261 120.001 9.85798 119.86 8.84951 119.594C3.78327 118.283 0.0596781 113.896 0.0537108 108.678L4.98453e-06 11.4328C-0.00596231 5.18044 5.3467 0.0982627 11.9585 0.0982627L187.982 0.0078125C190.339 0.0078125 192.553 0.657923 194.403 1.78855C197.738 3.78977 199.946 7.31167 199.946 11.3311Z" fill="url(#paint0_linear_1602_18743)"/>
<path opacity="0.53" d="M138.63 119.937L12.0223 119.999C10.9243 119.999 9.85613 119.857 8.84766 119.592L65.0119 66.3278C66.6887 64.7336 68.7355 63.7047 70.8897 63.2694C74.7445 62.4441 78.9634 63.4616 81.9709 66.3221L138.63 119.937Z" fill="url(#paint1_linear_1602_18743)"/>
<path opacity="0.53" d="M54.8693 43.4099L0.0477422 95.4019L4.97899e-06 11.4357C-0.00596232 5.17767 5.35267 0.101151 11.9525 0.0954981L26.0652 0.0898438L54.8633 27.3437C59.5536 31.7701 59.5596 38.9722 54.8693 43.4099Z" fill="url(#paint2_linear_1602_18743)"/>
<path opacity="0.53" d="M103.653 0.0429688L86.4369 16.3749C81.7585 20.8183 74.1562 20.8239 69.4778 16.3862L52.2383 0.071234L103.653 0.0429688Z" fill="url(#paint3_linear_1602_18743)"/>
<path opacity="0.53" d="M199.947 11.3289L199.994 98.1782C196.778 98.2969 193.514 97.2002 191.055 94.8654L118.225 25.9423C113.534 21.5102 113.528 14.3025 118.213 9.86474L128.584 0.0282653L187.976 0C190.333 0 192.547 0.650113 194.397 1.78074C197.739 3.78761 199.947 7.30952 199.947 11.3289Z" fill="url(#paint4_linear_1602_18743)"/>
<g clip-path="url(#clip0_1602_18743)">
<path d="M158.345 34.9427V33.1508C158.345 32.4654 157.925 32.0165 157.203 32.0165C156.843 32.0165 156.45 32.1348 156.181 32.5245C155.97 32.1975 155.669 32.0165 155.217 32.0165C154.916 32.0165 154.615 32.107 154.377 32.4341V32.0757H153.746V34.9427H154.377V33.3596C154.377 32.8516 154.646 32.6115 155.067 32.6115C155.487 32.6115 155.697 32.8794 155.697 33.3596V34.9427H156.328V33.3596C156.328 32.8516 156.629 32.6115 157.018 32.6115C157.438 32.6115 157.648 32.8794 157.648 33.3596V34.9427H158.345ZM167.698 32.0757H166.675V31.2093H166.044V32.0757H165.473V32.6428H166.044V33.958C166.044 34.6156 166.314 35.0018 167.036 35.0018C167.305 35.0018 167.607 34.9114 167.817 34.7931L167.635 34.2538C167.453 34.3721 167.242 34.4034 167.092 34.4034C166.791 34.4034 166.671 34.2225 166.671 33.9267V32.6428H167.694V32.0757H167.698ZM173.05 32.0131C172.689 32.0131 172.448 32.194 172.297 32.4306V32.0722H171.666V34.9392H172.297V33.3248C172.297 32.8481 172.507 32.5767 172.899 32.5767C173.019 32.5767 173.169 32.608 173.292 32.6359L173.474 32.0374C173.348 32.0131 173.169 32.0131 173.05 32.0131ZM164.962 32.3123C164.661 32.1035 164.24 32.0131 163.789 32.0131C163.067 32.0131 162.587 32.3714 162.587 32.9386C162.587 33.4152 162.948 33.6866 163.578 33.7736L163.88 33.8049C164.209 33.8641 164.391 33.9546 164.391 34.1042C164.391 34.3129 164.149 34.4625 163.729 34.4625C163.309 34.4625 162.976 34.3129 162.766 34.1633L162.465 34.64C162.794 34.8801 163.246 34.9984 163.698 34.9984C164.538 34.9984 165.022 34.6087 165.022 34.0728C165.022 33.5649 164.629 33.2969 164.03 33.2065L163.729 33.1752C163.459 33.1439 163.249 33.0847 163.249 32.9073C163.249 32.6985 163.459 32.5802 163.792 32.5802C164.153 32.5802 164.514 32.7298 164.696 32.8203L164.962 32.3123ZM181.737 32.0131C181.376 32.0131 181.135 32.194 180.984 32.4306V32.0722H180.353V34.9392H180.984V33.3248C180.984 32.8481 181.194 32.5767 181.586 32.5767C181.705 32.5767 181.856 32.608 181.979 32.6359L182.161 32.0444C182.038 32.0131 181.86 32.0131 181.737 32.0131ZM173.681 33.5092C173.681 34.3756 174.283 35.0018 175.215 35.0018C175.635 35.0018 175.936 34.9114 176.238 34.6748L175.936 34.1668C175.695 34.3477 175.456 34.4347 175.183 34.4347C174.672 34.4347 174.311 34.0763 174.311 33.5092C174.311 32.9699 174.672 32.6115 175.183 32.5837C175.453 32.5837 175.695 32.6741 175.936 32.8516L176.238 32.3436C175.936 32.1035 175.635 32.0165 175.215 32.0165C174.283 32.0131 173.681 32.6428 173.681 33.5092ZM179.513 33.5092V32.0757H178.882V32.4341C178.672 32.1661 178.371 32.0165 177.978 32.0165C177.166 32.0165 176.535 32.6428 176.535 33.5092C176.535 34.3756 177.166 35.0018 177.978 35.0018C178.399 35.0018 178.7 34.8522 178.882 34.5843V34.9427H179.513V33.5092ZM177.197 33.5092C177.197 33.0012 177.527 32.5837 178.07 32.5837C178.581 32.5837 178.942 32.9734 178.942 33.5092C178.942 34.0172 178.581 34.4347 178.07 34.4347C177.53 34.4034 177.197 34.0137 177.197 33.5092ZM169.652 32.0131C168.812 32.0131 168.209 32.6115 168.209 33.5057C168.209 34.4034 168.812 34.9984 169.684 34.9984C170.104 34.9984 170.525 34.8801 170.857 34.6087L170.556 34.1598C170.314 34.3408 170.013 34.4591 169.715 34.4591C169.323 34.4591 168.934 34.2781 168.843 33.7736H170.976C170.976 33.6832 170.976 33.624 170.976 33.5335C171.004 32.6115 170.461 32.0131 169.652 32.0131ZM169.652 32.5524C170.045 32.5524 170.314 32.7924 170.374 33.2378H168.871C168.931 32.8516 169.2 32.5524 169.652 32.5524ZM185.317 33.5092V30.9414H184.686V32.4341C184.476 32.1661 184.175 32.0165 183.783 32.0165C182.97 32.0165 182.339 32.6428 182.339 33.5092C182.339 34.3756 182.97 35.0018 183.783 35.0018C184.203 35.0018 184.504 34.8522 184.686 34.5843V34.9427H185.317V33.5092ZM183.001 33.5092C183.001 33.0012 183.331 32.5837 183.874 32.5837C184.385 32.5837 184.746 32.9734 184.746 33.5092C184.746 34.0172 184.385 34.4347 183.874 34.4347C183.331 34.4034 183.001 34.0137 183.001 33.5092ZM161.894 33.5092V32.0757H161.263V32.4341C161.053 32.1661 160.752 32.0165 160.359 32.0165C159.547 32.0165 158.916 32.6428 158.916 33.5092C158.916 34.3756 159.547 35.0018 160.359 35.0018C160.78 35.0018 161.081 34.8522 161.263 34.5843V34.9427H161.894V33.5092ZM159.55 33.5092C159.55 33.0012 159.879 32.5837 160.422 32.5837C160.934 32.5837 161.295 32.9734 161.295 33.5092C161.295 34.0172 160.934 34.4347 160.422 34.4347C159.879 34.4034 159.55 34.0137 159.55 33.5092Z" fill="black"/>
<path d="M174.222 10.3008H164.75V27.2036H174.222V10.3008Z" fill="#FF5A00"/>
<path d="M165.381 18.7513C165.381 15.3171 167.006 12.2692 169.5 10.2999C167.665 8.86637 165.349 8 162.824 8C156.841 8 152 12.8085 152 18.7513C152 24.6941 156.841 29.5026 162.824 29.5026C165.349 29.5026 167.665 28.6362 169.5 27.2027C167.003 25.2612 165.381 22.1854 165.381 18.7513Z" fill="#EB001B"/>
<path d="M187 18.7513C187 24.6941 182.159 29.5026 176.176 29.5026C173.651 29.5026 171.335 28.6362 169.5 27.2027C172.026 25.2299 173.619 22.1854 173.619 18.7513C173.619 15.3171 171.994 12.2692 169.5 10.2999C171.332 8.86637 173.647 8 176.173 8C182.159 8 187 12.8398 187 18.7513Z" fill="#F79E1B"/>
</g>
<defs>
<linearGradient id="paint0_linear_1602_18743" x1="21.9201" y1="134.056" x2="169.635" y2="-22.0384" gradientUnits="userSpaceOnUse">
<stop stop-color="#00252E"/>
<stop offset="1" stop-color="#83F8A6"/>
</linearGradient>
<linearGradient id="paint1_linear_1602_18743" x1="8.83332" y1="91.5134" x2="138.614" y2="91.4385" gradientUnits="userSpaceOnUse">
<stop stop-color="#02CAFD"/>
<stop offset="1" stop-color="#83F8A6"/>
</linearGradient>
<linearGradient id="paint2_linear_1602_18743" x1="-23.3612" y1="73.2493" x2="36.5147" y2="9.9768" gradientUnits="userSpaceOnUse">
<stop stop-color="#02CAFD"/>
<stop offset="1" stop-color="#83F8A6"/>
</linearGradient>
<linearGradient id="paint3_linear_1602_18743" x1="65.0975" y1="12.2423" x2="89.4027" y2="-13.4418" gradientUnits="userSpaceOnUse">
<stop stop-color="#02CAFD"/>
<stop offset="1" stop-color="#83F8A6"/>
</linearGradient>
<linearGradient id="paint4_linear_1602_18743" x1="311.359" y1="114.964" x2="94.6646" y2="-20.2511" gradientUnits="userSpaceOnUse">
<stop stop-color="#02CAFD"/>
<stop offset="1" stop-color="#83F8A6"/>
</linearGradient>
<clipPath id="clip0_1602_18743">
<rect width="35" height="27" fill="white" transform="translate(152 8)"/>
</clipPath>
</defs>
</svg>
