<svg width="41" height="14" viewBox="0 0 41 14" fill="none" xmlns="http://www.w3.org/2000/svg">
<path d="M15.5109 0.232924L10.1625 12.9787H6.67308L4.04113 2.80699C3.88134 2.18047 3.7424 1.95095 3.25643 1.687C2.46302 1.25707 1.15278 0.853699 0 0.603349L0.0782989 0.232924H5.69519C6.41116 0.232924 7.05479 0.708972 7.21735 1.53249L8.60737 8.90784L12.0427 0.232711H15.5109V0.232924ZM29.183 8.81731C29.1971 5.4533 24.5259 5.26798 24.558 3.76524C24.568 3.3079 25.004 2.82165 25.9583 2.69754C26.4313 2.63569 27.7345 2.58851 29.2126 3.26794L29.7924 0.565094C28.9981 0.277127 27.9762 0 26.7047 0C23.4419 0 21.1456 1.73248 21.1263 4.21324C21.1052 6.04815 22.7652 7.07208 24.0159 7.6818C25.3025 8.30619 25.7342 8.70743 25.7293 9.26594C25.7202 10.1209 24.7031 10.4984 23.7527 10.5132C22.0935 10.5387 21.1308 10.0648 20.3633 9.70841L19.765 12.5007C20.5363 12.8542 21.9599 13.1625 23.4359 13.178C26.9038 13.178 29.1724 11.467 29.183 8.81731ZM37.7989 12.9787H40.8519L38.187 0.232924H35.3691C34.7354 0.232924 34.201 0.601436 33.9644 1.16802L29.0109 12.9787H32.4771L33.1652 11.0749H37.4004L37.7989 12.9787ZM34.1156 8.46261L35.8531 3.67705L36.8531 8.46261H34.1156ZM20.2273 0.232924L17.4977 12.9787H14.1968L16.9275 0.232924H20.2273Z" fill="#1434CB"/>
</svg>
