<svg width="200" height="120" viewBox="0 0 200 120" fill="none" xmlns="http://www.w3.org/2000/svg">
<path d="M3.25613 47.2664C2.99894 51.8718 2.74175 56.6047 0.0351562 60.9316V59.499C2.05592 55.6709 2.28249 51.5238 2.51518 47.2316C2.87647 40.7006 3.25001 33.9434 10.5799 28.3927C12.2761 27.105 13.9601 26.1828 15.6256 25.539L15.6195 19.1066C15.6195 17.8828 16.6728 16.8909 17.9587 16.8909L33.0103 16.8793C34.2963 16.8793 35.3495 17.8654 35.3495 19.0892L35.3556 25.655C41.0077 26.4148 46.4943 26.38 52.3362 21.9603C59.4088 16.6125 59.7518 10.3019 60.1192 3.63754C60.1865 2.4601 60.2539 1.27107 60.3519 0.0820312H61.0989C60.9887 1.25947 60.9214 2.4659 60.854 3.67234C60.505 10.2091 60.1314 16.9663 52.8016 22.5113C46.8005 27.0528 41.0015 27.105 35.3618 26.3626V29.4135C35.3618 30.6315 34.3085 31.6292 33.0287 31.6292L17.9771 31.6408C16.685 31.6408 15.6318 30.6431 15.6318 29.4309V26.2756C14.1193 26.902 12.5945 27.7663 11.0453 28.9437C3.96646 34.2914 3.62354 40.5904 3.25613 47.2664Z" fill="url(#paint0_linear_1602_18557)"/>
<path d="M2.23023 95.3603C1.50153 95.2385 0.785076 95.1225 0.0625 95.0181V94.3104C0.827941 94.4206 1.59338 94.5482 2.3527 94.6758C9.3029 95.8069 15.8673 96.8799 22.9339 91.5264C30.0065 86.1787 30.3495 79.8739 30.7169 73.2038C31.0782 66.6728 31.4456 59.9157 38.7754 54.365C46.1053 48.8142 53.1412 49.9627 59.9506 51.0763C66.9008 52.2073 73.4652 53.2861 80.5317 47.9384C87.5983 42.5907 87.9473 36.2802 88.3147 29.6158C88.676 23.0849 89.0373 16.3277 96.3733 10.777C103.703 5.23207 110.739 6.3747 117.542 7.48832C124.493 8.61935 131.057 9.69817 138.123 4.35045C139.948 2.97002 141.32 1.53159 142.361 0.0351562H143.23C142.122 1.72879 140.622 3.35863 138.595 4.90146C131.265 10.4464 124.229 9.29216 117.42 8.19014C110.47 7.04751 103.905 5.98029 96.8387 11.328C89.766 16.6757 89.4231 22.9805 89.0557 29.6506C88.6944 36.1816 88.327 42.9387 80.9971 48.4894C73.6673 54.0343 66.6375 52.8917 59.8281 51.7781C52.8779 50.6355 46.3074 49.5683 39.2347 54.916C32.162 60.2637 31.8191 66.5684 31.4517 73.2386C31.0904 79.7695 30.7291 86.5267 23.3931 92.0774C16.0694 97.6223 9.03346 96.4739 2.23023 95.3603Z" fill="url(#paint1_linear_1602_18557)"/>
<path d="M154.07 18.5665L154.101 18.3867H158.075C158.614 18.4099 159.049 18.5665 159.196 19.1117L160.065 23.0501C159.214 20.9852 157.163 19.2741 154.07 18.5665Z" fill="url(#paint2_linear_1602_18557)"/>
<path d="M160.167 23.629L160.436 24.5512L162.947 18.4727H165.659L161.624 27.3585H158.917L156.621 19.9343C158.268 20.9377 159.671 22.5212 160.167 23.629Z" fill="url(#paint3_linear_1602_18557)"/>
<path d="M170.327 21.2395C170.339 19.511 172.128 18.293 174.657 18.293C175.649 18.293 176.451 18.4902 176.953 18.67L176.604 20.5956L176.371 20.497C175.893 20.3172 175.287 20.149 174.448 20.1548C173.45 20.1548 172.979 20.555 172.979 20.9262C172.973 21.3381 173.53 21.6165 174.424 22.0283C175.9 22.6663 176.585 23.4319 176.567 24.4528C176.555 26.303 174.804 27.4978 172.115 27.4978C170.964 27.4862 169.862 27.2658 169.262 27.0222L169.623 25.027L169.948 25.1662C170.786 25.4968 171.338 25.636 172.36 25.636C173.095 25.636 173.885 25.3634 173.897 24.766C173.903 24.3715 173.56 24.0931 172.568 23.6581C171.595 23.2347 170.315 22.5155 170.327 21.2395Z" fill="url(#paint4_linear_1602_18557)"/>
<path d="M176.41 27.3583L180.207 19.1858C180.476 18.6116 180.942 18.4492 181.554 18.4492H183.532L185.614 27.3525H183.232C183.232 27.3525 182.999 26.3317 182.919 26.0242H179.637C179.539 26.2563 179.098 27.3525 179.098 27.3525L176.41 27.3583Z" fill="url(#paint5_linear_1602_18557)"/>
<path d="M198.249 5.55084C199.192 7.15748 199.718 9.01352 199.718 10.9798L199.73 23.8618C199.522 25.5207 199.43 27.1853 199.338 28.8326C198.971 35.5085 198.628 41.8074 191.555 47.1552C184.483 52.5029 177.918 51.4299 170.974 50.293C164.171 49.1794 157.135 48.031 149.805 53.5817C142.469 59.1266 142.102 65.8838 141.747 72.4205C141.379 79.0849 141.036 85.3954 133.964 90.7431C126.891 96.0908 120.327 95.0178 113.383 93.881C106.573 92.7674 99.5373 91.6189 92.2074 97.1697C84.8776 102.715 84.504 109.472 84.1489 116.008C84.0815 117.215 84.0203 118.416 83.9039 119.599L43.6724 119.628C44.0888 119.361 44.5113 119.065 44.9277 118.746C52.2637 113.201 52.6311 106.444 52.9863 99.9073C53.3537 93.2314 53.6966 86.9324 60.7693 81.5847C67.8419 76.237 74.4125 77.3042 81.3627 78.4469C88.172 79.5605 95.2018 80.7089 102.532 75.1582C109.862 69.6133 110.235 62.8561 110.59 56.3194C110.958 49.6434 111.301 43.3445 118.373 37.9968C125.446 32.649 132.01 33.7163 138.954 34.8589C145.764 35.9667 152.8 37.1209 160.13 31.5702C162.585 29.7084 164.263 27.7131 165.414 25.6309L165.102 27.3593H167.661L169.266 18.4561H167.698C167.98 16.5537 168.084 14.6338 168.182 12.7314C168.421 8.2653 168.666 3.96741 170.919 0.0117188H170.099C167.919 4.06601 167.68 8.4277 167.447 12.6966C167.337 14.657 167.233 16.5827 166.957 18.4561H166.706L165.929 22.783C164.875 25.7005 163.038 28.4671 159.67 31.0192C152.598 36.3669 146.033 35.2939 139.089 34.1571C132.286 33.0434 125.25 31.895 117.92 37.4457C110.584 42.9907 110.217 49.7478 109.862 56.2846C109.494 62.9489 109.151 69.2595 102.079 74.6072C95.0059 79.9549 88.4415 78.8819 81.4974 77.745C74.688 76.6314 67.6521 75.483 60.3223 81.0337C52.9924 86.5844 52.6005 93.3474 52.2453 99.8783C51.8779 106.554 51.535 112.853 44.4623 118.201C43.7459 118.74 43.0417 119.222 42.3252 119.628L11.8301 119.651C7.49461 119.657 3.6919 117.47 1.59766 114.205C3.64904 117.667 7.55584 120.005 12.0383 119.999L188.047 119.877C194.654 119.871 200.006 114.79 200 108.538L199.926 11.3162C199.926 9.20492 199.32 7.23288 198.249 5.55084ZM199.798 108.19C199.804 114.448 194.446 119.523 187.845 119.529L107.394 119.581C107.431 119.547 107.473 119.518 107.522 119.483C114.595 114.135 121.166 115.202 128.116 116.345C134.925 117.459 141.955 118.607 149.285 113.056C156.615 107.511 156.988 100.754 157.343 94.2174C157.711 87.5415 158.054 81.2425 165.126 75.8948C172.199 70.5471 178.763 71.6143 185.708 72.7569C190.294 73.4994 194.972 74.265 199.773 72.9947L199.798 108.19ZM199.767 72.2871C195.113 73.5806 190.557 72.8323 185.824 72.0667C179.021 70.9531 171.985 69.8047 164.655 75.3554C157.319 80.9003 156.951 87.6575 156.596 94.1942C156.229 100.859 155.886 107.169 148.813 112.517C141.741 117.865 135.176 116.792 128.232 115.655C121.423 114.541 114.387 113.393 107.057 118.943C106.775 119.152 106.5 119.373 106.243 119.593L84.6571 119.61C84.7612 118.421 84.8286 117.238 84.8898 116.055C85.2572 109.379 85.6002 103.08 92.6728 97.7323C99.7455 92.3846 106.31 93.4518 113.266 94.5944C120.076 95.708 127.105 96.8565 134.435 91.3057C141.765 85.7608 142.139 79.0037 142.494 72.4669C142.861 65.791 143.204 59.492 150.277 54.1443C157.349 48.7966 163.914 49.8638 170.858 51.0065C177.667 52.1143 184.703 53.2685 192.033 47.7178C197.636 43.4779 199.167 38.5304 199.743 33.5249L199.767 72.2871Z" fill="url(#paint6_linear_1602_18557)"/>
<path d="M60.3535 0.0859375C60.2494 1.27497 60.182 2.45821 60.1208 3.64144C59.7534 10.3058 59.4104 16.6164 52.3378 21.9642C46.4959 26.3781 41.0093 26.4187 35.3572 25.6589L35.3511 19.0931C35.3511 17.8693 34.2979 16.8832 33.0119 16.8832L17.9603 16.8948C16.6682 16.8948 15.615 17.8867 15.6211 19.1105L15.6272 25.5429C13.9616 26.1925 12.2777 27.1089 10.5815 28.3966C3.2516 33.9415 2.87806 40.6987 2.51677 47.2297C2.28408 51.5219 2.05751 55.669 0.0367464 59.4971L5.24351e-06 11.4543C-0.00611828 5.20749 5.35197 0.120739 11.9531 0.120739L60.3535 0.0859375Z" fill="url(#paint7_linear_1602_18557)"/>
<path d="M142.37 0.0273438C141.323 1.52378 139.957 2.96221 138.132 4.34264C131.06 9.69036 124.495 8.61733 117.551 7.48051C110.748 6.36688 103.712 5.21846 96.3822 10.7692C89.0462 16.3141 88.6788 23.0713 88.3236 29.608C87.9562 36.2723 87.6133 42.5829 80.5406 47.9306C73.4679 53.2783 66.9035 52.2053 59.9594 51.0685C53.1501 49.9548 46.1141 48.8064 38.7843 54.3571C31.4544 59.9079 31.0809 66.6592 30.7257 73.196C30.3583 79.8719 30.0154 86.1708 22.9427 91.5186C15.8701 96.8663 9.30564 95.7991 2.36157 94.668C1.59613 94.5404 0.830686 94.4186 0.0713691 94.3026L0.046875 60.9229C2.7596 56.596 3.01678 51.8689 3.26785 47.2578C3.63526 40.5818 3.97818 34.2829 11.0508 28.9352C12.6001 27.7636 14.1249 26.8935 15.6374 26.2671V29.4224C15.6374 30.6404 16.6906 31.6322 17.9827 31.6322L33.0343 31.6206C34.3202 31.6206 35.3674 30.623 35.3674 29.405V26.3541C41.001 27.0965 46.8061 27.0443 52.8072 22.5028C60.1309 16.9637 60.5044 10.2066 60.8596 3.67562C60.927 2.4692 60.9882 1.26857 61.1045 0.085345L142.37 0.0273438Z" fill="url(#paint8_linear_1602_18557)"/>
<path d="M143.24 0.0291191C142.132 1.72276 140.632 3.35259 138.605 4.89543C131.275 10.4403 124.239 9.28612 117.43 8.1841C110.48 7.04147 103.915 5.97425 96.8487 11.322C89.776 16.6697 89.4331 22.9744 89.0657 29.6446C88.7044 36.1755 88.337 42.9327 81.0071 48.4834C73.6773 54.0283 66.6475 52.8857 59.8381 51.7721C52.8879 50.6294 46.3174 49.5622 39.2447 54.9099C32.172 60.2577 31.8291 66.5624 31.4617 73.2325C31.1004 79.7635 30.7391 86.5206 23.4032 92.0714C16.0733 97.6163 9.03737 96.4737 2.23413 95.36C1.50543 95.2382 0.788982 95.1222 0.0664062 95.0178L0.0786533 108.677C0.0786533 110.62 0.599153 112.453 1.5238 114.054C1.55442 114.112 1.57279 114.158 1.61566 114.199C3.7099 117.464 7.50649 119.645 11.8481 119.645L42.3432 119.622C43.0535 119.216 43.7577 118.735 44.4803 118.195C51.553 112.847 51.8959 106.543 52.2633 99.8725C52.6246 93.3416 52.992 86.5844 60.3219 81.0337C67.6517 75.483 74.6877 76.6314 81.497 77.745C88.4472 78.8761 95.0116 79.9549 102.078 74.6072C109.145 69.2595 109.494 62.9489 109.861 56.2846C110.222 49.7536 110.584 42.9965 117.92 37.4457C125.25 31.9008 132.286 33.0434 139.089 34.1571C146.039 35.2881 152.603 36.3669 159.67 31.0192C163.044 28.4671 164.881 25.7005 165.928 22.783L166.706 18.4561H166.957C167.239 16.5827 167.343 14.657 167.447 12.6966C167.68 8.4277 167.924 4.06601 170.098 0.0117188L143.24 0.0291191ZM154.098 18.3865H158.072C158.611 18.4097 159.045 18.5663 159.192 19.1115L160.062 23.0498C159.205 20.9908 157.159 19.2797 154.067 18.5721L154.098 18.3865ZM161.623 27.3535H158.917L156.62 19.9294C158.268 20.9328 159.67 22.522 160.166 23.624L160.435 24.5463L162.946 18.4677H165.659L161.623 27.3535Z" fill="url(#paint9_linear_1602_18557)"/>
<path d="M154.07 18.5665L154.101 18.3867H158.075C158.614 18.4099 159.049 18.5665 159.196 19.1117L160.065 23.0501C159.214 20.9852 157.163 19.2741 154.07 18.5665Z" fill="url(#paint10_linear_1602_18557)"/>
<path d="M160.167 23.629L160.436 24.5512L162.947 18.4727H165.659L161.624 27.3585H158.917L156.621 19.9343C158.268 20.9377 159.671 22.5212 160.167 23.629Z" fill="url(#paint11_linear_1602_18557)"/>
<path d="M198.252 5.55072C197.303 4.01949 195.98 2.73766 194.394 1.78064C192.539 0.649614 190.328 0 187.964 0L170.923 0.0116003C168.669 3.96729 168.43 8.26518 168.185 12.7313C168.081 14.6337 167.983 16.5536 167.702 18.456H169.269L167.665 27.3592H165.105L165.418 25.6308C164.272 27.713 162.588 29.7083 160.133 31.5701C152.803 37.115 145.767 35.9608 138.958 34.8588C132.008 33.7161 125.443 32.6489 118.377 37.9966C111.304 43.3444 110.961 49.6491 110.594 56.3192C110.232 62.8502 109.865 69.6073 102.535 75.1581C95.2052 80.703 88.1754 79.5604 81.3661 78.4467C74.4159 77.3041 67.8453 76.2369 60.7727 81.5846C53.7 86.9323 53.3571 93.2371 52.9897 99.9072C52.6284 106.438 52.2671 113.195 44.9311 118.746C44.5147 119.065 44.0922 119.355 43.6758 119.628L83.9073 119.599C84.0176 118.421 84.0849 117.215 84.1523 116.008C84.5136 109.477 84.881 102.72 92.2108 97.1695C99.5407 91.6246 106.577 92.7673 113.386 93.8809C120.336 95.0119 126.901 96.0907 133.967 90.743C141.034 85.3953 141.383 79.0847 141.75 72.4204C142.111 65.8895 142.473 59.1323 149.809 53.5816C157.139 48.0367 164.174 49.1793 170.978 50.2929C177.928 51.4239 184.492 52.5028 191.559 47.155C198.632 41.8073 198.974 35.5026 199.342 28.8324C199.428 27.1794 199.526 25.5148 199.734 23.8617L199.722 10.9796C199.722 9.0134 199.195 7.15736 198.252 5.55072ZM172.129 27.4984C170.978 27.4868 169.875 27.2664 169.275 27.0228L169.637 25.0276L169.961 25.1668C170.8 25.4974 171.351 25.6366 172.374 25.6366C173.109 25.6366 173.899 25.364 173.911 24.7665C173.917 24.3721 173.574 24.0937 172.582 23.6587C171.602 23.2353 170.316 22.5219 170.335 21.2459C170.347 19.5174 172.135 18.2994 174.664 18.2994C175.656 18.2994 176.458 18.4966 176.96 18.6764L176.611 20.6021L176.379 20.5035C175.901 20.3236 175.295 20.1554 174.456 20.1612C173.458 20.1612 172.986 20.5615 172.986 20.9327C172.98 21.3445 173.537 21.6229 174.431 22.0347C175.907 22.6727 176.593 23.4383 176.575 24.4591C176.569 26.2978 174.817 27.4926 172.129 27.4984ZM183.237 27.3534C183.237 27.3534 183.004 26.3326 182.925 26.0252H179.643C179.545 26.2572 179.104 27.3534 179.104 27.3534H176.409L180.206 19.181C180.475 18.6068 180.941 18.4444 181.553 18.4444H183.531L185.613 27.3476L183.237 27.3534Z" fill="url(#paint12_linear_1602_18557)"/>
<path d="M170.327 21.2395C170.339 19.511 172.128 18.293 174.657 18.293C175.649 18.293 176.451 18.4902 176.953 18.67L176.604 20.5956L176.371 20.497C175.893 20.3172 175.287 20.149 174.448 20.1548C173.45 20.1548 172.979 20.555 172.979 20.9262C172.973 21.3381 173.53 21.6165 174.424 22.0283C175.9 22.6663 176.585 23.4319 176.567 24.4528C176.555 26.303 174.804 27.4978 172.115 27.4978C170.964 27.4862 169.862 27.2658 169.262 27.0222L169.623 25.027L169.948 25.1662C170.786 25.4968 171.338 25.636 172.36 25.636C173.095 25.636 173.885 25.3634 173.897 24.766C173.903 24.3715 173.56 24.0931 172.568 23.6581C171.595 23.2347 170.315 22.5155 170.327 21.2395Z" fill="url(#paint13_linear_1602_18557)"/>
<path d="M176.41 27.3583L180.207 19.1858C180.476 18.6116 180.942 18.4492 181.554 18.4492H183.532L185.614 27.3525H183.232C183.232 27.3525 182.999 26.3317 182.919 26.0242H179.637C179.539 26.2563 179.098 27.3525 179.098 27.3525L176.41 27.3583Z" fill="url(#paint14_linear_1602_18557)"/>
<path d="M199.736 33.5117L199.766 72.2856C195.112 73.579 190.556 72.8308 185.823 72.0652C179.02 70.9515 171.984 69.8031 164.654 75.3538C157.318 80.8988 156.951 87.6559 156.595 94.1927C156.228 100.857 155.885 107.168 148.812 112.515C141.74 117.863 135.175 116.79 128.231 115.653C121.422 114.54 114.386 113.391 107.056 118.942C106.774 119.151 106.499 119.371 106.242 119.591L84.6562 119.609C84.7603 118.42 84.8277 117.237 84.8889 116.053C85.2564 109.377 85.5993 103.078 92.6719 97.7307C99.7446 92.383 106.309 93.4502 113.265 94.5929C120.075 95.7065 127.105 96.8549 134.434 91.3042C141.764 85.7593 142.138 79.0021 142.493 72.4654C142.86 65.7894 143.203 59.4905 150.276 54.1428C157.349 48.7951 163.913 49.8623 170.857 51.0049C177.666 52.1127 184.702 53.267 192.032 47.7162C197.629 43.4647 199.16 38.5172 199.736 33.5117Z" fill="url(#paint15_linear_1602_18557)"/>
<path d="M198.249 5.55084C199.192 7.15748 199.718 9.01352 199.718 10.9798L199.73 23.8618C199.522 25.5207 199.43 27.1853 199.338 28.8326C198.971 35.5085 198.628 41.8074 191.555 47.1552C184.483 52.5029 177.918 51.4299 170.974 50.293C164.171 49.1794 157.135 48.031 149.805 53.5817C142.469 59.1266 142.102 65.8838 141.747 72.4205C141.379 79.0849 141.036 85.3954 133.964 90.7431C126.891 96.0908 120.327 95.0178 113.383 93.881C106.573 92.7674 99.5373 91.6189 92.2074 97.1697C84.8776 102.715 84.504 109.472 84.1489 116.008C84.0815 117.215 84.0203 118.416 83.9039 119.599L43.6724 119.628C44.0888 119.361 44.5113 119.065 44.9277 118.746C52.2637 113.201 52.6311 106.444 52.9863 99.9073C53.3537 93.2314 53.6966 86.9324 60.7693 81.5847C67.8419 76.237 74.4125 77.3042 81.3627 78.4469C88.172 79.5605 95.2018 80.7089 102.532 75.1582C109.862 69.6133 110.235 62.8561 110.59 56.3194C110.958 49.6434 111.301 43.3445 118.373 37.9968C125.446 32.649 132.01 33.7163 138.954 34.8589C145.764 35.9667 152.8 37.1209 160.13 31.5702C162.585 29.7084 164.263 27.7131 165.414 25.6309L165.102 27.3593H167.661L169.266 18.4561H167.698C167.98 16.5537 168.084 14.6338 168.182 12.7314C168.421 8.2653 168.666 3.96741 170.919 0.0117188H170.099C167.919 4.06601 167.68 8.4277 167.447 12.6966C167.337 14.657 167.233 16.5827 166.957 18.4561H166.706L165.929 22.783C164.875 25.7005 163.038 28.4671 159.67 31.0192C152.598 36.3669 146.033 35.2939 139.089 34.1571C132.286 33.0434 125.25 31.895 117.92 37.4457C110.584 42.9907 110.217 49.7478 109.862 56.2846C109.494 62.9489 109.151 69.2595 102.079 74.6072C95.0059 79.9549 88.4415 78.8819 81.4974 77.745C74.688 76.6314 67.6521 75.483 60.3223 81.0337C52.9924 86.5844 52.6005 93.3474 52.2453 99.8783C51.8779 106.554 51.535 112.853 44.4623 118.201C43.7459 118.74 43.0417 119.222 42.3252 119.628L11.8301 119.651C7.49461 119.657 3.6919 117.47 1.59766 114.205C3.64904 117.667 7.55584 120.005 12.0383 119.999L188.047 119.877C194.654 119.871 200.006 114.79 200 108.538L199.926 11.3162C199.926 9.20492 199.32 7.23288 198.249 5.55084ZM199.798 108.19C199.804 114.448 194.446 119.523 187.845 119.529L107.394 119.581C107.431 119.547 107.473 119.518 107.522 119.483C114.595 114.135 121.166 115.202 128.116 116.345C134.925 117.459 141.955 118.607 149.285 113.056C156.615 107.511 156.988 100.754 157.343 94.2174C157.711 87.5415 158.054 81.2425 165.126 75.8948C172.199 70.5471 178.763 71.6143 185.708 72.7569C190.294 73.4994 194.972 74.265 199.773 72.9947L199.798 108.19ZM199.767 72.2871C195.113 73.5806 190.557 72.8323 185.824 72.0667C179.021 70.9531 171.985 69.8047 164.655 75.3554C157.319 80.9003 156.951 87.6575 156.596 94.1942C156.229 100.859 155.886 107.169 148.813 112.517C141.741 117.865 135.176 116.792 128.232 115.655C121.423 114.541 114.387 113.393 107.057 118.943C106.775 119.152 106.5 119.373 106.243 119.593L84.6571 119.61C84.7612 118.421 84.8286 117.238 84.8898 116.055C85.2572 109.379 85.6002 103.08 92.6728 97.7323C99.7455 92.3846 106.31 93.4518 113.266 94.5944C120.076 95.708 127.105 96.8565 134.435 91.3057C141.765 85.7608 142.139 79.0037 142.494 72.4669C142.861 65.791 143.204 59.492 150.277 54.1443C157.349 48.7966 163.914 49.8638 170.858 51.0065C177.667 52.1143 184.703 53.2685 192.033 47.7178C197.636 43.4779 199.167 38.5304 199.743 33.5249L199.767 72.2871Z" fill="url(#paint16_linear_1602_18557)"/>
<path d="M199.77 72.9965L199.795 108.192C199.801 114.45 194.443 119.525 187.841 119.531L107.391 119.583C107.427 119.549 107.47 119.52 107.519 119.485C114.592 114.137 121.162 115.204 128.113 116.347C134.922 117.461 141.952 118.609 149.282 113.058C156.612 107.513 156.985 100.756 157.34 94.2193C157.708 87.5433 158.051 81.2443 165.123 75.8966C172.196 70.5488 178.76 71.616 185.704 72.7587C190.285 73.5011 194.969 74.2725 199.77 72.9965Z" fill="url(#paint17_linear_1602_18557)"/>
<path d="M183.586 18.6367H181.609C180.99 18.6367 180.525 18.7991 180.261 19.3733L176.465 27.5458H179.159C179.159 27.5458 179.606 26.4496 179.698 26.2175H182.98C183.06 26.525 183.293 27.5458 183.293 27.5458H185.675L183.586 18.6367ZM180.433 24.3905C180.641 23.8801 181.437 21.8906 181.437 21.8906C181.437 21.8906 181.658 21.3686 181.786 21.0496L181.958 21.8152C181.958 21.8152 182.454 23.9381 182.552 24.3905H180.433Z" fill="white"/>
<path d="M173.049 21.1158C173.043 21.5276 173.6 21.806 174.494 22.2178C175.97 22.8558 176.656 23.6214 176.637 24.6423C176.625 26.4925 174.874 27.6874 172.186 27.6874C171.034 27.6758 169.932 27.4553 169.332 27.2117L169.693 25.2165L170.018 25.3557C170.857 25.6863 171.408 25.8255 172.431 25.8255C173.165 25.8255 173.955 25.5529 173.968 24.9555C173.974 24.5611 173.631 24.2827 172.639 23.8476C171.659 23.4242 170.373 22.7108 170.391 21.4348C170.404 19.7063 172.192 18.4883 174.721 18.4883C175.713 18.4883 176.515 18.6855 177.017 18.8653L176.668 20.7909L176.435 20.6923C175.958 20.5125 175.351 20.3443 174.513 20.3501C173.514 20.3443 173.049 20.7445 173.049 21.1158Z" fill="white"/>
<path d="M169.318 18.6445L167.72 27.5478H165.16L165.472 25.8193L165.981 22.9773L166.752 18.6503L169.318 18.6445Z" fill="white"/>
<path d="M160.124 23.2318C159.267 21.1727 157.221 19.4616 154.129 18.754L154.16 18.5742H158.134C158.673 18.5974 159.107 18.754 159.254 19.2992L160.124 23.2318Z" fill="white"/>
<path d="M165.726 18.6562L161.69 27.5421H158.984L156.688 20.1179C158.335 21.1213 159.737 22.7106 160.233 23.8126L160.502 24.7348L163.013 18.6562H165.726Z" fill="white"/>
<path d="M35.408 19.2763L35.4141 29.6006C35.4141 30.8186 34.3609 31.8162 33.0811 31.8162L18.0294 31.8278C16.7374 31.8278 15.6841 30.8302 15.6841 29.618L15.6719 19.2937C15.6719 18.0698 16.7251 17.078 18.0111 17.078L33.0688 17.0664C34.3547 17.0664 35.408 18.0524 35.408 19.2763Z" fill="#F6C859"/>
<path d="M23.2859 29.8586C23.2001 29.8586 23.1205 29.818 23.0838 29.7426C23.0287 29.6382 23.0716 29.5048 23.1818 29.4526C23.5124 29.2902 23.9595 28.9885 24.2228 28.4723C24.5534 27.8111 24.4677 27.0919 24.3269 27.0281C24.2901 27.0107 24.1554 27.0803 24.0697 27.1209C23.8554 27.2253 23.5553 27.3703 23.2124 27.2543C22.8756 27.1441 22.7103 26.8599 22.6307 26.7207C22.1102 25.8216 21.951 23.49 22.4959 22.3299C22.6796 21.9471 22.9246 21.7151 23.2308 21.6455C23.5431 21.5759 23.8003 21.6977 24.0023 21.8021C24.1677 21.8833 24.2534 21.9181 24.3085 21.8891C24.5228 21.7673 24.5167 21.0249 24.2167 20.4391C23.9533 19.9171 23.5063 19.6155 23.1757 19.4589C23.0654 19.4067 23.0164 19.2733 23.0777 19.1689C23.1328 19.0644 23.2736 19.018 23.3839 19.076C23.7758 19.2675 24.3146 19.6271 24.6269 20.2593C24.9392 20.8799 25.0862 21.9529 24.5412 22.2661C24.2656 22.4227 24.0023 22.2951 23.7941 22.1965C23.6349 22.1211 23.4818 22.0457 23.3349 22.0805C23.1328 22.1269 22.9981 22.3415 22.9123 22.5156C22.4347 23.5306 22.5755 25.7346 23.0287 26.5235C23.1083 26.6569 23.2001 26.8019 23.3594 26.8541C23.5124 26.9063 23.6594 26.8425 23.8615 26.7439C24.0636 26.6453 24.284 26.5409 24.5228 26.6453C25.0372 26.8831 25.0005 27.9213 24.6331 28.6637C24.3146 29.296 23.7819 29.6556 23.39 29.847C23.3532 29.8528 23.3165 29.8586 23.2859 29.8586Z" fill="#7D662D"/>
<path d="M22.5972 22.7183H18.4883C18.3597 22.7183 18.2617 22.6197 18.2617 22.5037C18.2617 22.3877 18.3597 22.2891 18.4822 22.2891H22.5911C22.7196 22.2891 22.8176 22.3877 22.8176 22.5037C22.8237 22.6197 22.7258 22.7183 22.5972 22.7183Z" fill="#7D662D"/>
<path d="M22.5972 26.6167H18.4883C18.3597 26.6167 18.2617 26.5181 18.2617 26.4021C18.2617 26.2803 18.3658 26.1875 18.4883 26.1875H22.5972C22.7258 26.1875 22.8237 26.2861 22.8237 26.4021C22.8299 26.5181 22.7258 26.6167 22.5972 26.6167Z" fill="#7D662D"/>
<path d="M28.0795 29.8522C28.0428 29.8522 28.006 29.8464 27.9754 29.829C27.5835 29.6376 27.0446 29.278 26.7323 28.6458C26.3588 27.9033 26.3282 26.8651 26.8364 26.6273C27.0752 26.5171 27.3018 26.6273 27.4978 26.7201C27.706 26.8187 27.8529 26.8825 27.9999 26.8303C28.1713 26.7723 28.2693 26.6041 28.3306 26.4997C28.7837 25.7109 28.9184 23.501 28.4408 22.4918C28.3551 22.3178 28.2203 22.0974 28.0183 22.0568C27.8958 22.0278 27.8162 21.9118 27.8468 21.7958C27.8774 21.6798 27.9999 21.6102 28.1224 21.6334C28.4285 21.703 28.6735 21.9292 28.8572 22.312C29.4083 23.472 29.2491 25.8095 28.7286 26.7027C28.649 26.8419 28.4836 27.1261 28.1469 27.2363C27.8039 27.3523 27.5039 27.2073 27.2896 27.1029C27.2038 27.0623 27.0691 26.9985 27.0324 27.0101C26.8977 27.0739 26.8058 27.7931 27.1426 28.4544C27.4059 28.9764 27.8529 29.278 28.1836 29.4346C28.2938 29.4868 28.3428 29.6202 28.2816 29.7246C28.2448 29.8116 28.1652 29.8522 28.0795 29.8522Z" fill="#7D662D"/>
<path d="M27.1546 21.8484C27.0566 21.8484 26.9709 21.7904 26.9403 21.7034C26.4504 20.3114 27.5955 19.2383 27.9629 19.0643C28.0731 19.0063 28.214 19.0527 28.2691 19.1571C28.3242 19.2615 28.2813 19.3949 28.1711 19.4471C28.0058 19.5283 26.9525 20.381 27.3689 21.5642C27.4118 21.6802 27.3444 21.802 27.2219 21.8368C27.2036 21.8484 27.1791 21.8484 27.1546 21.8484Z" fill="#7D662D"/>
<path d="M32.8706 22.7105H28.7617C28.6331 22.7105 28.5352 22.6119 28.5352 22.4959C28.5352 22.3799 28.6393 22.2812 28.7617 22.2812H32.8706C32.9992 22.2812 33.0972 22.3799 33.0972 22.4959C33.0972 22.6119 32.9931 22.7105 32.8706 22.7105Z" fill="#7D662D"/>
<path d="M32.8706 26.605H28.7617C28.6331 26.605 28.5352 26.5064 28.5352 26.3904C28.5352 26.2686 28.6393 26.1758 28.7617 26.1758H32.8706C32.9992 26.1758 33.0972 26.2744 33.0972 26.3904C33.0972 26.5122 32.9992 26.605 32.8706 26.605Z" fill="#7D662D"/>
<defs>
<linearGradient id="paint0_linear_1602_18557" x1="13.5663" y1="69.6551" x2="33.301" y2="16.0071" gradientUnits="userSpaceOnUse">
<stop stop-color="#885DF5"/>
<stop offset="0.9944" stop-color="#6B7CFE"/>
</linearGradient>
<linearGradient id="paint1_linear_1602_18557" x1="42.8576" y1="117.401" x2="77.8355" y2="22.3143" gradientUnits="userSpaceOnUse">
<stop stop-color="#885DF5"/>
<stop offset="0.9944" stop-color="#6B7CFE"/>
</linearGradient>
<linearGradient id="paint2_linear_1602_18557" x1="156.579" y1="21.9435" x2="157.536" y2="19.3427" gradientUnits="userSpaceOnUse">
<stop stop-color="#885DF5"/>
<stop offset="0.9944" stop-color="#6B7CFE"/>
</linearGradient>
<linearGradient id="paint3_linear_1602_18557" x1="157.76" y1="27.4428" x2="160.454" y2="20.1207" gradientUnits="userSpaceOnUse">
<stop stop-color="#885DF5"/>
<stop offset="0.9944" stop-color="#6B7CFE"/>
</linearGradient>
<linearGradient id="paint4_linear_1602_18557" x1="171.249" y1="28.2525" x2="173.897" y2="21.0537" gradientUnits="userSpaceOnUse">
<stop stop-color="#885DF5"/>
<stop offset="0.9944" stop-color="#6B7CFE"/>
</linearGradient>
<linearGradient id="paint5_linear_1602_18557" x1="180.223" y1="29.2814" x2="182.956" y2="21.8542" gradientUnits="userSpaceOnUse">
<stop stop-color="#885DF5"/>
<stop offset="0.9944" stop-color="#6B7CFE"/>
</linearGradient>
<linearGradient id="paint6_linear_1602_18557" x1="83.2377" y1="155.286" x2="126.772" y2="36.9376" gradientUnits="userSpaceOnUse">
<stop stop-color="#885DF5"/>
<stop offset="0.9944" stop-color="#6B7CFE"/>
</linearGradient>
<linearGradient id="paint7_linear_1602_18557" x1="0.0139076" y1="29.8111" x2="60.3784" y2="29.7653" gradientUnits="userSpaceOnUse">
<stop stop-color="#4D338A"/>
<stop offset="0.9888" stop-color="#252857"/>
</linearGradient>
<linearGradient id="paint8_linear_1602_18557" x1="0.0254902" y1="47.8636" x2="142.409" y2="47.7556" gradientUnits="userSpaceOnUse">
<stop stop-color="#6947BD"/>
<stop offset="0.9888" stop-color="#252857"/>
</linearGradient>
<linearGradient id="paint9_linear_1602_18557" x1="0.0357789" y1="59.893" x2="170.139" y2="59.7639" gradientUnits="userSpaceOnUse">
<stop stop-color="#885DF5"/>
<stop offset="0.9888" stop-color="#2E3670"/>
</linearGradient>
<linearGradient id="paint10_linear_1602_18557" x1="156.579" y1="21.9435" x2="157.536" y2="19.3427" gradientUnits="userSpaceOnUse">
<stop stop-color="#885DF5"/>
<stop offset="0.9944" stop-color="#6B7CFE"/>
</linearGradient>
<linearGradient id="paint11_linear_1602_18557" x1="157.76" y1="27.4428" x2="160.454" y2="20.1207" gradientUnits="userSpaceOnUse">
<stop stop-color="#885DF5"/>
<stop offset="0.9944" stop-color="#6B7CFE"/>
</linearGradient>
<linearGradient id="paint12_linear_1602_18557" x1="43.6295" y1="59.8632" x2="199.761" y2="59.7447" gradientUnits="userSpaceOnUse">
<stop stop-color="#885DF5"/>
<stop offset="0.9944" stop-color="#4551A6"/>
</linearGradient>
<linearGradient id="paint13_linear_1602_18557" x1="171.249" y1="28.2525" x2="173.897" y2="21.0537" gradientUnits="userSpaceOnUse">
<stop stop-color="#885DF5"/>
<stop offset="0.9944" stop-color="#6B7CFE"/>
</linearGradient>
<linearGradient id="paint14_linear_1602_18557" x1="180.223" y1="29.2814" x2="182.956" y2="21.8542" gradientUnits="userSpaceOnUse">
<stop stop-color="#885DF5"/>
<stop offset="0.9944" stop-color="#6B7CFE"/>
</linearGradient>
<linearGradient id="paint15_linear_1602_18557" x1="84.6176" y1="76.5935" x2="199.77" y2="76.5061" gradientUnits="userSpaceOnUse">
<stop stop-color="#885DF5"/>
<stop offset="0.9944" stop-color="#5C6BDB"/>
</linearGradient>
<linearGradient id="paint16_linear_1602_18557" x1="83.2377" y1="155.286" x2="126.772" y2="36.9376" gradientUnits="userSpaceOnUse">
<stop stop-color="#885DF5"/>
<stop offset="0.9944" stop-color="#6B7CFE"/>
</linearGradient>
<linearGradient id="paint17_linear_1602_18557" x1="107.373" y1="95.7322" x2="199.788" y2="95.6621" gradientUnits="userSpaceOnUse">
<stop stop-color="#885DF5"/>
<stop offset="0.9944" stop-color="#6B7CFE"/>
</linearGradient>
</defs>
</svg>
