<svg width="200" height="120" viewBox="0 0 200 120" fill="none" xmlns="http://www.w3.org/2000/svg">
<path d="M199.998 11.3435V108.656C199.998 114.918 194.636 120 188.03 120H11.9678C5.3618 120 0 114.918 0 108.656V11.3435C0 5.08213 5.3618 0 11.9678 0H188.036C190.4 0 192.61 0.65141 194.459 1.78015C197.788 3.78492 199.998 7.32276 199.998 11.3435Z" fill="url(#paint0_linear_1602_18656)"/>
<path d="M200.001 11.3435V85.2337C181.19 91.9949 159.986 89.715 154.837 81.1287C151.063 74.8336 158.76 69.9256 156.621 58.3125C155.602 52.8092 152.93 48.7884 149.12 44.9923C144.019 39.8877 136.868 35.1987 128.982 27.8871C123.911 23.1869 111.481 11.6636 104.703 0H188.033C190.397 0 192.607 0.651411 194.461 1.78576C197.797 3.78492 200.001 7.31714 200.001 11.3435Z" fill="url(#paint1_linear_1602_18656)"/>
<path d="M199.996 36.9546V108.655C199.996 114.916 194.64 119.993 188.034 119.993H11.9658C5.35978 119.993 0.00390625 114.916 0.00390625 108.655V53.5993C3.45205 50.3647 7.48673 47.3379 12.185 44.7884C26.5108 36.9995 40.3567 37.5218 67.4619 38.8751C100.119 40.5037 102.417 45.8048 125.411 46.4787C134.873 46.7594 142.575 46.0968 149.115 44.9905C171.161 41.2112 179.894 32.2206 197.626 36.3369C198.414 36.5222 199.202 36.7244 199.996 36.9546Z" fill="url(#paint2_linear_1602_18656)"/>
<path d="M61.6104 0C58.3518 30.1502 32.2656 53.893 0 55.4485V11.3435C0 5.08213 5.3618 0 11.9678 0H61.6104Z" fill="url(#paint3_linear_1602_18656)"/>
<path opacity="0.33" d="M148.46 119.995H64.3359L100.678 85.5486C103.824 82.5723 108.966 82.5723 112.112 85.5486L148.46 119.995Z" fill="url(#paint4_linear_1602_18656)"/>
<path opacity="0.27" d="M199.998 107.327V108.653C199.998 114.914 194.636 119.996 188.03 119.996H11.9678C5.3618 119.996 0 114.914 0 108.653V64.0309C3.3178 62.3574 7.15105 61.0827 11.4464 60.6334C21.3998 59.6058 29.2085 63.5367 38.3799 68.2931C55.9701 77.4185 58.7369 84.6345 68.6844 90.632C87.821 102.172 103.545 91.143 136.024 91.9068C160.493 92.4908 186.478 99.5664 199.998 107.327Z" fill="url(#paint5_linear_1602_18656)"/>
<path opacity="0.53" d="M199.998 11.3435V108.656C199.998 114.918 194.636 120 188.03 120H11.9678C5.3618 120 0 114.918 0 108.656V11.3435C0 5.08213 5.3618 0 11.9678 0H188.036C190.4 0 192.61 0.65141 194.459 1.78015C197.788 3.78492 199.998 7.32276 199.998 11.3435Z" fill="url(#paint6_linear_1602_18656)"/>
<path d="M186.475 17.1641H184.496C183.88 17.1641 183.424 17.3269 183.151 17.8997L179.348 26.076H182.037C182.037 26.076 182.482 24.9754 182.577 24.7395H185.859C185.936 25.054 186.167 26.076 186.167 26.076H188.549L186.475 17.1641ZM183.317 22.9144C183.53 22.4034 184.33 20.4211 184.33 20.4211C184.33 20.4155 184.55 19.8989 184.674 19.5732L184.846 20.3425C184.846 20.3425 185.337 22.4652 185.438 22.9201H183.317V22.9144Z" fill="white"/>
<path d="M175.93 19.6337C175.924 20.0549 176.475 20.3301 177.375 20.74C178.851 21.3802 179.538 22.1439 179.526 23.1659C179.508 25.0135 177.76 26.2096 175.059 26.2096C173.909 26.1984 172.802 25.9794 172.203 25.7323L172.565 23.7331L172.896 23.8791C173.732 24.2104 174.283 24.3452 175.308 24.3452C176.042 24.3452 176.83 24.0701 176.836 23.4748C176.842 23.0817 176.504 22.8009 175.509 22.3629C174.532 21.9361 173.246 21.2229 173.258 19.9426C173.27 18.213 175.059 17 177.589 17C178.584 17 179.384 17.1965 179.887 17.3762L179.538 19.308L179.307 19.2069C178.833 19.0272 178.223 18.8532 177.387 18.8644C176.398 18.8644 175.93 19.2631 175.93 19.6337Z" fill="white"/>
<path d="M172.2 17.1562L170.595 26.0682H168.035L169.635 17.1562H172.2Z" fill="white"/>
<path d="M162.996 21.7486C162.143 19.6877 160.099 17.9749 157 17.2617L157.036 17.082H161.011C161.55 17.0989 161.983 17.2617 162.131 17.8064L162.996 21.7486Z" fill="white"/>
<path d="M168.604 17.1641L164.563 26.0648H161.855L159.562 18.6353C161.21 19.6349 162.614 21.2241 163.111 22.3304L163.384 23.2514L165.896 17.1697H168.604V17.1641Z" fill="white"/>
<path d="M45.3285 33.4543H25.3328C24.0516 33.4543 23 32.4575 23 31.2432V17.2111C23 15.9968 24.0516 15 25.3328 15H45.3285C46.6097 15 47.6613 15.9968 47.6613 17.2111V31.2432C47.6613 32.4575 46.6097 33.4543 45.3285 33.4543Z" fill="#F6C859"/>
<path d="M32.4887 30.9907C32.3851 30.9907 32.2814 30.9345 32.2369 30.8433C32.1629 30.7099 32.2221 30.5485 32.3628 30.4783C32.7776 30.2747 33.3404 29.9027 33.6663 29.2498C34.081 28.4215 33.9699 27.523 33.7996 27.4458C33.7551 27.4248 33.5848 27.509 33.4811 27.5581C33.2145 27.6915 32.8368 27.867 32.4073 27.7266C31.9851 27.5862 31.7778 27.2282 31.6815 27.0597C31.0372 25.9366 30.8372 23.0165 31.5186 21.5635C31.7482 21.0791 32.0518 20.7983 32.4369 20.7141C32.8294 20.6299 33.1479 20.7843 33.3997 20.9107C33.607 21.0159 33.7181 21.0581 33.7774 21.023C34.044 20.8685 34.0366 19.942 33.6663 19.2049C33.3404 18.5521 32.7776 18.1801 32.3628 17.9765C32.2221 17.9063 32.1703 17.7449 32.2369 17.6115C32.311 17.4781 32.4813 17.429 32.622 17.4922C33.1108 17.7308 33.7848 18.1801 34.1773 18.9733C34.5698 19.7524 34.7549 21.0932 34.0662 21.4863C33.7181 21.6828 33.3922 21.5214 33.1256 21.395C32.9257 21.2967 32.7405 21.2055 32.5554 21.2476C32.3036 21.3037 32.1333 21.5775 32.0296 21.7951C31.4297 23.0586 31.6 25.8243 32.1703 26.8141C32.2666 26.9825 32.3851 27.165 32.585 27.2282C32.7776 27.2914 32.9553 27.2142 33.2145 27.0878C33.4663 26.9685 33.7477 26.8281 34.044 26.9685C34.6809 27.2633 34.6438 28.5689 34.1773 29.4955C33.7848 30.2817 33.1108 30.738 32.622 30.9766C32.5776 30.9837 32.5332 30.9907 32.4887 30.9907Z" fill="#7D662D"/>
<path d="M31.6355 22.0514H26.4959C26.3403 22.0514 26.207 21.9321 26.207 21.7777C26.207 21.6232 26.3329 21.5039 26.4959 21.5039H31.6355C31.791 21.5039 31.9243 21.6232 31.9243 21.7777C31.9243 21.9321 31.791 22.0514 31.6355 22.0514Z" fill="#7D662D"/>
<path d="M31.6355 26.9303H26.4959C26.3403 26.9303 26.207 26.811 26.207 26.6566C26.207 26.5021 26.3329 26.3828 26.4959 26.3828H31.6355C31.791 26.3828 31.9243 26.5021 31.9243 26.6566C31.9243 26.811 31.791 26.9303 31.6355 26.9303Z" fill="#7D662D"/>
<path d="M38.4857 30.9882C38.4412 30.9882 38.3968 30.9812 38.3524 30.9601C37.8636 30.7214 37.1897 30.2722 36.7972 29.479C36.3306 28.5524 36.2936 27.2468 36.9305 26.9519C37.2267 26.8186 37.5081 26.9519 37.7599 27.0713C38.0191 27.1976 38.1968 27.2748 38.3894 27.2117C38.6042 27.1415 38.7301 26.9239 38.8041 26.7975C39.3744 25.8078 39.5447 23.0491 38.9448 21.7786C38.8412 21.561 38.6634 21.2872 38.419 21.231C38.2635 21.1959 38.1672 21.0485 38.2043 20.9081C38.2413 20.7607 38.3968 20.6765 38.5449 20.7046C38.93 20.7888 39.2337 21.0766 39.4632 21.561C40.1446 23.014 39.952 25.9341 39.3003 27.0572C39.204 27.2257 38.9967 27.5837 38.5745 27.7241C38.145 27.8645 37.7673 27.689 37.5007 27.5556C37.397 27.5065 37.2193 27.4223 37.1823 27.4433C37.0119 27.5205 36.9008 28.419 37.3156 29.2473C37.6414 29.9001 38.2043 30.2722 38.619 30.4757C38.7597 30.5459 38.8115 30.7074 38.7449 30.8408C38.693 30.932 38.5894 30.9882 38.4857 30.9882Z" fill="#7D662D"/>
<path d="M37.3464 20.9722C37.2279 20.9722 37.1168 20.902 37.0724 20.7897C36.4577 19.0489 37.8944 17.7081 38.3536 17.4835C38.4943 17.4133 38.6646 17.4695 38.7387 17.6029C38.8128 17.7362 38.7535 17.8977 38.6128 17.9679C38.4054 18.0661 37.0872 19.1401 37.613 20.6212C37.6649 20.7616 37.5834 20.9161 37.4353 20.9652C37.4057 20.9652 37.376 20.9722 37.3464 20.9722Z" fill="#7D662D"/>
<path d="M44.4831 22.0514H39.3435C39.188 22.0514 39.0547 21.9321 39.0547 21.7777C39.0547 21.6232 39.1806 21.5039 39.3435 21.5039H44.4831C44.6387 21.5039 44.772 21.6232 44.772 21.7777C44.772 21.9321 44.6461 22.0514 44.4831 22.0514Z" fill="#7D662D"/>
<path d="M44.4831 26.9303H39.3435C39.188 26.9303 39.0547 26.811 39.0547 26.6566C39.0547 26.5021 39.1806 26.3828 39.3435 26.3828H44.4831C44.6387 26.3828 44.772 26.5021 44.772 26.6566C44.772 26.811 44.6461 26.9303 44.4831 26.9303Z" fill="#7D662D"/>
<path d="M37.3149 88.4844H17V95.4359H37.3149V88.4844Z" fill="#84B740"/>
<path d="M37.3149 79H17V85.9577H37.3149V79Z" fill="#259BD6"/>
<path d="M57.6287 94.0255L57.5383 94.0441C57.2246 94.106 57.11 94.1308 56.8808 94.1308C56.35 94.1308 55.7227 93.852 55.7227 92.5385C55.7227 91.8632 55.8313 90.9648 56.8205 90.9648H56.8265C56.9954 90.9772 57.1884 90.9958 57.5503 91.1073L57.6287 91.1321V94.0255ZM57.7916 87.4767L57.6287 87.5077V89.9364L57.484 89.893L57.4418 89.8806C57.2789 89.831 56.9049 89.7195 56.543 89.7195C54.5646 89.7195 54.1484 91.256 54.1484 92.5447C54.1484 94.3105 55.1135 95.3266 56.7964 95.3266C57.5081 95.3266 58.0329 95.2522 58.5637 95.0725C59.0522 94.9115 59.2272 94.6822 59.2272 94.1928V87.2227C58.7567 87.3094 58.2681 87.3961 57.7916 87.4767Z" fill="#27292D"/>
<path d="M63.5095 94.0678L63.425 94.0926L63.1235 94.1732C62.84 94.2475 62.5866 94.2909 62.3936 94.2909C61.9292 94.2909 61.6517 94.0554 61.6517 93.6527C61.6517 93.3925 61.7663 92.9526 62.5263 92.9526H63.5095V94.0678ZM62.8158 89.6875C62.2066 89.6875 61.5793 89.799 60.8012 90.0468L60.2946 90.2017L60.4635 91.3789L60.9581 91.2116C61.4768 91.0382 62.1222 90.9266 62.6047 90.9266C62.8219 90.9266 63.4854 90.9266 63.4854 91.6639V91.9861H62.5625C60.8797 91.9861 60.1016 92.5375 60.1016 93.7209C60.1016 94.7308 60.8193 95.3379 62.0257 95.3379C62.3996 95.3379 62.9184 95.2636 63.3647 95.1521L63.3889 95.1459L63.413 95.1521L63.5638 95.1769C64.0342 95.2636 64.5228 95.3503 64.9993 95.4433V91.5772C64.9993 90.3257 64.2635 89.6875 62.8158 89.6875Z" fill="#27292D"/>
<path d="M51.7907 94.0678L51.7063 94.0926L51.4047 94.1732C51.1212 94.2475 50.8739 94.2909 50.6749 94.2909C50.2104 94.2909 49.933 94.0554 49.933 93.6527C49.933 93.3925 50.0476 92.9526 50.8015 92.9526H51.7847V94.0678H51.7907ZM51.1031 89.6875C50.4879 89.6875 49.8666 89.799 49.0885 90.0468L48.5819 90.2017L48.7507 91.3789L49.2453 91.2116C49.7641 91.0382 50.4095 90.9266 50.892 90.9266C51.1092 90.9266 51.7726 90.9266 51.7726 91.6639V91.9861H50.8498C49.1669 91.9861 48.3828 92.5375 48.3828 93.7209C48.3828 94.7308 49.1006 95.3379 50.313 95.3379C50.6869 95.3379 51.2057 95.2636 51.652 95.1521L51.6761 95.1459L51.7003 95.1521L51.845 95.1768C52.3215 95.2636 52.8041 95.3503 53.2806 95.4495V91.5834C53.2866 90.3195 52.5507 89.6875 51.1031 89.6875Z" fill="#27292D"/>
<path d="M45.439 89.7015C44.673 89.7015 44.0397 89.9617 43.8044 90.0732L43.7441 90.1042L43.6898 90.0609C43.3641 89.8192 42.8876 89.6953 42.2241 89.6953C41.639 89.6953 41.0901 89.7821 40.493 89.9617C39.9803 90.1228 39.7812 90.3768 39.7812 90.8539V95.2714H41.3857V91.1885L41.4641 91.1637C41.7898 91.0522 41.9828 91.0336 42.1698 91.0336C42.6343 91.0336 42.8695 91.2876 42.8695 91.7832V95.2776H44.4498V91.7151C44.4498 91.5044 44.4076 91.3805 44.4016 91.3557L44.3473 91.2504L44.4558 91.2009C44.6971 91.0893 44.9625 91.0336 45.24 91.0336C45.5596 91.0336 45.9396 91.1637 45.9396 91.7832V95.2776H47.5139V91.6222C47.5139 90.3273 46.8384 89.7015 45.439 89.7015Z" fill="#27292D"/>
<path d="M62.3292 83.5352C62.094 83.5352 61.7019 83.5104 61.3943 83.4485L61.3038 83.4299V81.0446C61.3038 80.8463 61.2676 80.7224 61.2616 80.7038L61.2133 80.6047L61.3159 80.5613C61.34 80.5489 61.3641 80.5427 61.3943 80.5303L61.4124 80.5179C61.4486 80.5055 61.4848 80.4932 61.5209 80.4808C61.539 80.4746 61.5511 80.4684 61.5632 80.4684C61.919 80.3692 62.2447 80.3816 62.3895 80.3692H62.3955C63.3787 80.3692 63.4933 81.2676 63.4933 81.9429C63.4873 83.2564 62.854 83.5352 62.3292 83.5352ZM62.3232 79C62.3111 79 62.293 79 62.2809 79C61.3581 79 60.4111 79.2602 60.0733 79.7683C59.8924 80.0161 59.7898 80.3259 59.7838 80.6914V83.1511C59.7838 83.3617 59.7416 83.4423 59.7355 83.4609L59.6813 83.5662H56.7679V81.8562H56.7619C56.7257 80.0533 55.6883 79.062 54.1864 79.062H54.0114H52.7206C52.6603 79.5018 52.6121 79.8116 52.5518 80.2515H54.0114C54.7775 80.2515 55.1816 80.9207 55.1816 81.9491V83.6715L55.0791 83.6158C55.061 83.6096 54.9343 83.5662 54.7352 83.5662H52.214C52.1657 83.8946 52.1054 84.3221 52.0391 84.7496H59.7898C60.0552 84.6938 60.3629 84.6442 60.6282 84.6009C61.0203 84.7991 61.7501 84.9045 62.2508 84.9045C63.9336 84.9045 65.0254 83.7459 65.0254 81.9615C65.0193 80.1958 63.9638 79.0372 62.3232 79Z" fill="#27292D"/>
<path d="M48.7323 85.4727H48.8047C50.4876 85.4727 51.2717 84.9027 51.2717 83.4963C51.2717 82.4864 50.5539 81.681 49.3476 81.681H47.7974C47.333 81.681 47.0555 81.4084 47.0555 80.9499C47.0555 80.6401 47.1701 80.256 47.9301 80.256H51.3199C51.3923 79.8037 51.4285 79.5187 51.4949 79.0664H47.9723C46.3317 79.0664 45.5054 79.7727 45.5054 80.9499C45.5054 82.1147 46.2231 82.7218 47.4295 82.7218H48.9796C49.4441 82.7218 49.7215 83.0998 49.7215 83.4963C49.7215 83.7565 49.6069 84.2955 48.853 84.2955H48.5936L43.6295 84.2831H42.7247C41.9587 84.2831 41.4219 83.8371 41.4219 82.8024V82.0899C41.4219 81.0118 41.8381 80.3427 42.7247 80.3427H44.1965C44.2628 79.8842 44.305 79.593 44.3654 79.1593H42.5317H42.3568C40.8549 79.1593 39.8174 80.194 39.7812 81.997V82.0651V82.8024C39.8174 84.6053 40.8549 85.4665 42.3568 85.4665H42.5317H43.8225L46.5127 85.4727H48.1171H48.7323Z" fill="#27292D"/>
<defs>
<linearGradient id="paint0_linear_1602_18656" x1="21.8574" y1="134.066" x2="169.778" y2="-21.9953" gradientUnits="userSpaceOnUse">
<stop stop-color="#1B1464"/>
<stop offset="1" stop-color="#83EFFF"/>
</linearGradient>
<linearGradient id="paint1_linear_1602_18656" x1="133.021" y1="60.9376" x2="191.824" y2="-1.10199" gradientUnits="userSpaceOnUse">
<stop stop-color="#83EFFF"/>
<stop offset="1" stop-color="#1B1464"/>
</linearGradient>
<linearGradient id="paint2_linear_1602_18656" x1="34.2417" y1="145.802" x2="167.029" y2="5.70779" gradientUnits="userSpaceOnUse">
<stop stop-color="#1B1464"/>
<stop offset="1" stop-color="#83EFFF"/>
</linearGradient>
<linearGradient id="paint3_linear_1602_18656" x1="-6.92639" y1="48.8814" x2="49.9129" y2="-11.0858" gradientUnits="userSpaceOnUse">
<stop stop-color="#1B1464"/>
<stop offset="1" stop-color="#83EFFF"/>
</linearGradient>
<linearGradient id="paint4_linear_1602_18656" x1="85.368" y1="139.93" x2="125.177" y2="97.9298" gradientUnits="userSpaceOnUse">
<stop stop-color="#02B6FD"/>
<stop offset="1" stop-color="#83EFFF"/>
</linearGradient>
<linearGradient id="paint5_linear_1602_18656" x1="36.9932" y1="148.414" x2="134.648" y2="45.3852" gradientUnits="userSpaceOnUse">
<stop stop-color="#1B1464"/>
<stop offset="1" stop-color="#83EFFF"/>
</linearGradient>
<linearGradient id="paint6_linear_1602_18656" x1="21.8574" y1="134.066" x2="169.778" y2="-21.9953" gradientUnits="userSpaceOnUse">
<stop stop-color="#02CAFD"/>
<stop offset="1" stop-color="#83F8A6"/>
</linearGradient>
</defs>
</svg>
