<svg width="60" height="60" viewBox="0 0 60 60" fill="none" xmlns="http://www.w3.org/2000/svg">
<path d="M30 0C13.4347 0 0 13.4274 0 30C0 46.5726 13.4347 60 30 60C46.5702 60 60 46.5726 60 30C60 13.4274 46.5726 0 30 0ZM30 7.29749C34.5001 7.29749 38.6889 8.6305 42.2209 10.8976L10.8976 42.2209C8.54654 38.5786 7.2965 34.3352 7.29749 30C7.29749 17.4824 17.4824 7.29749 30 7.29749ZM30 52.7025C25.665 52.7021 21.422 51.4522 17.7791 49.1024L49.1 17.7791C51.451 21.4214 52.7011 25.6648 52.7001 30C52.7001 42.5176 42.5176 52.7025 30 52.7025Z" fill="#FF5A54"/>
</svg>
