<svg width="50" height="50" viewBox="0 0 50 50" fill="none" xmlns="http://www.w3.org/2000/svg">
<path d="M35.9375 29.6875V42.1875M29.6875 35.9375H42.1875M23.4375 35.9375C23.4375 39.2527 24.7545 42.4321 27.0987 44.7763C29.4429 47.1205 32.6223 48.4375 35.9375 48.4375C39.2527 48.4375 42.4321 47.1205 44.7763 44.7763C47.1205 42.4321 48.4375 39.2527 48.4375 35.9375C48.4375 32.6223 47.1205 29.4429 44.7763 27.0987C42.4321 24.7545 39.2527 23.4375 35.9375 23.4375C32.6223 23.4375 29.4429 24.7545 27.0987 27.0987C24.7545 29.4429 23.4375 32.6223 23.4375 35.9375Z" stroke="#022466" stroke-width="1.5" stroke-linecap="round" stroke-linejoin="round"/>
<path d="M17.1875 32.8125H4.6875C3.8587 32.8125 3.06384 32.4833 2.47779 31.8972C1.89174 31.3112 1.5625 30.5163 1.5625 29.6875V4.6875C1.5625 3.8587 1.89174 3.06384 2.47779 2.47779C3.06384 1.89174 3.8587 1.5625 4.6875 1.5625H42.1875C43.0163 1.5625 43.8112 1.89174 44.3972 2.47779C44.9833 3.06384 45.3125 3.8587 45.3125 4.6875V18.75" stroke="#022466" stroke-width="1.5" stroke-linecap="round" stroke-linejoin="round"/>
<path d="M44.607 2.70703L27.6404 15.757C26.4353 16.6831 24.9581 17.1852 23.4383 17.1852C21.9185 17.1852 20.4412 16.6831 19.2362 15.757L2.26953 2.70703" stroke="#022466" stroke-width="1.5" stroke-linecap="round" stroke-linejoin="round"/>
</svg>
