<svg width="50" height="50" viewBox="0 0 50 50" fill="none" xmlns="http://www.w3.org/2000/svg">
<path d="M24.9987 45.8346C23.8529 45.8346 22.8723 45.427 22.057 44.6117C21.2418 43.7964 20.8334 42.8152 20.832 41.668H29.1654C29.1654 42.8138 28.7577 43.7951 27.9425 44.6117C27.1272 45.4284 26.1459 45.836 24.9987 45.8346ZM10.4154 39.5846C9.82509 39.5846 9.33065 39.3846 8.93204 38.9846C8.53343 38.5846 8.33343 38.0902 8.33204 37.5013C8.33065 36.9124 8.53065 36.418 8.93204 36.018C9.33343 35.618 9.82787 35.418 10.4154 35.418H12.4987V20.8346C12.4987 18.8207 12.9327 16.9457 13.8008 15.2096C14.6688 13.4735 15.8668 12.0326 17.3945 10.8867C18.1584 10.2964 18.957 10.2353 19.7904 10.7034C20.6237 11.1714 20.9883 11.9964 20.8841 13.1784C20.8494 13.3867 20.832 13.6207 20.832 13.8805V14.5846C20.832 18.6819 22.2473 22.1457 25.0779 24.9763C27.9084 27.8069 31.3543 29.2214 35.4154 29.2201C36.0057 29.2201 36.5008 29.4027 36.9008 29.768C37.3008 30.1332 37.5001 30.593 37.4987 31.1471V35.418H39.582C40.1723 35.418 40.6675 35.618 41.0675 36.018C41.4675 36.418 41.6668 36.9124 41.6654 37.5013C41.664 38.0902 41.464 38.5853 41.0654 38.9867C40.6668 39.3881 40.1723 39.5874 39.582 39.5846H10.4154ZM34.9987 25.0013C34.5126 25.0013 34.0876 24.8451 33.7237 24.5326C33.3598 24.2201 33.1251 23.8207 33.0195 23.3346L32.707 21.8763C32.2904 21.7027 31.9001 21.5207 31.5362 21.3305C31.1723 21.1402 30.7987 20.9055 30.4154 20.6263L28.905 21.0951C28.4536 21.2339 28.0112 21.2166 27.5779 21.043C27.1445 20.8694 26.8057 20.5916 26.5612 20.2096L26.1445 19.4805C25.9015 19.0638 25.8147 18.6124 25.8841 18.1263C25.9536 17.6402 26.1793 17.2409 26.5612 16.9284L27.707 15.9388C27.6376 15.4874 27.6029 15.036 27.6029 14.5846C27.6029 14.1332 27.6376 13.6819 27.707 13.2305L26.5612 12.2409C26.1793 11.9284 25.9536 11.5381 25.8841 11.0701C25.8147 10.602 25.9015 10.1589 26.1445 9.74089L26.6133 8.95964C26.8563 8.57769 27.1862 8.29991 27.6029 8.1263C28.0195 7.95269 28.4536 7.93533 28.905 8.07422L30.4154 8.54297C30.7973 8.26519 31.1709 8.03116 31.5362 7.84089C31.9015 7.65061 32.2918 7.46797 32.707 7.29297L33.0195 5.78255C33.1237 5.29644 33.3584 4.90616 33.7237 4.61172C34.089 4.31727 34.514 4.16936 34.9987 4.16797H35.832C36.3182 4.16797 36.7438 4.32422 37.1091 4.63672C37.4744 4.94922 37.7084 5.34852 37.8112 5.83464L38.1237 7.29297C38.5404 7.46658 38.9307 7.64922 39.2945 7.84089C39.6584 8.03255 40.032 8.26658 40.4154 8.54297L41.9258 8.07422C42.3772 7.93533 42.8202 7.95269 43.255 8.1263C43.6897 8.29991 44.0279 8.57769 44.2695 8.95964L44.6862 9.6888C44.9293 10.1055 45.0161 10.5569 44.9466 11.043C44.8772 11.5291 44.6515 11.9284 44.2695 12.2409L43.1237 13.2305C43.1932 13.6819 43.2279 14.1332 43.2279 14.5846C43.2279 15.036 43.1932 15.4874 43.1237 15.9388L44.2695 16.9284C44.6515 17.2409 44.8772 17.6319 44.9466 18.1013C45.0161 18.5707 44.9293 19.0131 44.6862 19.4284L44.2175 20.2096C43.9744 20.5916 43.6445 20.8694 43.2279 21.043C42.8112 21.2166 42.3772 21.2339 41.9258 21.0951L40.4154 20.6263C40.0334 20.9041 39.6605 21.1388 39.2966 21.3305C38.9327 21.5221 38.5418 21.7041 38.1237 21.8763L37.8112 23.3867C37.707 23.8728 37.473 24.2638 37.1091 24.5596C36.7452 24.8555 36.3195 25.0027 35.832 25.0013H34.9987ZM35.4154 18.7513C36.5612 18.7513 37.5425 18.3437 38.3591 17.5284C39.1758 16.7131 39.5834 15.7319 39.582 14.5846C39.5807 13.4374 39.173 12.4569 38.3591 11.643C37.5452 10.8291 36.564 10.4207 35.4154 10.418C34.2668 10.4152 33.2862 10.8235 32.4737 11.643C31.6612 12.4624 31.2529 13.443 31.2487 14.5846C31.2445 15.7263 31.6529 16.7076 32.4737 17.5284C33.2945 18.3492 34.2751 18.7569 35.4154 18.7513Z" fill="url(#paint0_linear_749_22081)"/>
<defs>
<linearGradient id="paint0_linear_749_22081" x1="26.6509" y1="4.16797" x2="26.6509" y2="45.8346" gradientUnits="userSpaceOnUse">
<stop stop-color="#022466"/>
<stop offset="1" stop-color="#00BDFF"/>
</linearGradient>
</defs>
</svg>
